<svg width="52" height="48" viewBox="0 0 52 48" fill="none" xmlns="http://www.w3.org/2000/svg">
<path d="M47.2002 10.3999H50.4002V31.1999H7.2002V27.9999" stroke="#7DE2D1" stroke-linejoin="round"/>
<path d="M44 7.19995H47.2V28H4V24.8" stroke="#7DE2D1" stroke-linejoin="round"/>
<path d="M0.799805 4H43.9998V24.8H0.799805V4Z" stroke="#7DE2D1" stroke-linejoin="round"/>
<path d="M38.4 21.6H6.4L4 19.2V9.59995L6.4 7.19995H38.4L40.8 9.59995V19.2L38.4 21.6Z" stroke="#7DE2D1" stroke-linejoin="round"/>
<path d="M14.3998 14.3999H12.7998" stroke="#7DE2D1" stroke-linejoin="round"/>
<path d="M11.1996 14.3999H9.59961" stroke="#7DE2D1" stroke-linejoin="round"/>
<path d="M35.1996 14.3999H33.5996" stroke="#222829" stroke-linejoin="round"/>
<path d="M31.9994 14.3999H30.3994" stroke="#222829" stroke-linejoin="round"/>
<path d="M25.2278 11.5717C26.7899 13.1338 26.7899 15.6665 25.2278 17.2286C23.6657 18.7907 21.1331 18.7907 19.571 17.2286C18.0089 15.6665 18.0089 13.1338 19.571 11.5717C21.1331 10.0096 23.6657 10.0096 25.2278 11.5717Z" stroke="#7DE2D1" stroke-linejoin="round"/>
</svg>
