<svg width="52" height="48" viewBox="0 0 52 48" fill="none" xmlns="http://www.w3.org/2000/svg">
<path d="M47.1997 10.4H50.3997V31.2H7.19971V28" stroke="#7DE2D1" stroke-linejoin="round"/>
<path d="M44 7.19995H47.2V28H4V24.8" stroke="#7DE2D1" stroke-linejoin="round"/>
<path d="M0.799805 4H43.9998V24.8H0.799805V4Z" stroke="#7DE2D1" stroke-linejoin="round"/>
<path d="M38.4 21.6H6.4L4 19.2V9.59995L6.4 7.19995H38.4L40.8 9.59995V19.2L38.4 21.6Z" stroke="#7DE2D1" stroke-linejoin="round"/>
<path d="M14.3998 14.4H12.7998" stroke="#7DE2D1" stroke-linejoin="round"/>
<path d="M11.1996 14.4H9.59961" stroke="#7DE2D1" stroke-linejoin="round"/>
<path d="M35.1996 14.4H33.5996" stroke="#222829" stroke-linejoin="round"/>
<path d="M31.9999 14.4H30.3999" stroke="#222829" stroke-linejoin="round"/>
<path d="M25.2283 11.5716C26.7904 13.1337 26.7904 15.6664 25.2283 17.2284C23.6662 18.7905 21.1336 18.7905 19.5715 17.2284C18.0094 15.6664 18.0094 13.1337 19.5715 11.5716C21.1336 10.0095 23.6662 10.0095 25.2283 11.5716Z" stroke="#7DE2D1" stroke-linejoin="round"/>
</svg>
