<svg xmlns="http://www.w3.org/2000/svg" xmlns:xlink="http://www.w3.org/1999/xlink" viewBox="0 0 533.48 704.94"><defs><style>.cls-1{fill:none;}.cls-2{fill:url(#linear-gradient);}.cls-3{fill:url(#linear-gradient-2);}.cls-4{fill:url(#linear-gradient-3);}.cls-5{fill:url(#linear-gradient-4);}.cls-6{fill:url(#linear-gradient-5);}.cls-7{fill:url(#linear-gradient-6);}.cls-8{fill:url(#linear-gradient-7);}.cls-9{fill:url(#linear-gradient-8);}.cls-10{fill:url(#linear-gradient-9);}.cls-11{fill:url(#linear-gradient-10);}.cls-12{fill:url(#linear-gradient-11);}.cls-13{fill:url(#linear-gradient-12);}.cls-14{fill:url(#linear-gradient-13);}.cls-15{fill:url(#linear-gradient-14);}.cls-16{fill:url(#linear-gradient-15);}.cls-17{fill:url(#linear-gradient-16);}.cls-18{fill:url(#linear-gradient-17);}.cls-19{fill:url(#linear-gradient-18);}.cls-20{fill:url(#linear-gradient-19);}.cls-21{fill:url(#linear-gradient-20);}.cls-22{fill:url(#linear-gradient-21);}.cls-23{fill:url(#linear-gradient-22);}.cls-24{fill:url(#linear-gradient-23);}.cls-25{fill:url(#linear-gradient-24);}.cls-26{fill:url(#linear-gradient-25);}.cls-27{fill:url(#linear-gradient-26);}.cls-28{fill:url(#linear-gradient-27);}.cls-29{fill:url(#linear-gradient-28);}.cls-30{fill:url(#linear-gradient-29);}.cls-31{fill:url(#linear-gradient-30);}.cls-32{fill:url(#linear-gradient-31);}.cls-33{fill:url(#linear-gradient-32);}.cls-34{fill:url(#linear-gradient-33);}.cls-35{fill:url(#linear-gradient-34);}.cls-36{fill:url(#linear-gradient-35);}.cls-37{fill:url(#linear-gradient-36);}.cls-38{fill:url(#linear-gradient-37);}.cls-39{fill:url(#linear-gradient-38);}.cls-40{fill:url(#linear-gradient-39);}.cls-41{fill:url(#linear-gradient-40);}.cls-42{fill:url(#linear-gradient-41);}.cls-43{fill:url(#linear-gradient-42);}.cls-44{fill:url(#linear-gradient-43);}.cls-45{fill:url(#linear-gradient-44);}.cls-46{fill:url(#linear-gradient-45);}.cls-47{fill:url(#linear-gradient-46);}.cls-48{fill:url(#linear-gradient-47);}.cls-49{fill:url(#linear-gradient-48);}.cls-50{fill:url(#linear-gradient-49);}.cls-51{fill:url(#linear-gradient-50);}.cls-52{fill:url(#linear-gradient-51);}.cls-53{fill:url(#linear-gradient-52);}.cls-54{fill:url(#linear-gradient-53);}.cls-55{fill:url(#linear-gradient-54);}.cls-56{fill:url(#linear-gradient-55);}.cls-57{fill:url(#linear-gradient-56);}.cls-58{fill:url(#linear-gradient-57);}</style><linearGradient id="linear-gradient" x1="3214.71" y1="-8439.58" x2="3747.2" y2="-5366.95" gradientTransform="matrix(0.99, -0.17, -0.17, -0.99, -4090.48, -5722.02)" gradientUnits="userSpaceOnUse"><stop offset="0.45" stop-color="#7de2d1"/><stop offset="0.48" stop-color="#7fc5d3"/><stop offset="0.55" stop-color="#8190d7"/><stop offset="0.62" stop-color="#8464db"/><stop offset="0.69" stop-color="#8642de"/><stop offset="0.75" stop-color="#872adf"/><stop offset="0.81" stop-color="#881be1"/><stop offset="0.85" stop-color="#8816e1"/></linearGradient><linearGradient id="linear-gradient-2" x1="3207.83" y1="-8437.63" x2="3740.32" y2="-5365" xlink:href="#linear-gradient"/><linearGradient id="linear-gradient-3" x1="3200.41" y1="-8435.73" x2="3732.98" y2="-5362.66" xlink:href="#linear-gradient"/><linearGradient id="linear-gradient-4" x1="3192.05" y1="-8433.67" x2="3724.72" y2="-5360.02" xlink:href="#linear-gradient"/><linearGradient id="linear-gradient-5" x1="3185.13" y1="-8432.16" x2="3717.93" y2="-5357.79" xlink:href="#linear-gradient"/><linearGradient id="linear-gradient-6" x1="3179.4" y1="-8430.56" x2="3712.27" y2="-5355.75" xlink:href="#linear-gradient"/><linearGradient id="linear-gradient-7" x1="3174.32" y1="-8428.92" x2="3707.19" y2="-5354.11" xlink:href="#linear-gradient"/><linearGradient id="linear-gradient-8" x1="3168.89" y1="-8427.36" x2="3701.84" y2="-5352.12" xlink:href="#linear-gradient"/><linearGradient id="linear-gradient-9" x1="3164.08" y1="-8425.93" x2="3697.13" y2="-5350.1" xlink:href="#linear-gradient"/><linearGradient id="linear-gradient-10" x1="3158.78" y1="-8424.69" x2="3691.95" y2="-5348.14" xlink:href="#linear-gradient"/><linearGradient id="linear-gradient-11" x1="3152.91" y1="-8422.92" x2="3686.08" y2="-5346.37" xlink:href="#linear-gradient"/><linearGradient id="linear-gradient-12" x1="3146.62" y1="-8421.21" x2="3679.86" y2="-5344.23" xlink:href="#linear-gradient"/><linearGradient id="linear-gradient-13" x1="3139.69" y1="-8419.41" x2="3673.01" y2="-5341.98" xlink:href="#linear-gradient"/><linearGradient id="linear-gradient-14" x1="3131.91" y1="-8417.45" x2="3665.33" y2="-5339.44" xlink:href="#linear-gradient"/><linearGradient id="linear-gradient-15" x1="3123.59" y1="-8415.54" x2="3657.11" y2="-5336.96" xlink:href="#linear-gradient"/><linearGradient id="linear-gradient-16" x1="3114.51" y1="-8413.37" x2="3648.06" y2="-5334.63" xlink:href="#linear-gradient"/><linearGradient id="linear-gradient-17" x1="3106.23" y1="-8411.32" x2="3639.85" y2="-5332.15" xlink:href="#linear-gradient"/><linearGradient id="linear-gradient-18" x1="3096.62" y1="-8409.04" x2="3630.32" y2="-5329.44" xlink:href="#linear-gradient"/><linearGradient id="linear-gradient-19" x1="3087.17" y1="-8406.79" x2="3620.94" y2="-5326.75" xlink:href="#linear-gradient"/><linearGradient id="linear-gradient-20" x1="3008.67" y1="-8392.73" x2="3542.52" y2="-5312.25" xlink:href="#linear-gradient"/><linearGradient id="linear-gradient-21" x1="3078.59" y1="-8404.85" x2="3612.45" y2="-5324.37" xlink:href="#linear-gradient"/><linearGradient id="linear-gradient-22" x1="3069.78" y1="-8402.71" x2="3603.7" y2="-5321.8" xlink:href="#linear-gradient"/><linearGradient id="linear-gradient-23" x1="3000.62" y1="-8390.73" x2="3534.55" y2="-5309.81" xlink:href="#linear-gradient"/><linearGradient id="linear-gradient-24" x1="3059.54" y1="-8400.32" x2="3593.54" y2="-5318.98" xlink:href="#linear-gradient"/><linearGradient id="linear-gradient-25" x1="2990.89" y1="-8388.43" x2="3524.89" y2="-5307.08" xlink:href="#linear-gradient"/><linearGradient id="linear-gradient-26" x1="3051.33" y1="-8398.3" x2="3585.41" y2="-5316.51" xlink:href="#linear-gradient"/><linearGradient id="linear-gradient-27" x1="2982.58" y1="-8386.38" x2="3516.66" y2="-5304.6" xlink:href="#linear-gradient"/><linearGradient id="linear-gradient-28" x1="2973.15" y1="-8383.99" x2="3507.23" y2="-5302.2" xlink:href="#linear-gradient"/><linearGradient id="linear-gradient-29" x1="3042.31" y1="-8395.98" x2="3576.39" y2="-5314.19" xlink:href="#linear-gradient"/><linearGradient id="linear-gradient-30" x1="3033.9" y1="-8394.2" x2="3568.13" y2="-5311.55" xlink:href="#linear-gradient"/><linearGradient id="linear-gradient-31" x1="2964.2" y1="-8382.12" x2="3498.43" y2="-5299.47" xlink:href="#linear-gradient"/><linearGradient id="linear-gradient-32" x1="2956.02" y1="-8379.8" x2="3490.18" y2="-5297.58" xlink:href="#linear-gradient"/><linearGradient id="linear-gradient-33" x1="3026.05" y1="-8391.94" x2="3560.2" y2="-5309.72" xlink:href="#linear-gradient"/><linearGradient id="linear-gradient-34" x1="3018.53" y1="-8390.03" x2="3552.68" y2="-5307.81" xlink:href="#linear-gradient"/><linearGradient id="linear-gradient-35" x1="2947.4" y1="-8377.7" x2="3481.56" y2="-5295.48" xlink:href="#linear-gradient"/><linearGradient id="linear-gradient-36" x1="3011.95" y1="-8387.97" x2="3546.03" y2="-5306.19" xlink:href="#linear-gradient"/><linearGradient id="linear-gradient-37" x1="3006.24" y1="-8386.23" x2="3540.32" y2="-5304.44" xlink:href="#linear-gradient"/><linearGradient id="linear-gradient-38" x1="3000.79" y1="-8384.68" x2="3534.87" y2="-5302.89" xlink:href="#linear-gradient"/><linearGradient id="linear-gradient-39" x1="2995.89" y1="-8382.92" x2="3529.89" y2="-5301.57" xlink:href="#linear-gradient"/><linearGradient id="linear-gradient-40" x1="2980.01" y1="-8379.56" x2="3514.02" y2="-5298.21" xlink:href="#linear-gradient"/><linearGradient id="linear-gradient-41" x1="2971.98" y1="-8377.26" x2="3505.9" y2="-5296.35" xlink:href="#linear-gradient"/><linearGradient id="linear-gradient-42" x1="2964.48" y1="-8375.35" x2="3498.41" y2="-5294.44" xlink:href="#linear-gradient"/><linearGradient id="linear-gradient-43" x1="2800.13" y1="-8346.87" x2="3334.06" y2="-5265.96" xlink:href="#linear-gradient"/><linearGradient id="linear-gradient-44" x1="2957.24" y1="-8373.19" x2="3491.09" y2="-5292.71" xlink:href="#linear-gradient"/><linearGradient id="linear-gradient-45" x1="2800.71" y1="-8346.07" x2="3334.57" y2="-5265.58" xlink:href="#linear-gradient"/><linearGradient id="linear-gradient-46" x1="2879.27" y1="-8359.07" x2="3413.13" y2="-5278.59" xlink:href="#linear-gradient"/><linearGradient id="linear-gradient-47" x1="2872.48" y1="-8356.98" x2="3406.25" y2="-5276.94" xlink:href="#linear-gradient"/><linearGradient id="linear-gradient-48" x1="2865.51" y1="-8354.87" x2="3399.21" y2="-5275.26" xlink:href="#linear-gradient"/><linearGradient id="linear-gradient-49" x1="2956.71" y1="-8370.07" x2="3490.41" y2="-5290.46" xlink:href="#linear-gradient"/><linearGradient id="linear-gradient-50" x1="2794.34" y1="-8341.93" x2="3328.04" y2="-5262.32" xlink:href="#linear-gradient"/><linearGradient id="linear-gradient-51" x1="2783.26" y1="-8339.1" x2="3316.89" y2="-5259.93" xlink:href="#linear-gradient"/><linearGradient id="linear-gradient-52" x1="2960.27" y1="-8369.77" x2="3493.89" y2="-5290.6" xlink:href="#linear-gradient"/><linearGradient id="linear-gradient-53" x1="2797.03" y1="-8340.87" x2="3330.65" y2="-5261.71" xlink:href="#linear-gradient"/><linearGradient id="linear-gradient-54" x1="2962.14" y1="-8369.49" x2="3495.76" y2="-5290.32" xlink:href="#linear-gradient"/><linearGradient id="linear-gradient-55" x1="2964.23" y1="-8368.95" x2="3497.78" y2="-5290.21" xlink:href="#linear-gradient"/><linearGradient id="linear-gradient-56" x1="2784.9" y1="-8337.87" x2="3318.45" y2="-5259.13" xlink:href="#linear-gradient"/><linearGradient id="linear-gradient-57" x1="2967.31" y1="-8369.02" x2="3500.94" y2="-5289.85" xlink:href="#linear-gradient"/></defs><title>about - A</title><g id="Layer_2" data-name="Layer 2"><g id="Layer_1-2" data-name="Layer 1"><path class="cls-1" d="M69.76,659.79a311.19,311.19,0,0,0-7.65,38,40.54,40.54,0,0,0,12.57-14.56c1.33-6.49,2.94-13.31,4.88-20.51,9.56-35.21,21.16-58.12,33.36-76.19l13.37-34-1.5,1.83C105.06,578.32,84.65,603.16,69.76,659.79Z"/><path class="cls-1" d="M57.81,656.5a299.31,299.31,0,0,0-8.36,47.16A39,39,0,0,0,61,698.5a311.21,311.21,0,0,1,7.79-39c14.95-56.85,35.43-81.77,55.23-105.87l3.47-4.22,8-20.45h.31l15-38c-11.88,26.64-25.45,43.35-38.72,59.67C92.54,574.74,72.28,599.67,57.81,656.5Z"/><path class="cls-1" d="M76.65,678.73,111.14,591C100,608.39,89.36,630.39,80.53,662.93Q78.31,671.15,76.65,678.73Z"/><path class="cls-1" d="M111.37,550c19.6-24.11,39.86-49,54.33-105.85l4.37-14c22.87-54.05,21.8-86.16,20.78-117.21s-2.11-63.37,20.83-117.58S258.9,118.2,282.37,96c5.48-5.17,11-10.39,16.53-16l-3.27-8C288,80.13,280.4,87.24,272.88,94.26c-23.59,22-48,44.79-71.19,98.77-23,53.85-22.24,85.86-21.47,116.82.78,31.14,1.59,63.34-21.76,117.64l-3.6,11.72C140.62,496.54,120.51,521.7,101.05,546S61.71,595.22,47.49,652A290.21,290.21,0,0,0,39,704.92l.65,0a38.27,38.27,0,0,0,8.78-1,299.65,299.65,0,0,1,8.41-47.66C71.36,599.21,91.7,574.2,111.37,550Z"/><path class="cls-1" d="M100.27,545.41c19.39-24.25,39.44-49.32,53.63-106.47l3.63-11.8C180.8,373,180,340.91,179.22,309.87s-1.58-63.18,21.55-117.23c23.3-54.18,47.77-77,71.43-99.11,7.61-7.11,15.3-14.3,23-22.58l-3.54-8.71c-9.59,10.85-19.16,19.69-28.6,28.4-23.76,21.92-48.33,44.59-71.85,98.38S168.35,274.83,169,305.81,170.27,369,146.67,423l-3.9,12.62C128.92,492.88,109,518.08,89.66,542.45s-39.13,49.4-52.93,106.46a287.71,287.71,0,0,0-8.24,54.39A38.37,38.37,0,0,0,38,704.88a291.18,291.18,0,0,1,8.52-53.08C60.8,594.76,80.86,569.67,100.27,545.41Z"/><path class="cls-1" d="M244.71,207.69c21-52.92,43.94-76.39,66.2-98.2l-3.48-8.55-3.8,3.67c-23.08,22.31-46.94,45.38-69,99.73-21.94,54.22-20.5,86.38-19.11,117.48.07,1.68.15,3.36.22,5l9.62-24.35C225.17,277.56,228.29,249,244.71,207.69Z"/><path class="cls-1" d="M306.85,546a43,43,0,0,0-10-7.08c-14,25.48-28.93,41.34-43.52,56.85-2.76,2.93-5.53,5.87-8.31,8.89a42.51,42.51,0,0,0,8,7.26c4-4.34,7.89-8.48,11.81-12.59C278.89,584.57,293.23,569.49,306.85,546Z"/><path class="cls-1" d="M314.57,555.83a42.88,42.88,0,0,0-7-9.13c-13.64,23.47-28,38.56-42,53.31-3.88,4.07-7.79,8.18-11.69,12.48a42.77,42.77,0,0,0,8.71,4.44c4.45-4.9,8.9-9.52,13.33-14.11C288.79,589.47,301.92,575.83,314.57,555.83Z"/><path class="cls-1" d="M233.65,204c22.19-54.56,46.13-77.7,69.29-100.08l4.08-4-3.41-8.39c-3.28,3.21-6.54,6.33-9.79,9.44-23.25,22.21-47.3,45.17-69.71,99.34s-21.16,86.23-20,117.29c.47,12.25.94,24.67,0,38.53l10.66-27q-.15-3.66-.31-7.29C213.07,290.66,211.63,258.39,233.65,204Z"/><path class="cls-1" d="M319.94,572.64a42.48,42.48,0,0,0-4.82-15.82c-12.6,19.83-25.67,33.4-38.48,46.7-4.32,4.48-8.67,9-13,13.77a42.52,42.52,0,0,0,13.84,2.31h.16c3.79-4.05,7.58-7.94,11.35-11.8C299.25,597.25,309.69,586.55,319.94,572.64Z"/><path class="cls-1" d="M203.14,317.65c-1.2-31.16-2.43-63.39,20.05-117.71s46.61-77.39,69.94-99.68c3.34-3.19,6.7-6.4,10.07-9.71L299.31,81c-5.44,5.53-10.87,10.66-16.25,15.75-23.4,22.1-47.6,45-70.45,99s-21.79,86.11-20.76,117.16S194,376.26,171,430.46l-4.34,14c-2.53,9.92-5.23,18.86-8.08,27l44.29-112.12C204.15,344.18,203.64,330.82,203.14,317.65Z"/><path class="cls-1" d="M269.44,7.65,266.74,0,264,7.65,256,27.52C260.49,21.67,265,15.22,269.58,8Z"/><path class="cls-1" d="M262.39,89.9c9.53-8.79,19.19-17.7,28.86-28.69l-3.73-9.15c-11.66,14.13-23.31,24.77-34.77,35.23-11.93,10.88-24.06,21.94-36.19,37l-25.74,63.21C214.26,134.32,238.73,111.73,262.39,89.9Z"/><path class="cls-1" d="M252.07,86.55C263.61,76,275.35,65.3,287.09,51L283,41c-13.55,17.49-27.09,29.72-40.39,41.7-4.86,4.39-9.75,8.81-14.67,13.5L217.84,121.1C229.32,107.31,240.79,96.84,252.07,86.55Z"/><path class="cls-1" d="M278.53,30,274.42,19.9a234.08,234.08,0,0,1-30.31,36.7l-7.64,18.75C250.33,62.93,264.43,49.66,278.53,30Z"/><path class="cls-1" d="M270,9.15a244.63,244.63,0,0,1-15.46,21.74l-9.49,23.32A233.81,233.81,0,0,0,274,18.78Z"/><path class="cls-1" d="M282.59,40,279,31.07c-14.55,20.21-29.09,33.64-43.37,46.39L228.89,94c4.38-4.14,8.75-8.08,13.09-12C255.34,69.94,269,57.64,282.59,40Z"/><path class="cls-1" d="M74.36,473.41c1.87-4.2,3.69-8.64,5.45-13.39Z"/><path class="cls-1" d="M77,537.74c19.06-24.38,38.77-49.59,52.27-106.83l3.78-12.26c23.89-53.81,23.44-85.8,23-116.74-.14-9.66-.27-19.43.33-29.92l-10.91,26.79c.22,30.36-.09,62.18-23.89,114.57L117,428.19c-13,57.38-32.62,82.77-51.56,107.32S27,585.28,14,642.48a305.26,305.26,0,0,0-6.9,44.89,40.48,40.48,0,0,0,9.81,10.2A294.31,294.31,0,0,1,24.69,645C38.11,587.49,57.88,562.2,77,537.74Z"/><path class="cls-1" d="M314.76,597.68a42.44,42.44,0,0,0,5.39-20.76c0-.93,0-1.84-.1-2.75-10.05,13.49-20.29,24-30.37,34.32-3.54,3.63-7.1,7.28-10.66,11.07a42.42,42.42,0,0,0,20.45-6.07l1.15-1.16C305.31,607.58,310,602.78,314.76,597.68Z"/><path class="cls-1" d="M104.34,423l4.08-13.15c14.56-31.6,20.51-55.66,22.94-76.41l-45.61,112a227.09,227.09,0,0,1-17,41.72L48.21,537.61q2.74-3.66,5.48-7.25C72.35,505.82,91.64,480.45,104.34,423Z"/><path class="cls-1" d="M64.61,534.9c18.87-24.47,38.39-49.77,51.38-107L120.66,413c23.1-50.87,24-82.26,23.84-111.8l-11.76,28.86c-2.17,21.63-8,46.67-23.39,80.16l-4,13C92.57,480.88,73.21,506.34,54.49,531c-2.59,3.41-5.2,6.84-7.79,10.36l-43.58,107A41.54,41.54,0,0,0,6.2,686,308.34,308.34,0,0,1,13,642.26C26.08,584.84,45.66,559.45,64.61,534.9Z"/><path class="cls-1" d="M88.87,541.83c19.24-24.29,39.13-49.4,52.93-106.46l3.93-12.7c23.54-53.84,22.89-85.87,22.25-116.84-.55-27.45-1.12-55.74,15-99.16l-25.41,62.4c-.82,11.61-.67,22.28-.52,32.82.43,31.05.88,63.16-23.08,117.11l-3.75,12.17c-13.54,57.42-33.31,82.72-52.44,107.19S39,587.93,25.67,645.18a291,291,0,0,0-7.78,53.07A38.27,38.27,0,0,0,27.5,703a289.36,289.36,0,0,1,8.26-54.33C49.61,591.4,69.57,566.2,88.87,541.83Z"/><path class="cls-1" d="M433.5,654.3l3.57,9.38,3.38-3c20.92-18.54,42.45-37.65,63.78-76.51l-5.53-13.58C476.92,614,454.92,635,433.5,654.3Z"/><path class="cls-1" d="M441.26,537.38c-10.05,24-20.39,41.9-30.83,56.31l4.9,12.88c12.9-15.78,25.77-35.86,38.27-65.08l4.64-14.83a311.5,311.5,0,0,0,7.18-37.78l-9.9-24.33c-.79,16.45-3.46,35.22-9.3,57.76Z"/><path class="cls-1" d="M454.54,541.84c-12.68,29.64-25.72,49.9-38.8,65.81l4.42,11.6C435.53,602.38,451,580.74,466,546.4l5.09-16.16c1.52-6.29,2.79-12.27,3.86-18l-8.74-21.47a318.94,318.94,0,0,1-7,36.17Z"/><path class="cls-1" d="M433.68,518.59l-4.21,14.31a291.73,291.73,0,0,1-24.2,47.23L410,592.57c10.27-14.26,20.44-31.93,30.32-55.54l4.95-15c6.06-23.44,8.7-42.8,9.34-59.7l-11.44-28.1C444.63,456.66,443.15,482.89,433.68,518.59Z"/><path class="cls-1" d="M420.56,514.43l-4.37,14a312.73,312.73,0,0,1-16.95,35.85L404.83,579a290.19,290.19,0,0,0,23.69-46.4l4.2-14.25c9.86-37.17,11-64.06,9.23-87.08l-15.69-38.52v0C431.12,424.58,436.13,457.51,420.56,514.43Z"/><path class="cls-1" d="M466.92,546.75c-15.2,34.77-30.82,56.56-46.36,73.55l4,10.45c18.08-18.09,36.37-40.88,54.13-81.07l4.49-14.39c.15-.61.28-1.21.42-1.82l-7.95-19.53c-1,5.3-2.2,10.81-3.59,16.57Z"/><path class="cls-1" d="M429.32,643.32l3.8,10c21.39-19.25,43.36-40.35,65.08-83.94L492,554.13l-.3,1C471.06,600.81,450,624,429.32,643.32Z"/><path class="cls-1" d="M479.6,550c-18,40.63-36.42,63.54-54.67,81.75l4,10.54c20.48-19.22,41.38-42.31,61.82-87.58l.65-2.06-7.17-17.6c0,.16-.07.32-.11.48Z"/><path class="cls-1" d="M368.22,374.19c3.41,27.48,6.92,55.79-3.49,99.45l7.48,19.65c15.14-53.18,11-84.87,7-115.55-3.47-26.65-7-54.08,2-95.64L374.26,265C360.8,314.36,364.56,344.75,368.22,374.19Z"/><path class="cls-1" d="M408.91,510.26l-4.52,14.45c-3.57,9-7.19,17.16-10.85,24.6l5.23,13.76a312.11,312.11,0,0,0,16.48-35l4.35-14c15.51-56.7,10.51-89.52,5.67-121.26-.21-1.37-.41-2.75-.62-4.13l-13.45-33c.82,11.8,2.41,22.6,4,33.29C419.89,420.8,424.76,453.66,408.91,510.26Z"/><path class="cls-1" d="M343.13,242.58c-18.37,55.64-14.91,88.24-11.56,119.77,1.05,9.93,2.12,20,2.51,30.77l11.17,29.35c1.51-21.35-.44-38.83-2.36-56-3.54-31.63-7.2-64.34,10.79-120.34,1.95-6,3.94-11.65,6-17l-5.92-14.54C350.09,223,346.54,232.23,343.13,242.58Z"/><path class="cls-1" d="M354.82,370.26c2.68,22.71,5.43,46,.25,78l9,23.7c10-42.68,6.5-70.57,3.14-97.65-3.7-29.8-7.52-60.55,6.41-110.8l-7.24-17.79c-.48,1.46-1,2.93-1.44,4.44C347.24,306.07,351.1,338.7,354.82,370.26Z"/><path class="cls-1" d="M343.89,366.37c2,17.79,4,35.91,2.21,58.33l8.25,21.67c4.77-31,2.1-53.78-.52-76C350.09,338.72,346.22,306,364,249.86c.6-1.89,1.21-3.73,1.82-5.55l-5.62-13.79c-1.89,5-3.75,10.3-5.57,15.93C336.71,302.24,340.36,334.84,343.89,366.37Z"/><path class="cls-1" d="M402.73,384.7c4.48,31.71,9.12,64.5-7.1,121.09l-4.51,14.45q-2.22,5.71-4.47,11l6.4,16.83c3.51-7.18,7-15,10.39-23.66L408,510c15.79-56.37,10.94-89.13,6.25-120.81-1.71-11.6-3.45-23.35-4.19-36.34l-11.18-27.46C397.59,348.28,400.18,366.67,402.73,384.7Z"/><path class="cls-1" d="M296,538.46a41.94,41.94,0,0,0-11.29-3.59c-13.77,25.33-28.47,41.17-42.84,56.64-1,1.11-2.07,2.23-3.11,3.35a42.62,42.62,0,0,0,5.65,9c2.75-3,5.49-5.91,8.23-8.81C267.15,579.63,282,563.82,296,538.46Z"/><path class="cls-1" d="M380.24,377.62c4,31,8.18,63.07-7.44,117.22L379,511.11l2.86-9.19c16.62-56.32,12.22-89.06,8-120.73-3.14-23.38-6.35-47.36-1.2-80.93l-6.72-16.5C373.33,324.35,376.83,351.36,380.24,377.62Z"/><path class="cls-1" d="M320.8,234.81a285.49,285.49,0,0,1,21.39-48.52l-4.7-11.53c-9.32,14.63-18.36,32.67-26.81,56.66-8.59,24.38-12.83,44.32-14.67,61.7l9.51,25C305.53,295.8,308.76,269.88,320.8,234.81Z"/><path class="cls-1" d="M331.91,161.05l-4.06-10c-13.57,17.11-26.88,39-39.14,72.46-3.59,9.83-6.46,18.92-8.75,27.42l6.74,17.69a296.84,296.84,0,0,1,12.13-42.46C309.25,197.33,320.45,177.09,331.91,161.05Z"/><path class="cls-1" d="M337,173.62l-4.67-11.46c-11.29,15.89-22.32,35.93-32.59,64.36a294.32,294.32,0,0,0-12.4,43.89l7.86,20.66c1.95-17,6.2-36.41,14.51-60C318.33,206.68,327.54,188.4,337,173.62Z"/><path class="cls-1" d="M314.47,118.23l-3.15-7.74c-22.09,21.66-44.81,45.08-65.68,97.57-15.8,39.75-19.24,67.65-19.33,91.92l12.06-30.54c2.53-16.66,7.41-35.67,16.37-58.61C273.61,162.53,294.21,138.68,314.47,118.23Z"/><path class="cls-1" d="M323,139.24l-3.69-9.06c-17.81,19.08-35.69,42.7-52.16,85.62l-.3.79,5.62,14.75c1.29-3.84,2.68-7.79,4.21-11.88C291.26,180.64,307.09,157.49,323,139.24Z"/><path class="cls-1" d="M327.41,150l-4-9.73c-15.77,18.13-31.41,41.13-45.8,79.53-1.68,4.49-3.2,8.81-4.59,13l6.3,16.55c2.23-8.15,5-16.83,8.41-26.18C300.18,189.25,313.68,167.24,327.41,150Z"/><path class="cls-1" d="M314.88,119.23c-20.09,20.32-40.5,44.1-59.21,92-8.13,20.81-12.89,38.37-15.57,53.89l23-58.33,3.21,8.43C283,172,301,148.33,318.92,129.16Z"/><path class="cls-1" d="M331.26,238.83a304.22,304.22,0,0,1,16.24-39.5l-4.83-11.86a286.14,286.14,0,0,0-20.93,47.67c-12.47,36.32-15.46,62.81-15.21,85.61l11.56,30.37C315.33,321.83,314,290.12,331.26,238.83Z"/><path class="cls-1" d="M441.11,661.43l-3.66,3.25,4.18,11c3.88-3.52,7.74-6.9,11.58-10.26,18.9-16.56,38.29-33.57,57.7-64.82l-6.19-15.22C483.43,623.9,462,643,441.11,661.43Z"/><path class="cls-1" d="M465.21,670.83c-6,5.22-12.09,10.48-18.19,16.22a40.63,40.63,0,0,0,6,7.2c7.92-7.73,15.77-14.46,23.54-21.12,14.85-12.73,30-25.73,45.35-45.47l-4.81-11.83C499.58,641.05,482.2,656.11,465.21,670.83Z"/><path class="cls-1" d="M477.24,673.89c-7.74,6.64-15.56,13.34-23.45,21a39.7,39.7,0,0,0,8.28,5.72c8.76-8.65,17.44-16,26-23.26,12.79-10.84,25.81-21.87,39-37.11l-4.7-11.54C507.11,648.29,492,661.22,477.24,673.89Z"/><path class="cls-1" d="M453.86,666.15c-3.93,3.44-7.88,6.91-11.85,10.51l1.2,3.15a41.72,41.72,0,0,0,3.26,6.39c6.07-5.7,12.1-10.94,18.09-16.12,17.05-14.78,34.51-29.92,52.12-55.36l-5.3-13C492,632.7,472.7,649.65,453.86,666.15Z"/><path class="cls-1" d="M488.73,678.14c-8.48,7.18-17.06,14.45-25.71,23a38.39,38.39,0,0,0,11.47,3.46c8.81-8.58,17.52-15.88,26.14-23.1,10.31-8.63,20.77-17.4,31.35-28.34a41.69,41.69,0,0,0-1.62-4.8l-2.86-7C514.4,656.4,501.46,667.37,488.73,678.14Z"/><path class="cls-1" d="M490.07,704.94h3.76A38.38,38.38,0,0,0,512,700.41c4.1-3.47,8.17-6.81,12.23-10.13a41.7,41.7,0,0,0,9.07-22.51c-7.06,6.46-14,12.26-21,18C505,691.85,497.56,698,490.07,704.94Z"/><path class="cls-1" d="M342.18,242.27c3.55-10.75,7.23-20.31,11-28.93L348,200.57a304,304,0,0,0-15.79,38.58c-17.91,53.22-15.73,85.29-12.77,115.5L333,390.16c-.46-9.66-1.42-18.73-2.38-27.7C327.22,330.82,323.74,298.11,342.18,242.27Z"/><path class="cls-1" d="M501.27,682.24c-8.41,7-16.91,14.17-25.5,22.49,1.31.13,2.62.21,4,.21h8.88c7.77-7.25,15.47-13.63,23.09-19.94,7.17-5.94,14.42-12,21.73-18.69a41.33,41.33,0,0,0-1.15-12C521.8,665,511.47,673.7,501.27,682.24Z"/><path class="cls-1" d="M390.8,381.06c4.27,31.77,8.69,64.62-8,121.15l-3.23,10.41,6.57,17.25c1.35-3.2,2.7-6.51,4-10l4.51-14.41c16.15-56.38,11.53-89.06,7.06-120.67-2.63-18.63-5.32-37.64-3.79-61.63l-8.61-21.12C384.57,334.66,387.72,358.15,390.8,381.06Z"/><path class="cls-1" d="M238.67,559.12c3.24-4.17,6.47-8.59,9.66-13.37A42.84,42.84,0,0,0,238.67,559.12Z"/><path class="cls-1" d="M283.63,534.7a43.18,43.18,0,0,0-6.17-.45,42.73,42.73,0,0,0-6.44.48c-11.54,20.67-23.74,34.92-35.82,48.18a42.43,42.43,0,0,0,3.08,11l2.82-3C255.37,575.47,270,559.76,283.63,534.7Z"/><path class="cls-1" d="M311.74,602.35c-2.6,2.74-5.21,5.4-7.81,8A42.78,42.78,0,0,0,311.74,602.35Z"/><path class="cls-1" d="M251.07,543.4a227.3,227.3,0,0,1-13.78,19.09A42.66,42.66,0,0,0,235,581.61c11.71-12.89,23.52-26.77,34.71-46.65A42.48,42.48,0,0,0,251.07,543.4Z"/><path class="cls-2" d="M524.24,690.28c-4.06,3.32-8.13,6.66-12.23,10.13A39.56,39.56,0,0,0,524.24,690.28Z"/><path class="cls-3" d="M488.6,704.94h1.47c7.49-6.94,14.91-13.09,22.25-19.17,6.94-5.74,13.93-11.54,21-18,0-.48.09-1,.11-1.46-7.31,6.74-14.56,12.75-21.73,18.69C504.07,691.31,496.37,697.69,488.6,704.94Z"/><path class="cls-4" d="M500.63,681.47c-8.62,7.22-17.33,14.52-26.14,23.1l1.28.16c8.59-8.32,17.09-15.45,25.5-22.49,10.2-8.54,20.53-17.2,31-28-.09-.38-.18-.76-.29-1.14C521.4,664.07,510.94,672.84,500.63,681.47Z"/><path class="cls-5" d="M488.09,677.38c-8.58,7.26-17.26,14.61-26,23.26l.95.47c8.65-8.52,17.23-15.79,25.71-23,12.73-10.77,25.67-21.74,38.77-36.83l-.42-1C513.9,655.51,500.88,666.54,488.09,677.38Z"/><path class="cls-6" d="M476.59,673.13c-7.77,6.66-15.62,13.39-23.54,21.12l.74.67c7.89-7.69,15.71-14.39,23.45-21,14.78-12.67,29.87-25.6,45.14-45.16l-.44-1.07C506.6,647.4,491.44,660.4,476.59,673.13Z"/><path class="cls-7" d="M464.56,670.08c-6,5.18-12,10.42-18.09,16.12.18.28.36.57.55.85,6.1-5.74,12.17-11,18.19-16.22,17-14.72,34.37-29.78,51.92-55l-.45-1.11C499.07,640.16,481.61,655.3,464.56,670.08Z"/><path class="cls-8" d="M453.21,665.4c-3.84,3.36-7.7,6.74-11.58,10.26l.38,1c4-3.6,7.92-7.07,11.85-10.51,18.84-16.5,38.16-33.45,57.52-64.43l-.47-1.14C491.5,631.83,472.11,648.84,453.21,665.4Z"/><path class="cls-9" d="M440.45,660.68l-3.38,3,.38,1,3.66-3.25C462,643,483.43,623.9,504.72,585.36l-.49-1.19C482.9,623,461.37,642.14,440.45,660.68Z"/><path class="cls-10" d="M433.12,653.3l.38,1C454.92,635,476.92,614,498.7,570.59l-.5-1.23C476.48,613,454.51,634.05,433.12,653.3Z"/><path class="cls-11" d="M428.94,642.32l.38,1C450,624,471.06,600.81,491.7,555.09l.3-1-.59-1.45-.65,2.06C470.32,600,449.42,623.1,428.94,642.32Z"/><path class="cls-12" d="M478.67,549.68c-17.76,40.19-36.05,63-54.13,81.07l.39,1c18.25-18.21,36.72-41.12,54.67-81.75l4.53-14.47c0-.16.07-.32.11-.48l-.66-1.61c-.14.61-.27,1.21-.42,1.82Z"/><path class="cls-13" d="M466,546.4c-15,34.34-30.45,56-45.82,72.85l.4,1c15.54-17,31.16-38.78,46.36-73.55L472,530.51c1.39-5.76,2.58-11.27,3.59-16.57l-.7-1.71c-1.07,5.74-2.34,11.72-3.86,18Z"/><path class="cls-14" d="M453.6,541.49c-12.5,29.22-25.37,49.3-38.27,65.08l.41,1.08c13.08-15.91,26.12-36.17,38.8-65.81l4.66-14.91a318.94,318.94,0,0,0,7-36.17l-.77-1.88a311.5,311.5,0,0,1-7.18,37.78Z"/><path class="cls-15" d="M440.32,537c-9.88,23.61-20.05,41.28-30.32,55.54l.43,1.12c10.44-14.41,20.78-32.3,30.83-56.31l5-15.07c5.84-22.54,8.51-41.31,9.3-57.76l-.91-2.22c-.64,16.9-3.28,36.26-9.34,59.7Z"/><path class="cls-16" d="M432.72,518.32l-4.2,14.25A290.19,290.19,0,0,1,404.83,579l.44,1.16a291.73,291.73,0,0,0,24.2-47.23l4.21-14.31c9.47-35.7,10.95-61.93,9.49-84.36l-1.22-3C443.74,454.26,442.58,481.15,432.72,518.32Z"/><path class="cls-17" d="M419.6,514.15l-4.35,14a312.11,312.11,0,0,1-16.48,35l.47,1.22a312.73,312.73,0,0,0,16.95-35.85l4.37-14c15.57-56.92,10.56-89.85,5.7-121.69v0l-1.61-4c.21,1.38.41,2.76.62,4.13C430.11,424.63,435.11,457.45,419.6,514.15Z"/><path class="cls-18" d="M408,510l-4.51,14.41C400,533,396.56,540.86,393.05,548l.49,1.27c3.66-7.44,7.28-15.58,10.85-24.6l4.52-14.45c15.85-56.6,11-89.46,6.28-121.24-1.58-10.69-3.17-21.49-4-33.29L410,352.82c.74,13,2.48,24.74,4.19,36.34C418.89,420.84,423.74,453.6,408,510Z"/><path class="cls-19" d="M401.74,384.83c4.47,31.61,9.09,64.29-7.06,120.67l-4.51,14.41c-1.33,3.45-2.68,6.76-4,10l.51,1.34q2.25-5.26,4.47-11l4.51-14.45c16.22-56.59,11.58-89.38,7.1-121.09-2.55-18-5.14-36.42-3.9-59.34L398,323.2C396.42,347.19,399.11,366.2,401.74,384.83Z"/><path class="cls-20" d="M389.81,381.19c4.26,31.67,8.66,64.41-8,120.73L379,511.11l.58,1.51,3.23-10.41c16.69-56.53,12.27-89.38,8-121.15-3.08-22.91-6.23-46.4-1.46-79l-.73-1.82C383.46,333.83,386.67,357.81,389.81,381.19Z"/><path class="cls-21" d="M311.74,602.35a41.39,41.39,0,0,0,3-4.67c-4.73,5.1-9.45,9.9-14.14,14.65l-1.15,1.16a42.76,42.76,0,0,0,4.46-3.1C306.53,607.75,309.14,605.09,311.74,602.35Z"/><path class="cls-22" d="M379.25,377.74c4,30.68,8.1,62.37-7,115.55l.59,1.55c15.62-54.15,11.47-86.21,7.44-117.22-3.41-26.26-6.91-53.27,1.65-93.86l-.68-1.66C372.23,323.66,375.78,351.09,379.25,377.74Z"/><path class="cls-23" d="M367.23,374.32c3.36,27.08,6.81,55-3.14,97.65l.64,1.67c10.41-43.66,6.9-72,3.49-99.45-3.66-29.44-7.42-59.83,6-109.15l-.62-1.52C359.71,313.77,363.53,344.52,367.23,374.32Z"/><path class="cls-24" d="M320.05,574.17c0-.51-.06-1-.11-1.53-10.25,13.91-20.69,24.61-31,35.15-3.77,3.86-7.56,7.75-11.35,11.8.47,0,.93,0,1.4,0,3.56-3.79,7.12-7.44,10.66-11.07C299.76,598.16,310,587.66,320.05,574.17Z"/><path class="cls-25" d="M353.83,370.38c2.62,22.21,5.29,45,.52,76l.72,1.9c5.18-32,2.43-55.3-.25-78-3.72-31.56-7.58-64.19,10.14-120.09.47-1.51,1-3,1.44-4.44l-.58-1.42c-.61,1.82-1.22,3.66-1.82,5.55C346.22,306,350.09,338.72,353.83,370.38Z"/><path class="cls-26" d="M315.12,556.82l-.55-1c-12.65,20-25.78,33.64-38.65,47-4.43,4.59-8.88,9.21-13.33,14.11.34.13.68.24,1,.36,4.35-4.77,8.7-9.29,13-13.77C289.45,590.22,302.52,576.65,315.12,556.82Z"/><path class="cls-27" d="M342.89,366.48c1.92,17.16,3.87,34.64,2.36,56l.85,2.23c1.8-22.42-.22-40.54-2.21-58.33-3.53-31.53-7.18-64.13,10.74-119.92,1.82-5.63,3.68-10.91,5.57-15.93l-.55-1.35c-2,5.32-4,11-6,17C335.69,302.14,339.35,334.85,342.89,366.48Z"/><path class="cls-28" d="M307.6,546.7c-.24-.24-.5-.47-.75-.71-13.62,23.5-28,38.58-42,53.33-3.92,4.11-7.86,8.25-11.81,12.59l.84.58c3.9-4.3,7.81-8.41,11.69-12.48C279.62,585.26,294,570.17,307.6,546.7Z"/><path class="cls-29" d="M296.86,538.91c-.3-.15-.59-.31-.89-.45-14,25.36-28.82,41.17-43.36,56.61-2.74,2.9-5.48,5.82-8.23,8.81.21.26.43.51.65.77,2.78-3,5.55-6,8.31-8.89C267.93,580.25,282.86,564.39,296.86,538.91Z"/><path class="cls-30" d="M343.13,242.58c3.41-10.35,7-19.59,10.6-28l-.53-1.29c-3.79,8.62-7.47,18.18-11,28.93-18.44,55.84-15,88.55-11.61,120.19,1,9,1.92,18,2.38,27.7l1.13,3c-.39-10.81-1.46-20.84-2.51-30.77C328.22,330.82,324.76,298.22,343.13,242.58Z"/><path class="cls-31" d="M332.21,239.15A304,304,0,0,1,348,200.57l-.5-1.24a304.22,304.22,0,0,0-16.24,39.5c-17.26,51.29-15.93,83-13.17,112.29l1.35,3.53C316.48,324.44,314.3,292.37,332.21,239.15Z"/><path class="cls-32" d="M284.68,534.87l-1.05-.17c-13.67,25.06-28.26,40.77-42.53,56.13l-2.82,3,.45,1c1-1.12,2.07-2.24,3.11-3.35C256.21,576,270.91,560.2,284.68,534.87Z"/><path class="cls-33" d="M269.75,535c-11.19,19.88-23,33.76-34.71,46.65.05.43.1.87.16,1.3,12.08-13.26,24.28-27.51,35.82-48.18Z"/><path class="cls-34" d="M321.74,235.14a286.14,286.14,0,0,1,20.93-47.67l-.48-1.18a285.49,285.49,0,0,0-21.39,48.52c-12,35.07-15.27,61-15.28,83.28l1,2.66C306.28,298,309.27,271.46,321.74,235.14Z"/><path class="cls-35" d="M337.49,174.76l-.46-1.14c-9.49,14.78-18.7,33.06-27.29,57.47-8.31,23.57-12.56,43-14.51,60l.78,2.05c1.84-17.38,6.08-37.32,14.67-61.7C319.13,207.43,328.17,189.39,337.49,174.76Z"/><path class="cls-36" d="M248.33,545.75c-3.19,4.78-6.42,9.2-9.66,13.37-.5,1.1-1,2.22-1.38,3.37a227.3,227.3,0,0,0,13.78-19.09C250.12,544.15,249.21,544.93,248.33,545.75Z"/><path class="cls-37" d="M332.36,162.16l-.45-1.11c-11.46,16-22.66,36.28-33.08,65.13a296.84,296.84,0,0,0-12.13,42.46l.67,1.77a294.32,294.32,0,0,1,12.4-43.89C310,198.09,321.07,178.05,332.36,162.16Z"/><path class="cls-38" d="M327.85,151.07l-.44-1.06c-13.73,17.23-27.23,39.24-39.64,73.18-3.42,9.35-6.18,18-8.41,26.18L280,251c2.29-8.5,5.16-17.59,8.75-27.42C301,190,314.28,168.18,327.85,151.07Z"/><path class="cls-39" d="M323.45,140.28l-.42-1c-15.94,18.25-31.77,41.4-46.32,80.22-1.53,4.09-2.92,8-4.21,11.88l.56,1.48c1.39-4.2,2.91-8.52,4.59-13C292,181.41,307.68,158.41,323.45,140.28Z"/><path class="cls-40" d="M319.34,130.18l-.42-1c-17.94,19.17-36,42.84-52.57,86l.53,1.41.3-.79C283.65,172.88,301.53,149.26,319.34,130.18Z"/><path class="cls-41" d="M314.88,119.23l-.41-1c-20.26,20.45-40.86,44.3-59.73,92.6-9,22.94-13.84,41.95-16.37,58.61l1.73-4.36c2.68-15.52,7.44-33.08,15.57-53.89C274.38,163.33,294.79,139.55,314.88,119.23Z"/><path class="cls-42" d="M311.32,110.49l-.41-1c-22.26,21.81-45.16,45.28-66.2,98.2-16.42,41.31-19.54,69.87-19.4,94.82l1-2.53c.09-24.27,3.53-52.17,19.33-91.92C266.51,155.57,289.23,132.15,311.32,110.49Z"/><path class="cls-43" d="M234.58,204.34c22.11-54.35,46-77.42,69-99.73l3.8-3.67-.41-1-4.08,4c-23.16,22.38-47.1,45.52-69.29,100.08-22,54.42-20.58,86.69-19.18,117.9q.17,3.63.31,7.29l.91-2.3c-.07-1.68-.15-3.36-.22-5C214.08,290.72,212.64,258.56,234.58,204.34Z"/><path class="cls-44" d="M74.68,683.18c.61-1.21,1.18-2.44,1.68-3.72l.29-.73q1.66-7.59,3.88-15.8C89.36,630.39,100,608.39,111.14,591l1.78-4.53c-12.2,18.07-23.8,41-33.36,76.19C77.62,669.87,76,676.69,74.68,683.18Z"/><path class="cls-45" d="M204.14,317.62c-1.19-31.06-2.43-63.18,20-117.29S270.57,123.2,293.82,101c3.25-3.11,6.51-6.23,9.79-9.44l-.41-1c-3.37,3.31-6.73,6.52-10.07,9.71-23.33,22.29-47.45,45.33-69.94,99.68s-21.25,86.55-20.05,117.71c.5,13.17,1,26.53-.27,41.67l1.25-3.17C205.08,342.29,204.61,329.87,204.14,317.62Z"/><path class="cls-46" d="M68.79,659.54a311.21,311.21,0,0,0-7.79,39l1.11-.76a311.19,311.19,0,0,1,7.65-38c14.89-56.63,35.3-81.47,55-105.48l1.5-1.83,1.2-3L124,553.67C104.22,577.77,83.74,602.69,68.79,659.54Z"/><path class="cls-47" d="M171,430.46C194,376.26,192.88,344,191.85,312.88s-2.1-63.15,20.76-117.16,47.05-76.87,70.45-99c5.38-5.09,10.81-10.22,16.25-15.75l-.41-1c-5.54,5.64-11,10.86-16.53,16-23.47,22.18-47.75,45.1-70.69,99.31s-21.87,86.43-20.83,117.58,2.09,63.16-20.78,117.21l-4.37,14C151.23,501,131,525.9,111.37,550s-40,49.2-54.53,106.25a299.65,299.65,0,0,0-8.41,47.66l1-.26a299.31,299.31,0,0,1,8.36-47.16c14.47-56.83,34.73-81.76,54.33-105.86,13.27-16.32,26.84-33,38.72-59.67l7.72-19.53c2.85-8.15,5.55-17.09,8.08-27Z"/><path class="cls-48" d="M101.05,546c19.46-24.33,39.57-49.49,53.81-106.82l3.6-11.72c23.35-54.3,22.54-86.5,21.76-117.64-.77-31-1.57-63,21.47-116.82,23.21-54,47.6-76.75,71.19-98.77,7.52-7,15.13-14.13,22.75-22.29l-.42-1c-7.71,8.28-15.4,15.47-23,22.58-23.66,22.09-48.13,44.93-71.43,99.11-23.13,54.05-22.32,86.17-21.55,117.23S180.8,373,157.53,427.14l-3.63,11.8c-14.19,57.15-34.24,82.22-53.63,106.47S60.8,594.76,46.52,651.8A291.18,291.18,0,0,0,38,704.88l1,0A290.21,290.21,0,0,1,47.49,652C61.71,595.22,81.71,570.21,101.05,546Z"/><path class="cls-49" d="M89.66,542.45c19.3-24.37,39.26-49.57,53.11-106.81l3.9-12.62c23.6-54,23-86.13,22.31-117.21s-1.28-63,22.24-116.79,48.09-76.46,71.85-98.38c9.44-8.71,19-17.55,28.6-28.4l-.42-1c-9.67,11-19.33,19.9-28.86,28.69-23.66,21.83-48.13,44.42-71.57,97.56L183,206.67c-16.13,43.42-15.56,71.71-15,99.16.64,31,1.29,63-22.25,116.84l-3.93,12.7c-13.8,57.06-33.69,82.17-52.93,106.46S49.61,591.4,35.76,648.67A289.36,289.36,0,0,0,27.5,703l1,.3a287.71,287.71,0,0,1,8.24-54.39C50.53,591.85,70.42,566.74,89.66,542.45Z"/><path class="cls-50" d="M252.75,87.29c11.46-10.46,23.11-21.1,34.77-35.23L287.09,51c-11.74,14.29-23.48,25-35,35.54-11.28,10.29-22.75,20.76-34.23,34.55l-1.28,3.15C228.69,109.23,240.82,98.17,252.75,87.29Z"/><path class="cls-51" d="M77.79,538.36c19.13-24.47,38.9-49.77,52.44-107.19L134,419c24-53.95,23.51-86.06,23.08-117.11-.15-10.54-.3-21.21.52-32.82L156.39,272c-.6,10.49-.47,20.26-.33,29.92.43,30.94.88,62.93-23,116.74l-3.78,12.26C115.77,488.15,96.06,513.36,77,537.74S38.11,587.49,24.69,645a294.31,294.31,0,0,0-7.77,52.62c.32.23.64.46,1,.68a291,291,0,0,1,7.78-53.07C39,587.93,58.74,562.73,77.79,538.36Z"/><path class="cls-52" d="M65.4,535.51C84.34,511,103.93,485.57,117,428.19l4.63-14.84c23.8-52.39,24.11-84.21,23.89-114.57l-1,2.42c.16,29.54-.74,60.93-23.84,111.8L116,427.93c-13,57.2-32.51,82.5-51.38,107S26.08,584.84,13,642.26A308.34,308.34,0,0,0,6.2,686c.29.48.6.94.91,1.41A305.26,305.26,0,0,1,14,642.48C27,585.28,46.52,560,65.4,535.51Z"/><path class="cls-53" d="M283,41,282.59,40C269,57.64,255.34,69.94,242,82c-4.34,3.91-8.71,7.85-13.09,12L228,96.23c4.92-4.69,9.81-9.11,14.67-13.5C255.94,70.75,269.48,58.52,283,41Z"/><path class="cls-54" d="M105.31,423.27l4-13c15.44-33.49,21.22-58.53,23.39-80.16l-1.38,3.39c-2.43,20.75-8.38,44.81-22.94,76.41L104.34,423c-12.7,57.44-32,82.81-50.65,107.35Q51,534,48.21,537.61l-1.51,3.72c2.59-3.52,5.2-7,7.79-10.36C73.21,506.34,92.57,480.88,105.31,423.27Z"/><path class="cls-55" d="M279,31.07l-.45-1.1c-14.1,19.69-28.2,33-42.06,45.38l-.86,2.11C249.89,64.71,264.43,51.28,279,31.07Z"/><path class="cls-56" d="M274.42,19.9,274,18.78a233.81,233.81,0,0,1-28.88,35.43l-1,2.39A234.08,234.08,0,0,0,274.42,19.9Z"/><path class="cls-57" d="M79.81,460c-1.76,4.75-3.58,9.19-5.45,13.39l-5.6,13.75a227.09,227.09,0,0,0,17-41.72Z"/><path class="cls-58" d="M269.58,8C265,15.22,260.49,21.67,256,27.52l-1.37,3.37A244.63,244.63,0,0,0,270,9.15Z"/></g></g></svg>