<svg width="363" height="130" viewBox="0 0 363 130" fill="none" xmlns="http://www.w3.org/2000/svg">
<g clip-path="url(#clip0)">
<path d="M158.059 24.3229H170.428V81.5195H158.059V73.3011C153.41 79.7762 146.769 83.0138 138.052 83.0138C130.166 83.0138 123.525 80.1083 117.963 74.2973C112.401 68.4863 109.579 61.3471 109.579 52.9627C109.579 44.4953 112.318 37.3561 117.88 31.5451C123.442 25.7341 130.166 22.8286 137.969 22.8286C146.686 22.8286 153.327 26.0662 157.976 32.4582V24.3229H158.059ZM127.012 65.9959C130.415 69.4825 134.732 71.2258 139.962 71.2258C145.109 71.2258 149.425 69.4825 152.912 65.9959C156.316 62.5093 158.059 58.1926 158.059 52.8797C158.059 47.6498 156.316 43.2501 152.912 39.7635C149.508 36.2769 145.192 34.5336 139.962 34.5336C134.815 34.5336 130.498 36.2769 127.012 39.7635C123.608 43.2501 121.865 47.5668 121.865 52.8797C121.865 58.1926 123.608 62.5923 127.012 65.9959Z" fill="#333132"/>
<path d="M197.158 33.9529C200.313 26.8968 206.124 23.3271 214.757 23.3271V36.6924C210.026 36.3604 205.875 37.5225 202.388 40.096C198.902 42.6694 197.158 46.9031 197.158 52.7141V81.52H184.789V24.3233H197.158V33.9529Z" fill="#333132"/>
<path d="M235.594 13.4483C234.017 15.0255 232.19 15.7727 230.032 15.7727C227.874 15.7727 226.047 15.0255 224.47 13.4483C222.893 11.871 222.146 10.0447 222.146 7.88633C222.146 5.72797 222.893 3.90166 224.47 2.32439C225.964 0.747126 227.874 0 230.032 0C232.273 0 234.1 0.747126 235.594 2.32439C237.088 3.90166 237.918 5.72797 237.918 7.88633C237.918 10.0447 237.171 11.871 235.594 13.4483ZM223.889 81.5198V24.3231H236.258V81.5198H223.889Z" fill="#333132"/>
<path d="M261.245 40.0955C261.245 42.0049 262.324 43.4991 264.4 44.5783C266.475 45.6575 269.049 46.6537 272.037 47.4008C275.026 48.2309 278.097 49.1441 281.169 50.2233C284.24 51.3024 286.814 53.1288 288.889 55.6192C290.964 58.1926 292.044 61.4302 292.044 65.2488C292.044 70.7277 289.968 75.0445 285.734 78.199C281.501 81.3535 276.188 82.8478 269.796 82.8478C264.151 82.8478 259.336 81.6856 255.268 79.2782C251.201 76.9538 248.295 73.6332 246.469 69.4825L257.095 63.3395C259.087 68.8184 263.321 71.5579 269.796 71.5579C276.271 71.5579 279.508 69.3995 279.508 65.1658C279.508 63.3395 278.429 61.8452 276.354 60.683C274.278 59.5208 271.705 58.6077 268.717 57.7775C265.728 56.9474 262.657 56.0342 259.585 54.9551C256.513 53.8759 253.94 52.1326 251.865 49.6422C249.789 47.1517 248.71 43.9972 248.71 40.1786C248.71 34.9487 250.702 30.715 254.687 27.4774C258.672 24.2399 263.653 22.6626 269.63 22.6626C274.362 22.6626 278.595 23.7418 282.248 25.8171C285.983 27.8925 288.806 30.798 290.798 34.5336L280.422 40.3446C278.429 36.0279 274.86 33.7865 269.713 33.7865C267.388 33.7865 265.396 34.2846 263.736 35.3637C262.075 36.609 261.245 38.1862 261.245 40.0955Z" fill="#333132"/>
<path d="M311.137 58.1931C312.05 62.5098 314.125 65.9134 317.446 68.2378C320.683 70.5622 324.751 71.7244 329.483 71.7244C336.041 71.7244 340.939 69.4 344.259 64.6682L354.47 70.6452C348.825 78.9466 340.441 83.0973 329.4 83.0973C320.102 83.0973 312.631 80.2748 306.903 74.5469C301.175 68.9019 298.353 61.6797 298.353 52.9632C298.353 44.4127 301.175 37.2735 306.82 31.5456C312.465 25.8176 319.687 22.9121 328.57 22.9121C336.954 22.9121 343.844 25.8176 349.24 31.7116C354.636 37.6056 357.293 44.7448 357.293 53.1292C357.293 54.4575 357.126 56.1177 356.794 58.2761H311.137V58.1931ZM311.054 48.1484H344.674C343.844 43.4996 341.935 40.013 338.863 37.6056C335.875 35.2812 332.305 34.036 328.321 34.036C323.755 34.036 319.936 35.2812 316.865 37.7716C313.793 40.3451 311.884 43.8316 311.054 48.1484Z" fill="#333132"/>
<path d="M47.1521 9.54688L40.677 13.2825C33.4548 17.4332 30.9643 26.7308 35.1981 33.953L69.0678 92.5609L88.6591 81.271L47.1521 9.54688Z" fill="#00E1AB"/>
<path d="M28.1418 57.8608C22.2478 57.8608 17.1009 61.0154 14.2784 65.6642L13.8633 66.4113L0 90.3193H28.1418C37.1073 90.3193 44.4125 83.0141 44.4125 74.0486C44.4125 65.0831 37.1073 57.8608 28.1418 57.8608Z" fill="#0852ED"/>
<path d="M5.14696 126.679H12.8673V129.668H2.07544V110.741H5.14696V126.679Z" fill="#494D53"/>
<path d="M21.6667 126.679H30.0512V129.668H18.5122V110.741H29.8851V113.729H21.6667V118.627H29.221V121.533H21.6667V126.679Z" fill="#494D53"/>
<path d="M48.8123 129.668L47.4841 125.849H39.4318L38.1035 129.668H34.7L41.5901 110.741H45.3258L52.1329 129.668H48.8123ZM40.5109 122.944H46.4879L43.4994 114.393L40.5109 122.944Z" fill="#494D53"/>
<path d="M68.4036 129.668L64.419 122.778H60.7663V129.668H57.6948V110.741H65.2491C66.9094 110.741 68.4036 111.322 69.5658 112.484C70.728 113.646 71.3091 115.057 71.3091 116.801C71.3091 118.046 70.9771 119.125 70.2299 120.121C69.4828 121.117 68.6527 121.865 67.4905 122.28L71.8072 129.585H68.4036V129.668ZM60.6833 113.646V119.955H65.1661C65.9962 119.955 66.6603 119.623 67.2414 119.042C67.8225 118.461 68.0716 117.714 68.0716 116.801C68.0716 115.888 67.8225 115.14 67.2414 114.559C66.6603 113.978 65.9962 113.646 65.1661 113.646H60.6833Z" fill="#494D53"/>
<path d="M88.9081 110.741H91.9796V129.668H89.5722L80.6897 116.884V129.668H77.6182V110.741H80.0256L88.9081 123.525V110.741Z" fill="#494D53"/>
<path d="M102.19 129.419C101.775 129.834 101.277 130 100.779 130C100.198 130 99.783 129.834 99.368 129.419C98.9529 129.004 98.7869 128.506 98.7869 128.007C98.7869 127.426 98.9529 127.011 99.368 126.596C99.783 126.181 100.198 126.015 100.779 126.015C101.36 126.015 101.775 126.181 102.19 126.596C102.606 127.011 102.772 127.509 102.772 128.007C102.772 128.506 102.606 129.004 102.19 129.419Z" fill="#494D53"/>
<path d="M116.386 110.741C118.129 110.741 119.623 111.322 120.869 112.484C122.031 113.646 122.695 115.14 122.695 116.884C122.695 118.627 122.114 120.121 120.869 121.284C119.706 122.446 118.212 123.11 116.386 123.11H112.567V129.585H109.496V110.658H116.386V110.741ZM116.386 120.287C117.299 120.287 118.046 119.955 118.627 119.374C119.208 118.793 119.54 117.963 119.54 117.05C119.54 116.137 119.208 115.306 118.627 114.725C118.046 114.144 117.299 113.812 116.386 113.812H112.567V120.37H116.386V120.287Z" fill="#494D53"/>
<path d="M139.547 129.668L135.562 122.778H131.909V129.668H128.838V110.741H136.392C138.052 110.741 139.547 111.322 140.709 112.484C141.871 113.646 142.452 115.057 142.452 116.801C142.452 118.046 142.12 119.125 141.373 120.121C140.626 121.117 139.796 121.865 138.634 122.28L142.95 129.585H139.547V129.668ZM131.909 113.646V119.955H136.392C137.222 119.955 137.886 119.623 138.468 119.042C139.049 118.461 139.298 117.714 139.298 116.801C139.298 115.888 139.049 115.14 138.468 114.559C137.886 113.978 137.222 113.646 136.392 113.646H131.909Z" fill="#494D53"/>
<path d="M161.047 129.668L159.719 125.849H151.667L150.339 129.668H146.935L153.825 110.741H157.561L164.368 129.668H161.047ZM152.663 122.944H158.64L155.651 114.393L152.663 122.944Z" fill="#494D53"/>
<path d="M178.065 130C175.243 130 172.835 129.087 171.009 127.178C169.1 125.268 168.187 122.944 168.187 120.204C168.187 117.465 169.1 115.14 171.009 113.231C172.918 111.322 175.243 110.409 178.065 110.409C179.809 110.409 181.386 110.824 182.797 111.654C184.208 112.484 185.37 113.563 186.201 114.974L183.461 116.552C182.963 115.639 182.216 114.891 181.303 114.31C180.307 113.729 179.227 113.48 178.065 113.48C176.073 113.48 174.413 114.144 173.167 115.39C171.922 116.635 171.258 118.295 171.258 120.287C171.258 122.28 171.922 123.857 173.167 125.185C174.413 126.43 176.073 127.095 178.065 127.095C179.227 127.095 180.307 126.845 181.303 126.264C182.299 125.683 182.963 124.936 183.461 124.023L186.201 125.6C185.37 127.011 184.291 128.091 182.88 128.921C181.386 129.585 179.809 130 178.065 130Z" fill="#494D53"/>
<path d="M204.298 110.741V113.729H198.985V129.668H195.913V113.729H190.6V110.741H204.298Z" fill="#494D53"/>
<path d="M209.943 110.741H213.014V129.668H209.943V110.741Z" fill="#494D53"/>
<path d="M229.202 130C226.379 130 223.972 129.087 222.146 127.178C220.236 125.268 219.323 122.944 219.323 120.204C219.323 117.465 220.236 115.14 222.146 113.231C224.055 111.322 226.379 110.409 229.202 110.409C230.945 110.409 232.522 110.824 233.934 111.654C235.345 112.484 236.507 113.563 237.337 114.974L234.598 116.552C234.1 115.639 233.353 114.891 232.439 114.31C231.443 113.729 230.364 113.48 229.202 113.48C227.21 113.48 225.549 114.144 224.304 115.39C223.059 116.635 222.395 118.295 222.395 120.287C222.395 122.28 223.059 123.857 224.304 125.185C225.549 126.43 227.21 127.095 229.202 127.095C230.364 127.095 231.443 126.845 232.439 126.264C233.436 125.683 234.1 124.936 234.598 124.023L237.337 125.6C236.507 127.011 235.428 128.091 234.017 128.921C232.522 129.585 230.945 130 229.202 130Z" fill="#494D53"/>
<path d="M246.386 126.679H254.77V129.668H243.314V110.741H254.687V113.729H246.469V118.627H254.023V121.533H246.469V126.679H246.386Z" fill="#494D53"/>
<path d="M263.985 129.419C263.57 129.834 263.072 130 262.574 130C262.075 130 261.577 129.834 261.162 129.419C260.747 129.004 260.581 128.506 260.581 128.007C260.581 127.426 260.747 127.011 261.162 126.596C261.577 126.181 261.992 126.015 262.574 126.015C263.155 126.015 263.57 126.181 263.985 126.596C264.4 127.011 264.566 127.509 264.566 128.007C264.566 128.506 264.4 129.004 263.985 129.419Z" fill="#494D53"/>
<path d="M288.308 119.872V121.201C288.308 123.774 287.478 125.932 285.734 127.593C283.991 129.253 281.833 130.083 279.01 130.083C276.105 130.083 273.697 129.17 271.788 127.261C269.879 125.351 268.966 123.027 268.966 120.287C268.966 117.548 269.879 115.224 271.788 113.314C273.697 111.405 276.022 110.492 278.844 110.492C280.588 110.492 282.248 110.907 283.659 111.737C285.07 112.567 286.232 113.646 287.063 114.974L284.406 116.552C283.908 115.639 283.161 114.891 282.165 114.393C281.169 113.812 280.089 113.563 278.844 113.563C276.852 113.563 275.275 114.227 273.946 115.473C272.701 116.801 272.037 118.378 272.037 120.37C272.037 122.28 272.701 123.94 273.946 125.185C275.192 126.43 276.935 127.095 279.01 127.095C280.671 127.095 282.082 126.679 283.078 125.932C284.157 125.185 284.821 124.106 285.07 122.778H278.761V120.038H288.308V119.872Z" fill="#494D53"/>
<path d="M305.326 129.668L301.341 122.778H297.688V129.668H294.617V110.741H302.171C303.832 110.741 305.326 111.322 306.488 112.484C307.65 113.646 308.231 115.057 308.231 116.801C308.231 118.046 307.899 119.125 307.152 120.121C306.488 121.117 305.575 121.865 304.413 122.28L308.729 129.585H305.326V129.668ZM297.688 113.646V119.955H302.171C303.001 119.955 303.665 119.623 304.247 119.042C304.828 118.461 305.077 117.714 305.077 116.801C305.077 115.888 304.828 115.14 304.247 114.559C303.665 113.978 303.001 113.646 302.171 113.646H297.688Z" fill="#494D53"/>
<path d="M330.147 127.178C328.238 129.087 325.913 130 323.174 130C320.434 130 318.11 129.087 316.201 127.178C314.291 125.268 313.378 122.944 313.378 120.204C313.378 117.465 314.291 115.14 316.201 113.231C318.11 111.322 320.434 110.409 323.174 110.409C325.913 110.409 328.238 111.322 330.147 113.231C332.056 115.14 332.969 117.465 332.969 120.204C333.052 122.944 332.056 125.268 330.147 127.178ZM318.442 125.102C319.687 126.347 321.348 127.011 323.174 127.011C325 127.011 326.66 126.347 327.906 125.102C329.151 123.857 329.815 122.197 329.815 120.287C329.815 118.378 329.151 116.718 327.906 115.473C326.66 114.227 325 113.563 323.174 113.563C321.348 113.563 319.687 114.227 318.442 115.473C317.197 116.718 316.533 118.378 316.533 120.287C316.533 122.197 317.197 123.774 318.442 125.102Z" fill="#494D53"/>
<path d="M342.433 129.668L337.12 110.741H340.358L344.342 125.517L348.659 110.741H351.482L355.715 125.517L359.7 110.741H362.938L357.625 129.668H354.055L350.07 115.888L346.086 129.668H342.433Z" fill="#494D53"/>
</g>
<defs>
<clipPath id="clip0">
<rect width="362.937" height="130" fill="white"/>
</clipPath>
</defs>
</svg>
