<svg xmlns="http://www.w3.org/2000/svg" viewBox="0 0 650.65 654.82"><defs><style>.cls-1{fill:#881fdf;}</style></defs><title>circle</title><g id="Layer_2" data-name="Layer 2"><g id="Layer_1-2" data-name="Layer 1"><path class="cls-1" d="M169.64,611.54l1.66,1c28-.89,60.88,1.42,101.8,9.27,41.12,7.91,73.38,18.15,100.37,29.67l1.83-.3c-27.34-11.8-60.07-22.29-102-30.35S198.09,610.51,169.64,611.54Z"/><path class="cls-1" d="M484.65,233.84c-47.84-24.28-97.31-49.38-196.31-54.06S138.15,195.43,88.65,215.1c-24,9.52-48.32,19.2-78.33,26.1-.1.37-.19.73-.29,1.09,30.3-6.93,54.85-16.67,79-26.26,49.4-19.63,100.48-39.93,199.27-35.25S436.45,210.5,484.2,234.73c42.56,21.6,86.41,43.85,165.3,51.79,0-.34,0-.67-.08-1C570.82,277.56,527.09,255.38,484.65,233.84Z"/><path class="cls-1" d="M481.62,307.2c-47.5-25.72-96.62-52.31-195.53-59.76S136,258.89,86.35,277.15c-26,9.56-52.4,19.3-85.9,25.29l-.06,1c33.68-6,60.23-15.77,86.31-25.37C136.2,259.87,187.39,241,286,248.44s147.71,34,195.12,59.64c42.57,23,86.45,46.79,166.3,56.83,0-.33.08-.66.13-1C567.89,353.9,524.1,330.2,481.62,307.2Z"/><path class="cls-1" d="M482.1,288.59c-47.68-25.38-97-51.61-196.22-58.48C187.24,223.27,136,242.47,86.37,261c-25.64,9.6-51.74,19.38-84.64,25.64l-.12,1C34.72,281.45,61,271.63,86.72,262c49.49-18.54,100.67-37.7,199.1-30.87,99,6.85,148.23,33,195.81,58.36,42.92,22.84,87.17,46.37,168,55.77,0-.34,0-.67.08-1C569.08,334.86,524.93,311.37,482.1,288.59Z"/><path class="cls-1" d="M291.31,42.82C258.44,43,230.9,45.72,207,50l-4.24,1.81c24.91-4.77,53.76-7.79,88.61-8,99.11-.85,149.1,21.62,197.42,43.32,33.88,15.22,68.57,30.8,120.37,38.53l-.54-1.09c-51.31-7.75-85.76-23.23-119.42-38.35C440.73,64.48,390.68,42,291.31,42.82Z"/><path class="cls-1" d="M483.24,270.2c-47.73-25-97.08-50.91-196.4-57C187.89,207,136.63,226.58,87.05,245.57c-25.28,9.68-51,19.53-83.3,26,0,.35-.11.7-.17,1.05,32.52-6.5,58.4-16.4,83.83-26.14C136.88,227.55,188,208,286.78,214.21c99.1,6.06,148.36,31.89,196,56.87,42.92,22.51,87.16,45.7,167.84,54.63,0-.33,0-.66,0-1C570.2,315.79,526.06,292.65,483.24,270.2Z"/><path class="cls-1" d="M480.43,325.48c-47.4-26-96.4-52.9-195.29-61.13s-150.21,10.3-199.85,28.22C59.48,301.88,33.2,311.37,0,317.15v1c33.35-5.8,59.72-15.31,85.63-24.66,49.54-17.88,100.76-36.37,199.43-28.16s147.58,35,194.89,61c42.16,23.14,85.6,47,164.29,57.75.07-.33.14-.66.2-1C565.88,372.36,522.51,348.57,480.43,325.48Z"/><path class="cls-1" d="M479.94,343.67c-47.32-26.34-96.25-53.57-195-62.4-98.79-9-150.16,9.18-199.84,26.76-25.71,9.1-51.88,18.36-84.87,23.88,0,.33,0,.67,0,1C33.42,327.39,59.67,318.1,85.46,309c49.58-17.55,100.85-35.69,199.42-26.7,98.51,8.81,147.35,36,194.58,62.27C520.92,367.61,563.62,391.37,640,403c.08-.33.17-.65.25-1C564,390.43,521.34,366.7,479.94,343.67Z"/><path class="cls-1" d="M477.4,398.83c-47.16-27.35-95.91-55.64-194.5-66.81s-150.34,5.89-200.23,22.42c-23.82,7.89-48,15.91-77.61,20.91.06.33.13.66.19,1,29.61-5,53.87-13,77.73-20.94,49.8-16.49,101.29-33.55,199.8-22.38s147.05,39.38,194.11,66.68c38.18,22.15,77.41,44.9,143.29,58.7l.44-.93C554.74,443.7,515.54,421,477.4,398.83Z"/><path class="cls-1" d="M478,380.73c-47.16-27-95.93-54.85-194.55-65.24s-150.21,7-200,23.77C58.79,347.55,33.77,356,2.84,361.16c0,.33.09.66.14,1,31-5.18,56.08-13.63,80.74-21.94,49.73-16.76,101.15-34.09,199.62-23.72S430.42,354.68,477.5,381.6c39.52,22.59,80.18,45.83,150.35,58.88.13-.31.26-.63.38-1C558.09,426.52,517.48,403.3,478,380.73Z"/><path class="cls-1" d="M478.82,362.05c-47.28-26.68-96.16-54.26-194.8-63.86s-150.14,8.12-199.95,25.25C58.86,332.12,33.2,341,1.19,346.29l.09,1c32.11-5.35,57.84-14.2,83.12-22.9,49.7-17.1,101.09-34.79,199.52-25.21s147.22,37.12,194.4,63.74c40.66,22.95,82.51,46.57,156.19,58.84.11-.32.21-.65.31-1C561.22,408.56,519.42,385,478.82,362.05Z"/><path class="cls-1" d="M487.14,141.17c-48.18-22.64-98-46-197.12-47.58S139.87,114.14,90.57,135.51c-10.3,4.46-20.68,9-31.55,13.26l-1.39,1.62c11.52-4.52,22.47-9.26,33.33-14C140.17,115.1,191.05,93.06,290,94.59s148.62,24.89,196.71,47.48c39,18.31,79,37.12,145.35,44.46l-.29-1C565.84,178.13,526,159.4,487.14,141.17Z"/><path class="cls-1" d="M291.4,60.54h-.28C217.81,60.57,170.9,73,131.54,88.39c-1.54,1-3.08,1.93-4.6,2.9,40.3-16.23,87.94-29.72,164.18-29.75h.28c98.75,0,148.46,22.74,196.52,44.74,36,16.49,73,33.4,130.78,40.87-.14-.36-.28-.72-.43-1.07-57.33-7.5-94.09-24.31-129.93-40.71C440.18,83.33,390.38,60.54,291.4,60.54Z"/><path class="cls-1" d="M489.38,67.79C441.06,46.4,391.1,24.26,291.89,25.51c-7.38.09-14.48.31-21.34.63L267,27.33c8-.43,16.22-.71,24.88-.82C390.9,25.29,440.75,47.36,489,68.7c31.23,13.82,63.15,27.94,108.59,35.87l-.69-1.14C552,95.49,520.35,81.49,489.38,67.79Z"/><path class="cls-1" d="M331.62,9.1l-3.73.83C404.05,13.14,447.55,32,489.78,50.36c27.5,11.94,55.53,24.1,92.73,32.05-.3-.4-.62-.8-.93-1.2-36.56-7.95-64.24-20-91.4-31.77C448.54,31.36,405.69,12.75,331.62,9.1Z"/><path class="cls-1" d="M490.07,30.69C463.53,19.33,436.48,7.76,401.18,0q-2,.06-4.08.15c37.13,7.73,65.12,19.71,92.58,31.46C511.59,41,533.84,50.52,560.8,57.9c-.5-.49-1-1-1.51-1.46C533.18,49.15,511.46,39.85,490.07,30.69Z"/><path class="cls-1" d="M504.93,19.42q-6.92-3.2-14-5.83C495.59,15.54,500.23,17.49,504.93,19.42Z"/><path class="cls-1" d="M487,160.17c-48.14-23-97.91-46.74-197.14-48.88-99.09-1.93-150.11,19.82-199.46,40.85C74.77,158.78,59,165.5,41.61,171.51l-.93,1.38c17.92-6.13,34.08-13,50.07-19.83,49.25-21,100.2-42.68,199.05-40.77,99,2.13,148.69,25.85,196.73,48.78,40,19.1,81.11,38.73,150.77,45.92l-.24-1C567.76,198.75,526.79,179.19,487,160.17Z"/><path class="cls-1" d="M485.87,196.86c-47.95-23.6-97.54-48-196.79-51.32S138.73,163.26,89.31,183.61C68.29,192.27,47,201,21.75,208l-.51,1.18c25.6-7,47.18-15.9,68.45-24.65,49.33-20.31,100.33-41.32,199.36-38s148.52,27.66,196.38,51.21c41.52,20.43,84.27,41.46,159.39,48.89l-.15-1C569.87,238.18,527.26,217.22,485.87,196.86Z"/><path class="cls-1" d="M486.49,178.36c-48.06-23.31-97.76-47.41-196.83-50.13S139.47,147,90,167.69c-18.82,7.89-37.89,15.89-59.76,22.61l-.67,1.25c22.31-6.79,41.69-14.92,60.81-22.94,49.35-20.7,100.37-42.09,199.22-39.38s148.46,26.77,196.43,50c40.84,19.82,82.88,40.2,155.4,47.54-.07-.34-.13-.68-.2-1C569.09,218.42,527.2,198.11,486.49,178.36Z"/><path class="cls-1" d="M485.06,215.54c-47.94-24-97.52-48.8-196.55-52.7s-150.23,16.84-199.75,36.9C66.08,208.92,43,218.25,15.2,225.28c-.12.38-.26.76-.39,1.14,28.18-7.07,51.44-16.48,74.33-25.76,49.41-20,100.51-40.7,199.33-36.82s148.29,28.65,196.14,52.59c42.19,21.11,85.64,42.84,162.92,50.42l-.12-1C570.44,258.25,527.12,236.58,485.06,215.54Z"/><path class="cls-1" d="M476.64,418c-47.12-27.78-95.84-56.51-194.72-68.29-98.45-11.78-150.06,4.89-200,21-22.81,7.37-46,14.84-73.83,19.68.08.33.15.65.23,1,27.88-4.85,51.07-12.33,73.91-19.71,49.81-16.08,101.31-32.71,199.54-21,98.67,11.76,147.3,40.43,194.33,68.16C512.6,440.37,550,462.44,611,476.73c.16-.3.32-.61.49-.91C550.51,461.55,513.09,439.5,476.64,418Z"/><path class="cls-1" d="M483.39,252c-47.77-24.6-97.16-50.05-196-55.33-99-5.46-150.25,14.57-199.83,34-24.69,9.64-49.8,19.45-81,26.18-.07.36-.15.72-.23,1.08,31.49-6.75,56.77-16.62,81.62-26.33,49.49-19.34,100.66-39.34,199.42-33.88,98.63,5.27,147.93,30.66,195.6,55.22,43,22.14,87.26,44.94,167.66,53.3,0-.34,0-.68,0-1C570.42,296.83,526.24,274.08,483.39,252Z"/><path class="cls-1" d="M106.78,565.05l.9.84C149.2,558,197.59,554.2,274,570.6c75.25,16.15,120.72,39.56,158.64,64.14l1.14-.45C395.67,609.52,350,585.9,274.22,569.62,197.17,553.08,148.55,557,106.78,565.05Z"/><path class="cls-1" d="M155.74,603.16l1.44.91c31-2,67.9-.17,115.8,9.42,47.32,9.39,82.88,21.84,112.2,35.74l1.61-.34c-29.6-14.16-65.55-26.84-113.61-36.38C224.46,602.76,187.13,601,155.74,603.16Z"/><path class="cls-1" d="M475.38,435.79c-46.94-28.12-95.47-57.2-194-69.55s-150.1,3.91-200,19.64c-21.69,6.84-43.71,13.78-69.78,18.4l.27,1c26.07-4.63,48.1-11.57,69.82-18.41,49.8-15.7,101.3-31.94,199.57-19.61S428,408.58,474.86,436.65c34.7,20.79,70.28,42.1,126.28,56.79l.58-.89C545.65,477.89,510.07,456.58,475.38,435.79Z"/><path class="cls-1" d="M121.45,578.08l1,.85c38.33-5.6,84-6.41,151.36,8.6,63.63,14.18,105.91,33.34,140.34,53.93l1.26-.42c-34.63-20.8-77.15-40.18-141.38-54.48C206,571.39,160.05,572.34,121.45,578.08Z"/><path class="cls-1" d="M131.42,586.09l1.13.87c36.13-4.53,79.37-4.34,140.62,8.81C332,608.4,372.64,625.48,405.7,644.08l1.33-.4c-33.27-18.82-74.17-36.12-133.65-48.89C211.41,581.49,167.83,581.42,131.42,586.09Z"/><path class="cls-1" d="M143.25,594.81l1.27.88c33.7-3.28,74-2.16,128.75,9.15,53.11,11,91.39,25.68,122.65,41.9l1.45-.37c-31.5-16.47-70.11-31.39-123.9-42.51C218,592.4,177.27,591.38,143.25,594.81Z"/><path class="cls-1" d="M272,646.34c-10.83-1.86-21.09-3.35-30.85-4.49q3.24.95,6.51,1.81c7.74,1,15.78,2.22,24.17,3.66,11.25,1.94,21.84,4.06,31.85,6.35,2.22.2,4.46.38,6.69.54C298.5,651.34,285.76,648.7,272,646.34Z"/><path class="cls-1" d="M92,121.79c49.18-21.67,100-44.07,198.94-43.33C389.73,79,439.51,102,487.65,124.27c37.61,17.39,76.23,35.24,138.36,42.61l-.36-1c-61.71-7.4-100.14-25.16-137.58-42.47C439.83,101.06,390,78,291,77.46c-99.11-.72-150.08,21.71-199.36,43.42l-9.09,4c-.77.69-1.53,1.39-2.29,2.09C84.17,125.24,88.09,123.51,92,121.79Z"/><path class="cls-1" d="M472.54,509.35c-46.6-29.36-94.78-59.73-193-75s-150-.5-200,13.82c-15.21,4.36-30.58,8.76-47.37,12.34l.44.93c16.72-3.58,32-8,47.21-12.3,49.9-14.3,101.49-29.08,199.54-13.8S425.5,480.89,472,510.2c24,15.12,48.39,30.5,79.83,43.95l.77-.76C521,539.92,496.58,524.5,472.54,509.35Z"/><path class="cls-1" d="M357.38,653.59c.74-.07,1.48-.16,2.21-.24-24.19-9.12-52.48-17.18-87-23.53-33-6.07-60.77-8.59-85-8.76.7.35,1.41.68,2.11,1,23.68.3,50.73,2.84,82.71,8.72C306,637,333.65,644.78,357.38,653.59Z"/><path class="cls-1" d="M272.33,637.69a524.76,524.76,0,0,0-64.64-7.57l2.84,1.15a528.16,528.16,0,0,1,61.62,7.41,529,529,0,0,1,67.33,16.14l2.93-.12A525.6,525.6,0,0,0,272.33,637.69Z"/><path class="cls-1" d="M471.53,527.83c-46.59-29.76-94.76-60.53-193-76.62s-150-1.58-200.11,12.44c-12.84,3.6-25.8,7.23-39.63,10.36l.48.92c13.74-3.13,26.64-6.74,39.42-10.32,50-14,101.67-28.47,199.68-12.41S424.49,499,471,528.67c20.61,13.16,41.53,26.52,67,38.72.27-.24.54-.48.8-.73C513.19,554.44,492.2,541,471.53,527.83Z"/><path class="cls-1" d="M473.33,491.46c-46.7-29.08-95-59.15-193.28-73.67s-150,.69-200,15.39c-17.1,5-34.4,10.12-53.7,14.05l.39.95c19.25-3.94,36.52-9,53.59-14,49.91-14.67,101.52-29.86,199.6-15.36s146.27,44.5,192.89,73.53c27,16.83,54.59,34,92.07,48.27l.73-.8C528,525.5,500.4,508.31,473.33,491.46Z"/><path class="cls-1" d="M470.33,546.1c-46.48-30-94.55-61.11-192.74-78s-150.11-2.74-200.23,10.95c-10.25,2.8-20.57,5.62-31.35,8.18l.51.91c10.69-2.56,20.94-5.35,31.11-8.13,50-13.65,101.73-27.78,199.79-10.92s146,47.85,192.36,77.84c17,11,34.26,22.14,54.09,32.67l.84-.69C504.75,568.35,487.43,557.16,470.33,546.1Z"/><path class="cls-1" d="M94.36,552.67l.81.84c44.73-9.93,95-17,180.18.59,85.91,17.75,133,45.24,174.37,73.18l1-.49C409.21,598.68,362,571,275.56,553.12,189.81,535.41,139.34,542.64,94.36,552.67Z"/><path class="cls-1" d="M474.56,454.47c-46.82-28.41-95.24-57.78-193.77-70.92S130.62,386.31,80.68,401.7c-20.31,6.26-40.9,12.6-64.83,17,.1.32.21.63.31.95,23.91-4.44,44.51-10.78,64.82-17,49.84-15.35,101.37-31.23,199.68-18.11S427.3,427,474,455.32c32.47,19.7,65.7,39.85,115.86,54.75l.62-.86C540.28,494.33,507,474.17,474.56,454.47Z"/><path class="cls-1" d="M473.77,472.37c-46.72-28.7-95-58.37-193.52-72.3s-150.12,1.64-200.11,16.68c-18.83,5.67-37.9,11.42-59.63,15.61.11.32.23.63.35.95,21.7-4.2,40.76-9.93,59.57-15.6,49.88-15,101.46-30.55,199.68-16.65s146.5,43.52,193.14,72.16c30,18.44,60.69,37.28,104.91,52.09l.68-.84C534.52,509.67,503.81,490.82,473.77,472.37Z"/><path class="cls-1" d="M82.6,539.61c.24.29.47.58.72.86,47.86-11.53,99.36-21.88,192.21-3.3,96.7,19.2,144.28,51.14,189.82,82.19l1-.53c-45.75-31.2-93.41-63.34-190.62-82.64C182.34,517.5,130.7,528,82.6,539.61Z"/><path class="cls-1" d="M468.69,601.39c-46.16-31.1-93.88-63.25-192-82.1s-150-5.85-200.12,6.72l-4.15,1,.67.86L76.8,527c50-12.55,101.77-25.52,199.69-6.71s145.57,50.91,191.64,82q6.19,4.18,12.47,8.37l.94-.57C477.22,607.14,473,604.26,468.69,601.39Z"/><path class="cls-1" d="M469.91,564.4C423.55,533.88,375.6,502.32,277.42,485c-98-17.23-149.77-3.54-199.87,9.69-7.72,2-15.47,4.08-23.43,6,.19.29.37.59.56.89,7.85-1.92,15.51-3.94,23.13-5.95,50-13.21,101.69-26.86,199.44-9.67,98,17.24,145.83,48.74,192.11,79.21,13,8.54,26.08,17.17,40.38,25.54l.86-.66C496.19,581.7,483,573,469.91,564.4Z"/><path class="cls-1" d="M469.1,583.09c-46.26-30.81-94.09-62.67-192.25-80.74s-150-4.66-200.17,8.3q-6.81,1.77-13.7,3.51l.62.88c4.47-1.13,8.91-2.28,13.33-3.42,50.05-12.93,101.79-26.3,199.74-8.28s145.7,49.82,191.87,80.58c8.68,5.78,17.42,11.59,26.53,17.35l.9-.61C486.73,594.83,477.89,588.94,469.1,583.09Z"/></g></g></svg>