<svg width="564" height="584" viewBox="0 0 564 584" fill="none" xmlns="http://www.w3.org/2000/svg">
<g filter="url(#filter0_di)">
<rect x="22" y="22" width="504" height="524" rx="20" fill="#7DE2D1"/>
</g>
<g filter="url(#filter1_ddi)">
<path d="M368.747 108H178.126C165.02 108 154.298 118.722 154.298 131.828V297.993C154.298 315.811 175.841 324.734 188.44 312.135L196.095 304.479C199.846 300.729 204.933 298.622 210.238 298.622H368.747C381.852 298.622 392.575 287.899 392.575 274.794V131.828C392.575 118.722 381.852 108 368.747 108Z" fill="#7DE2D1"/>
</g>
<g filter="url(#filter2_ddi)">
<rect x="191.303" y="151.323" width="168.418" height="10.8308" rx="5.41538" fill="#7DE2D1"/>
</g>
<g filter="url(#filter3_ddi)">
<rect x="191.303" y="191.036" width="168.418" height="10.8308" rx="5.41538" fill="#7DE2D1"/>
</g>
<g filter="url(#filter4_di)">
<rect x="191.303" y="230.749" width="106.503" height="10.8308" rx="5.41538" fill="#8816E1"/>
</g>
<g filter="url(#filter5_di)">
<path d="M285.687 399.781H292.381V388.3V388.3C289.14 387.959 285.883 387.79 282.625 387.795C272.939 387.795 266.316 393.788 266.316 404.763V414.222H255.384V427.075H266.316V460H279.42V427.075H290.316L291.954 414.222H279.42V406.027C279.42 402.236 280.417 399.781 285.687 399.781Z" fill="#7DE2D1"/>
</g>
<g filter="url(#filter6_di)">
<path d="M175.381 400.286C172.989 400.286 171.049 402.226 171.049 404.619C171.049 407.011 172.989 408.951 175.381 408.951C177.774 408.951 179.714 407.011 179.714 404.619C179.714 402.226 177.774 400.286 175.381 400.286ZM191.989 409.023V409.023C191.918 406.028 191.357 403.064 190.328 400.25C189.41 397.843 187.981 395.663 186.14 393.86C184.352 392.01 182.167 390.59 179.75 389.708L179.75 389.708C176.943 388.648 173.976 388.074 170.977 388.012C167.15 387.795 165.922 387.795 156.103 387.795C146.283 387.795 145.055 387.795 141.228 388.012C138.229 388.074 135.262 388.648 132.455 389.708C130.043 390.599 127.859 392.017 126.065 393.86L126.065 393.86C124.215 395.648 122.795 397.833 121.913 400.25V400.25C120.853 403.057 120.279 406.024 120.217 409.023C120 412.85 120 414.078 120 423.897C120 433.717 120 434.945 120.217 438.772V438.772C120.279 441.771 120.853 444.738 121.913 447.545C122.795 449.962 124.215 452.147 126.065 453.935L126.065 453.935C127.859 455.778 130.043 457.196 132.455 458.087C135.262 459.147 138.229 459.721 141.228 459.783C145.055 460 146.283 460 156.103 460C165.922 460 167.15 460 170.977 459.783C173.976 459.721 176.943 459.147 179.75 458.087C182.167 457.205 184.352 455.785 186.14 453.935C187.989 452.139 189.419 449.957 190.328 447.545C191.357 444.731 191.918 441.767 191.989 438.772C191.989 434.945 192.205 433.717 192.205 423.897C192.205 414.078 192.205 412.85 191.989 409.023L191.989 409.023ZM185.49 438.339V438.338C185.464 440.63 185.049 442.901 184.263 445.054C183.686 446.625 182.76 448.044 181.555 449.205C180.384 450.399 178.967 451.323 177.403 451.913C175.25 452.699 172.98 453.114 170.688 453.141C167.078 453.321 165.742 453.357 156.247 453.357C146.752 453.357 145.416 453.357 141.806 453.141C139.426 453.185 137.057 452.819 134.802 452.057C133.307 451.437 131.955 450.515 130.831 449.35H130.831C129.633 448.19 128.718 446.769 128.159 445.198H128.159C127.278 443.014 126.789 440.692 126.715 438.339C126.715 434.728 126.498 433.392 126.498 423.897C126.498 414.403 126.498 413.067 126.715 409.456V409.456C126.731 407.114 127.159 404.792 127.979 402.597V402.597C128.614 401.073 129.59 399.715 130.831 398.626C131.928 397.384 133.283 396.399 134.802 395.737H134.802C137.003 394.943 139.322 394.528 141.662 394.51C145.272 394.51 146.608 394.293 156.103 394.293C165.598 394.293 166.933 394.293 170.544 394.51C172.835 394.536 175.106 394.951 177.259 395.737C178.899 396.346 180.372 397.336 181.555 398.626C182.738 399.735 183.662 401.091 184.263 402.597C185.065 404.795 185.48 407.116 185.49 409.456C185.671 413.067 185.707 414.403 185.707 423.897C185.707 433.392 185.671 434.728 185.49 438.339L185.49 438.339ZM156.103 405.377C145.874 405.397 137.598 413.705 137.618 423.934C137.638 434.162 145.946 442.438 156.175 442.418C166.389 442.398 174.659 434.112 174.659 423.897V423.897C174.679 413.689 166.42 405.397 156.211 405.377C156.175 405.377 156.139 405.377 156.102 405.377H156.103ZM156.103 435.92C149.463 435.92 144.08 430.537 144.08 423.897C144.08 417.258 149.463 411.875 156.103 411.875C162.742 411.875 168.125 417.258 168.125 423.897C168.125 430.537 162.742 435.92 156.103 435.92Z" fill="#7DE2D1"/>
</g>
<g filter="url(#filter7_di)">
<path d="M427.773 403.863C425.06 405.04 422.19 405.818 419.253 406.173C422.352 404.322 424.673 401.411 425.788 397.978C422.876 399.711 419.689 400.932 416.365 401.588C410.823 395.579 401.459 395.199 395.449 400.741C391.502 404.38 389.835 409.871 391.093 415.091C379.188 414.489 368.099 408.859 360.587 399.603L360.587 399.603C359.284 401.878 358.599 404.454 358.601 407.076L358.601 407.076C358.592 412.021 361.058 416.642 365.172 419.387H365.172C362.818 419.323 360.514 418.691 358.457 417.546V417.726V417.726C358.493 424.759 363.473 430.795 370.37 432.167C369.082 432.559 367.745 432.766 366.399 432.781H366.399C365.467 432.77 364.538 432.686 363.619 432.528C365.572 438.543 371.123 442.66 377.447 442.781C372.238 446.88 365.807 449.117 359.179 449.135H359.179C357.972 449.139 356.766 449.067 355.568 448.919L355.568 448.919C362.336 453.288 370.222 455.608 378.277 455.598C401.385 455.838 420.312 437.3 420.552 414.192C420.555 413.938 420.555 413.684 420.553 413.43C420.553 412.816 420.553 412.166 420.553 411.517L420.553 411.517C423.386 409.404 425.829 406.814 427.773 403.863L427.773 403.863Z" fill="#7DE2D1"/>
</g>
<defs>
<filter id="filter0_di" x="0" y="0" width="564" height="584" filterUnits="userSpaceOnUse" color-interpolation-filters="sRGB">
<feFlood flood-opacity="0" result="BackgroundImageFix"/>
<feColorMatrix in="SourceAlpha" type="matrix" values="0 0 0 0 0 0 0 0 0 0 0 0 0 0 0 0 0 0 127 0"/>
<feOffset dx="8" dy="8"/>
<feGaussianBlur stdDeviation="15"/>
<feColorMatrix type="matrix" values="0 0 0 0 0.230677 0 0 0 0 0.5375 0 0 0 0 0.485857 0 0 0 0.5 0"/>
<feBlend mode="normal" in2="BackgroundImageFix" result="effect1_dropShadow"/>
<feBlend mode="normal" in="SourceGraphic" in2="effect1_dropShadow" result="shape"/>
<feColorMatrix in="SourceAlpha" type="matrix" values="0 0 0 0 0 0 0 0 0 0 0 0 0 0 0 0 0 0 127 0" result="hardAlpha"/>
<feOffset dx="6" dy="6"/>
<feGaussianBlur stdDeviation="4"/>
<feComposite in2="hardAlpha" operator="arithmetic" k2="-1" k3="1"/>
<feColorMatrix type="matrix" values="0 0 0 0 0.605313 0 0 0 0 0.975 0 0 0 0 0.912775 0 0 0 0.5 0"/>
<feBlend mode="normal" in2="shape" result="effect2_innerShadow"/>
</filter>
<filter id="filter1_ddi" x="98.2979" y="52" width="350.277" height="322.033" filterUnits="userSpaceOnUse" color-interpolation-filters="sRGB">
<feFlood flood-opacity="0" result="BackgroundImageFix"/>
<feColorMatrix in="SourceAlpha" type="matrix" values="0 0 0 0 0 0 0 0 0 0 0 0 0 0 0 0 0 0 127 0"/>
<feOffset dx="8" dy="8"/>
<feGaussianBlur stdDeviation="24"/>
<feColorMatrix type="matrix" values="0 0 0 0 0.230677 0 0 0 0 0.5375 0 0 0 0 0.485857 0 0 0 0.5 0"/>
<feBlend mode="normal" in2="BackgroundImageFix" result="effect1_dropShadow"/>
<feColorMatrix in="SourceAlpha" type="matrix" values="0 0 0 0 0 0 0 0 0 0 0 0 0 0 0 0 0 0 127 0"/>
<feOffset dx="-8" dy="-8"/>
<feGaussianBlur stdDeviation="24"/>
<feColorMatrix type="matrix" values="0 0 0 0 0.455 0 0 0 0 0.975 0 0 0 0 0.887475 0 0 0 0.7 0"/>
<feBlend mode="normal" in2="effect1_dropShadow" result="effect2_dropShadow"/>
<feBlend mode="normal" in="SourceGraphic" in2="effect2_dropShadow" result="shape"/>
<feColorMatrix in="SourceAlpha" type="matrix" values="0 0 0 0 0 0 0 0 0 0 0 0 0 0 0 0 0 0 127 0" result="hardAlpha"/>
<feOffset dx="6" dy="6"/>
<feGaussianBlur stdDeviation="4"/>
<feComposite in2="hardAlpha" operator="arithmetic" k2="-1" k3="1"/>
<feColorMatrix type="matrix" values="0 0 0 0 0.605313 0 0 0 0 0.975 0 0 0 0 0.912775 0 0 0 0.5 0"/>
<feBlend mode="normal" in2="shape" result="effect3_innerShadow"/>
</filter>
<filter id="filter2_ddi" x="135.303" y="95.3231" width="280.418" height="122.831" filterUnits="userSpaceOnUse" color-interpolation-filters="sRGB">
<feFlood flood-opacity="0" result="BackgroundImageFix"/>
<feColorMatrix in="SourceAlpha" type="matrix" values="0 0 0 0 0 0 0 0 0 0 0 0 0 0 0 0 0 0 127 0"/>
<feOffset dx="8" dy="8"/>
<feGaussianBlur stdDeviation="24"/>
<feColorMatrix type="matrix" values="0 0 0 0 0.230677 0 0 0 0 0.5375 0 0 0 0 0.485857 0 0 0 0.5 0"/>
<feBlend mode="normal" in2="BackgroundImageFix" result="effect1_dropShadow"/>
<feColorMatrix in="SourceAlpha" type="matrix" values="0 0 0 0 0 0 0 0 0 0 0 0 0 0 0 0 0 0 127 0"/>
<feOffset dx="-8" dy="-8"/>
<feGaussianBlur stdDeviation="24"/>
<feColorMatrix type="matrix" values="0 0 0 0 0.455 0 0 0 0 0.975 0 0 0 0 0.887475 0 0 0 0.7 0"/>
<feBlend mode="normal" in2="effect1_dropShadow" result="effect2_dropShadow"/>
<feBlend mode="normal" in="SourceGraphic" in2="effect2_dropShadow" result="shape"/>
<feColorMatrix in="SourceAlpha" type="matrix" values="0 0 0 0 0 0 0 0 0 0 0 0 0 0 0 0 0 0 127 0" result="hardAlpha"/>
<feOffset dx="6" dy="6"/>
<feGaussianBlur stdDeviation="4"/>
<feComposite in2="hardAlpha" operator="arithmetic" k2="-1" k3="1"/>
<feColorMatrix type="matrix" values="0 0 0 0 0.605313 0 0 0 0 0.975 0 0 0 0 0.912775 0 0 0 0.5 0"/>
<feBlend mode="normal" in2="shape" result="effect3_innerShadow"/>
</filter>
<filter id="filter3_ddi" x="135.303" y="135.036" width="280.418" height="122.831" filterUnits="userSpaceOnUse" color-interpolation-filters="sRGB">
<feFlood flood-opacity="0" result="BackgroundImageFix"/>
<feColorMatrix in="SourceAlpha" type="matrix" values="0 0 0 0 0 0 0 0 0 0 0 0 0 0 0 0 0 0 127 0"/>
<feOffset dx="8" dy="8"/>
<feGaussianBlur stdDeviation="24"/>
<feColorMatrix type="matrix" values="0 0 0 0 0.230677 0 0 0 0 0.5375 0 0 0 0 0.485857 0 0 0 0.5 0"/>
<feBlend mode="normal" in2="BackgroundImageFix" result="effect1_dropShadow"/>
<feColorMatrix in="SourceAlpha" type="matrix" values="0 0 0 0 0 0 0 0 0 0 0 0 0 0 0 0 0 0 127 0"/>
<feOffset dx="-8" dy="-8"/>
<feGaussianBlur stdDeviation="24"/>
<feColorMatrix type="matrix" values="0 0 0 0 0.455 0 0 0 0 0.975 0 0 0 0 0.887475 0 0 0 0.7 0"/>
<feBlend mode="normal" in2="effect1_dropShadow" result="effect2_dropShadow"/>
<feBlend mode="normal" in="SourceGraphic" in2="effect2_dropShadow" result="shape"/>
<feColorMatrix in="SourceAlpha" type="matrix" values="0 0 0 0 0 0 0 0 0 0 0 0 0 0 0 0 0 0 127 0" result="hardAlpha"/>
<feOffset dx="6" dy="6"/>
<feGaussianBlur stdDeviation="4"/>
<feComposite in2="hardAlpha" operator="arithmetic" k2="-1" k3="1"/>
<feColorMatrix type="matrix" values="0 0 0 0 0.605313 0 0 0 0 0.975 0 0 0 0 0.912775 0 0 0 0.5 0"/>
<feBlend mode="normal" in2="shape" result="effect3_innerShadow"/>
</filter>
<filter id="filter4_di" x="151.303" y="190.749" width="202.503" height="106.831" filterUnits="userSpaceOnUse" color-interpolation-filters="sRGB">
<feFlood flood-opacity="0" result="BackgroundImageFix"/>
<feColorMatrix in="SourceAlpha" type="matrix" values="0 0 0 0 0 0 0 0 0 0 0 0 0 0 0 0 0 0 127 0"/>
<feOffset dx="8" dy="8"/>
<feGaussianBlur stdDeviation="24"/>
<feColorMatrix type="matrix" values="0 0 0 0 0.588235 0 0 0 0 0.172549 0 0 0 0 0.917647 0 0 0 0.3 0"/>
<feBlend mode="normal" in2="BackgroundImageFix" result="effect1_dropShadow"/>
<feBlend mode="normal" in="SourceGraphic" in2="effect1_dropShadow" result="shape"/>
<feColorMatrix in="SourceAlpha" type="matrix" values="0 0 0 0 0 0 0 0 0 0 0 0 0 0 0 0 0 0 127 0" result="hardAlpha"/>
<feOffset dx="6" dy="6"/>
<feGaussianBlur stdDeviation="4"/>
<feComposite in2="hardAlpha" operator="arithmetic" k2="-1" k3="1"/>
<feColorMatrix type="matrix" values="0 0 0 0 0.847059 0 0 0 0 0.654902 0 0 0 0 1 0 0 0 0.5 0"/>
<feBlend mode="normal" in2="shape" result="effect2_innerShadow"/>
</filter>
<filter id="filter5_di" x="237.384" y="369.795" width="84.9977" height="120.205" filterUnits="userSpaceOnUse" color-interpolation-filters="sRGB">
<feFlood flood-opacity="0" result="BackgroundImageFix"/>
<feColorMatrix in="SourceAlpha" type="matrix" values="0 0 0 0 0 0 0 0 0 0 0 0 0 0 0 0 0 0 127 0"/>
<feOffset dx="6" dy="6"/>
<feGaussianBlur stdDeviation="12"/>
<feColorMatrix type="matrix" values="0 0 0 0 0.231373 0 0 0 0 0.537255 0 0 0 0 0.486275 0 0 0 0.2 0"/>
<feBlend mode="normal" in2="BackgroundImageFix" result="effect1_dropShadow"/>
<feBlend mode="normal" in="SourceGraphic" in2="effect1_dropShadow" result="shape"/>
<feColorMatrix in="SourceAlpha" type="matrix" values="0 0 0 0 0 0 0 0 0 0 0 0 0 0 0 0 0 0 127 0" result="hardAlpha"/>
<feOffset dx="4" dy="4"/>
<feGaussianBlur stdDeviation="2.5"/>
<feComposite in2="hardAlpha" operator="arithmetic" k2="-1" k3="1"/>
<feColorMatrix type="matrix" values="0 0 0 0 0.603922 0 0 0 0 0.976471 0 0 0 0 0.913725 0 0 0 0.5 0"/>
<feBlend mode="normal" in2="shape" result="effect2_innerShadow"/>
</filter>
<filter id="filter6_di" x="102" y="369.795" width="120.205" height="120.205" filterUnits="userSpaceOnUse" color-interpolation-filters="sRGB">
<feFlood flood-opacity="0" result="BackgroundImageFix"/>
<feColorMatrix in="SourceAlpha" type="matrix" values="0 0 0 0 0 0 0 0 0 0 0 0 0 0 0 0 0 0 127 0"/>
<feOffset dx="6" dy="6"/>
<feGaussianBlur stdDeviation="12"/>
<feColorMatrix type="matrix" values="0 0 0 0 0.231373 0 0 0 0 0.537255 0 0 0 0 0.486275 0 0 0 0.2 0"/>
<feBlend mode="normal" in2="BackgroundImageFix" result="effect1_dropShadow"/>
<feBlend mode="normal" in="SourceGraphic" in2="effect1_dropShadow" result="shape"/>
<feColorMatrix in="SourceAlpha" type="matrix" values="0 0 0 0 0 0 0 0 0 0 0 0 0 0 0 0 0 0 127 0" result="hardAlpha"/>
<feOffset dx="4" dy="4"/>
<feGaussianBlur stdDeviation="2.5"/>
<feComposite in2="hardAlpha" operator="arithmetic" k2="-1" k3="1"/>
<feColorMatrix type="matrix" values="0 0 0 0 0.603922 0 0 0 0 0.976471 0 0 0 0 0.913725 0 0 0 0.5 0"/>
<feBlend mode="normal" in2="shape" result="effect2_innerShadow"/>
</filter>
<filter id="filter7_di" x="337.568" y="378.821" width="120.205" height="106.779" filterUnits="userSpaceOnUse" color-interpolation-filters="sRGB">
<feFlood flood-opacity="0" result="BackgroundImageFix"/>
<feColorMatrix in="SourceAlpha" type="matrix" values="0 0 0 0 0 0 0 0 0 0 0 0 0 0 0 0 0 0 127 0"/>
<feOffset dx="6" dy="6"/>
<feGaussianBlur stdDeviation="12"/>
<feColorMatrix type="matrix" values="0 0 0 0 0.231373 0 0 0 0 0.537255 0 0 0 0 0.486275 0 0 0 0.2 0"/>
<feBlend mode="normal" in2="BackgroundImageFix" result="effect1_dropShadow"/>
<feBlend mode="normal" in="SourceGraphic" in2="effect1_dropShadow" result="shape"/>
<feColorMatrix in="SourceAlpha" type="matrix" values="0 0 0 0 0 0 0 0 0 0 0 0 0 0 0 0 0 0 127 0" result="hardAlpha"/>
<feOffset dx="4" dy="4"/>
<feGaussianBlur stdDeviation="2.5"/>
<feComposite in2="hardAlpha" operator="arithmetic" k2="-1" k3="1"/>
<feColorMatrix type="matrix" values="0 0 0 0 0.603922 0 0 0 0 0.976471 0 0 0 0 0.913725 0 0 0 0.5 0"/>
<feBlend mode="normal" in2="shape" result="effect2_innerShadow"/>
</filter>
</defs>
</svg>
