<svg width="48" height="48" viewBox="0 0 48 48" fill="none" xmlns="http://www.w3.org/2000/svg">
<path d="M7.5 24H9" stroke="#7DE2D1"/>
<path d="M5.25 3.75V0" stroke="#7DE2D1"/>
<path d="M15.75 16.5V26.25C15.75 26.6647 15.4147 27 15 27H6C5.58525 27 5.25 26.6647 5.25 26.25V15.75" stroke="#7DE2D1"/>
<path d="M15.75 0V4.5" stroke="#7DE2D1"/>
<path d="M21 6H19.5L12 3.75H5.25C4.42125 3.75 3.75 4.422 3.75 5.25C3.75 6.078 4.42125 6.75 5.25 6.75H3.75C2.92125 6.75 2.25 7.422 2.25 8.25C2.25 9.078 2.92125 9.75 3.75 9.75H2.25C1.42125 9.75 0.75 10.422 0.75 11.25C0.75 12.078 1.42125 12.75 2.25 12.75H3.75C2.92125 12.75 2.25 13.422 2.25 14.25C2.25 15.078 2.92125 15.75 3.75 15.75H10.5" stroke="#7DE2D1"/>
<path d="M3.75 12.75H8.25" stroke="#7DE2D1"/>
<path d="M3.75 9.75H8.25" stroke="#7DE2D1"/>
<path d="M5.25 6.75H8.25" stroke="#7DE2D1"/>
<path d="M7.5 17.25C7.5 18.078 8.17125 18.75 9 18.75H12L15 17.25L18 15H21" stroke="#7DE2D1"/>
<path d="M24 7.5V9" stroke="#7DE2D1"/>
<path d="M44.25 5.25H48" stroke="#222829" stroke-width="2"/>
<path d="M31.5 15.75H21.75C21.3353 15.75 21 15.4147 21 15V6C21 5.58525 21.3353 5.25 21.75 5.25H32.25" stroke="#7DE2D1"/>
<path d="M48 15.75H43.5" stroke="#222829" stroke-width="2"/>
<path d="M42 21V19.5L44.25 12V5.25C44.25 4.422 43.578 3.75 42.75 3.75C41.9212 3.75 41.25 4.422 41.25 5.25V3.75C41.25 2.92125 40.578 2.25 39.75 2.25C38.9212 2.25 38.25 2.92125 38.25 3.75V2.25C38.25 1.42125 37.578 0.75 36.75 0.75C35.9212 0.75 35.25 1.42125 35.25 2.25V3.75C35.25 2.92125 34.578 2.25 33.75 2.25C32.9212 2.25 32.25 2.92125 32.25 3.75V10.5" stroke="#7DE2D1"/>
<path d="M35.25 3.75V8.25" stroke="#7DE2D1"/>
<path d="M38.25 3.75V8.25" stroke="#7DE2D1"/>
<path d="M41.25 5.25V8.25" stroke="#7DE2D1" stroke-width="2"/>
<path d="M30.75 7.5C29.9212 7.5 29.25 8.172 29.25 9V12L30.75 15L33 18V21" stroke="#7DE2D1"/>
<path d="M39 24H40.5" stroke="#7DE2D1"/>
<path d="M32.25 43.5V48" stroke="#7DE2D1"/>
<path d="M42.75 30.75V21.75C42.75 21.3353 42.4147 21 42 21H33C32.5853 21 32.25 21.3353 32.25 21.75V31.5" stroke="#7DE2D1"/>
<path d="M42.75 48V42.75" stroke="#222829" stroke-width="2"/>
<path d="M27 33H28.5L36 30.75H42.75C43.578 30.75 44.25 31.422 44.25 32.25C44.25 33.078 43.578 33.75 42.75 33.75H44.25C45.078 33.75 45.75 34.422 45.75 35.25C45.75 36.078 45.078 36.75 44.25 36.75H45.75C46.578 36.75 47.25 37.422 47.25 38.25C47.25 39.078 46.578 39.75 45.75 39.75H44.25C45.078 39.75 45.75 40.422 45.75 41.25C45.75 42.078 45.078 42.75 44.25 42.75H37.5" stroke="#7DE2D1"/>
<path d="M44.25 39.75H39.75" stroke="#7DE2D1"/>
<path d="M44.25 36.75H39.75" stroke="#7DE2D1"/>
<path d="M42.75 33.75H39.75" stroke="#7DE2D1"/>
<path d="M40.5 44.25C40.5 45.078 39.828 45.75 39 45.75H36L33 44.25L30 42H27" stroke="#7DE2D1"/>
<path d="M24 34.5V36" stroke="#7DE2D1"/>
<path d="M5.25 32.25H0" stroke="#7DE2D1"/>
<path d="M15.75 42.75H26.25C26.6647 42.75 27 42.4147 27 42V33C27 32.5853 26.6647 32.25 26.25 32.25H16.5" stroke="#7DE2D1"/>
<path d="M0 42.75H3.75" stroke="#7DE2D1"/>
<path d="M6 27V28.5L3.75 36V42.75C3.75 43.578 4.42125 44.25 5.25 44.25C6.078 44.25 6.75 43.578 6.75 42.75V44.25C6.75 45.078 7.42125 45.75 8.25 45.75C9.078 45.75 9.75 45.078 9.75 44.25V45.75C9.75 46.578 10.4212 47.25 11.25 47.25C12.078 47.25 12.75 46.578 12.75 45.75V44.25C12.75 45.078 13.4212 45.75 14.25 45.75C15.078 45.75 15.75 45.078 15.75 44.25V37.5" stroke="#7DE2D1"/>
<path d="M12.75 44.25V39.75" stroke="#7DE2D1"/>
<path d="M9.75 44.25V39.75" stroke="#7DE2D1"/>
<path d="M6.75 42.75V39.75" stroke="#7DE2D1"/>
<path d="M17.25 40.5C18.078 40.5 18.75 39.828 18.75 39V36L17.25 33L15 30V27" stroke="#7DE2D1"/>
<path d="M5.25 27H15.75" stroke="#7DE2D1"/>
</svg>
