<svg width="1440" height="748" viewBox="0 0 1440 748" fill="none" xmlns="http://www.w3.org/2000/svg">
<path d="M-309 582.588C-266.8 527.951 -149.7 524.238 -61.4 542.539C26.9 560.906 113.6 593.86 205.4 586.169C293.1 578.809 367 534.98 455 529.211C553.3 522.713 642.3 564.287 723.3 601.751C804.3 639.281 900.7 676.347 996.3 659.902C1080.4 645.447 1140.1 592.667 1224 577.814C1406.3 545.523 1562.9 703.334 1750.2 687.818C1811.9 682.712 1867 658.841 1928.4 652.211C2110.8 632.451 2272.9 766.988 2454.6 744.444C2553 732.244 2631.4 675.352 2731.3 670.578C2817.1 666.533 2894.1 701.742 2972.1 725.812C3050.1 749.881 3155.6 759.761 3211.5 716.462" stroke="url(#paint0_linear)" stroke-miterlimit="10"/>
<path d="M-314 579.274C-271.8 524.637 -154.7 520.924 -66.4 539.224C21.9 557.591 108.6 590.546 200.4 582.854C288.1 575.494 362 531.665 450 525.897C548.3 519.398 637.3 560.973 718.3 598.437C799.3 635.966 895.7 673.032 991.3 656.588C1075.4 642.133 1135.1 589.353 1219 574.5C1401.3 542.208 1557.9 700.019 1745.2 684.503C1806.9 679.398 1862 655.527 1923.4 648.896C2105.8 629.137 2267.9 763.674 2449.6 741.13C2548 728.929 2626.4 672.038 2726.3 667.263C2812.1 663.219 2889.1 698.428 2967.1 722.497C3045.1 746.567 3150.6 756.447 3206.5 713.148" stroke="url(#paint1_linear)" stroke-miterlimit="10"/>
<path d="M-319 575.957C-276.8 521.32 -159.7 517.607 -71.4 535.908C16.9 554.209 103.6 587.23 195.4 579.538C283.1 572.178 357 528.349 445 522.58C543.3 516.082 632.3 557.657 713.3 595.12C794.3 632.65 890.7 669.716 986.3 653.272C1070.4 638.817 1130.1 586.036 1214 571.183C1396.3 538.892 1552.9 696.703 1740.2 681.187C1801.9 676.081 1857 652.211 1918.4 645.58C2100.8 625.82 2262.9 760.358 2444.6 737.813C2543 725.613 2621.4 668.721 2721.3 663.947C2807.1 659.902 2884.1 695.111 2962.1 719.181C3040.1 743.25 3145.6 753.13 3201.5 709.832" stroke="url(#paint2_linear)" stroke-miterlimit="10"/>
<path d="M-324 572.642C-281.8 518.005 -164.7 514.292 -76.4 532.593C11.9 550.894 98.6 583.915 190.4 576.223C278.1 568.863 352 525.034 440 519.265C538.3 512.767 627.3 554.342 708.3 591.805C789.3 629.335 885.7 666.401 981.3 649.957C1065.4 635.502 1125.1 582.721 1209 567.868C1391.3 535.577 1547.9 693.388 1735.2 677.872C1796.9 672.766 1852 648.896 1913.4 642.265C2095.8 622.505 2257.9 757.043 2439.6 734.498C2538 722.298 2616.4 665.406 2716.3 660.632C2802.1 656.587 2879.1 691.796 2957.1 715.866C3035.1 739.935 3140.6 749.815 3196.5 706.517" stroke="url(#paint3_linear)" stroke-miterlimit="10"/>
<path d="M-329 569.327C-286.8 514.689 -169.7 510.976 -81.4 529.277C6.90001 547.578 93.6 580.599 185.4 572.907C273.1 565.547 347 521.718 435 515.949C533.3 509.451 622.3 551.026 703.3 588.489C784.3 626.019 880.7 663.085 976.3 646.641C1060.4 632.186 1120.1 579.405 1204 564.552C1386.3 532.261 1542.9 690.072 1730.2 674.556C1791.9 669.45 1847 645.58 1908.4 638.949C2090.8 619.19 2252.9 753.727 2434.6 731.182C2533 718.982 2611.4 662.09 2711.3 657.316C2797.1 653.271 2874.1 688.48 2952.1 712.55C3030.1 736.619 3135.6 746.499 3191.5 703.201" stroke="url(#paint4_linear)" stroke-miterlimit="10"/>
<path d="M-334 566.012C-291.8 511.374 -174.7 507.661 -86.4 525.962C1.90001 544.263 88.6 577.284 180.4 569.592C268.1 562.232 342 518.403 430 512.634C528.3 506.136 617.3 547.711 698.3 585.174C779.3 622.704 875.7 659.77 971.3 643.326C1055.4 628.871 1115.1 576.09 1199 561.237C1381.3 528.946 1537.9 686.757 1725.2 671.241C1786.9 666.135 1842 642.265 1903.4 635.634C2085.8 615.875 2247.9 750.412 2429.6 727.867C2528 715.667 2606.4 658.775 2706.3 654.001C2792.1 649.956 2869.1 685.166 2947.1 709.235C3025.1 733.305 3130.6 743.184 3186.5 699.886" stroke="url(#paint5_linear)" stroke-miterlimit="10"/>
<path d="M-339 562.694C-296.8 508.057 -179.7 504.344 -91.4 522.645C-3.09999 540.945 83.6 573.966 175.4 566.275C263.1 558.915 337 515.086 425 509.317C523.3 502.819 612.3 544.393 693.3 581.857C774.3 619.387 870.7 656.453 966.3 640.008C1050.4 625.553 1110.1 572.773 1194 557.92C1376.3 525.629 1532.9 683.44 1720.2 667.924C1781.9 662.818 1837 638.947 1898.4 632.317C2080.8 612.557 2242.9 747.094 2424.6 724.55C2523 712.349 2601.4 655.458 2701.3 650.684C2787.1 646.639 2864.1 681.848 2942.1 705.918C3020.1 729.987 3125.6 739.867 3181.5 696.568" stroke="url(#paint6_linear)" stroke-miterlimit="10"/>
<path d="M-344 559.381C-301.8 504.744 -184.7 501.03 -96.4 519.331C-8.09999 537.632 78.6 570.653 170.4 562.961C258.1 555.601 332 511.772 420 506.003C518.3 499.505 607.3 541.08 688.3 578.544C769.3 616.073 865.7 653.139 961.3 636.695C1045.4 622.24 1105.1 569.459 1189 554.607C1371.3 522.315 1527.9 680.126 1715.2 664.61C1776.9 659.505 1832 635.634 1893.4 629.003C2075.8 609.244 2237.9 743.781 2419.6 721.237C2518 709.036 2596.4 652.144 2696.3 647.37C2782.1 643.326 2859.1 678.535 2937.1 702.604C3015.1 726.674 3120.6 736.553 3176.5 693.255" stroke="url(#paint7_linear)" stroke-miterlimit="10"/>
<path d="M-349 556.066C-306.8 501.429 -189.7 497.716 -101.4 516.016C-13.1 534.317 73.6 567.338 165.4 559.646C253.1 552.286 327 508.457 415 502.689C513.3 496.19 602.3 537.765 683.3 575.229C764.3 612.758 860.7 649.824 956.3 633.38C1040.4 618.925 1100.1 566.144 1184 551.292C1366.3 519 1522.9 676.811 1710.2 661.295C1771.9 656.19 1827 632.319 1888.4 625.688C2070.8 605.929 2232.9 740.466 2414.6 717.922C2513 705.721 2591.4 648.829 2691.3 644.055C2777.1 640.011 2854.1 675.22 2932.1 699.289C3010.1 723.359 3115.6 733.239 3171.5 689.94" stroke="url(#paint8_linear)" stroke-miterlimit="10"/>
<path d="M-354 552.75C-311.8 498.113 -194.7 494.4 -106.4 512.701C-18.1 531.002 68.6 564.023 160.4 556.331C248.1 548.971 322 505.142 410 499.373C508.3 492.875 597.3 534.45 678.3 571.913C759.3 609.377 855.7 646.509 951.3 630.065C1035.4 615.61 1095.1 562.829 1179 547.976C1361.3 515.685 1517.9 673.496 1705.2 657.98C1766.9 652.874 1822 629.004 1883.4 622.373C2065.8 602.613 2227.9 737.151 2409.6 714.606C2508 702.406 2586.4 645.514 2686.3 640.74C2772.1 636.695 2849.1 671.904 2927.1 695.974C3005.1 720.043 3110.6 729.923 3166.5 686.625" stroke="url(#paint9_linear)" stroke-miterlimit="10"/>
<path d="M-359 549.435C-316.8 494.798 -199.7 491.085 -111.4 509.385C-23.1 527.686 63.6 560.707 155.4 553.016C243.1 545.655 317 501.826 405 496.058C503.3 489.56 592.3 531.134 673.3 568.598C754.3 606.061 850.7 643.193 946.3 626.749C1030.4 612.294 1090.1 559.514 1174 544.661C1356.3 512.369 1512.9 670.18 1700.2 654.664C1761.9 649.559 1817 625.688 1878.4 619.057C2060.8 599.298 2222.9 733.835 2404.6 711.291C2503 699.09 2581.4 642.199 2681.3 637.425C2767.1 633.38 2844.1 668.589 2922.1 692.658C3000.1 716.728 3105.6 726.608 3161.5 683.309" stroke="url(#paint10_linear)" stroke-miterlimit="10"/>
<path d="M-364 546.119C-321.8 491.482 -204.7 487.769 -116.4 506.07C-28.1 524.371 58.6 557.392 150.4 549.7C238.1 542.34 312 498.511 400 492.742C498.3 486.244 587.3 527.819 668.3 565.282C749.3 602.746 845.7 639.878 941.3 623.434C1025.4 608.979 1085.1 556.198 1169 541.345C1351.3 509.054 1507.9 666.865 1695.2 651.349C1756.9 646.243 1812 622.373 1873.4 615.742C2055.8 595.982 2217.9 730.52 2399.6 707.975C2498 695.775 2576.4 638.883 2676.3 634.109C2762.1 630.064 2839.1 665.273 2917.1 689.343C2995.1 713.412 3100.6 723.292 3156.5 679.994" stroke="url(#paint11_linear)" stroke-miterlimit="10"/>
<path d="M-369 542.804C-326.8 488.167 -209.7 484.454 -121.4 502.755C-33.1 521.055 53.6 554.076 145.4 546.385C233.1 539.025 307 495.196 395 489.427C493.3 482.929 582.3 524.503 663.3 561.967C744.3 599.43 840.7 636.562 936.3 620.118C1020.4 605.663 1080.1 552.883 1164 538.03C1346.3 505.738 1502.9 663.549 1690.2 648.034C1751.9 642.928 1807 619.057 1868.4 612.427C2050.8 592.667 2212.9 727.204 2394.6 704.66C2493 692.459 2571.4 635.568 2671.3 630.794C2757.1 626.749 2834.1 661.958 2912.1 686.028C2990.1 710.097 3095.6 719.977 3151.5 676.678" stroke="url(#paint12_linear)" stroke-miterlimit="10"/>
<path d="M-374 539.488C-331.8 484.851 -214.7 481.138 -126.4 499.439C-38.1 517.739 48.6 550.76 140.4 543.069C228.1 535.709 302 491.88 390 486.111C488.3 479.613 577.3 521.187 658.3 558.651C739.3 596.114 835.7 633.246 931.3 616.802C1015.4 602.347 1075.1 549.567 1159 534.714C1341.3 502.422 1497.9 660.233 1685.2 644.718C1746.9 639.612 1802 615.741 1863.4 609.111C2045.8 589.351 2207.9 723.888 2389.6 701.344C2488 689.143 2566.4 632.252 2666.3 627.478C2752.1 623.433 2829.1 658.642 2907.1 682.712C2985.1 706.781 3090.6 716.661 3146.5 673.362" stroke="url(#paint13_linear)" stroke-miterlimit="10"/>
<path d="M-379 536.172C-336.8 481.535 -219.7 477.821 -131.4 496.122C-43.1 514.423 43.6 547.444 135.4 539.752C223.1 532.392 297 488.563 385 482.794C483.3 476.296 572.3 517.871 653.3 555.335C734.3 592.798 830.7 629.93 926.3 613.486C1010.4 599.031 1070.1 546.25 1154 531.398C1336.3 499.106 1492.9 656.917 1680.2 641.401C1741.9 636.296 1797 612.425 1858.4 605.794C2040.8 586.035 2202.9 720.572 2384.6 698.028C2483 685.827 2561.4 628.935 2661.3 624.161C2747.1 620.117 2824.1 655.326 2902.1 679.395C2980.1 703.465 3085.6 713.344 3141.5 670.046" stroke="url(#paint14_linear)" stroke-miterlimit="10"/>
<path d="M-384 532.858C-341.8 478.221 -224.7 474.507 -136.4 492.808C-48.1 511.109 38.6 544.13 130.4 536.438C218.1 529.078 292 485.249 380 479.481C478.3 472.982 567.3 514.557 648.3 552.021C729.3 589.484 825.7 626.616 921.3 610.172C1005.4 595.717 1065.1 542.936 1149 528.084C1331.3 495.792 1487.9 653.603 1675.2 638.087C1736.9 632.982 1792 609.111 1853.4 602.48C2035.8 582.721 2197.9 717.258 2379.6 694.714C2478 682.513 2556.4 625.621 2656.3 620.847C2742.1 616.803 2819.1 652.012 2897.1 676.081C2975.1 700.151 3080.6 710.031 3136.5 666.732" stroke="url(#paint15_linear)" stroke-miterlimit="10"/>
<path d="M-389 529.541C-346.8 474.904 -229.7 471.191 -141.4 489.491C-53.1 507.792 33.6 540.813 125.4 533.121C213.1 525.761 287 481.932 375 476.164C473.3 469.666 562.3 511.24 643.3 548.704C724.3 586.167 820.7 623.299 916.3 606.855C1000.4 592.4 1060.1 539.62 1144 524.767C1326.3 492.475 1482.9 650.286 1670.2 634.77C1731.9 629.665 1787 605.794 1848.4 599.163C2030.8 579.404 2192.9 713.941 2374.6 691.397C2473 679.196 2551.4 622.305 2651.3 617.53C2737.1 613.486 2814.1 648.695 2892.1 672.764C2970.1 696.834 3075.6 706.714 3131.5 663.415" stroke="url(#paint16_linear)" stroke-miterlimit="10"/>
<path d="M-394 526.227C-351.8 471.59 -234.7 467.877 -146.4 486.177C-58.1 504.478 28.6 537.499 120.4 529.808C208.1 522.447 282 478.618 370 472.85C468.3 466.352 557.3 507.926 638.3 545.39C719.3 582.853 815.7 619.985 911.3 603.541C995.4 589.086 1055.1 536.306 1139 521.453C1321.3 489.161 1477.9 646.972 1665.2 631.456C1726.9 626.351 1782 602.48 1843.4 595.849C2025.8 576.09 2187.9 710.627 2369.6 688.083C2468 675.882 2546.4 618.991 2646.3 614.217C2732.1 610.172 2809.1 645.381 2887.1 669.45C2965.1 693.52 3070.6 703.4 3126.5 660.101" stroke="url(#paint17_linear)" stroke-miterlimit="10"/>
<path d="M-399 522.912C-356.8 468.274 -239.7 464.561 -151.4 482.862C-63.1 501.163 23.6 534.184 115.4 526.492C203.1 519.132 277 475.303 365 469.534C463.3 463.036 552.3 504.611 633.3 542.074C714.3 579.538 810.7 616.67 906.3 600.226C990.4 585.771 1050.1 532.99 1134 518.137C1316.3 485.846 1472.9 643.657 1660.2 628.141C1721.9 623.035 1777 599.165 1838.4 592.534C2020.8 572.774 2182.9 707.312 2364.6 684.767C2463 672.567 2541.4 615.675 2641.3 610.901C2727.1 606.856 2804.1 642.065 2882.1 666.135C2960.1 690.204 3065.6 700.084 3121.5 656.786" stroke="url(#paint18_linear)" stroke-miterlimit="10"/>
<path d="M-404 519.596C-361.8 464.959 -244.7 461.246 -156.4 479.547C-68.1 497.847 18.6 530.868 110.4 523.177C198.1 515.817 272 471.988 360 466.219C458.3 459.721 547.3 501.295 628.3 538.759C709.3 576.222 805.7 613.354 901.3 596.91C985.4 582.455 1045.1 529.675 1129 514.822C1311.3 482.53 1467.9 640.341 1655.2 624.826C1716.9 619.72 1772 595.849 1833.4 589.219C2015.8 569.459 2177.9 703.996 2359.6 681.452C2458 669.251 2536.4 612.36 2636.3 607.586C2722.1 603.541 2799.1 638.75 2877.1 662.82C2955.1 686.889 3060.6 696.769 3116.5 653.47" stroke="url(#paint19_linear)" stroke-miterlimit="10"/>
<path d="M-409 516.281C-366.8 461.644 -249.7 457.931 -161.4 476.232C-73.1 494.532 13.6 527.553 105.4 519.862C193.1 512.502 267 468.673 355 462.904C453.3 456.406 542.3 497.98 623.3 535.444C704.3 572.907 800.7 610.039 896.3 593.595C980.4 579.14 1040.1 526.36 1124 511.507C1306.3 479.215 1462.9 637.026 1650.2 621.511C1711.9 616.405 1767 592.534 1828.4 585.904C2010.8 566.144 2172.9 700.681 2354.6 678.137C2453 665.936 2531.4 609.045 2631.3 604.271C2717.1 600.226 2794.1 635.435 2872.1 659.505C2950.1 683.574 3055.6 693.454 3111.5 650.155" stroke="url(#paint20_linear)" stroke-miterlimit="10"/>
<path d="M-414 512.966C-371.8 458.329 -254.7 454.616 -166.4 472.917C-78.1 491.217 8.60002 524.238 100.4 516.547C188.1 509.187 262 465.358 350 459.589C448.3 453.091 537.3 494.665 618.3 532.129C699.3 569.592 795.7 606.725 891.3 590.28C975.4 575.825 1035.1 523.045 1119 508.192C1301.3 475.9 1457.9 633.712 1645.2 618.196C1706.9 613.09 1762 589.219 1823.4 582.589C2005.8 562.829 2167.9 697.366 2349.6 674.822C2448 662.621 2526.4 605.73 2626.3 600.956C2712.1 596.911 2789.1 632.12 2867.1 656.19C2945.1 680.259 3050.6 690.139 3106.5 646.84" stroke="url(#paint21_linear)" stroke-miterlimit="10"/>
<path d="M-419 509.65C-376.8 455.013 -259.7 451.3 -171.4 469.601C-83.1 487.902 3.60002 520.922 95.4 513.231C183.1 505.871 257 462.042 345 456.273C443.3 449.775 532.3 491.349 613.3 528.813C694.3 566.277 790.7 603.409 886.3 586.964C970.4 572.509 1030.1 519.729 1114 504.876C1296.3 472.585 1452.9 630.396 1640.2 614.88C1701.9 609.774 1757 585.903 1818.4 579.273C2000.8 559.513 2162.9 694.05 2344.6 671.506C2443 659.306 2521.4 602.414 2621.3 597.64C2707.1 593.595 2784.1 628.804 2862.1 652.874C2940.1 676.943 3045.6 686.823 3101.5 643.524" stroke="url(#paint22_linear)" stroke-miterlimit="10"/>
<path d="M-424 506.335C-381.8 451.698 -264.7 447.985 -176.4 466.285C-88.1 484.586 -1.39998 517.607 90.4 509.915C178.1 502.555 252 458.726 340 452.958C438.3 446.459 527.3 488.034 608.3 525.498C689.3 562.961 785.7 600.093 881.3 583.649C965.4 569.194 1025.1 516.414 1109 501.561C1291.3 469.269 1447.9 627.08 1635.2 611.564C1696.9 606.459 1752 582.588 1813.4 575.957C1995.8 556.198 2157.9 690.735 2339.6 668.191C2438 655.99 2516.4 599.099 2616.3 594.324C2702.1 590.28 2779.1 625.489 2857.1 649.558C2935.1 673.628 3040.6 683.508 3096.5 640.209" stroke="url(#paint23_linear)" stroke-miterlimit="10"/>
<path d="M-429 503.019C-386.8 448.382 -269.7 444.669 -181.4 462.97C-93.1 481.271 -6.39998 514.292 85.4 506.6C173.1 499.24 247 455.411 335 449.642C433.3 443.144 522.3 484.719 603.3 522.182C684.3 559.646 780.7 596.778 876.3 580.334C960.4 565.879 1020.1 513.098 1104 498.245C1286.3 465.954 1442.9 623.765 1630.2 608.249C1691.9 603.143 1747 579.273 1808.4 572.642C1990.8 552.882 2152.9 687.42 2334.6 664.875C2433 652.675 2511.4 595.783 2611.3 591.009C2697.1 586.964 2774.1 622.173 2852.1 646.243C2930.1 670.312 3035.6 680.192 3091.5 636.894" stroke="url(#paint24_linear)" stroke-miterlimit="10"/>
<path d="M-434 499.704C-391.8 445.067 -274.7 441.354 -186.4 459.654C-98.1 477.955 -11.4 510.976 80.4 503.285C168.1 495.924 242 452.095 330 446.327C428.3 439.829 517.3 481.403 598.3 518.867C679.3 556.33 775.7 593.462 871.3 577.018C955.4 562.563 1015.1 509.783 1099 494.93C1281.3 462.638 1437.9 620.449 1625.2 604.933C1686.9 599.828 1742 575.957 1803.4 569.326C1985.8 549.567 2147.9 684.104 2329.6 661.56C2428 649.359 2506.4 592.468 2606.3 587.694C2692.1 583.649 2769.1 618.858 2847.1 642.927C2925.1 666.997 3030.6 676.877 3086.5 633.578" stroke="url(#paint25_linear)" stroke-miterlimit="10"/>
<path d="M-439 496.39C-396.8 441.752 -279.7 438.039 -191.4 456.34C-103.1 474.641 -16.4 507.662 75.4 499.97C163.1 492.61 237 448.781 325 443.012C423.3 436.514 512.3 478.089 593.3 515.552C674.3 553.016 770.7 590.148 866.3 573.704C950.4 559.249 1010.1 506.468 1094 491.615C1276.3 459.324 1432.9 617.135 1620.2 601.619C1681.9 596.513 1737 572.643 1798.4 566.012C1980.8 546.252 2142.9 680.79 2324.6 658.245C2423 646.045 2501.4 589.153 2601.3 584.379C2687.1 580.334 2764.1 615.543 2842.1 639.613C2920.1 663.682 3025.6 673.562 3081.5 630.264" stroke="url(#paint26_linear)" stroke-miterlimit="10"/>
<path d="M-444 493.074C-401.8 438.437 -284.7 434.723 -196.4 453.024C-108.1 471.325 -21.4 504.346 70.4 496.654C158.1 489.294 232 445.465 320 439.696C418.3 433.198 507.3 474.773 588.3 512.236C669.3 549.7 765.7 586.832 861.3 570.388C945.4 555.933 1005.1 503.152 1089 488.299C1271.3 456.008 1427.9 613.819 1615.2 598.303C1676.9 593.197 1732 569.327 1793.4 562.696C1975.8 542.937 2137.9 677.474 2319.6 654.929C2418 642.729 2496.4 585.837 2596.3 581.063C2682.1 577.018 2759.1 612.228 2837.1 636.297C2915.1 660.367 3020.6 670.246 3076.5 626.948" stroke="url(#paint27_linear)" stroke-miterlimit="10"/>
<path d="M-449 489.757C-406.8 435.12 -289.7 431.407 -201.4 449.708C-113.1 468.008 -26.4 501.029 65.4 493.338C153.1 485.978 227 442.149 315 436.38C413.3 429.882 502.3 471.456 583.3 508.92C664.3 546.384 760.7 583.516 856.3 567.071C940.4 552.616 1000.1 499.836 1084 484.983C1266.3 452.691 1422.9 610.503 1610.2 594.987C1671.9 589.881 1727 566.01 1788.4 559.38C1970.8 539.62 2132.9 674.157 2314.6 651.613C2413 639.412 2491.4 582.521 2591.3 577.747C2677.1 573.702 2754.1 608.911 2832.1 632.981C2910.1 657.05 3015.6 666.93 3071.5 623.631" stroke="url(#paint28_linear)" stroke-miterlimit="10"/>
<path d="M-454 486.443C-411.8 431.806 -294.7 428.092 -206.4 446.393C-118.1 464.694 -31.4 497.715 60.4 490.023C148.1 482.663 222 438.834 310 433.065C408.3 426.567 497.3 468.142 578.3 505.606C659.3 543.069 755.7 580.201 851.3 563.757C935.4 549.302 995.1 496.521 1079 481.669C1261.3 449.377 1417.9 607.188 1605.2 591.672C1666.9 586.567 1722 562.696 1783.4 556.065C1965.8 536.306 2127.9 670.843 2309.6 648.299C2408 636.098 2486.4 579.206 2586.3 574.432C2672.1 570.388 2749.1 605.597 2827.1 629.666C2905.1 653.736 3010.6 663.615 3066.5 620.317" stroke="url(#paint29_linear)" stroke-miterlimit="10"/>
<path d="M-459 483.128C-416.8 428.491 -299.7 424.778 -211.4 443.078C-123.1 461.379 -36.4 494.4 55.4 486.708C143.1 479.348 217 435.519 305 429.751C403.3 423.252 492.3 464.827 573.3 502.291C654.3 539.754 750.7 576.886 846.3 560.442C930.4 545.987 990.1 493.206 1074 478.354C1256.3 446.062 1412.9 603.873 1600.2 588.357C1661.9 583.252 1717 559.381 1778.4 552.75C1960.8 532.991 2122.9 667.528 2304.6 644.984C2403 632.783 2481.4 575.892 2581.3 571.117C2667.1 567.073 2744.1 602.282 2822.1 626.351C2900.1 650.421 3005.6 660.301 3061.5 617.002" stroke="url(#paint30_linear)" stroke-miterlimit="10"/>
<path d="M-464 479.813C-421.8 425.176 -304.7 421.463 -216.4 439.763C-128.1 458.064 -41.4 491.085 50.4 483.393C138.1 476.033 212 432.204 300 426.436C398.3 419.938 487.3 461.512 568.3 498.976C649.3 536.439 745.7 573.571 841.3 557.127C925.4 542.672 985.1 489.892 1069 475.039C1251.3 442.747 1407.9 600.558 1595.2 585.042C1656.9 579.937 1712 556.066 1773.4 549.435C1955.8 529.676 2117.9 664.213 2299.6 641.669C2398 629.468 2476.4 572.577 2576.3 567.802C2662.1 563.758 2739.1 598.967 2817.1 623.036C2895.1 647.106 3000.6 656.986 3056.5 613.687" stroke="url(#paint31_linear)" stroke-miterlimit="10"/>
<path d="M-469 476.497C-426.8 421.86 -309.7 418.147 -221.4 436.447C-133.1 454.748 -46.4 487.769 45.4 480.078C133.1 472.717 207 428.888 295 423.12C393.3 416.622 482.3 458.196 563.3 495.66C644.3 533.123 740.7 570.255 836.3 553.811C920.4 539.356 980.1 486.576 1064 471.723C1246.3 439.431 1402.9 597.242 1590.2 581.726C1651.9 576.621 1707 552.75 1768.4 546.119C1950.8 526.36 2112.9 660.897 2294.6 638.353C2393 626.152 2471.4 569.261 2571.3 564.487C2657.1 560.442 2734.1 595.651 2812.1 619.72C2890.1 643.79 2995.6 653.67 3051.5 610.371" stroke="url(#paint32_linear)" stroke-miterlimit="10"/>
<path d="M-474 473.182C-431.8 418.545 -314.7 414.832 -226.4 433.132C-138.1 451.433 -51.4 484.454 40.4 476.763C128.1 469.402 202 425.573 290 419.805C388.3 413.307 477.3 454.881 558.3 492.345C639.3 529.808 735.7 566.94 831.3 550.496C915.4 536.041 975.1 483.261 1059 468.408C1241.3 436.116 1397.9 593.927 1585.2 578.411C1646.9 573.306 1702 549.435 1763.4 542.805C1945.8 523.045 2107.9 657.582 2289.6 635.038C2388 622.837 2466.4 565.946 2566.3 561.172C2652.1 557.127 2729.1 592.336 2807.1 616.405C2885.1 640.475 2990.6 650.355 3046.5 607.056" stroke="url(#paint33_linear)" stroke-miterlimit="10"/>
<path d="M-479 469.866C-436.8 415.229 -319.7 411.516 -231.4 429.817C-143.1 448.117 -56.4 481.138 35.4 473.447C123.1 466.087 197 422.258 285 416.489C383.3 409.991 472.3 451.565 553.3 489.029C634.3 526.492 730.7 563.624 826.3 547.18C910.4 532.725 970.1 479.945 1054 465.092C1236.3 432.8 1392.9 590.611 1580.2 575.096C1641.9 569.99 1697 546.119 1758.4 539.489C1940.8 519.729 2102.9 654.266 2284.6 631.722C2383 619.521 2461.4 562.63 2561.3 557.856C2647.1 553.811 2724.1 589.02 2802.1 613.09C2880.1 637.159 2985.6 647.039 3041.5 603.74" stroke="url(#paint34_linear)" stroke-miterlimit="10"/>
<path d="M-484 466.551C-441.8 411.914 -324.7 408.201 -236.4 426.502C-148.1 444.802 -61.4 477.823 30.4 470.132C118.1 462.772 192 418.943 280 413.174C378.3 406.676 467.3 448.25 548.3 485.714C629.3 523.177 725.7 560.309 821.3 543.865C905.4 529.41 965.1 476.63 1049 461.777C1231.3 429.485 1387.9 587.296 1575.2 571.781C1636.9 566.675 1692 542.804 1753.4 536.174C1935.8 516.414 2097.9 650.951 2279.6 628.407C2378 616.206 2456.4 559.315 2556.3 554.541C2642.1 550.496 2719.1 585.705 2797.1 609.775C2875.1 633.844 2980.6 643.724 3036.5 600.425" stroke="url(#paint35_linear)" stroke-miterlimit="10"/>
<path d="M-489 463.236C-446.8 408.599 -329.7 404.886 -241.4 423.187C-153.1 441.487 -66.4 474.508 25.4 466.817C113.1 459.457 187 415.628 275 409.859C373.3 403.361 462.3 444.935 543.3 482.399C624.3 519.863 720.7 556.995 816.3 540.55C900.4 526.095 960.1 473.315 1044 458.462C1226.3 426.17 1382.9 583.982 1570.2 568.466C1631.9 563.36 1687 539.489 1748.4 532.859C1930.8 513.099 2092.9 647.636 2274.6 625.092C2373 612.891 2451.4 556 2551.3 551.226C2637.1 547.181 2714.1 582.39 2792.1 606.46C2870.1 630.529 2975.6 640.409 3031.5 597.11" stroke="url(#paint36_linear)" stroke-miterlimit="10"/>
<path d="M-494 459.919C-451.8 405.282 -334.7 401.569 -246.4 419.869C-158.1 438.17 -71.4 471.191 20.4 463.499C108.1 456.139 182 412.31 270 406.542C368.3 400.043 457.3 441.618 538.3 479.082C619.3 516.545 715.7 553.677 811.3 537.233C895.4 522.778 955.1 469.998 1039 455.145C1221.3 422.853 1377.9 580.664 1565.2 565.148C1626.9 560.043 1682 536.172 1743.4 529.541C1925.8 509.782 2087.9 644.319 2269.6 621.775C2368 609.574 2446.4 552.683 2546.3 547.908C2632.1 543.864 2709.1 579.073 2787.1 603.142C2865.1 627.212 2970.6 637.092 3026.5 593.793" stroke="url(#paint37_linear)" stroke-miterlimit="10"/>
<path d="M-499 456.604C-456.8 401.967 -339.7 398.254 -251.4 416.554C-163.1 434.855 -76.4 467.876 15.4 460.184C103.1 452.824 177 408.995 265 403.227C363.3 396.729 452.3 438.303 533.3 475.767C614.3 513.23 710.7 550.362 806.3 533.918C890.4 519.463 950.1 466.683 1034 451.83C1216.3 419.538 1372.9 577.349 1560.2 561.833C1621.9 556.728 1677 532.857 1738.4 526.226C1920.8 506.467 2082.9 641.004 2264.6 618.46C2363 606.259 2441.4 549.368 2541.3 544.593C2627.1 540.549 2704.1 575.758 2782.1 599.827C2860.1 623.897 2965.6 633.777 3021.5 590.478" stroke="url(#paint38_linear)" stroke-miterlimit="10"/>
<path d="M-504 453.289C-461.8 398.652 -344.7 394.939 -256.4 413.24C-168.1 431.541 -81.4 464.562 10.4 456.87C98.1 449.51 172 405.681 260 399.912C358.3 393.414 447.3 434.989 528.3 472.452C609.3 509.916 705.7 547.048 801.3 530.604C885.4 516.149 945.1 463.368 1029 448.515C1211.3 416.224 1367.9 574.035 1555.2 558.519C1616.9 553.413 1672 529.543 1733.4 522.912C1915.8 503.152 2077.9 637.69 2259.6 615.145C2358 602.945 2436.4 546.053 2536.3 541.279C2622.1 537.234 2699.1 572.443 2777.1 596.513C2855.1 620.582 2960.6 630.462 3016.5 587.164" stroke="url(#paint39_linear)" stroke-miterlimit="10"/>
<path d="M-509 449.973C-466.8 395.336 -349.7 391.623 -261.4 409.924C-173.1 428.224 -86.4 461.245 5.40002 453.554C93.1 446.194 167 402.364 255 396.596C353.3 390.098 442.3 431.672 523.3 469.136C604.3 506.599 700.7 543.731 796.3 527.287C880.4 512.832 940.1 460.052 1024 445.199C1206.3 412.907 1362.9 570.718 1550.2 555.202C1611.9 550.097 1667 526.226 1728.4 519.596C1910.8 499.836 2072.9 634.373 2254.6 611.829C2353 599.628 2431.4 542.737 2531.3 537.963C2617.1 533.918 2694.1 569.127 2772.1 593.196C2850.1 617.266 2955.6 627.146 3011.5 583.847" stroke="url(#paint40_linear)" stroke-miterlimit="10"/>
<path d="M-514 446.66C-471.8 392.022 -354.7 388.309 -266.4 406.61C-178.1 424.911 -91.4 457.932 0.400024 450.24C88.1 442.88 162 399.051 250 393.282C348.3 386.784 437.3 428.359 518.3 465.822C599.3 503.286 695.7 540.418 791.3 523.974C875.4 509.519 935.1 456.738 1019 441.885C1201.3 409.594 1357.9 567.405 1545.2 551.889C1606.9 546.783 1662 522.913 1723.4 516.282C1905.8 496.523 2067.9 631.06 2249.6 608.515C2348 596.315 2426.4 539.423 2526.3 534.649C2612.1 530.604 2689.1 565.813 2767.1 589.883C2845.1 613.952 2950.6 623.832 3006.5 580.534" stroke="url(#paint41_linear)" stroke-miterlimit="10"/>
<path d="M-519 443.342C-476.8 388.705 -359.7 384.992 -271.4 403.293C-183.1 421.593 -96.4 454.614 -4.59998 446.923C83.1 439.563 157 395.734 245 389.965C343.3 383.467 432.3 425.041 513.3 462.505C594.3 499.968 690.7 537.1 786.3 520.656C870.4 506.201 930.1 453.421 1014 438.568C1196.3 406.276 1352.9 564.087 1540.2 548.572C1601.9 543.466 1657 519.595 1718.4 512.965C1900.8 493.205 2062.9 627.742 2244.6 605.198C2343 592.997 2421.4 536.106 2521.3 531.332C2607.1 527.287 2684.1 562.496 2762.1 586.566C2840.1 610.635 2945.6 620.515 3001.5 577.216" stroke="url(#paint42_linear)" stroke-miterlimit="10"/>
<path d="M-524 440.029C-481.8 385.392 -364.7 381.678 -276.4 399.979C-188.1 418.28 -101.4 451.301 -9.59998 443.609C78.1 436.249 152 392.42 240 386.651C338.3 380.153 427.3 421.728 508.3 459.191C589.3 496.655 685.7 533.787 781.3 517.343C865.4 502.888 925.1 450.107 1009 435.255C1191.3 402.963 1347.9 560.774 1535.2 545.258C1596.9 540.152 1652 516.282 1713.4 509.651C1895.8 489.892 2057.9 624.429 2239.6 601.884C2338 589.684 2416.4 532.792 2516.3 528.018C2602.1 523.974 2679.1 559.183 2757.1 583.252C2835.1 607.322 2940.6 617.201 2996.5 573.903" stroke="url(#paint43_linear)" stroke-miterlimit="10"/>
<path d="M-529 436.713C-486.8 382.076 -369.7 378.362 -281.4 396.663C-193.1 414.964 -106.4 447.985 -14.6 440.293C73.1 432.933 147 389.104 235 383.336C333.3 376.837 422.3 418.412 503.3 455.876C584.3 493.339 680.7 530.471 776.3 514.027C860.4 499.572 920.1 446.791 1004 431.939C1186.3 399.647 1342.9 557.458 1530.2 541.942C1591.9 536.837 1647 512.966 1708.4 506.335C1890.8 486.576 2052.9 621.113 2234.6 598.569C2333 586.368 2411.4 529.476 2511.3 524.702C2597.1 520.658 2674.1 555.867 2752.1 579.936C2830.1 604.006 2935.6 613.885 2991.5 570.587" stroke="url(#paint44_linear)" stroke-miterlimit="10"/>
<path d="M-534 433.398C-491.8 378.761 -374.7 375.048 -286.4 393.348C-198.1 411.649 -111.4 444.67 -19.6 436.978C68.1 429.618 142 385.789 230 380.021C328.3 373.522 417.3 415.097 498.3 452.561C579.3 490.024 675.7 527.156 771.3 510.712C855.4 496.257 915.1 443.477 999 428.624C1181.3 396.332 1337.9 554.143 1525.2 538.627C1586.9 533.522 1642 509.651 1703.4 503.02C1885.8 483.261 2047.9 617.798 2229.6 595.254C2328 583.053 2406.4 526.162 2506.3 521.387C2592.1 517.343 2669.1 552.552 2747.1 576.621C2825.1 600.691 2930.6 610.571 2986.5 567.272" stroke="url(#paint45_linear)" stroke-miterlimit="10"/>
<path d="M-539 430.08C-496.8 375.443 -379.7 371.73 -291.4 390.031C-203.1 408.332 -116.4 441.353 -24.6 433.661C63.1 426.301 137 382.472 225 376.703C323.3 370.205 412.3 411.78 493.3 449.243C574.3 486.707 670.7 523.839 766.3 507.395C850.4 492.94 910.1 440.159 994 425.306C1176.3 393.015 1332.9 550.826 1520.2 535.31C1581.9 530.204 1637 506.334 1698.4 499.703C1880.8 479.943 2042.9 614.481 2224.6 591.936C2323 579.736 2401.4 522.844 2501.3 518.07C2587.1 514.025 2664.1 549.234 2742.1 573.304C2820.1 597.373 2925.6 607.253 2981.5 563.955" stroke="url(#paint46_linear)" stroke-miterlimit="10"/>
<path d="M-544 426.766C-501.8 372.128 -384.7 368.415 -296.4 386.716C-208.1 405.017 -121.4 438.038 -29.6 430.346C58.1 422.986 132 379.157 220 373.388C318.3 366.89 407.3 408.465 488.3 445.928C569.3 483.392 665.7 520.524 761.3 504.08C845.4 489.625 905.1 436.844 989 421.991C1171.3 389.7 1327.9 547.511 1515.2 531.995C1576.9 526.889 1632 503.019 1693.4 496.388C1875.8 476.628 2037.9 611.166 2219.6 588.621C2318 576.421 2396.4 519.529 2496.3 514.755C2582.1 510.71 2659.1 545.919 2737.1 569.989C2815.1 594.058 2920.6 603.938 2976.5 560.64" stroke="url(#paint47_linear)" stroke-miterlimit="10"/>
<path d="M-549 423.452C-506.8 368.814 -389.7 365.101 -301.4 383.402C-213.1 401.703 -126.4 434.724 -34.6 427.032C53.1 419.672 127 375.843 215 370.074C313.3 363.576 402.3 405.151 483.3 442.614C564.3 480.078 660.7 517.21 756.3 500.766C840.4 486.311 900.1 433.53 984 418.677C1166.3 386.386 1322.9 544.197 1510.2 528.681C1571.9 523.575 1627 499.705 1688.4 493.074C1870.8 473.315 2032.9 607.852 2214.6 585.307C2313 573.107 2391.4 516.215 2491.3 511.441C2577.1 507.396 2654.1 542.605 2732.1 566.675C2810.1 590.744 2915.6 600.624 2971.5 557.326" stroke="url(#paint48_linear)" stroke-miterlimit="10"/>
<path d="M-554 420.136C-511.8 365.499 -394.7 361.786 -306.4 380.087C-218.1 398.387 -131.4 431.408 -39.6 423.717C48.1 416.357 122 372.528 210 366.759C308.3 360.261 397.3 401.835 478.3 439.299C559.3 476.762 655.7 513.894 751.3 497.45C835.4 482.995 895.1 430.215 979 415.362C1161.3 383.07 1317.9 540.881 1505.2 525.366C1566.9 520.26 1622 496.389 1683.4 489.759C1865.8 469.999 2027.9 604.536 2209.6 581.992C2308 569.791 2386.4 512.9 2486.3 508.126C2572.1 504.081 2649.1 539.29 2727.1 563.36C2805.1 587.429 2910.6 597.309 2966.5 554.01" stroke="url(#paint49_linear)" stroke-miterlimit="10"/>
<path d="M-559 416.821C-516.8 362.184 -399.7 358.47 -311.4 376.771C-223.1 395.072 -136.4 428.093 -44.6 420.401C43.1 413.041 117 369.212 205 363.443C303.3 356.945 392.3 398.52 473.3 435.983C554.3 473.447 650.7 510.579 746.3 494.135C830.4 479.68 890.1 426.899 974 412.047C1156.3 379.755 1312.9 537.566 1500.2 522.05C1561.9 516.944 1617 493.074 1678.4 486.443C1860.8 466.684 2022.9 601.221 2204.6 578.676C2303 566.476 2381.4 509.584 2481.3 504.81C2567.1 500.766 2644.1 535.975 2722.1 560.044C2800.1 584.114 2905.6 593.993 2961.5 550.695" stroke="url(#paint50_linear)" stroke-miterlimit="10"/>
<path d="M-564 413.506C-521.8 358.869 -404.7 355.155 -316.4 373.456C-228.1 391.757 -141.4 424.778 -49.6 417.086C38.1 409.726 112 365.897 200 360.128C298.3 353.63 387.3 395.205 468.3 432.669C549.3 470.132 645.7 507.264 741.3 490.82C825.4 476.365 885.1 423.584 969 408.732C1151.3 376.44 1307.9 534.251 1495.2 518.735C1556.9 513.63 1612 489.759 1673.4 483.128C1855.8 463.369 2017.9 597.906 2199.6 575.362C2298 563.161 2376.4 506.269 2476.3 501.495C2562.1 497.451 2639.1 532.66 2717.1 556.729C2795.1 580.799 2900.6 590.678 2956.5 547.38" stroke="url(#paint51_linear)" stroke-miterlimit="10"/>
<path d="M-569 410.189C-526.8 355.552 -409.7 351.839 -321.4 370.139C-233.1 388.44 -146.4 421.461 -54.6 413.769C33.1 406.409 107 362.58 195 356.812C293.3 350.313 382.3 391.888 463.3 429.352C544.3 466.815 640.7 503.947 736.3 487.503C820.4 473.048 880.1 420.268 964 405.415C1146.3 373.123 1302.9 530.934 1490.2 515.418C1551.9 510.313 1607 486.442 1668.4 479.811C1850.8 460.052 2012.9 594.589 2194.6 572.045C2293 559.844 2371.4 502.953 2471.3 498.178C2557.1 494.134 2634.1 529.343 2712.1 553.412C2790.1 577.482 2895.6 587.362 2951.5 544.063" stroke="url(#paint52_linear)" stroke-miterlimit="10"/>
<path d="M-574 406.875C-531.8 352.238 -414.7 348.525 -326.4 366.825C-238.1 385.126 -151.4 418.147 -59.6 410.455C28.1 403.095 102 359.266 190 353.498C288.3 347 377.3 388.574 458.3 426.038C539.3 463.501 635.7 500.633 731.3 484.189C815.4 469.734 875.1 416.954 959 402.101C1141.3 369.809 1297.9 527.62 1485.2 512.104C1546.9 506.999 1602 483.128 1663.4 476.497C1845.8 456.738 2007.9 591.275 2189.6 568.731C2288 556.53 2366.4 499.639 2466.3 494.864C2552.1 490.82 2629.1 526.029 2707.1 550.098C2785.1 574.168 2890.6 584.048 2946.5 540.749" stroke="url(#paint53_linear)" stroke-miterlimit="10"/>
<path d="M-579 403.558C-536.8 348.921 -419.7 345.208 -331.4 363.508C-243.1 381.809 -156.4 414.83 -64.6 407.139C23.1 399.778 97 355.949 185 350.181C283.3 343.683 372.3 385.257 453.3 422.721C534.3 460.184 630.7 497.316 726.3 480.872C810.4 466.417 870.1 413.637 954 398.784C1136.3 366.492 1292.9 524.303 1480.2 508.787C1541.9 503.682 1597 479.811 1658.4 473.18C1840.8 453.421 2002.9 587.958 2184.6 565.414C2283 553.213 2361.4 496.322 2461.3 491.548C2547.1 487.503 2624.1 522.712 2702.1 546.781C2780.1 570.851 2885.6 580.731 2941.5 537.432" stroke="url(#paint54_linear)" stroke-miterlimit="10"/>
<path d="M-584 400.244C-541.8 345.606 -424.7 341.893 -336.4 360.194C-248.1 378.495 -161.4 411.516 -69.6 403.824C18.1 396.464 92 352.635 180 346.866C278.3 340.368 367.3 381.943 448.3 419.406C529.3 456.87 625.7 494.002 721.3 477.558C805.4 463.103 865.1 410.322 949 395.469C1131.3 363.178 1287.9 520.989 1475.2 505.473C1536.9 500.367 1592 476.497 1653.4 469.866C1835.8 450.107 1997.9 584.644 2179.6 562.099C2278 549.899 2356.4 493.007 2456.3 488.233C2542.1 484.188 2619.1 519.397 2697.1 543.467C2775.1 567.536 2880.6 577.416 2936.5 534.118" stroke="url(#paint55_linear)" stroke-miterlimit="10"/>
<path d="M-589 396.927C-546.8 342.29 -429.7 338.577 -341.4 356.878C-253.1 375.178 -166.4 408.199 -74.6 400.508C13.1 393.148 87 349.319 175 343.55C273.3 337.052 362.3 378.626 443.3 416.09C524.3 453.553 620.7 490.685 716.3 474.241C800.4 459.786 860.1 407.006 944 392.153C1126.3 359.861 1282.9 517.672 1470.2 502.157C1531.9 497.051 1587 473.18 1648.4 466.55C1830.8 446.79 1992.9 581.327 2174.6 558.783C2273 546.582 2351.4 489.691 2451.3 484.917C2537.1 480.872 2614.1 516.081 2692.1 540.151C2770.1 564.22 2875.6 574.1 2931.5 530.801" stroke="url(#paint56_linear)" stroke-miterlimit="10"/>
<path d="M-594 393.612C-551.8 338.975 -434.7 335.262 -346.4 353.563C-258.1 371.863 -171.4 404.884 -79.6 397.193C8.10002 389.833 82 346.004 170 340.235C268.3 333.737 357.3 375.311 438.3 412.775C519.3 450.238 615.7 487.371 711.3 470.926C795.4 456.471 855.1 403.691 939 388.838C1121.3 356.546 1277.9 514.358 1465.2 498.842C1526.9 493.736 1582 469.865 1643.4 463.235C1825.8 443.475 1987.9 578.012 2169.6 555.468C2268 543.267 2346.4 486.376 2446.3 481.602C2532.1 477.557 2609.1 512.766 2687.1 536.836C2765.1 560.905 2870.6 570.785 2926.5 527.486" stroke="url(#paint57_linear)" stroke-miterlimit="10"/>
<path d="M-599 390.298C-556.8 335.661 -439.7 331.948 -351.4 350.249C-263.1 368.549 -176.4 401.57 -84.6 393.879C3.10002 386.519 77 342.69 165 336.921C263.3 330.423 352.3 371.997 433.3 409.461C514.3 446.925 610.7 484.057 706.3 467.612C790.4 453.157 850.1 400.377 934 385.524C1116.3 353.233 1272.9 511.044 1460.2 495.528C1521.9 490.422 1577 466.551 1638.4 459.921C1820.8 440.161 1982.9 574.698 2164.6 552.154C2263 539.953 2341.4 483.062 2441.3 478.288C2527.1 474.243 2604.1 509.452 2682.1 533.522C2760.1 557.591 2865.6 567.471 2921.5 524.172" stroke="url(#paint58_linear)" stroke-miterlimit="10"/>
<path d="M-604 386.982C-561.8 332.345 -444.7 328.632 -356.4 346.932C-268.1 365.233 -181.4 398.254 -89.6 390.562C-1.89998 383.202 72 339.373 160 333.605C258.3 327.106 347.3 368.681 428.3 406.145C509.3 443.608 605.7 480.74 701.3 464.296C785.4 449.841 845.1 397.06 929 382.208C1111.3 349.916 1267.9 507.727 1455.2 492.211C1516.9 487.106 1572 463.235 1633.4 456.604C1815.8 436.845 1977.9 571.382 2159.6 548.838C2258 536.637 2336.4 479.746 2436.3 474.971C2522.1 470.927 2599.1 506.136 2677.1 530.205C2755.1 554.275 2860.6 564.155 2916.5 520.856" stroke="url(#paint59_linear)" stroke-miterlimit="10"/>
<path d="M-609 383.667C-566.8 329.03 -449.7 325.317 -361.4 343.617C-273.1 361.918 -186.4 394.939 -94.6 387.247C-6.89998 379.887 67 336.058 155 330.29C253.3 323.792 342.3 365.366 423.3 402.83C504.3 440.293 600.7 477.425 696.3 460.981C780.4 446.526 840.1 393.746 924 378.893C1106.3 346.601 1262.9 504.412 1450.2 488.896C1511.9 483.791 1567 459.92 1628.4 453.289C1810.8 433.53 1972.9 568.067 2154.6 545.523C2253 533.322 2331.4 476.431 2431.3 471.656C2517.1 467.612 2594.1 502.821 2672.1 526.89C2750.1 550.96 2855.6 560.84 2911.5 517.541" stroke="url(#paint60_linear)" stroke-miterlimit="10"/>
<path d="M-614 380.35C-571.8 325.713 -454.7 322 -366.4 340.301C-278.1 358.602 -191.4 391.623 -99.6 383.931C-11.9 376.571 62 332.742 150 326.973C248.3 320.475 337.3 362.05 418.3 399.513C499.3 436.977 595.7 474.109 691.3 457.665C775.4 443.21 835.1 390.429 919 375.576C1101.3 343.285 1257.9 501.096 1445.2 485.58C1506.9 480.474 1562 456.604 1623.4 449.973C1805.8 430.213 1967.9 564.751 2149.6 542.206C2248 530.006 2326.4 473.114 2426.3 468.34C2512.1 464.295 2589.1 499.504 2667.1 523.574C2745.1 547.643 2850.6 557.523 2906.5 514.225" stroke="url(#paint61_linear)" stroke-miterlimit="10"/>
<path d="M-619 377.036C-576.8 322.399 -459.7 318.686 -371.4 336.986C-283.1 355.287 -196.4 388.308 -104.6 380.617C-16.9 373.256 57 329.427 145 323.659C243.3 317.161 332.3 358.735 413.3 396.199C494.3 433.662 590.7 470.794 686.3 454.35C770.4 439.895 830.1 387.115 914 372.262C1096.3 339.97 1252.9 497.781 1440.2 482.265C1501.9 477.16 1557 453.289 1618.4 446.659C1800.8 426.899 1962.9 561.436 2144.6 538.892C2243 526.691 2321.4 469.8 2421.3 465.026C2507.1 460.981 2584.1 496.19 2662.1 520.259C2740.1 544.329 2845.6 554.209 2901.5 510.91" stroke="url(#paint62_linear)" stroke-miterlimit="10"/>
<path d="M-624 373.72C-581.8 319.083 -464.7 315.37 -376.4 333.671C-288.1 351.971 -201.4 384.992 -109.6 377.301C-21.9 369.941 52 326.112 140 320.343C238.3 313.845 327.3 355.419 408.3 392.883C489.3 430.346 585.7 467.478 681.3 451.034C765.4 436.579 825.1 383.799 909 368.946C1091.3 336.654 1247.9 494.465 1435.2 478.95C1496.9 473.844 1552 449.973 1613.4 443.343C1795.8 423.583 1957.9 558.12 2139.6 535.576C2238 523.375 2316.4 466.484 2416.3 461.71C2502.1 457.665 2579.1 492.874 2657.1 516.944C2735.1 541.013 2840.6 550.893 2896.5 507.594" stroke="url(#paint63_linear)" stroke-miterlimit="10"/>
<path d="M-629 370.405C-586.8 315.768 -469.7 312.055 -381.4 330.356C-293.1 348.656 -206.4 381.677 -114.6 373.986C-26.9 366.626 47 322.797 135 317.028C233.3 310.53 322.3 352.104 403.3 389.568C484.3 427.031 580.7 464.163 676.3 447.719C760.4 433.264 820.1 380.484 904 365.631C1086.3 333.339 1242.9 491.15 1430.2 475.635C1491.9 470.529 1547 446.658 1608.4 440.028C1790.8 420.268 1952.9 554.805 2134.6 532.261C2233 520.06 2311.4 463.169 2411.3 458.395C2497.1 454.35 2574.1 489.559 2652.1 513.629C2730.1 537.698 2835.6 547.578 2891.5 504.279" stroke="url(#paint64_linear)" stroke-miterlimit="10"/>
<path d="M-634 367.089C-591.8 312.452 -474.7 308.739 -386.4 327.04C-298.1 345.34 -211.4 378.361 -119.6 370.67C-31.9 363.31 42 319.481 130 313.712C228.3 307.214 317.3 348.788 398.3 386.252C479.3 423.716 575.7 460.848 671.3 444.403C755.4 429.948 815.1 377.168 899 362.315C1081.3 330.024 1237.9 487.835 1425.2 472.319C1486.9 467.213 1542 443.342 1603.4 436.712C1785.8 416.952 1947.9 551.489 2129.6 528.945C2228 516.744 2306.4 459.853 2406.3 455.079C2492.1 451.034 2569.1 486.243 2647.1 510.313C2725.1 534.382 2830.6 544.262 2886.5 500.963" stroke="url(#paint65_linear)" stroke-miterlimit="10"/>
<path d="M-639 363.774C-596.8 309.137 -479.7 305.424 -391.4 323.724C-303.1 342.025 -216.4 375.046 -124.6 367.354C-36.9 359.994 37 316.165 125 310.397C223.3 303.898 312.3 345.473 393.3 382.937C474.3 420.4 570.7 457.532 666.3 441.088C750.4 426.633 810.1 373.852 894 359C1076.3 326.708 1232.9 484.519 1420.2 469.003C1481.9 463.898 1537 440.027 1598.4 433.396C1780.8 413.637 1942.9 548.174 2124.6 525.63C2223 513.429 2301.4 456.538 2401.3 451.763C2487.1 447.719 2564.1 482.928 2642.1 506.997C2720.1 531.067 2825.6 540.947 2881.5 497.648" stroke="url(#paint66_linear)" stroke-miterlimit="10"/>
<path d="M-644 360.458C-601.8 305.821 -484.7 302.108 -396.4 320.409C-308.1 338.71 -221.4 371.731 -129.6 364.039C-41.9 356.679 32 312.85 120 307.081C218.3 300.583 307.3 342.158 388.3 379.621C469.3 417.085 565.7 454.217 661.3 437.773C745.4 423.318 805.1 370.537 889 355.684C1071.3 323.393 1227.9 481.204 1415.2 465.688C1476.9 460.582 1532 436.712 1593.4 430.081C1775.8 410.321 1937.9 544.859 2119.6 522.314C2218 510.114 2296.4 453.222 2396.3 448.448C2482.1 444.403 2559.1 479.612 2637.1 503.682C2715.1 527.751 2820.6 537.631 2876.5 494.333" stroke="url(#paint67_linear)" stroke-miterlimit="10"/>
<path d="M-649 357.145C-606.8 302.508 -489.7 298.795 -401.4 317.095C-313.1 335.396 -226.4 368.417 -134.6 360.725C-46.9 353.365 27 309.536 115 303.768C213.3 297.27 302.3 338.844 383.3 376.308C464.3 413.771 560.7 450.903 656.3 434.459C740.4 420.004 800.1 367.224 884 352.371C1066.3 320.079 1222.9 477.89 1410.2 462.374C1471.9 457.269 1527 433.398 1588.4 426.767C1770.8 407.008 1932.9 541.545 2114.6 519.001C2213 506.8 2291.4 449.909 2391.3 445.134C2477.1 441.09 2554.1 476.299 2632.1 500.368C2710.1 524.438 2815.6 534.318 2871.5 491.019" stroke="url(#paint68_linear)" stroke-miterlimit="10"/>
<path d="M-654 353.828C-611.8 299.191 -494.7 295.478 -406.4 313.779C-318.1 332.08 -231.4 365.101 -139.6 357.409C-51.9 350.049 22 306.22 110 300.451C208.3 293.953 297.3 335.528 378.3 372.991C459.3 410.455 555.7 447.587 651.3 431.143C735.4 416.688 795.1 363.907 879 349.054C1061.3 316.763 1217.9 474.574 1405.2 459.058C1466.9 453.952 1522 430.082 1583.4 423.451C1765.8 403.691 1927.9 538.229 2109.6 515.684C2208 503.484 2286.4 446.592 2386.3 441.818C2472.1 437.773 2549.1 472.982 2627.1 497.052C2705.1 521.121 2810.6 531.001 2866.5 487.703" stroke="url(#paint69_linear)" stroke-miterlimit="10"/>
<path d="M-659 350.514C-616.8 295.876 -499.7 292.163 -411.4 310.464C-323.1 328.765 -236.4 361.786 -144.6 354.094C-56.9 346.734 17 302.905 105 297.136C203.3 290.638 292.3 332.213 373.3 369.676C454.3 407.14 550.7 444.272 646.3 427.828C730.4 413.373 790.1 360.592 874 345.739C1056.3 313.448 1212.9 471.259 1400.2 455.743C1461.9 450.637 1517 426.767 1578.4 420.136C1760.8 400.377 1922.9 534.914 2104.6 512.369C2203 500.169 2281.4 443.277 2381.3 438.503C2467.1 434.458 2544.1 469.668 2622.1 493.737C2700.1 517.807 2805.6 527.686 2861.5 484.388" stroke="url(#paint70_linear)" stroke-miterlimit="10"/>
<path d="M-664 347.199C-621.8 292.562 -504.7 288.849 -416.4 307.15C-328.1 325.45 -241.4 358.471 -149.6 350.78C-61.9 343.42 12 299.591 100 293.822C198.3 287.324 287.3 328.898 368.3 366.362C449.3 403.825 545.7 440.957 641.3 424.513C725.4 410.058 785.1 357.278 869 342.425C1051.3 310.133 1207.9 467.944 1395.2 452.429C1456.9 447.323 1512 423.452 1573.4 416.822C1755.8 397.062 1917.9 531.599 2099.6 509.055C2198 496.854 2276.4 439.963 2376.3 435.189C2462.1 431.144 2539.1 466.353 2617.1 490.423C2695.1 514.492 2800.6 524.372 2856.5 481.073" stroke="url(#paint71_linear)" stroke-miterlimit="10"/>
<path d="M-669 343.883C-626.8 289.246 -509.7 285.532 -421.4 303.833C-333.1 322.134 -246.4 355.155 -154.6 347.463C-66.9 340.103 7 296.274 95 290.505C193.3 284.007 282.3 325.582 363.3 363.045C444.3 400.509 540.7 437.641 636.3 421.197C720.4 406.742 780.1 353.961 864 339.109C1046.3 306.817 1202.9 464.628 1390.2 449.112C1451.9 444.006 1507 420.136 1568.4 413.505C1750.8 393.746 1912.9 528.283 2094.6 505.738C2193 493.538 2271.4 436.646 2371.3 431.872C2457.1 427.828 2534.1 463.037 2612.1 487.106C2690.1 511.176 2795.6 521.055 2851.5 477.757" stroke="url(#paint72_linear)" stroke-miterlimit="10"/>
<path d="M-674 340.568C-631.8 285.931 -514.7 282.218 -426.4 300.519C-338.1 318.819 -251.4 351.84 -159.6 344.149C-71.9 336.789 2 292.96 90 287.191C188.3 280.693 277.3 322.267 358.3 359.731C439.3 397.195 535.7 434.327 631.3 417.882C715.4 403.427 775.1 350.647 859 335.794C1041.3 303.503 1197.9 461.314 1385.2 445.798C1446.9 440.692 1502 416.821 1563.4 410.191C1745.8 390.431 1907.9 524.968 2089.6 502.424C2188 490.223 2266.4 433.332 2366.3 428.558C2452.1 424.513 2529.1 459.722 2607.1 483.792C2685.1 507.861 2790.6 517.741 2846.5 474.442" stroke="url(#paint73_linear)" stroke-miterlimit="10"/>
<path d="M-679 337.252C-636.8 282.615 -519.7 278.902 -431.4 297.202C-343.1 315.503 -256.4 348.524 -164.6 340.832C-76.9 333.472 -3 289.643 85 283.875C183.3 277.376 272.3 318.951 353.3 356.415C434.3 393.878 530.7 431.01 626.3 414.566C710.4 400.111 770.1 347.331 854 332.478C1036.3 300.186 1192.9 457.997 1380.2 442.481C1441.9 437.376 1497 413.505 1558.4 406.874C1740.8 387.115 1902.9 521.652 2084.6 499.108C2183 486.907 2261.4 430.016 2361.3 425.241C2447.1 421.197 2524.1 456.406 2602.1 480.475C2680.1 504.545 2785.6 514.425 2841.5 471.126" stroke="url(#paint74_linear)" stroke-miterlimit="10"/>
<path d="M-684 333.936C-641.8 279.299 -524.7 275.586 -436.4 293.886C-348.1 312.187 -261.4 345.208 -169.6 337.517C-81.9 330.156 -8 286.327 80 280.559C178.3 274.061 267.3 315.635 348.3 353.099C429.3 390.562 525.7 427.694 621.3 411.25C705.4 396.795 765.1 344.015 849 329.162C1031.3 296.87 1187.9 454.681 1375.2 439.165C1436.9 434.06 1492 410.189 1553.4 403.558C1735.8 383.799 1897.9 518.336 2079.6 495.792C2178 483.591 2256.4 426.7 2356.3 421.926C2442.1 417.881 2519.1 453.09 2597.1 477.159C2675.1 501.229 2780.6 511.109 2836.5 467.81" stroke="url(#paint75_linear)" stroke-miterlimit="10"/>
<path d="M-689 330.62C-646.8 275.982 -529.7 272.269 -441.4 290.57C-353.1 308.871 -266.4 341.892 -174.6 334.2C-86.9 326.84 -13 283.011 75 277.242C173.3 270.744 262.3 312.319 343.3 349.782C424.3 387.246 520.7 424.378 616.3 407.934C700.4 393.479 760.1 340.698 844 325.845C1026.3 293.554 1182.9 451.365 1370.2 435.849C1431.9 430.743 1487 406.873 1548.4 400.242C1730.8 380.483 1892.9 515.02 2074.6 492.475C2173 480.275 2251.4 423.383 2351.3 418.609C2437.1 414.564 2514.1 449.773 2592.1 473.843C2670.1 497.912 2775.6 507.792 2831.5 464.494" stroke="url(#paint76_linear)" stroke-miterlimit="10"/>
<path d="M-694 327.306C-651.8 272.669 -534.7 268.956 -446.4 287.257C-358.1 305.557 -271.4 338.578 -179.6 330.887C-91.9 323.527 -18 279.697 70 273.929C168.3 267.431 257.3 309.005 338.3 346.469C419.3 383.932 515.7 421.064 611.3 404.62C695.4 390.165 755.1 337.385 839 322.532C1021.3 290.24 1177.9 448.051 1365.2 432.536C1426.9 427.43 1482 403.559 1543.4 396.929C1725.8 377.169 1887.9 511.706 2069.6 489.162C2168 476.961 2246.4 420.07 2346.3 415.296C2432.1 411.251 2509.1 446.46 2587.1 470.53C2665.1 494.599 2770.6 504.479 2826.5 461.18" stroke="url(#paint77_linear)" stroke-miterlimit="10"/>
<path d="M-699 323.99C-656.8 269.353 -539.7 265.64 -451.4 283.941C-363.1 302.241 -276.4 335.262 -184.6 327.571C-96.9 320.211 -23 276.382 65 270.613C163.3 264.115 252.3 305.689 333.3 343.153C414.3 380.616 510.7 417.748 606.3 401.304C690.4 386.849 750.1 334.069 834 319.216C1016.3 286.924 1172.9 444.735 1360.2 429.22C1421.9 424.114 1477 400.243 1538.4 393.613C1720.8 373.853 1882.9 508.39 2064.6 485.846C2163 473.645 2241.4 416.754 2341.3 411.98C2427.1 407.935 2504.1 443.144 2582.1 467.214C2660.1 491.283 2765.6 501.163 2821.5 457.864" stroke="url(#paint78_linear)" stroke-miterlimit="10"/>
<path d="M-704 320.675C-661.8 266.038 -544.7 262.325 -456.4 280.626C-368.1 298.926 -281.4 331.947 -189.6 324.256C-101.9 316.896 -28 273.067 60 267.298C158.3 260.8 247.3 302.374 328.3 339.838C409.3 377.301 505.7 414.434 601.3 397.989C685.4 383.534 745.1 330.754 829 315.901C1011.3 283.609 1167.9 441.421 1355.2 425.905C1416.9 420.799 1472 396.928 1533.4 390.298C1715.8 370.538 1877.9 505.075 2059.6 482.531C2158 470.33 2236.4 413.439 2336.3 408.665C2422.1 404.62 2499.1 439.829 2577.1 463.899C2655.1 487.968 2760.6 497.848 2816.5 454.549" stroke="url(#paint79_linear)" stroke-miterlimit="10"/>
<path d="M-709 317.359C-666.8 262.722 -549.7 259.009 -461.4 277.31C-373.1 295.611 -286.4 328.631 -194.6 320.94C-106.9 313.58 -33 269.751 55 263.982C153.3 257.484 242.3 299.058 323.3 336.522C404.3 373.986 500.7 411.118 596.3 394.673C680.4 380.218 740.1 327.438 824 312.585C1006.3 280.294 1162.9 438.105 1350.2 422.589C1411.9 417.483 1467 393.613 1528.4 386.982C1710.8 367.222 1872.9 501.759 2054.6 479.215C2153 467.015 2231.4 410.123 2331.3 405.349C2417.1 401.304 2494.1 436.513 2572.1 460.583C2650.1 484.652 2755.6 494.532 2811.5 451.233" stroke="url(#paint80_linear)" stroke-miterlimit="10"/>
<path d="M-714 314.043C-671.8 259.406 -554.7 255.693 -466.4 273.993C-378.1 292.294 -291.4 325.315 -199.6 317.623C-111.9 310.263 -38 266.434 50 260.666C148.3 254.167 237.3 295.742 318.3 333.206C399.3 370.669 495.7 407.801 591.3 391.357C675.4 376.902 735.1 324.122 819 309.269C1001.3 276.977 1157.9 434.788 1345.2 419.272C1406.9 414.167 1462 390.296 1523.4 383.665C1705.8 363.906 1867.9 498.443 2049.6 475.899C2148 463.698 2226.4 406.807 2326.3 402.032C2412.1 397.988 2489.1 433.197 2567.1 457.266C2645.1 481.336 2750.6 491.216 2806.5 447.917" stroke="url(#paint81_linear)" stroke-miterlimit="10"/>
<path d="M-719 310.729C-676.8 256.092 -559.7 252.379 -471.4 270.68C-383.1 288.981 -296.4 322.002 -204.6 314.31C-116.9 306.95 -43 263.121 45 257.352C143.3 250.854 232.3 292.429 313.3 329.892C394.3 367.356 490.7 404.488 586.3 388.044C670.4 373.589 730.1 320.808 814 305.955C996.3 273.664 1152.9 431.475 1340.2 415.959C1401.9 410.853 1457 386.983 1518.4 380.352C1700.8 360.592 1862.9 495.13 2044.6 472.585C2143 460.385 2221.4 403.493 2321.3 398.719C2407.1 394.674 2484.1 429.883 2562.1 453.953C2640.1 478.022 2745.6 487.902 2801.5 444.604" stroke="url(#paint82_linear)" stroke-miterlimit="10"/>
<path d="M-724 307.414C-681.8 252.777 -564.7 249.064 -476.4 267.364C-388.1 285.665 -301.4 318.686 -209.6 310.995C-121.9 303.634 -48 259.805 40 254.037C138.3 247.539 227.3 289.113 308.3 326.577C389.3 364.04 485.7 401.172 581.3 384.728C665.4 370.273 725.1 317.493 809 302.64C991.3 270.348 1147.9 428.159 1335.2 412.643C1396.9 407.538 1452 383.667 1513.4 377.036C1695.8 357.277 1857.9 491.814 2039.6 469.27C2138 457.069 2216.4 400.178 2316.3 395.404C2402.1 391.359 2479.1 426.568 2557.1 450.637C2635.1 474.707 2740.6 484.587 2796.5 441.288" stroke="url(#paint83_linear)" stroke-miterlimit="10"/>
<path d="M-729 304.097C-686.8 249.46 -569.7 245.747 -481.4 264.048C-393.1 282.348 -306.4 315.369 -214.6 307.678C-126.9 300.318 -53 256.489 35 250.72C133.3 244.222 222.3 285.796 303.3 323.26C384.3 360.723 480.7 397.855 576.3 381.411C660.4 366.956 720.1 314.176 804 299.323C986.3 267.031 1142.9 424.842 1330.2 409.327C1391.9 404.221 1447 380.35 1508.4 373.72C1690.8 353.96 1852.9 488.497 2034.6 465.953C2133 453.752 2211.4 396.861 2311.3 392.087C2397.1 388.042 2474.1 423.251 2552.1 447.321C2630.1 471.39 2735.6 481.27 2791.5 437.971" stroke="url(#paint84_linear)" stroke-miterlimit="10"/>
<path d="M-734 300.783C-691.8 246.146 -574.7 242.366 -486.4 260.733C-398.1 279.1 -311.4 312.055 -219.6 304.363C-131.9 297.003 -58 253.174 30 247.405C128.3 240.907 217.3 282.482 298.3 319.945C379.3 357.409 475.7 394.541 571.3 378.097C655.4 363.642 715.1 310.861 799 296.008C981.3 263.717 1137.9 421.528 1325.2 406.012C1386.9 400.906 1442 377.036 1503.4 370.405C1685.8 350.646 1847.9 485.183 2029.6 462.638C2128 450.438 2206.4 393.546 2306.3 388.772C2392.1 384.727 2469.1 419.937 2547.1 444.006C2625.1 468.076 2730.6 477.955 2786.5 434.657" stroke="url(#paint85_linear)" stroke-miterlimit="10"/>
<path d="M-739 297.466C-696.8 242.829 -579.7 239.05 -491.4 257.417C-403.1 275.784 -316.4 308.738 -224.6 301.047C-136.9 293.687 -63 249.858 25 244.089C123.3 237.591 212.3 279.165 293.3 316.629C374.3 354.093 470.7 391.225 566.3 374.78C650.4 360.325 710.1 307.545 794 292.692C976.3 260.4 1132.9 418.212 1320.2 402.696C1381.9 397.59 1437 373.719 1498.4 367.089C1680.8 347.329 1842.9 481.866 2024.6 459.322C2123 447.121 2201.4 390.23 2301.3 385.456C2387.1 381.411 2464.1 416.62 2542.1 440.69C2620.1 464.759 2725.6 474.639 2781.5 431.34" stroke="url(#paint86_linear)" stroke-miterlimit="10"/>
<path d="M-744 294.152C-701.8 239.515 -584.7 235.735 -496.4 254.102C-408.1 272.469 -321.4 305.424 -229.6 297.732C-141.9 290.372 -68 246.543 20 240.774C118.3 234.276 207.3 275.851 288.3 313.315C369.3 350.778 465.7 387.91 561.3 371.466C645.4 357.011 705.1 304.23 789 289.378C971.3 257.086 1127.9 414.897 1315.2 399.381C1376.9 394.276 1432 370.405 1493.4 363.774C1675.8 344.015 1837.9 478.552 2019.6 456.008C2118 443.807 2196.4 386.915 2296.3 382.141C2382.1 378.097 2459.1 413.306 2537.1 437.375C2615.1 461.445 2720.6 471.324 2776.5 428.026" stroke="url(#paint87_linear)" stroke-miterlimit="10"/>
<path d="M-749 290.837C-706.8 236.2 -589.7 232.421 -501.4 250.788C-413.1 269.155 -326.4 302.11 -234.6 294.418C-146.9 287.058 -73 243.229 15 237.46C113.3 230.962 202.3 272.537 283.3 310C364.3 347.464 460.7 384.596 556.3 368.151C640.4 353.696 700.1 300.916 784 286.063C966.3 253.772 1122.9 411.583 1310.2 396.067C1371.9 390.961 1427 367.091 1488.4 360.46C1670.8 340.7 1832.9 475.238 2014.6 452.693C2113 440.493 2191.4 383.601 2291.3 378.827C2377.1 374.782 2454.1 409.991 2532.1 434.061C2610.1 458.13 2715.6 468.01 2771.5 424.711" stroke="url(#paint88_linear)" stroke-miterlimit="10"/>
<path d="M-754 287.52C-711.8 232.883 -594.7 229.104 -506.4 247.471C-418.1 265.838 -331.4 298.793 -239.6 291.101C-151.9 283.741 -78 239.912 10 234.143C108.3 227.645 197.3 269.22 278.3 306.683C359.3 344.147 455.7 381.279 551.3 364.835C635.4 350.38 695.1 297.599 779 282.746C961.3 250.455 1117.9 408.266 1305.2 392.75C1366.9 387.644 1422 363.774 1483.4 357.143C1665.8 337.383 1827.9 471.921 2009.6 449.376C2108 437.176 2186.4 380.284 2286.3 375.51C2372.1 371.465 2449.1 406.674 2527.1 430.744C2605.1 454.813 2710.6 464.693 2766.5 421.395" stroke="url(#paint89_linear)" stroke-miterlimit="10"/>
<path d="M-759 284.206C-716.8 229.569 -599.7 225.789 -511.4 244.156C-423.1 262.523 -336.4 295.478 -244.6 287.787C-156.9 280.426 -83 236.597 5 230.829C103.3 224.331 192.3 265.905 273.3 303.369C354.3 340.832 450.7 377.964 546.3 361.52C630.4 347.065 690.1 294.285 774 279.432C956.3 247.14 1112.9 404.951 1300.2 389.435C1361.9 384.33 1417 360.459 1478.4 353.828C1660.8 334.069 1822.9 468.606 2004.6 446.062C2103 433.861 2181.4 376.97 2281.3 372.196C2367.1 368.151 2444.1 403.36 2522.1 427.429C2600.1 451.499 2705.6 461.379 2761.5 418.08" stroke="url(#paint90_linear)" stroke-miterlimit="10"/>
<path d="M-764 280.891C-721.8 226.254 -604.7 222.475 -516.4 240.842C-428.1 259.209 -341.4 292.164 -249.6 284.472C-161.9 277.112 -88 233.283 0 227.514C98.3 221.016 187.3 262.591 268.3 300.054C349.3 337.518 445.7 374.65 541.3 358.206C625.4 343.751 685.1 290.97 769 276.117C951.3 243.826 1107.9 401.637 1295.2 386.121C1356.9 381.015 1412 357.145 1473.4 350.514C1655.8 330.754 1817.9 465.292 1999.6 442.747C2098 430.547 2176.4 373.655 2276.3 368.881C2362.1 364.836 2439.1 400.045 2517.1 424.115C2595.1 448.184 2700.6 458.064 2756.5 414.766" stroke="url(#paint91_linear)" stroke-miterlimit="10"/>
<path d="M-769 277.575C-726.8 222.938 -609.7 219.158 -521.4 237.526C-433.1 255.893 -346.4 288.847 -254.6 281.156C-166.9 273.796 -93 229.967 -5 224.198C93.3 217.7 182.3 259.274 263.3 296.738C344.3 334.201 440.7 371.333 536.3 354.889C620.4 340.434 680.1 287.654 764 272.801C946.3 240.509 1102.9 398.32 1290.2 382.805C1351.9 377.699 1407 353.828 1468.4 347.198C1650.8 327.438 1812.9 461.975 1994.6 439.431C2093 427.23 2171.4 370.339 2271.3 365.565C2357.1 361.52 2434.1 396.729 2512.1 420.799C2590.1 444.868 2695.6 454.748 2751.5 411.449" stroke="url(#paint92_linear)" stroke-miterlimit="10"/>
<path d="M-774 274.259C-731.8 219.622 -614.7 215.842 -526.4 234.209C-438.1 252.576 -351.4 285.531 -259.6 277.839C-171.9 270.479 -98 226.65 -10 220.881C88.3 214.383 177.3 255.958 258.3 293.421C339.3 330.885 435.7 368.017 531.3 351.573C615.4 337.118 675.1 284.337 759 269.485C941.3 237.193 1097.9 395.004 1285.2 379.488C1346.9 374.382 1402 350.512 1463.4 343.881C1645.8 324.122 1807.9 458.659 1989.6 436.114C2088 423.914 2166.4 367.022 2266.3 362.248C2352.1 358.204 2429.1 393.413 2507.1 417.482C2585.1 441.552 2690.6 451.431 2746.5 408.133" stroke="url(#paint93_linear)" stroke-miterlimit="10"/>
<path d="M-779 270.944C-736.8 216.307 -619.7 212.527 -531.4 230.894C-443.1 249.261 -356.4 282.216 -264.6 274.524C-176.9 267.164 -103 223.335 -15 217.566C83.3 211.068 172.3 252.643 253.3 290.106C334.3 327.57 430.7 364.702 526.3 348.258C610.4 333.803 670.1 281.022 754 266.17C936.3 233.878 1092.9 391.689 1280.2 376.173C1341.9 371.068 1397 347.197 1458.4 340.566C1640.8 320.807 1802.9 455.344 1984.6 432.8C2083 420.599 2161.4 363.707 2261.3 358.933C2347.1 354.889 2424.1 390.098 2502.1 414.167C2580.1 438.237 2685.6 448.116 2741.5 404.818" stroke="url(#paint94_linear)" stroke-miterlimit="10"/>
<path d="M-784 267.63C-741.8 212.993 -624.7 209.213 -536.4 227.58C-448.1 245.947 -361.4 278.902 -269.6 271.21C-181.9 263.85 -108 220.021 -20 214.253C78.3 207.754 167.3 249.329 248.3 286.793C329.3 324.256 425.7 361.388 521.3 344.944C605.4 330.489 665.1 277.708 749 262.856C931.3 230.564 1087.9 388.375 1275.2 372.859C1336.9 367.754 1392 343.883 1453.4 337.252C1635.8 317.493 1797.9 452.03 1979.6 429.486C2078 417.285 2156.4 360.393 2256.3 355.619C2342.1 351.575 2419.1 386.784 2497.1 410.853C2575.1 434.923 2680.6 444.802 2736.5 401.504" stroke="url(#paint95_linear)" stroke-miterlimit="10"/>
<path d="M-789 264.315C-746.8 209.678 -629.7 205.898 -541.4 224.265C-453.1 242.632 -366.4 275.587 -274.6 267.895C-186.9 260.535 -113 216.706 -25 210.938C73.3 204.439 162.3 246.014 243.3 283.478C324.3 320.941 420.7 358.073 516.3 341.629C600.4 327.174 660.1 274.394 744 259.541C926.3 227.249 1082.9 385.06 1270.2 369.544C1331.9 364.439 1387 340.568 1448.4 333.937C1630.8 314.178 1792.9 448.715 1974.6 426.171C2073 413.97 2151.4 357.079 2251.3 352.304C2337.1 348.26 2414.1 383.469 2492.1 407.538C2570.1 431.608 2675.6 441.488 2731.5 398.189" stroke="url(#paint96_linear)" stroke-miterlimit="10"/>
<path d="M-794 260.999C-751.8 206.362 -634.7 202.582 -546.4 220.949C-458.1 239.316 -371.4 272.271 -279.6 264.579C-191.9 257.219 -118 213.39 -30 207.622C68.3 201.124 157.3 242.698 238.3 280.162C319.3 317.625 415.7 354.757 511.3 338.313C595.4 323.858 655.1 271.078 739 256.225C921.3 223.933 1077.9 381.744 1265.2 366.228C1326.9 361.123 1382 337.252 1443.4 330.621C1625.8 310.862 1787.9 445.399 1969.6 422.855C2068 410.654 2146.4 353.763 2246.3 348.988C2332.1 344.944 2409.1 380.153 2487.1 404.222C2565.1 428.292 2670.6 438.172 2726.5 394.873" stroke="url(#paint97_linear)" stroke-miterlimit="10"/>
<path d="M-799 257.682C-756.8 203.045 -639.7 199.265 -551.4 217.632C-463.1 236 -376.4 268.954 -284.6 261.263C-196.9 253.903 -123 210.073 -35 204.305C63.3 197.807 152.3 239.381 233.3 276.845C314.3 314.308 410.7 351.44 506.3 334.996C590.4 320.541 650.1 267.761 734 252.908C916.3 220.616 1072.9 378.427 1260.2 362.911C1321.9 357.806 1377 333.935 1438.4 327.305C1620.8 307.545 1782.9 442.082 1964.6 419.538C2063 407.337 2141.4 350.446 2241.3 345.672C2327.1 341.627 2404.1 376.836 2482.1 400.905C2560.1 424.975 2665.6 434.855 2721.5 391.556" stroke="url(#paint98_linear)" stroke-miterlimit="10"/>
<path d="M-804 254.368C-761.8 199.731 -644.7 195.951 -556.4 214.319C-468.1 232.686 -381.4 265.64 -289.6 257.949C-201.9 250.589 -128 206.76 -40 200.991C58.3 194.493 147.3 236.067 228.3 273.531C309.3 310.994 405.7 348.126 501.3 331.682C585.4 317.227 645.1 264.447 729 249.594C911.3 217.302 1067.9 375.113 1255.2 359.598C1316.9 354.492 1372 330.621 1433.4 323.991C1615.8 304.231 1777.9 438.768 1959.6 416.224C2058 404.023 2136.4 347.132 2236.3 342.358C2322.1 338.313 2399.1 373.522 2477.1 397.592C2555.1 421.661 2660.6 431.541 2716.5 388.242" stroke="url(#paint99_linear)" stroke-miterlimit="10"/>
<path d="M-809 251.053C-766.8 196.416 -649.7 192.636 -561.4 211.004C-473.1 229.371 -386.4 262.325 -294.6 254.634C-206.9 247.274 -133 203.445 -45 197.676C53.3 191.178 142.3 232.752 223.3 270.216C304.3 307.679 400.7 344.811 496.3 328.367C580.4 313.912 640.1 261.132 724 246.279C906.3 213.987 1062.9 371.798 1250.2 356.283C1311.9 351.177 1367 327.306 1428.4 320.676C1610.8 300.916 1772.9 435.453 1954.6 412.909C2053 400.708 2131.4 343.817 2231.3 339.043C2317.1 334.998 2394.1 370.207 2472.1 394.277C2550.1 418.346 2655.6 428.226 2711.5 384.927" stroke="url(#paint100_linear)" stroke-miterlimit="10"/>
<defs>
<linearGradient id="paint0_linear" x1="-309.4" y1="637.708" x2="3211.96" y2="637.708" gradientUnits="userSpaceOnUse">
<stop stop-color="#8816E1"/>
<stop offset="0.8755" stop-color="#8816E1" stop-opacity="0.1245"/>
<stop offset="1" stop-color="#8816E1" stop-opacity="0"/>
</linearGradient>
<linearGradient id="paint1_linear" x1="-314.4" y1="634.394" x2="3206.96" y2="634.394" gradientUnits="userSpaceOnUse">
<stop stop-color="#8816E1"/>
<stop offset="0.8755" stop-color="#8816E1" stop-opacity="0.1245"/>
<stop offset="1" stop-color="#8816E1" stop-opacity="0"/>
</linearGradient>
<linearGradient id="paint2_linear" x1="-319.4" y1="631.078" x2="3201.96" y2="631.078" gradientUnits="userSpaceOnUse">
<stop stop-color="#8816E1"/>
<stop offset="0.8755" stop-color="#8816E1" stop-opacity="0.1245"/>
<stop offset="1" stop-color="#8816E1" stop-opacity="0"/>
</linearGradient>
<linearGradient id="paint3_linear" x1="-324.4" y1="627.763" x2="3196.96" y2="627.763" gradientUnits="userSpaceOnUse">
<stop stop-color="#8816E1"/>
<stop offset="0.8755" stop-color="#8816E1" stop-opacity="0.1245"/>
<stop offset="1" stop-color="#8816E1" stop-opacity="0"/>
</linearGradient>
<linearGradient id="paint4_linear" x1="-329.4" y1="624.447" x2="3191.96" y2="624.447" gradientUnits="userSpaceOnUse">
<stop stop-color="#8816E1"/>
<stop offset="0.8755" stop-color="#8816E1" stop-opacity="0.1245"/>
<stop offset="1" stop-color="#8816E1" stop-opacity="0"/>
</linearGradient>
<linearGradient id="paint5_linear" x1="-334.4" y1="621.132" x2="3186.96" y2="621.132" gradientUnits="userSpaceOnUse">
<stop stop-color="#8816E1"/>
<stop offset="0.8755" stop-color="#8816E1" stop-opacity="0.1245"/>
<stop offset="1" stop-color="#8816E1" stop-opacity="0"/>
</linearGradient>
<linearGradient id="paint6_linear" x1="-339.4" y1="617.814" x2="3181.96" y2="617.814" gradientUnits="userSpaceOnUse">
<stop stop-color="#8816E1"/>
<stop offset="0.8755" stop-color="#8816E1" stop-opacity="0.1245"/>
<stop offset="1" stop-color="#8816E1" stop-opacity="0"/>
</linearGradient>
<linearGradient id="paint7_linear" x1="-344.4" y1="614.501" x2="3176.96" y2="614.501" gradientUnits="userSpaceOnUse">
<stop stop-color="#8816E1"/>
<stop offset="0.8755" stop-color="#8816E1" stop-opacity="0.1245"/>
<stop offset="1" stop-color="#8816E1" stop-opacity="0"/>
</linearGradient>
<linearGradient id="paint8_linear" x1="-349.4" y1="611.186" x2="3171.96" y2="611.186" gradientUnits="userSpaceOnUse">
<stop stop-color="#8816E1"/>
<stop offset="0.8755" stop-color="#8816E1" stop-opacity="0.1245"/>
<stop offset="1" stop-color="#8816E1" stop-opacity="0"/>
</linearGradient>
<linearGradient id="paint9_linear" x1="-354.4" y1="607.871" x2="3166.96" y2="607.871" gradientUnits="userSpaceOnUse">
<stop stop-color="#8816E1"/>
<stop offset="0.8755" stop-color="#8816E1" stop-opacity="0.1245"/>
<stop offset="1" stop-color="#8816E1" stop-opacity="0"/>
</linearGradient>
<linearGradient id="paint10_linear" x1="-359.4" y1="604.555" x2="3161.96" y2="604.555" gradientUnits="userSpaceOnUse">
<stop stop-color="#8816E1"/>
<stop offset="0.8755" stop-color="#8816E1" stop-opacity="0.1245"/>
<stop offset="1" stop-color="#8816E1" stop-opacity="0"/>
</linearGradient>
<linearGradient id="paint11_linear" x1="-364.4" y1="601.24" x2="3156.96" y2="601.24" gradientUnits="userSpaceOnUse">
<stop stop-color="#8816E1"/>
<stop offset="0.8755" stop-color="#8816E1" stop-opacity="0.1245"/>
<stop offset="1" stop-color="#8816E1" stop-opacity="0"/>
</linearGradient>
<linearGradient id="paint12_linear" x1="-369.4" y1="597.924" x2="3151.96" y2="597.924" gradientUnits="userSpaceOnUse">
<stop stop-color="#8816E1"/>
<stop offset="0.8755" stop-color="#8816E1" stop-opacity="0.1245"/>
<stop offset="1" stop-color="#8816E1" stop-opacity="0"/>
</linearGradient>
<linearGradient id="paint13_linear" x1="-374.4" y1="594.608" x2="3146.96" y2="594.608" gradientUnits="userSpaceOnUse">
<stop stop-color="#8816E1"/>
<stop offset="0.8755" stop-color="#8816E1" stop-opacity="0.1245"/>
<stop offset="1" stop-color="#8816E1" stop-opacity="0"/>
</linearGradient>
<linearGradient id="paint14_linear" x1="-379.4" y1="591.292" x2="3141.96" y2="591.292" gradientUnits="userSpaceOnUse">
<stop stop-color="#8816E1"/>
<stop offset="0.8755" stop-color="#8816E1" stop-opacity="0.1245"/>
<stop offset="1" stop-color="#8816E1" stop-opacity="0"/>
</linearGradient>
<linearGradient id="paint15_linear" x1="-384.4" y1="587.978" x2="3136.96" y2="587.978" gradientUnits="userSpaceOnUse">
<stop stop-color="#8816E1"/>
<stop offset="0.8755" stop-color="#8816E1" stop-opacity="0.1245"/>
<stop offset="1" stop-color="#8816E1" stop-opacity="0"/>
</linearGradient>
<linearGradient id="paint16_linear" x1="-389.4" y1="584.661" x2="3131.96" y2="584.661" gradientUnits="userSpaceOnUse">
<stop stop-color="#8816E1"/>
<stop offset="0.8755" stop-color="#8816E1" stop-opacity="0.1245"/>
<stop offset="1" stop-color="#8816E1" stop-opacity="0"/>
</linearGradient>
<linearGradient id="paint17_linear" x1="-394.4" y1="581.347" x2="3126.96" y2="581.347" gradientUnits="userSpaceOnUse">
<stop stop-color="#8816E1"/>
<stop offset="0.8755" stop-color="#8816E1" stop-opacity="0.1245"/>
<stop offset="1" stop-color="#8816E1" stop-opacity="0"/>
</linearGradient>
<linearGradient id="paint18_linear" x1="-399.4" y1="578.032" x2="3121.96" y2="578.032" gradientUnits="userSpaceOnUse">
<stop stop-color="#8816E1"/>
<stop offset="0.8755" stop-color="#8816E1" stop-opacity="0.1245"/>
<stop offset="1" stop-color="#8816E1" stop-opacity="0"/>
</linearGradient>
<linearGradient id="paint19_linear" x1="-404.4" y1="574.716" x2="3116.96" y2="574.716" gradientUnits="userSpaceOnUse">
<stop stop-color="#8816E1"/>
<stop offset="0.8755" stop-color="#8816E1" stop-opacity="0.1245"/>
<stop offset="1" stop-color="#8816E1" stop-opacity="0"/>
</linearGradient>
<linearGradient id="paint20_linear" x1="-409.4" y1="571.401" x2="3111.96" y2="571.401" gradientUnits="userSpaceOnUse">
<stop stop-color="#8816E1"/>
<stop offset="0.8755" stop-color="#8816E1" stop-opacity="0.1245"/>
<stop offset="1" stop-color="#8816E1" stop-opacity="0"/>
</linearGradient>
<linearGradient id="paint21_linear" x1="-414.4" y1="568.086" x2="3106.96" y2="568.086" gradientUnits="userSpaceOnUse">
<stop stop-color="#8816E1"/>
<stop offset="0.8755" stop-color="#8816E1" stop-opacity="0.1245"/>
<stop offset="1" stop-color="#8816E1" stop-opacity="0"/>
</linearGradient>
<linearGradient id="paint22_linear" x1="-419.4" y1="564.77" x2="3101.96" y2="564.77" gradientUnits="userSpaceOnUse">
<stop stop-color="#8816E1"/>
<stop offset="0.8755" stop-color="#8816E1" stop-opacity="0.1245"/>
<stop offset="1" stop-color="#8816E1" stop-opacity="0"/>
</linearGradient>
<linearGradient id="paint23_linear" x1="-424.4" y1="561.455" x2="3096.96" y2="561.455" gradientUnits="userSpaceOnUse">
<stop stop-color="#8816E1"/>
<stop offset="0.8755" stop-color="#8816E1" stop-opacity="0.1245"/>
<stop offset="1" stop-color="#8816E1" stop-opacity="0"/>
</linearGradient>
<linearGradient id="paint24_linear" x1="-429.4" y1="558.14" x2="3091.96" y2="558.14" gradientUnits="userSpaceOnUse">
<stop stop-color="#8816E1"/>
<stop offset="0.8755" stop-color="#8816E1" stop-opacity="0.1245"/>
<stop offset="1" stop-color="#8816E1" stop-opacity="0"/>
</linearGradient>
<linearGradient id="paint25_linear" x1="-434.4" y1="554.824" x2="3086.96" y2="554.824" gradientUnits="userSpaceOnUse">
<stop stop-color="#8816E1"/>
<stop offset="0.8755" stop-color="#8816E1" stop-opacity="0.1245"/>
<stop offset="1" stop-color="#8816E1" stop-opacity="0"/>
</linearGradient>
<linearGradient id="paint26_linear" x1="-439.4" y1="551.51" x2="3081.96" y2="551.51" gradientUnits="userSpaceOnUse">
<stop stop-color="#8816E1"/>
<stop offset="0.8755" stop-color="#8816E1" stop-opacity="0.1245"/>
<stop offset="1" stop-color="#8816E1" stop-opacity="0"/>
</linearGradient>
<linearGradient id="paint27_linear" x1="-444.4" y1="548.194" x2="3076.96" y2="548.194" gradientUnits="userSpaceOnUse">
<stop stop-color="#8816E1"/>
<stop offset="0.8755" stop-color="#8816E1" stop-opacity="0.1245"/>
<stop offset="1" stop-color="#8816E1" stop-opacity="0"/>
</linearGradient>
<linearGradient id="paint28_linear" x1="-449.4" y1="544.877" x2="3071.96" y2="544.877" gradientUnits="userSpaceOnUse">
<stop stop-color="#8816E1"/>
<stop offset="0.8755" stop-color="#8816E1" stop-opacity="0.1245"/>
<stop offset="1" stop-color="#8816E1" stop-opacity="0"/>
</linearGradient>
<linearGradient id="paint29_linear" x1="-454.4" y1="541.563" x2="3066.96" y2="541.563" gradientUnits="userSpaceOnUse">
<stop stop-color="#8816E1"/>
<stop offset="0.8755" stop-color="#8816E1" stop-opacity="0.1245"/>
<stop offset="1" stop-color="#8816E1" stop-opacity="0"/>
</linearGradient>
<linearGradient id="paint30_linear" x1="-459.4" y1="538.248" x2="3061.96" y2="538.248" gradientUnits="userSpaceOnUse">
<stop stop-color="#8816E1"/>
<stop offset="0.8755" stop-color="#8816E1" stop-opacity="0.1245"/>
<stop offset="1" stop-color="#8816E1" stop-opacity="0"/>
</linearGradient>
<linearGradient id="paint31_linear" x1="-464.4" y1="534.933" x2="3056.96" y2="534.933" gradientUnits="userSpaceOnUse">
<stop stop-color="#8816E1"/>
<stop offset="0.8755" stop-color="#8816E1" stop-opacity="0.1245"/>
<stop offset="1" stop-color="#8816E1" stop-opacity="0"/>
</linearGradient>
<linearGradient id="paint32_linear" x1="-469.4" y1="531.617" x2="3051.96" y2="531.617" gradientUnits="userSpaceOnUse">
<stop stop-color="#8816E1"/>
<stop offset="0.8755" stop-color="#8816E1" stop-opacity="0.1245"/>
<stop offset="1" stop-color="#8816E1" stop-opacity="0"/>
</linearGradient>
<linearGradient id="paint33_linear" x1="-474.4" y1="528.302" x2="3046.96" y2="528.302" gradientUnits="userSpaceOnUse">
<stop stop-color="#8816E1"/>
<stop offset="0.8755" stop-color="#8816E1" stop-opacity="0.1245"/>
<stop offset="1" stop-color="#8816E1" stop-opacity="0"/>
</linearGradient>
<linearGradient id="paint34_linear" x1="-479.4" y1="524.986" x2="3041.96" y2="524.986" gradientUnits="userSpaceOnUse">
<stop stop-color="#8816E1"/>
<stop offset="0.8755" stop-color="#8816E1" stop-opacity="0.1245"/>
<stop offset="1" stop-color="#8816E1" stop-opacity="0"/>
</linearGradient>
<linearGradient id="paint35_linear" x1="-484.4" y1="521.671" x2="3036.96" y2="521.671" gradientUnits="userSpaceOnUse">
<stop stop-color="#8816E1"/>
<stop offset="0.8755" stop-color="#8816E1" stop-opacity="0.1245"/>
<stop offset="1" stop-color="#8816E1" stop-opacity="0"/>
</linearGradient>
<linearGradient id="paint36_linear" x1="-489.4" y1="518.356" x2="3031.96" y2="518.356" gradientUnits="userSpaceOnUse">
<stop stop-color="#8816E1"/>
<stop offset="0.8755" stop-color="#8816E1" stop-opacity="0.1245"/>
<stop offset="1" stop-color="#8816E1" stop-opacity="0"/>
</linearGradient>
<linearGradient id="paint37_linear" x1="-494.4" y1="515.039" x2="3026.96" y2="515.039" gradientUnits="userSpaceOnUse">
<stop stop-color="#8816E1"/>
<stop offset="0.8755" stop-color="#8816E1" stop-opacity="0.1245"/>
<stop offset="1" stop-color="#8816E1" stop-opacity="0"/>
</linearGradient>
<linearGradient id="paint38_linear" x1="-499.4" y1="511.724" x2="3021.96" y2="511.724" gradientUnits="userSpaceOnUse">
<stop stop-color="#8816E1"/>
<stop offset="0.8755" stop-color="#8816E1" stop-opacity="0.1245"/>
<stop offset="1" stop-color="#8816E1" stop-opacity="0"/>
</linearGradient>
<linearGradient id="paint39_linear" x1="-504.4" y1="508.41" x2="3016.96" y2="508.41" gradientUnits="userSpaceOnUse">
<stop stop-color="#8816E1"/>
<stop offset="0.8755" stop-color="#8816E1" stop-opacity="0.1245"/>
<stop offset="1" stop-color="#8816E1" stop-opacity="0"/>
</linearGradient>
<linearGradient id="paint40_linear" x1="-509.4" y1="505.093" x2="3011.96" y2="505.093" gradientUnits="userSpaceOnUse">
<stop stop-color="#8816E1"/>
<stop offset="0.8755" stop-color="#8816E1" stop-opacity="0.1245"/>
<stop offset="1" stop-color="#8816E1" stop-opacity="0"/>
</linearGradient>
<linearGradient id="paint41_linear" x1="-514.4" y1="501.78" x2="3006.96" y2="501.78" gradientUnits="userSpaceOnUse">
<stop stop-color="#8816E1"/>
<stop offset="0.8755" stop-color="#8816E1" stop-opacity="0.1245"/>
<stop offset="1" stop-color="#8816E1" stop-opacity="0"/>
</linearGradient>
<linearGradient id="paint42_linear" x1="-519.4" y1="498.462" x2="3001.96" y2="498.462" gradientUnits="userSpaceOnUse">
<stop stop-color="#8816E1"/>
<stop offset="0.8755" stop-color="#8816E1" stop-opacity="0.1245"/>
<stop offset="1" stop-color="#8816E1" stop-opacity="0"/>
</linearGradient>
<linearGradient id="paint43_linear" x1="-524.4" y1="495.149" x2="2996.96" y2="495.149" gradientUnits="userSpaceOnUse">
<stop stop-color="#8816E1"/>
<stop offset="0.8755" stop-color="#8816E1" stop-opacity="0.1245"/>
<stop offset="1" stop-color="#8816E1" stop-opacity="0"/>
</linearGradient>
<linearGradient id="paint44_linear" x1="-529.4" y1="491.833" x2="2991.96" y2="491.833" gradientUnits="userSpaceOnUse">
<stop stop-color="#8816E1"/>
<stop offset="0.8755" stop-color="#8816E1" stop-opacity="0.1245"/>
<stop offset="1" stop-color="#8816E1" stop-opacity="0"/>
</linearGradient>
<linearGradient id="paint45_linear" x1="-534.4" y1="488.518" x2="2986.96" y2="488.518" gradientUnits="userSpaceOnUse">
<stop stop-color="#8816E1"/>
<stop offset="0.8755" stop-color="#8816E1" stop-opacity="0.1245"/>
<stop offset="1" stop-color="#8816E1" stop-opacity="0"/>
</linearGradient>
<linearGradient id="paint46_linear" x1="-539.4" y1="485.201" x2="2981.96" y2="485.201" gradientUnits="userSpaceOnUse">
<stop stop-color="#8816E1"/>
<stop offset="0.8755" stop-color="#8816E1" stop-opacity="0.1245"/>
<stop offset="1" stop-color="#8816E1" stop-opacity="0"/>
</linearGradient>
<linearGradient id="paint47_linear" x1="-544.4" y1="481.886" x2="2976.96" y2="481.886" gradientUnits="userSpaceOnUse">
<stop stop-color="#8816E1"/>
<stop offset="0.8755" stop-color="#8816E1" stop-opacity="0.1245"/>
<stop offset="1" stop-color="#8816E1" stop-opacity="0"/>
</linearGradient>
<linearGradient id="paint48_linear" x1="-549.4" y1="478.572" x2="2971.96" y2="478.572" gradientUnits="userSpaceOnUse">
<stop stop-color="#8816E1"/>
<stop offset="0.8755" stop-color="#8816E1" stop-opacity="0.1245"/>
<stop offset="1" stop-color="#8816E1" stop-opacity="0"/>
</linearGradient>
<linearGradient id="paint49_linear" x1="-554.4" y1="475.256" x2="2966.96" y2="475.256" gradientUnits="userSpaceOnUse">
<stop stop-color="#8816E1"/>
<stop offset="0.8755" stop-color="#8816E1" stop-opacity="0.1245"/>
<stop offset="1" stop-color="#8816E1" stop-opacity="0"/>
</linearGradient>
<linearGradient id="paint50_linear" x1="-559.4" y1="471.941" x2="2961.96" y2="471.941" gradientUnits="userSpaceOnUse">
<stop stop-color="#8816E1"/>
<stop offset="0.8755" stop-color="#8816E1" stop-opacity="0.1245"/>
<stop offset="1" stop-color="#8816E1" stop-opacity="0"/>
</linearGradient>
<linearGradient id="paint51_linear" x1="-564.4" y1="468.626" x2="2956.96" y2="468.626" gradientUnits="userSpaceOnUse">
<stop stop-color="#8816E1"/>
<stop offset="0.8755" stop-color="#8816E1" stop-opacity="0.1245"/>
<stop offset="1" stop-color="#8816E1" stop-opacity="0"/>
</linearGradient>
<linearGradient id="paint52_linear" x1="-569.4" y1="465.309" x2="2951.96" y2="465.309" gradientUnits="userSpaceOnUse">
<stop stop-color="#8816E1"/>
<stop offset="0.8755" stop-color="#8816E1" stop-opacity="0.1245"/>
<stop offset="1" stop-color="#8816E1" stop-opacity="0"/>
</linearGradient>
<linearGradient id="paint53_linear" x1="-574.4" y1="461.995" x2="2946.96" y2="461.995" gradientUnits="userSpaceOnUse">
<stop stop-color="#8816E1"/>
<stop offset="0.8755" stop-color="#8816E1" stop-opacity="0.1245"/>
<stop offset="1" stop-color="#8816E1" stop-opacity="0"/>
</linearGradient>
<linearGradient id="paint54_linear" x1="-579.4" y1="458.678" x2="2941.96" y2="458.678" gradientUnits="userSpaceOnUse">
<stop stop-color="#8816E1"/>
<stop offset="0.8755" stop-color="#8816E1" stop-opacity="0.1245"/>
<stop offset="1" stop-color="#8816E1" stop-opacity="0"/>
</linearGradient>
<linearGradient id="paint55_linear" x1="-584.4" y1="455.364" x2="2936.96" y2="455.364" gradientUnits="userSpaceOnUse">
<stop stop-color="#8816E1"/>
<stop offset="0.8755" stop-color="#8816E1" stop-opacity="0.1245"/>
<stop offset="1" stop-color="#8816E1" stop-opacity="0"/>
</linearGradient>
<linearGradient id="paint56_linear" x1="-589.4" y1="452.047" x2="2931.96" y2="452.047" gradientUnits="userSpaceOnUse">
<stop stop-color="#8816E1"/>
<stop offset="0.8755" stop-color="#8816E1" stop-opacity="0.1245"/>
<stop offset="1" stop-color="#8816E1" stop-opacity="0"/>
</linearGradient>
<linearGradient id="paint57_linear" x1="-594.4" y1="448.732" x2="2926.96" y2="448.732" gradientUnits="userSpaceOnUse">
<stop stop-color="#8816E1"/>
<stop offset="0.8755" stop-color="#8816E1" stop-opacity="0.1245"/>
<stop offset="1" stop-color="#8816E1" stop-opacity="0"/>
</linearGradient>
<linearGradient id="paint58_linear" x1="-599.4" y1="445.418" x2="2921.96" y2="445.418" gradientUnits="userSpaceOnUse">
<stop stop-color="#8816E1"/>
<stop offset="0.8755" stop-color="#8816E1" stop-opacity="0.1245"/>
<stop offset="1" stop-color="#8816E1" stop-opacity="0"/>
</linearGradient>
<linearGradient id="paint59_linear" x1="-604.4" y1="442.102" x2="2916.96" y2="442.102" gradientUnits="userSpaceOnUse">
<stop stop-color="#8816E1"/>
<stop offset="0.8755" stop-color="#8816E1" stop-opacity="0.1245"/>
<stop offset="1" stop-color="#8816E1" stop-opacity="0"/>
</linearGradient>
<linearGradient id="paint60_linear" x1="-609.4" y1="438.787" x2="2911.96" y2="438.787" gradientUnits="userSpaceOnUse">
<stop stop-color="#8816E1"/>
<stop offset="0.8755" stop-color="#8816E1" stop-opacity="0.1245"/>
<stop offset="1" stop-color="#8816E1" stop-opacity="0"/>
</linearGradient>
<linearGradient id="paint61_linear" x1="-614.4" y1="435.471" x2="2906.96" y2="435.471" gradientUnits="userSpaceOnUse">
<stop stop-color="#8816E1"/>
<stop offset="0.8755" stop-color="#8816E1" stop-opacity="0.1245"/>
<stop offset="1" stop-color="#8816E1" stop-opacity="0"/>
</linearGradient>
<linearGradient id="paint62_linear" x1="-619.4" y1="432.156" x2="2901.96" y2="432.156" gradientUnits="userSpaceOnUse">
<stop stop-color="#8816E1"/>
<stop offset="0.8755" stop-color="#8816E1" stop-opacity="0.1245"/>
<stop offset="1" stop-color="#8816E1" stop-opacity="0"/>
</linearGradient>
<linearGradient id="paint63_linear" x1="-624.4" y1="428.84" x2="2896.96" y2="428.84" gradientUnits="userSpaceOnUse">
<stop stop-color="#8816E1"/>
<stop offset="0.8755" stop-color="#8816E1" stop-opacity="0.1245"/>
<stop offset="1" stop-color="#8816E1" stop-opacity="0"/>
</linearGradient>
<linearGradient id="paint64_linear" x1="-629.4" y1="425.525" x2="2891.96" y2="425.525" gradientUnits="userSpaceOnUse">
<stop stop-color="#8816E1"/>
<stop offset="0.8755" stop-color="#8816E1" stop-opacity="0.1245"/>
<stop offset="1" stop-color="#8816E1" stop-opacity="0"/>
</linearGradient>
<linearGradient id="paint65_linear" x1="-634.4" y1="422.209" x2="2886.96" y2="422.209" gradientUnits="userSpaceOnUse">
<stop stop-color="#8816E1"/>
<stop offset="0.8755" stop-color="#8816E1" stop-opacity="0.1245"/>
<stop offset="1" stop-color="#8816E1" stop-opacity="0"/>
</linearGradient>
<linearGradient id="paint66_linear" x1="-639.4" y1="418.894" x2="2881.96" y2="418.894" gradientUnits="userSpaceOnUse">
<stop stop-color="#8816E1"/>
<stop offset="0.8755" stop-color="#8816E1" stop-opacity="0.1245"/>
<stop offset="1" stop-color="#8816E1" stop-opacity="0"/>
</linearGradient>
<linearGradient id="paint67_linear" x1="-644.4" y1="415.579" x2="2876.96" y2="415.579" gradientUnits="userSpaceOnUse">
<stop stop-color="#8816E1"/>
<stop offset="0.8755" stop-color="#8816E1" stop-opacity="0.1245"/>
<stop offset="1" stop-color="#8816E1" stop-opacity="0"/>
</linearGradient>
<linearGradient id="paint68_linear" x1="-649.4" y1="412.265" x2="2871.96" y2="412.265" gradientUnits="userSpaceOnUse">
<stop stop-color="#8816E1"/>
<stop offset="0.8755" stop-color="#8816E1" stop-opacity="0.1245"/>
<stop offset="1" stop-color="#8816E1" stop-opacity="0"/>
</linearGradient>
<linearGradient id="paint69_linear" x1="-654.4" y1="408.949" x2="2866.96" y2="408.949" gradientUnits="userSpaceOnUse">
<stop stop-color="#8816E1"/>
<stop offset="0.8755" stop-color="#8816E1" stop-opacity="0.1245"/>
<stop offset="1" stop-color="#8816E1" stop-opacity="0"/>
</linearGradient>
<linearGradient id="paint70_linear" x1="-659.4" y1="405.634" x2="2861.96" y2="405.634" gradientUnits="userSpaceOnUse">
<stop stop-color="#8816E1"/>
<stop offset="0.8755" stop-color="#8816E1" stop-opacity="0.1245"/>
<stop offset="1" stop-color="#8816E1" stop-opacity="0"/>
</linearGradient>
<linearGradient id="paint71_linear" x1="-664.4" y1="402.319" x2="2856.96" y2="402.319" gradientUnits="userSpaceOnUse">
<stop stop-color="#8816E1"/>
<stop offset="0.8755" stop-color="#8816E1" stop-opacity="0.1245"/>
<stop offset="1" stop-color="#8816E1" stop-opacity="0"/>
</linearGradient>
<linearGradient id="paint72_linear" x1="-669.4" y1="399.003" x2="2851.96" y2="399.003" gradientUnits="userSpaceOnUse">
<stop stop-color="#8816E1"/>
<stop offset="0.8755" stop-color="#8816E1" stop-opacity="0.1245"/>
<stop offset="1" stop-color="#8816E1" stop-opacity="0"/>
</linearGradient>
<linearGradient id="paint73_linear" x1="-674.4" y1="395.688" x2="2846.96" y2="395.688" gradientUnits="userSpaceOnUse">
<stop stop-color="#8816E1"/>
<stop offset="0.8755" stop-color="#8816E1" stop-opacity="0.1245"/>
<stop offset="1" stop-color="#8816E1" stop-opacity="0"/>
</linearGradient>
<linearGradient id="paint74_linear" x1="-679.4" y1="392.372" x2="2841.96" y2="392.372" gradientUnits="userSpaceOnUse">
<stop stop-color="#8816E1"/>
<stop offset="0.8755" stop-color="#8816E1" stop-opacity="0.1245"/>
<stop offset="1" stop-color="#8816E1" stop-opacity="0"/>
</linearGradient>
<linearGradient id="paint75_linear" x1="-684.4" y1="389.056" x2="2836.96" y2="389.056" gradientUnits="userSpaceOnUse">
<stop stop-color="#8816E1"/>
<stop offset="0.8755" stop-color="#8816E1" stop-opacity="0.1245"/>
<stop offset="1" stop-color="#8816E1" stop-opacity="0"/>
</linearGradient>
<linearGradient id="paint76_linear" x1="-689.4" y1="385.74" x2="2831.96" y2="385.74" gradientUnits="userSpaceOnUse">
<stop stop-color="#8816E1"/>
<stop offset="0.8755" stop-color="#8816E1" stop-opacity="0.1245"/>
<stop offset="1" stop-color="#8816E1" stop-opacity="0"/>
</linearGradient>
<linearGradient id="paint77_linear" x1="-694.4" y1="382.426" x2="2826.96" y2="382.426" gradientUnits="userSpaceOnUse">
<stop stop-color="#8816E1"/>
<stop offset="0.8755" stop-color="#8816E1" stop-opacity="0.1245"/>
<stop offset="1" stop-color="#8816E1" stop-opacity="0"/>
</linearGradient>
<linearGradient id="paint78_linear" x1="-699.4" y1="379.11" x2="2821.96" y2="379.11" gradientUnits="userSpaceOnUse">
<stop stop-color="#8816E1"/>
<stop offset="0.8755" stop-color="#8816E1" stop-opacity="0.1245"/>
<stop offset="1" stop-color="#8816E1" stop-opacity="0"/>
</linearGradient>
<linearGradient id="paint79_linear" x1="-704.4" y1="375.795" x2="2816.96" y2="375.795" gradientUnits="userSpaceOnUse">
<stop stop-color="#8816E1"/>
<stop offset="0.8755" stop-color="#8816E1" stop-opacity="0.1245"/>
<stop offset="1" stop-color="#8816E1" stop-opacity="0"/>
</linearGradient>
<linearGradient id="paint80_linear" x1="-709.4" y1="372.479" x2="2811.96" y2="372.479" gradientUnits="userSpaceOnUse">
<stop stop-color="#8816E1"/>
<stop offset="0.8755" stop-color="#8816E1" stop-opacity="0.1245"/>
<stop offset="1" stop-color="#8816E1" stop-opacity="0"/>
</linearGradient>
<linearGradient id="paint81_linear" x1="-714.4" y1="369.163" x2="2806.96" y2="369.163" gradientUnits="userSpaceOnUse">
<stop stop-color="#8816E1"/>
<stop offset="0.8755" stop-color="#8816E1" stop-opacity="0.1245"/>
<stop offset="1" stop-color="#8816E1" stop-opacity="0"/>
</linearGradient>
<linearGradient id="paint82_linear" x1="-719.4" y1="365.85" x2="2801.96" y2="365.85" gradientUnits="userSpaceOnUse">
<stop stop-color="#8816E1"/>
<stop offset="0.8755" stop-color="#8816E1" stop-opacity="0.1245"/>
<stop offset="1" stop-color="#8816E1" stop-opacity="0"/>
</linearGradient>
<linearGradient id="paint83_linear" x1="-724.4" y1="362.534" x2="2796.96" y2="362.534" gradientUnits="userSpaceOnUse">
<stop stop-color="#8816E1"/>
<stop offset="0.8755" stop-color="#8816E1" stop-opacity="0.1245"/>
<stop offset="1" stop-color="#8816E1" stop-opacity="0"/>
</linearGradient>
<linearGradient id="paint84_linear" x1="-729.4" y1="359.217" x2="2791.96" y2="359.217" gradientUnits="userSpaceOnUse">
<stop stop-color="#8816E1"/>
<stop offset="0.8755" stop-color="#8816E1" stop-opacity="0.1245"/>
<stop offset="1" stop-color="#8816E1" stop-opacity="0"/>
</linearGradient>
<linearGradient id="paint85_linear" x1="-734.4" y1="355.903" x2="2786.96" y2="355.903" gradientUnits="userSpaceOnUse">
<stop stop-color="#8816E1"/>
<stop offset="0.8755" stop-color="#8816E1" stop-opacity="0.1245"/>
<stop offset="1" stop-color="#8816E1" stop-opacity="0"/>
</linearGradient>
<linearGradient id="paint86_linear" x1="-739.4" y1="352.586" x2="2781.96" y2="352.586" gradientUnits="userSpaceOnUse">
<stop stop-color="#8816E1"/>
<stop offset="0.8755" stop-color="#8816E1" stop-opacity="0.1245"/>
<stop offset="1" stop-color="#8816E1" stop-opacity="0"/>
</linearGradient>
<linearGradient id="paint87_linear" x1="-744.4" y1="349.272" x2="2776.96" y2="349.272" gradientUnits="userSpaceOnUse">
<stop stop-color="#8816E1"/>
<stop offset="0.8755" stop-color="#8816E1" stop-opacity="0.1245"/>
<stop offset="1" stop-color="#8816E1" stop-opacity="0"/>
</linearGradient>
<linearGradient id="paint88_linear" x1="-749.4" y1="345.958" x2="2771.96" y2="345.958" gradientUnits="userSpaceOnUse">
<stop stop-color="#8816E1"/>
<stop offset="0.8755" stop-color="#8816E1" stop-opacity="0.1245"/>
<stop offset="1" stop-color="#8816E1" stop-opacity="0"/>
</linearGradient>
<linearGradient id="paint89_linear" x1="-754.4" y1="342.641" x2="2766.96" y2="342.641" gradientUnits="userSpaceOnUse">
<stop stop-color="#8816E1"/>
<stop offset="0.8755" stop-color="#8816E1" stop-opacity="0.1245"/>
<stop offset="1" stop-color="#8816E1" stop-opacity="0"/>
</linearGradient>
<linearGradient id="paint90_linear" x1="-759.4" y1="339.326" x2="2761.96" y2="339.326" gradientUnits="userSpaceOnUse">
<stop stop-color="#8816E1"/>
<stop offset="0.8755" stop-color="#8816E1" stop-opacity="0.1245"/>
<stop offset="1" stop-color="#8816E1" stop-opacity="0"/>
</linearGradient>
<linearGradient id="paint91_linear" x1="-764.4" y1="336.012" x2="2756.96" y2="336.012" gradientUnits="userSpaceOnUse">
<stop stop-color="#8816E1"/>
<stop offset="0.8755" stop-color="#8816E1" stop-opacity="0.1245"/>
<stop offset="1" stop-color="#8816E1" stop-opacity="0"/>
</linearGradient>
<linearGradient id="paint92_linear" x1="-769.4" y1="332.695" x2="2751.96" y2="332.695" gradientUnits="userSpaceOnUse">
<stop stop-color="#8816E1"/>
<stop offset="0.8755" stop-color="#8816E1" stop-opacity="0.1245"/>
<stop offset="1" stop-color="#8816E1" stop-opacity="0"/>
</linearGradient>
<linearGradient id="paint93_linear" x1="-774.4" y1="329.379" x2="2746.96" y2="329.379" gradientUnits="userSpaceOnUse">
<stop stop-color="#8816E1"/>
<stop offset="0.8755" stop-color="#8816E1" stop-opacity="0.1245"/>
<stop offset="1" stop-color="#8816E1" stop-opacity="0"/>
</linearGradient>
<linearGradient id="paint94_linear" x1="-779.4" y1="326.064" x2="2741.96" y2="326.064" gradientUnits="userSpaceOnUse">
<stop stop-color="#8816E1"/>
<stop offset="0.8755" stop-color="#8816E1" stop-opacity="0.1245"/>
<stop offset="1" stop-color="#8816E1" stop-opacity="0"/>
</linearGradient>
<linearGradient id="paint95_linear" x1="-784.4" y1="322.75" x2="2736.96" y2="322.75" gradientUnits="userSpaceOnUse">
<stop stop-color="#8816E1"/>
<stop offset="0.8755" stop-color="#8816E1" stop-opacity="0.1245"/>
<stop offset="1" stop-color="#8816E1" stop-opacity="0"/>
</linearGradient>
<linearGradient id="paint96_linear" x1="-789.4" y1="319.435" x2="2731.96" y2="319.435" gradientUnits="userSpaceOnUse">
<stop stop-color="#8816E1"/>
<stop offset="0.8755" stop-color="#8816E1" stop-opacity="0.1245"/>
<stop offset="1" stop-color="#8816E1" stop-opacity="0"/>
</linearGradient>
<linearGradient id="paint97_linear" x1="-794.4" y1="316.119" x2="2726.96" y2="316.119" gradientUnits="userSpaceOnUse">
<stop stop-color="#8816E1"/>
<stop offset="0.8755" stop-color="#8816E1" stop-opacity="0.1245"/>
<stop offset="1" stop-color="#8816E1" stop-opacity="0"/>
</linearGradient>
<linearGradient id="paint98_linear" x1="-799.4" y1="312.802" x2="2721.96" y2="312.802" gradientUnits="userSpaceOnUse">
<stop stop-color="#8816E1"/>
<stop offset="0.8755" stop-color="#8816E1" stop-opacity="0.1245"/>
<stop offset="1" stop-color="#8816E1" stop-opacity="0"/>
</linearGradient>
<linearGradient id="paint99_linear" x1="-804.4" y1="309.488" x2="2716.96" y2="309.488" gradientUnits="userSpaceOnUse">
<stop stop-color="#8816E1"/>
<stop offset="0.8755" stop-color="#8816E1" stop-opacity="0.1245"/>
<stop offset="1" stop-color="#8816E1" stop-opacity="0"/>
</linearGradient>
<linearGradient id="paint100_linear" x1="-809.4" y1="306.173" x2="2711.96" y2="306.173" gradientUnits="userSpaceOnUse">
<stop stop-color="#8816E1"/>
<stop offset="0.8755" stop-color="#8816E1" stop-opacity="0.1245"/>
<stop offset="1" stop-color="#8816E1" stop-opacity="0"/>
</linearGradient>
</defs>
</svg>
