<svg width="375" height="721" viewBox="0 0 375 721" fill="none" xmlns="http://www.w3.org/2000/svg">
<g clip-path="url(#clip0)">
<mask id="mask0" mask-type="alpha" maskUnits="userSpaceOnUse" x="0" y="0" width="375" height="750">
<rect width="375" height="750" fill="#C4C4C4"/>
</mask>
<g mask="url(#mask0)">
<path d="M306.11 756.93C258.98 735.976 249.636 757.245 202.506 736.291C155.376 715.337 164.907 694.151 117.777 673.197C70.6463 652.243 61.3021 673.512 14.1719 652.558C-32.9583 631.603 -23.4271 610.418 -70.5573 589.464C-117.687 568.51 -127.032 589.778 -174.162 568.824C-221.292 547.87 -211.761 526.684 -258.891 505.73C-306.021 484.776 -315.365 506.045 -362.496 485.091" stroke="url(#paint0_linear)" stroke-miterlimit="10"/>
<path d="M306.308 756.234C259.396 735.041 249.865 756.227 202.953 735.034C156.041 713.84 165.52 692.52 118.608 671.327C71.696 650.133 62.1648 671.319 15.2529 650.126C-31.6591 628.933 -22.1798 607.612 -69.0917 586.419C-116.004 565.226 -125.535 586.412 -172.447 565.219C-219.359 544.025 -209.879 522.705 -256.791 501.512C-303.703 480.318 -313.235 501.504 -360.146 480.311" stroke="url(#paint1_linear)" stroke-miterlimit="10"/>
<path d="M306.505 755.538C259.759 733.971 250.228 755.157 203.482 733.59C156.737 712.022 166.268 690.837 119.522 669.27C72.7765 647.702 63.2453 668.888 16.4997 647.321C-30.2459 625.754 -20.7147 604.568 -67.4604 583.001C-114.206 561.434 -123.737 582.619 -170.483 561.052C-217.228 539.485 -207.697 518.299 -254.443 496.732C-301.188 475.165 -310.72 496.351 -357.465 474.784" stroke="url(#paint2_linear)" stroke-miterlimit="10"/>
<path d="M306.89 754.925C260.31 732.984 250.644 754.222 204.065 732.28C157.485 710.339 167.017 689.153 120.489 667.347C73.9099 645.406 64.2436 666.644 17.6643 644.703C-28.915 622.761 -19.3839 601.576 -65.9113 579.769C-112.491 557.828 -122.157 579.066 -168.736 557.125C-215.316 535.184 -205.784 513.998 -252.312 492.192C-298.891 470.25 -308.557 491.488 -355.137 469.547" stroke="url(#paint3_linear)" stroke-miterlimit="10"/>
<path d="M307.087 754.229C260.674 731.914 251.008 753.151 204.595 730.836C158.181 708.521 167.9 687.418 121.352 665.155C74.9385 642.84 65.2723 664.077 18.8592 641.762C-27.5538 619.447 -17.8356 598.344 -64.3837 576.081C-110.797 553.766 -120.463 575.003 -166.876 552.688C-213.289 530.373 -203.571 509.27 -250.119 487.007C-296.532 464.692 -306.198 485.93 -352.611 463.614" stroke="url(#paint4_linear)" stroke-miterlimit="10"/>
<path d="M307.285 753.533C261.09 730.979 251.372 752.081 204.99 729.444C158.795 706.89 168.513 685.787 122.132 663.15C75.9368 640.596 66.2186 661.698 19.8368 639.061C-26.358 616.506 -16.6398 595.404 -63.0216 572.767C-109.216 550.212 -118.935 571.315 -165.316 548.678C-211.511 526.123 -201.793 505.021 -248.175 482.383C-294.37 459.829 -304.088 480.932 -350.47 458.294" stroke="url(#paint5_linear)" stroke-miterlimit="10"/>
<path d="M307.617 752.784C261.454 729.908 251.736 751.011 205.707 728.082C159.492 705.071 169.262 684.103 123.233 661.175C77.0697 638.299 67.3515 659.401 21.323 636.473C-24.8406 613.597 -14.9873 592.442 -61.1509 569.566C-107.314 546.69 -117.033 567.792 -163.061 544.864C-209.225 521.988 -199.371 500.833 -245.535 477.957C-291.699 455.081 -301.417 476.183 -347.445 453.255" stroke="url(#paint6_linear)" stroke-miterlimit="10"/>
<path d="M307.815 752.088C261.818 728.838 252.099 749.94 206.102 726.69C160.105 703.44 170.01 682.42 124.013 659.17C78.0154 635.92 68.2972 657.022 22.3 633.772C-23.6973 610.521 -13.7921 589.502 -59.7894 566.252C-105.787 543.001 -115.505 564.104 -161.502 540.853C-207.499 517.603 -197.594 496.584 -243.591 473.333C-289.589 450.083 -299.307 471.185 -345.304 447.935" stroke="url(#paint7_linear)" stroke-miterlimit="10"/>
<path d="M308.012 751.392C262.181 727.768 252.328 748.922 206.632 725.246C160.801 701.622 170.706 680.602 124.927 657.113C79.0961 633.489 69.2429 654.643 23.547 630.967C-22.284 607.342 -12.3788 586.323 -58.1578 562.833C-103.989 539.209 -113.842 560.364 -159.538 536.687C-205.369 513.063 -195.464 492.043 -241.243 468.554C-287.022 445.065 -296.927 466.084 -342.623 442.408" stroke="url(#paint8_linear)" stroke-miterlimit="10"/>
<path d="M308.345 750.644C262.732 726.781 252.775 747.665 207.162 723.802C161.55 699.938 171.455 678.919 125.842 655.055C80.2295 631.192 70.2722 652.076 24.6595 628.213C-20.9532 604.35 -11.0479 583.33 -56.6607 559.467C-102.273 535.603 -112.231 556.488 -157.843 532.624C-203.456 508.761 -193.551 487.741 -239.164 463.878C-284.776 440.015 -294.733 460.899 -340.346 437.036" stroke="url(#paint9_linear)" stroke-miterlimit="10"/>
<path d="M308.543 749.948C263.096 725.71 253.139 746.595 207.558 722.409C162.111 698.172 172.068 677.287 126.622 653.05C81.1754 628.813 71.2182 649.697 25.6367 625.511C-19.8098 601.274 -9.85256 580.39 -55.299 556.152C-100.745 531.915 -110.703 552.799 -156.284 528.614C-201.731 504.376 -191.773 483.492 -237.22 459.254C-282.666 435.017 -292.624 455.901 -338.205 431.716" stroke="url(#paint10_linear)" stroke-miterlimit="10"/>
<path d="M308.792 749.387C263.512 724.775 253.42 745.712 208.191 721.235C162.911 696.624 172.868 675.74 127.588 651.128C82.308 626.517 72.2158 647.453 26.9876 622.976C-18.3445 598.23 -8.25225 577.294 -53.6156 552.869C-98.8957 528.258 -108.988 549.194 -154.216 524.718C-199.496 500.106 -189.539 479.222 -234.819 454.61C-280.099 429.999 -290.192 450.935 -335.42 426.458" stroke="url(#paint11_linear)" stroke-miterlimit="10"/>
<path d="M309.124 748.639C264.063 723.788 253.918 744.589 208.721 719.791C163.659 694.94 173.752 674.004 128.503 649.07C83.4409 624.22 73.2966 645.021 28.0997 620.223C-16.9622 595.372 -6.86998 574.436 -52.1189 549.502C-97.1808 524.652 -107.325 545.453 -152.522 520.655C-197.584 495.804 -187.492 474.868 -232.741 449.934C-277.802 425.084 -287.947 445.885 -333.144 421.086" stroke="url(#paint12_linear)" stroke-miterlimit="10"/>
<path d="M309.322 747.943C264.291 722.77 254.147 743.571 209.251 718.347C164.221 693.174 174.448 672.186 129.417 647.013C84.3868 621.841 74.2426 642.642 29.347 617.418C-15.6837 592.245 -5.45628 571.257 -50.487 546.084C-95.5176 520.912 -105.662 541.713 -150.557 516.488C-195.588 491.316 -185.361 470.328 -230.391 445.155C-275.422 419.982 -285.566 440.784 -330.462 415.559" stroke="url(#paint13_linear)" stroke-miterlimit="10"/>
<path d="M309.519 747.247C264.655 721.7 254.511 742.501 209.646 716.954C164.782 691.408 175.061 670.555 130.197 645.008C85.3325 619.462 75.1883 640.263 30.3239 614.716C-14.5404 589.169 -4.26111 568.316 -49.1255 542.77C-93.9899 517.223 -104.134 538.024 -148.998 512.478C-193.863 486.931 -183.584 466.078 -228.448 440.531C-273.312 414.985 -283.456 435.786 -328.321 410.239" stroke="url(#paint14_linear)" stroke-miterlimit="10"/>
<path d="M309.717 746.551C265.019 720.63 254.74 741.483 210.177 715.51C165.479 689.59 175.81 668.872 131.112 642.951C86.4137 617.03 76.1344 637.884 31.5714 611.911C-13.1267 585.99 -2.79547 565.272 -47.4935 539.352C-92.1916 513.431 -102.471 534.284 -147.034 508.311C-191.732 482.391 -181.401 461.673 -226.099 435.752C-270.797 409.831 -281.076 430.685 -325.639 404.712" stroke="url(#paint15_linear)" stroke-miterlimit="10"/>
<path d="M310.049 745.802C265.57 719.643 255.238 740.361 210.759 714.201C166.279 688.041 176.558 667.188 132.078 641.029C87.5984 614.869 77.2671 635.587 32.7873 609.427C-11.6925 583.268 -1.4132 562.415 -45.893 536.255C-90.3729 510.095 -100.704 530.814 -145.184 504.654C-189.664 478.494 -179.385 457.641 -223.864 431.482C-268.344 405.322 -278.675 426.04 -323.155 399.88" stroke="url(#paint16_linear)" stroke-miterlimit="10"/>
<path d="M310.247 745.106C265.933 718.572 255.602 739.29 211.289 712.756C166.975 686.223 177.306 665.505 132.993 638.971C88.6793 612.437 78.3481 633.156 34.0346 606.622C-10.2789 580.088 0.0522703 559.37 -44.2613 532.837C-88.5748 506.303 -98.906 527.021 -143.22 500.487C-187.533 473.954 -177.202 453.236 -221.515 426.702C-265.829 400.168 -276.16 420.886 -320.474 394.353" stroke="url(#paint17_linear)" stroke-miterlimit="10"/>
<path d="M310.444 744.41C266.297 717.502 255.831 738.272 211.684 711.365C167.536 684.457 177.868 663.739 133.72 636.831C89.5732 609.924 79.1068 630.693 34.9596 603.786C-9.18759 576.878 1.14366 556.16 -43.0036 529.252C-87.1508 502.345 -97.6171 523.115 -141.764 496.207C-185.912 469.299 -175.58 448.581 -219.728 421.673C-263.875 394.766 -274.341 415.536 -318.488 388.628" stroke="url(#paint18_linear)" stroke-miterlimit="10"/>
<path d="M310.829 743.797C266.848 716.515 256.382 737.285 212.266 710.055C168.285 682.774 178.668 662.191 134.687 634.909C90.7062 607.627 80.2398 628.397 36.1238 601.167C-7.85711 573.886 2.52602 553.303 -41.4549 526.021C-85.4358 498.739 -95.9021 519.509 -140.018 492.279C-183.999 464.997 -173.616 444.415 -217.597 417.133C-261.578 389.851 -272.044 410.621 -316.16 383.391" stroke="url(#paint19_linear)" stroke-miterlimit="10"/>
<path d="M311.026 743.101C267.129 715.632 256.61 736.267 212.796 708.611C168.898 681.142 179.499 660.32 135.602 632.851C91.7039 605.383 81.1857 626.018 37.3711 598.362C-6.52669 570.893 4.07472 550.071 -39.8231 522.602C-83.7208 495.133 -94.2391 515.768 -138.054 488.112C-181.952 460.644 -171.35 439.822 -215.248 412.353C-259.146 384.884 -269.664 405.519 -313.479 377.863" stroke="url(#paint20_linear)" stroke-miterlimit="10"/>
<path d="M311.224 742.405C267.493 714.562 256.974 735.197 213.243 707.354C169.511 679.511 180.165 658.824 136.433 630.981C92.7019 603.139 82.1836 623.773 38.4522 595.931C-5.27929 568.088 5.37409 547.401 -38.3574 519.558C-82.0888 491.715 -92.6071 512.35 -136.339 484.507C-180.07 456.664 -169.417 435.978 -213.148 408.135C-256.88 380.292 -267.398 400.927 -311.129 373.084" stroke="url(#paint21_linear)" stroke-miterlimit="10"/>
<path d="M311.557 741.657C267.991 713.44 257.473 734.075 213.908 705.858C170.343 677.641 181.048 657.089 137.483 628.872C93.9178 600.655 83.3995 621.29 39.8343 593.073C-3.73085 564.856 6.97451 544.305 -36.5907 516.088C-80.1558 487.871 -90.6741 508.506 -134.239 480.289C-177.804 452.072 -167.099 431.52 -210.664 403.303C-254.23 375.086 -264.748 395.721 -308.313 367.504" stroke="url(#paint22_linear)" stroke-miterlimit="10"/>
<path d="M311.755 740.96C268.356 712.369 257.702 733.056 214.303 704.465C170.905 675.874 181.61 655.323 138.263 626.867C94.864 598.276 84.2107 618.963 40.8118 590.372C-2.58704 561.781 8.11819 541.229 -35.2287 512.773C-78.6276 484.182 -89.2809 504.869 -132.68 476.278C-176.079 447.687 -165.373 427.135 -208.72 398.68C-252.119 370.089 -262.773 390.776 -306.171 362.185" stroke="url(#paint23_linear)" stroke-miterlimit="10"/>
<path d="M311.952 740.264C268.771 711.434 258.066 731.986 214.834 703.021C171.653 674.191 182.358 653.639 139.178 624.809C95.997 595.979 85.2918 616.531 42.0592 587.566C-1.1214 558.736 9.58387 538.185 -33.5968 509.355C-76.7774 480.525 -87.4827 501.076 -130.715 472.111C-173.896 443.282 -163.191 422.73 -206.371 393.9C-249.552 365.07 -260.257 385.622 -303.49 356.657" stroke="url(#paint24_linear)" stroke-miterlimit="10"/>
<path d="M312.284 739.516C269.27 710.312 258.43 730.916 215.363 701.577C172.349 672.373 183.054 651.821 140.04 622.617C97.0257 593.413 86.1853 614.017 43.119 584.678C0.104688 555.474 10.81 534.922 -32.2043 505.718C-75.2187 476.514 -86.059 497.118 -129.125 467.779C-172.14 438.575 -161.434 418.023 -204.449 388.819C-247.463 359.615 -258.355 380.084 -301.37 350.88" stroke="url(#paint25_linear)" stroke-miterlimit="10"/>
<path d="M312.482 738.82C269.634 709.242 258.742 729.711 215.946 700.268C173.098 670.69 183.855 650.273 141.007 620.695C98.1588 591.117 87.2665 611.586 44.4704 582.143C1.62241 552.565 12.3796 532.148 -30.4684 502.57C-73.3164 472.992 -84.2087 493.461 -127.005 464.018C-169.853 434.44 -159.096 414.023 -201.944 384.445C-244.792 354.867 -255.684 375.336 -298.48 345.893" stroke="url(#paint26_linear)" stroke-miterlimit="10"/>
<path d="M314.945 733.531C271.931 704.327 261.091 724.931 218.024 695.592C175.01 666.388 185.715 645.836 142.701 616.632C99.6867 587.428 88.8464 608.032 45.7801 578.693C2.76582 549.489 13.4711 528.937 -29.5432 499.733C-72.5575 470.529 -83.3979 491.133 -126.464 461.794C-169.478 432.59 -158.773 412.038 -201.788 382.834C-244.802 353.63 -255.694 374.099 -298.708 344.895" stroke="url(#paint27_linear)" stroke-miterlimit="10"/>
<path d="M317.408 728.242C274.228 699.412 263.523 719.964 220.29 690.999C177.109 662.169 187.815 641.618 144.634 612.788C101.453 583.958 90.7482 604.51 47.5157 575.545C4.33506 546.715 15.0403 526.163 -28.1403 497.333C-71.3209 468.503 -82.0262 489.055 -125.259 460.09C-168.439 431.26 -157.734 410.708 -200.915 381.878C-244.095 353.049 -254.801 373.6 -298.033 344.635" stroke="url(#paint28_linear)" stroke-miterlimit="10"/>
<path d="M319.82 722.819C276.421 694.228 265.768 714.915 222.369 686.324C178.97 657.733 189.675 637.181 146.328 608.725C102.929 580.134 92.2241 600.686 48.8772 572.23C5.4783 543.639 16.1836 523.087 -27.1633 494.632C-70.5622 466.041 -81.2155 486.727 -124.614 458.137C-168.013 429.546 -157.308 408.994 -200.655 380.538C-244.054 351.947 -254.707 372.634 -298.106 344.043" stroke="url(#paint29_linear)" stroke-miterlimit="10"/>
<path d="M322.283 717.531C278.718 689.314 268.2 709.949 224.635 681.732C181.069 653.515 191.775 632.963 148.209 604.746C104.644 576.529 94.1261 597.164 50.5609 568.947C6.99574 540.73 17.701 520.179 -25.8642 491.962C-69.4294 463.745 -79.9476 484.38 -123.513 456.163C-167.078 427.946 -156.373 407.394 -199.938 379.177C-243.503 350.96 -254.021 371.595 -297.586 343.378" stroke="url(#paint30_linear)" stroke-miterlimit="10"/>
<path d="M324.695 712.107C280.964 684.264 270.445 704.899 226.714 677.056C182.982 649.213 193.636 628.526 149.904 600.683C106.173 572.841 95.6545 593.476 51.923 565.633C8.19152 537.79 18.8448 517.103 -24.8867 489.26C-68.6182 461.417 -79.1364 482.052 -122.868 454.209C-166.599 426.367 -155.946 405.68 -199.677 377.837C-243.409 349.994 -253.927 370.629 -297.659 342.786" stroke="url(#paint31_linear)" stroke-miterlimit="10"/>
<path d="M327.158 706.818C283.26 679.349 272.742 699.984 228.927 672.328C185.029 644.859 195.631 624.037 151.733 596.569C107.835 569.1 97.317 589.735 53.5024 562.079C9.60462 534.61 20.206 513.788 -23.6917 486.32C-67.5895 458.851 -78.1077 479.486 -121.922 451.83C-165.82 424.361 -155.219 403.539 -199.117 376.07C-243.014 348.602 -253.533 369.236 -297.347 341.581" stroke="url(#paint32_linear)" stroke-miterlimit="10"/>
<path d="M329.57 701.394C285.589 674.112 275.122 694.882 231.006 667.652C187.025 640.371 197.409 619.788 153.428 592.506C109.447 565.224 98.9804 585.994 54.8644 558.764C10.8835 531.483 21.2667 510.9 -22.7142 483.618C-66.6952 456.336 -77.1615 477.106 -121.278 449.876C-165.258 422.595 -154.875 402.012 -198.856 374.73C-242.837 347.448 -253.303 368.218 -297.419 340.988" stroke="url(#paint33_linear)" stroke-miterlimit="10"/>
<path d="M332.033 696.106C287.886 669.198 277.419 689.968 233.272 663.06C189.125 636.152 199.456 615.434 155.309 588.527C111.162 561.619 100.695 582.389 56.5482 555.481C12.401 528.573 22.7322 507.855 -21.4151 480.948C-65.5623 454.04 -76.0286 474.81 -120.176 447.902C-164.323 420.995 -153.992 400.277 -198.139 373.369C-242.286 346.461 -252.753 367.231 -296.9 340.323" stroke="url(#paint34_linear)" stroke-miterlimit="10"/>
<path d="M334.444 690.682C290.131 664.148 279.799 684.866 235.486 658.333C191.172 631.799 201.504 611.081 157.19 584.547C112.877 558.014 102.545 578.732 58.2318 552.198C13.9183 525.664 24.2496 504.946 -20.0639 478.413C-64.3775 451.879 -74.7087 472.597 -119.022 446.063C-163.336 419.53 -153.005 398.812 -197.318 372.278C-241.632 345.744 -251.963 366.462 -296.276 339.929" stroke="url(#paint35_linear)" stroke-miterlimit="10"/>
<path d="M336.907 685.393C292.428 659.234 282.096 679.952 237.617 653.792C193.137 627.633 203.416 606.78 158.936 580.62C114.456 554.46 104.125 575.178 59.6452 549.019C15.1654 522.859 25.4447 502.006 -19.0351 475.846C-63.515 449.687 -73.8462 470.405 -118.326 444.245C-162.806 418.086 -152.527 397.233 -197.006 371.073C-241.486 344.913 -251.818 365.631 -296.297 339.472" stroke="url(#paint36_linear)" stroke-miterlimit="10"/>
<path d="M339.319 679.97C294.621 654.049 284.342 674.902 239.779 648.93C195.081 623.009 205.412 602.291 160.714 576.37C116.016 550.45 105.736 571.303 61.1734 545.33C16.4753 519.41 26.8065 498.692 -17.8915 472.771C-62.5896 446.85 -72.8689 467.703 -117.432 441.731C-162.13 415.81 -151.799 395.092 -196.497 369.171C-241.195 343.251 -251.474 364.104 -296.037 338.131" stroke="url(#paint37_linear)" stroke-miterlimit="10"/>
<path d="M341.782 674.681C296.918 649.134 286.774 669.936 241.909 644.389C197.045 618.842 207.324 597.989 162.46 572.443C117.595 546.896 107.451 567.697 62.5868 542.151C17.7224 516.604 28.0017 495.751 -16.8627 470.204C-61.7271 444.658 -71.8713 465.459 -116.736 439.912C-161.6 414.366 -151.321 393.513 -196.185 367.966C-241.049 342.419 -251.194 363.22 -296.058 337.674" stroke="url(#paint38_linear)" stroke-miterlimit="10"/>
<path d="M344.194 669.257C299.163 644.085 289.019 664.886 244.123 639.662C199.092 614.489 209.32 593.501 164.289 568.328C119.258 543.156 109.114 563.957 64.2186 538.732C19.1879 513.56 29.4153 492.572 -15.6154 467.399C-60.6461 442.226 -70.7903 463.028 -115.686 437.803C-160.717 412.631 -150.489 391.642 -195.52 366.47C-240.551 341.297 -250.695 362.099 -295.59 336.874" stroke="url(#paint39_linear)" stroke-miterlimit="10"/>
<path d="M346.657 663.969C301.595 639.118 291.451 659.92 246.254 635.121C201.192 610.271 211.284 589.334 166.035 564.401C120.973 539.55 110.829 560.352 65.6323 535.553C20.5705 510.703 30.6627 489.766 -14.5862 464.833C-59.6481 439.982 -69.7923 460.784 -114.989 435.985C-160.051 411.135 -149.959 390.198 -195.208 365.265C-240.27 340.414 -250.414 361.215 -295.611 336.417" stroke="url(#paint40_linear)" stroke-miterlimit="10"/>
<path d="M349.204 658.493C303.923 633.882 293.831 654.818 248.603 630.341C203.323 605.73 213.28 584.846 168 560.234C122.72 535.623 112.627 556.559 67.3991 532.082C22.119 507.471 32.0762 486.587 -13.2039 461.975C-58.4841 437.364 -68.5764 458.3 -113.805 433.823C-159.085 409.212 -149.128 388.328 -194.408 363.716C-239.823 339.157 -249.728 360.176 -295.008 335.564" stroke="url(#paint41_linear)" stroke-miterlimit="10"/>
<path d="M351.667 653.205C306.22 628.967 296.263 649.852 250.682 625.666C205.235 601.429 215.192 580.544 169.746 556.307C124.299 532.069 114.342 552.954 68.7607 528.768C23.3143 504.531 33.2714 483.647 -12.175 459.409C-57.6214 435.172 -67.5786 456.056 -113.16 431.87C-158.607 407.633 -148.649 386.749 -194.096 362.511C-239.542 338.274 -249.5 359.158 -295.081 334.973" stroke="url(#paint42_linear)" stroke-miterlimit="10"/>
<path d="M354.078 647.781C308.465 623.918 298.508 644.802 252.895 620.939C207.283 597.075 217.188 576.056 171.575 552.192C125.962 528.329 116.005 549.213 70.3925 525.35C24.7797 501.486 34.685 480.467 -10.9277 456.604C-56.5405 432.74 -66.4977 453.624 -112.11 429.761C-157.723 405.898 -147.818 384.878 -193.431 361.015C-239.043 337.151 -249.001 358.036 -294.613 334.172" stroke="url(#paint43_linear)" stroke-miterlimit="10"/>
<path d="M356.541 642.492C310.71 618.868 300.857 640.022 255.161 616.346C209.33 592.721 219.235 571.702 173.456 548.213C127.625 524.588 117.772 545.743 72.0762 522.066C26.2452 498.442 36.1505 477.422 -9.62858 453.933C-55.4596 430.309 -65.3129 451.463 -111.009 427.787C-156.84 404.162 -146.935 383.143 -192.714 359.654C-238.545 336.029 -248.398 357.184 -294.094 333.507" stroke="url(#paint44_linear)" stroke-miterlimit="10"/>
<path d="M358.953 637.068C312.956 613.818 303.237 634.921 257.24 611.67C211.243 588.42 221.148 567.4 175.151 544.15C129.154 520.9 119.435 542.002 73.4381 518.752C27.4408 495.501 37.346 474.482 -8.65125 451.232C-54.6485 427.981 -64.3667 449.084 -110.364 425.833C-156.361 402.583 -146.456 381.564 -192.453 358.313C-238.451 335.063 -248.169 356.165 -294.166 332.915" stroke="url(#paint45_linear)" stroke-miterlimit="10"/>
<path d="M361.416 631.78C315.253 608.904 305.534 630.006 259.506 607.078C213.342 584.202 223.196 563.047 177.032 540.171C130.869 517.295 121.15 538.397 75.1218 515.469C28.9582 492.592 38.8115 471.438 -7.35204 448.562C-53.5156 425.685 -63.2338 446.788 -109.262 423.86C-155.426 400.983 -145.573 379.829 -191.736 356.953C-237.9 334.076 -247.618 355.179 -293.646 332.25" stroke="url(#paint46_linear)" stroke-miterlimit="10"/>
<path d="M363.827 626.356C317.632 603.802 307.914 624.905 261.532 602.267C215.338 579.713 225.056 558.61 178.674 535.973C132.479 513.419 122.761 534.521 76.3791 511.884C30.1843 489.33 39.9026 468.227 -6.47925 445.59C-52.674 423.036 -62.3923 444.138 -108.774 421.501C-154.969 398.947 -145.251 377.844 -191.632 355.207C-237.827 332.652 -247.545 353.755 -293.927 331.118" stroke="url(#paint47_linear)" stroke-miterlimit="10"/>
<path d="M366.291 621.067C319.878 598.752 310.212 619.99 263.799 597.675C217.386 575.359 227.104 554.257 180.556 531.993C134.143 509.678 124.476 530.916 78.0634 508.601C31.6504 486.285 41.3685 465.183 -5.17959 442.92C-51.5926 420.604 -61.2589 441.842 -107.672 419.527C-154.085 397.211 -144.367 376.109 -190.915 353.845C-237.328 331.53 -246.994 352.768 -293.407 330.453" stroke="url(#paint48_linear)" stroke-miterlimit="10"/>
<path d="M368.702 615.644C322.123 593.703 312.457 614.94 265.877 592.999C219.298 571.058 228.829 549.872 182.302 528.066C135.722 506.125 126.056 527.362 79.4769 505.421C32.8975 483.48 42.4286 462.294 -4.09876 440.488C-50.6781 418.547 -60.3443 439.785 -106.924 417.843C-153.503 395.902 -143.972 374.716 -190.499 352.91C-237.079 330.969 -246.745 352.207 -293.324 330.266" stroke="url(#paint49_linear)" stroke-miterlimit="10"/>
<path d="M371.166 610.355C324.42 588.788 314.889 609.974 268.143 588.406C221.397 566.839 230.929 545.654 184.183 524.086C137.437 502.519 127.906 523.705 81.1605 502.138C34.4148 480.571 43.946 459.385 -2.79962 437.818C-49.5453 416.251 -59.0765 437.436 -105.822 415.869C-152.568 394.302 -143.037 373.116 -189.782 351.549C-236.528 329.982 -246.059 351.168 -292.805 329.601" stroke="url(#paint50_linear)" stroke-miterlimit="10"/>
<path d="M373.577 604.931C326.665 583.738 317.134 604.924 270.222 583.731C223.31 562.538 232.789 541.217 185.877 520.024C138.965 498.831 129.434 520.016 82.5219 498.823C35.61 477.63 45.0893 456.309 -1.82264 435.116C-48.7346 413.923 -58.2658 435.109 -105.178 413.916C-152.09 392.723 -142.61 371.402 -189.522 350.209C-236.434 329.016 -245.966 350.201 -292.877 329.008" stroke="url(#paint51_linear)" stroke-miterlimit="10"/>
<path d="M376.04 599.642C328.91 578.688 319.566 599.957 272.435 579.003C225.305 558.049 234.837 536.863 187.706 515.909C140.576 494.955 131.232 516.224 84.1019 495.27C36.9717 474.315 46.5029 453.13 -0.62725 432.176C-47.7574 411.221 -57.1016 432.49 -104.232 411.536C-151.362 390.582 -141.831 369.396 -188.961 348.442C-236.091 327.488 -245.435 348.757 -292.565 327.803" stroke="url(#paint52_linear)" stroke-miterlimit="10"/>
<path d="M378.316 594.271C331.155 573.639 321.676 594.96 274.514 574.328C227.353 553.696 236.697 532.427 189.536 511.795C142.374 491.163 132.895 512.483 85.7337 491.851C38.5723 471.219 47.9164 449.95 0.755054 429.318C-46.4063 408.686 -55.8856 430.007 -103.047 409.375C-150.208 388.743 -140.864 367.474 -188.026 346.842C-235.187 326.21 -244.666 347.531 -291.828 326.899" stroke="url(#paint53_linear)" stroke-miterlimit="10"/>
<path d="M380.593 588.899C333.265 568.641 323.921 589.91 276.593 569.652C229.265 549.394 238.61 528.125 191.23 507.732C143.902 487.474 134.558 508.743 87.2304 488.485C39.9027 468.227 49.2469 446.958 1.86724 426.565C-45.4605 406.307 -54.8047 427.576 -102.132 407.318C-149.46 387.06 -140.116 365.791 -187.496 345.398C-234.823 325.14 -244.167 346.409 -291.495 326.151" stroke="url(#paint54_linear)" stroke-miterlimit="10"/>
<path d="M382.869 583.527C335.458 563.456 326.166 584.86 278.62 564.841C231.209 544.77 240.418 523.553 193.007 503.482C145.597 483.411 136.304 504.815 88.7584 484.796C41.3476 464.725 50.5566 443.508 3.14577 423.437C-44.2651 403.366 -53.5572 424.77 -101.103 404.751C-148.514 384.68 -139.305 363.464 -186.716 343.393C-234.127 323.322 -243.419 344.726 -290.965 324.707" stroke="url(#paint55_linear)" stroke-miterlimit="10"/>
<path d="M385.197 578.291C337.62 558.594 328.328 579.998 280.751 560.301C233.174 540.604 242.331 519.252 194.806 499.69C147.229 479.993 137.936 501.397 90.3592 481.7C42.782 462.003 51.9392 440.651 4.414 421.09C-43.1631 401.393 -52.4554 422.797 -100.033 403.1C-147.61 383.403 -138.453 362.051 -185.978 342.489C-233.555 322.792 -242.847 344.196 -290.424 324.499" stroke="url(#paint56_linear)" stroke-miterlimit="10"/>
<path d="M387.338 572.971C339.595 553.648 330.438 575 282.694 555.677C234.951 536.354 244.243 514.95 196.5 495.628C148.756 476.305 139.599 497.657 91.8556 478.334C44.1122 459.011 53.4045 437.607 5.66104 418.284C-42.0824 398.961 -51.2396 420.313 -98.983 400.99C-146.726 381.668 -137.434 360.264 -185.178 340.941C-232.921 321.618 -242.078 342.97 -289.822 323.647" stroke="url(#paint57_linear)" stroke-miterlimit="10"/>
<path d="M389.615 567.599C341.841 548.599 332.683 569.95 284.857 550.815C237.082 531.814 246.187 510.327 198.278 491.378C150.503 472.377 141.346 493.729 93.5191 474.593C45.7444 455.593 54.8497 434.106 6.93989 415.157C-40.8348 396.156 -49.992 417.508 -97.8186 398.372C-145.593 379.371 -136.488 357.884 -184.398 338.935C-232.172 319.935 -241.33 341.287 -289.156 322.151" stroke="url(#paint58_linear)" stroke-miterlimit="10"/>
<path d="M391.891 562.228C343.898 543.466 334.928 564.901 286.935 546.139C238.942 527.377 248.1 506.025 200.107 487.263C152.114 468.502 143.144 489.937 95.1508 471.175C47.1579 452.413 56.315 431.061 8.32207 412.3C-39.6708 393.538 -48.6409 414.973 -96.6338 396.211C-144.627 377.449 -135.47 356.097 -183.463 337.335C-231.455 318.574 -240.426 340.009 -288.418 321.247" stroke="url(#paint59_linear)" stroke-miterlimit="10"/>
<path d="M394.167 556.856C346.143 538.416 337.038 559.903 289.014 541.463C240.99 523.024 249.96 501.589 201.801 483.201C153.777 464.761 144.671 486.248 96.6473 467.809C48.6232 449.369 57.5933 427.934 9.43412 409.546C-38.59 391.106 -47.6952 412.594 -95.7193 394.154C-143.743 375.714 -134.773 354.279 -182.933 335.891C-230.957 317.452 -240.062 338.939 -288.086 320.499" stroke="url(#paint60_linear)" stroke-miterlimit="10"/>
<path d="M396.444 551.484C348.254 533.418 339.283 554.853 291.041 536.653C242.851 518.587 251.821 497.152 203.578 478.951C155.388 460.886 146.418 482.321 98.1755 464.12C49.985 446.054 58.9551 424.619 10.7127 406.419C-37.4777 388.353 -46.4478 409.788 -94.6901 391.587C-142.881 373.522 -133.91 352.087 -182.153 333.886C-230.343 315.82 -239.313 337.255 -287.556 319.055" stroke="url(#paint61_linear)" stroke-miterlimit="10"/>
<path d="M398.72 546.112C350.311 528.285 341.528 549.804 293.12 531.977C244.711 514.151 253.681 492.715 205.272 474.889C156.864 457.062 148.081 478.58 99.6721 460.754C51.2634 442.927 60.2336 421.492 11.8249 403.665C-36.5838 385.839 -45.3668 407.357 -93.7755 389.53C-142.184 371.703 -133.214 350.268 -181.623 332.442C-230.031 314.615 -238.814 336.133 -287.223 318.307" stroke="url(#paint62_linear)" stroke-miterlimit="10"/>
<path d="M401.048 540.875C352.608 523.371 343.638 544.806 295.198 527.301C246.759 509.797 255.594 488.413 207.154 470.909C158.714 453.404 149.744 474.839 101.304 457.335C52.864 439.83 61.699 418.447 13.2591 400.943C-35.1808 383.438 -44.1509 404.873 -92.5907 387.369C-141.031 369.864 -132.196 348.481 -180.635 330.976C-229.075 313.472 -238.045 334.907 -286.485 317.402" stroke="url(#paint63_linear)" stroke-miterlimit="10"/>
<path d="M403.325 535.503C354.718 518.373 345.883 539.756 297.277 522.626C248.671 505.495 257.454 483.977 208.848 466.846C160.242 449.716 151.407 471.099 102.801 453.969C54.1944 436.838 62.9774 415.32 14.3712 398.189C-34.2349 381.059 -43.07 402.442 -91.6762 385.311C-140.282 368.181 -131.499 346.663 -180.105 329.532C-228.712 312.402 -237.547 333.785 -286.153 316.654" stroke="url(#paint64_linear)" stroke-miterlimit="10"/>
<path d="M405.466 530.184C356.777 513.241 347.994 534.759 299.221 518.002C250.532 501.059 259.18 479.593 210.543 462.784C161.853 445.841 153.07 467.359 104.298 450.603C55.6082 433.659 64.2562 412.193 15.6188 395.384C-33.0705 378.441 -41.8536 399.959 -90.6261 383.203C-139.315 366.259 -130.667 344.793 -179.305 327.984C-227.994 311.041 -236.777 332.559 -285.55 315.803" stroke="url(#paint65_linear)" stroke-miterlimit="10"/>
<path d="M407.742 524.812C358.887 508.243 350.103 529.761 301.248 513.192C252.392 496.622 261.04 475.156 212.184 458.586C163.329 442.017 154.546 463.535 105.69 446.966C56.8344 430.396 65.4825 408.93 16.6269 392.361C-32.2288 375.791 -41.012 397.309 -89.8676 380.74C-138.723 364.171 -130.075 342.704 -178.931 326.135C-227.787 309.565 -236.57 331.084 -285.425 314.514" stroke="url(#paint66_linear)" stroke-miterlimit="10"/>
<path d="M410.018 519.44C360.996 503.245 352.349 524.711 303.327 508.516C254.305 492.321 263.036 470.667 214.014 454.472C164.992 438.276 156.344 459.743 107.322 443.547C58.2999 427.352 67.0311 405.699 18.0091 389.503C-31.0129 373.308 -39.6608 394.774 -88.6828 378.579C-137.705 362.384 -128.974 340.73 -177.996 324.535C-227.018 308.339 -235.666 329.806 -284.688 313.61" stroke="url(#paint67_linear)" stroke-miterlimit="10"/>
<path d="M412.295 514.068C363.242 498.195 354.594 519.661 305.541 503.788C256.487 487.915 265.084 466.313 215.843 450.357C166.79 434.484 158.142 455.95 109.089 440.077C60.0359 424.203 68.632 402.602 19.3918 386.646C-29.6614 370.772 -38.3094 392.239 -87.3626 376.365C-136.416 360.492 -127.82 338.891 -177.06 322.934C-226.3 306.978 -234.761 328.527 -283.949 312.706" stroke="url(#paint68_linear)" stroke-miterlimit="10"/>
<path d="M414.623 508.832C365.352 493.198 356.756 514.799 307.619 499.113C258.348 483.479 266.944 461.877 217.725 446.378C168.453 430.743 159.857 452.345 110.721 436.659C61.4493 421.024 70.0455 399.423 20.7741 383.789C-28.4973 368.154 -37.0934 389.756 -86.2298 374.07C-135.501 358.435 -126.905 336.834 -176.176 321.2C-225.448 305.565 -234.044 327.167 -283.18 311.48" stroke="url(#paint69_linear)" stroke-miterlimit="10"/>
<path d="M416.9 503.46C367.597 488.148 359.001 509.749 309.698 494.437C260.396 479.125 268.857 457.575 219.419 442.315C170.116 427.003 161.52 448.604 112.218 433.292C62.915 417.98 71.376 396.431 21.9383 381.17C-27.3644 365.858 -35.9604 387.459 -85.263 372.147C-134.566 356.835 -126.105 335.286 -175.542 320.025C-224.845 304.713 -233.441 326.315 -282.744 311.002" stroke="url(#paint70_linear)" stroke-miterlimit="10"/>
<path d="M419.176 498.088C369.707 483.15 361.246 504.7 311.777 489.762C262.308 474.824 270.717 453.139 221.248 438.201C171.779 423.263 163.318 444.812 113.849 429.874C64.3804 414.936 72.7895 393.251 23.3206 378.313C-26.1483 363.375 -34.6093 384.924 -84.0783 369.986C-133.547 355.048 -125.138 333.364 -174.607 318.425C-224.076 303.487 -232.537 325.037 -282.006 310.099" stroke="url(#paint71_linear)" stroke-miterlimit="10"/>
<path d="M421.452 492.717C371.765 478.017 363.491 499.65 313.804 484.951C264.116 470.252 272.577 448.702 222.89 434.003C173.203 419.304 164.929 440.937 115.242 426.237C65.5548 411.538 74.0157 389.989 24.3286 375.289C-25.3586 360.59 -33.6326 382.223 -83.3197 367.524C-133.007 352.824 -124.546 331.275 -174.233 316.576C-223.92 301.877 -232.194 323.509 -281.881 308.81" stroke="url(#paint72_linear)" stroke-miterlimit="10"/>
<path d="M423.593 487.397C373.875 473.02 365.466 494.704 315.747 480.327C266.029 465.95 274.303 444.317 224.585 429.94C174.866 415.563 166.457 437.248 116.739 422.871C67.0205 408.494 75.2944 386.861 25.576 372.484C-24.1424 358.107 -32.5514 379.792 -82.2698 365.414C-131.988 351.037 -123.714 329.405 -173.433 315.028C-223.151 300.651 -231.56 322.335 -281.278 307.958" stroke="url(#paint73_linear)" stroke-miterlimit="10"/>
<path d="M425.869 482.025C375.985 468.022 367.711 489.655 317.826 475.652C267.941 461.649 276.215 440.016 226.279 425.878C176.394 411.875 168.12 433.507 118.235 419.504C68.3508 405.501 76.6247 383.869 26.6881 369.731C-23.1966 355.728 -31.4705 377.36 -81.3551 363.357C-131.24 349.354 -122.966 327.721 -172.903 313.583C-222.787 299.58 -231.061 321.213 -280.946 307.21" stroke="url(#paint74_linear)" stroke-miterlimit="10"/>
<path d="M428.146 476.653C378.178 462.837 369.956 484.605 319.853 470.841C269.885 457.025 278.024 435.444 228.056 421.628C178.088 407.812 169.866 429.58 119.763 415.816C69.7957 402 77.9345 380.419 27.9667 366.603C-22.0011 352.787 -30.2231 374.555 -80.326 360.791C-130.294 346.975 -122.155 325.394 -172.123 311.578C-222.091 297.762 -230.313 319.53 -280.416 305.766" stroke="url(#paint75_linear)" stroke-miterlimit="10"/>
<path d="M430.474 471.416C380.34 457.974 372.118 479.742 321.984 466.3C271.85 452.858 280.072 431.09 229.854 417.835C179.72 404.393 171.498 426.161 121.364 412.719C71.2301 399.277 79.317 377.561 29.2348 364.255C-20.8993 350.813 -29.1213 372.58 -79.2554 359.138C-129.39 345.697 -121.303 323.981 -171.385 310.674C-221.519 297.232 -229.741 319 -279.875 305.558" stroke="url(#paint76_linear)" stroke-miterlimit="10"/>
<path d="M432.75 466.044C382.45 452.976 374.363 474.692 324.063 461.624C273.762 448.557 281.984 426.789 231.684 413.721C181.383 400.653 173.296 422.369 122.996 409.301C72.6956 396.233 80.9176 374.465 30.6172 361.397C-19.6832 348.329 -27.7702 370.045 -78.0706 356.977C-128.371 343.909 -120.149 322.142 -170.449 309.074C-220.75 296.006 -228.837 317.722 -279.137 304.654" stroke="url(#paint77_linear)" stroke-miterlimit="10"/>
<path d="M433.301 465.058C383.167 451.616 374.945 473.383 324.811 459.942C274.677 446.5 282.899 424.732 232.682 411.477C182.548 398.035 174.326 419.803 124.191 406.361C74.0573 392.919 82.1443 371.203 32.0621 357.896C-18.072 344.454 -26.2941 366.222 -76.4282 352.78C-126.562 339.338 -118.475 317.622 -168.558 304.315C-218.692 290.873 -226.914 312.641 -277.048 299.199" stroke="url(#paint78_linear)" stroke-miterlimit="10"/>
<path d="M433.717 464.122C383.749 450.306 375.527 472.074 325.424 458.31C275.456 444.494 283.595 422.913 233.627 409.097C183.659 395.281 175.437 417.049 125.334 403.285C75.3665 389.469 83.5054 367.888 33.5376 354.072C-16.4302 340.256 -24.6522 362.024 -74.7552 348.26C-124.723 334.444 -116.584 312.863 -166.552 299.047C-216.52 285.231 -224.742 306.999 -274.845 293.235" stroke="url(#paint79_linear)" stroke-miterlimit="10"/>
<path d="M434.268 463.135C384.383 449.132 376.109 470.765 326.225 456.762C276.34 442.759 284.614 421.126 234.677 406.988C184.793 392.985 176.519 414.618 126.634 400.615C76.7492 386.612 85.0232 364.979 35.0866 350.841C-14.7981 336.838 -23.0721 358.471 -72.9567 344.467C-122.841 330.464 -114.567 308.832 -164.504 294.694C-214.389 280.691 -222.663 302.323 -272.547 288.32" stroke="url(#paint80_linear)" stroke-miterlimit="10"/>
<path d="M434.87 462.283C385.152 447.906 376.743 469.591 327.025 455.214C277.306 440.837 285.58 419.204 235.862 404.827C186.144 390.45 177.735 412.135 128.016 397.757C78.2978 383.38 86.5717 361.748 36.8533 347.371C-12.865 332.994 -21.2741 354.678 -70.9925 340.301C-120.711 325.924 -112.437 304.291 -162.155 289.914C-211.874 275.537 -220.283 297.222 -270.001 282.845" stroke="url(#paint81_linear)" stroke-miterlimit="10"/>
<path d="M435.422 461.296C385.734 446.597 377.461 468.23 327.773 453.53C278.086 438.831 286.547 417.282 236.86 402.582C187.173 387.883 178.899 409.516 129.212 394.817C79.5246 380.118 87.9855 358.568 38.2984 343.869C-11.3888 329.17 -19.6628 350.802 -69.3499 336.103C-119.037 321.404 -110.576 299.855 -160.263 285.155C-209.95 270.456 -218.224 292.089 -267.912 277.39" stroke="url(#paint82_linear)" stroke-miterlimit="10"/>
<path d="M435.972 460.309C386.503 445.371 378.042 466.92 328.573 451.982C279.104 437.044 287.513 415.36 238.045 400.421C188.576 385.483 180.115 407.033 130.646 392.095C81.1768 377.156 89.5859 355.472 40.117 340.534C-9.35195 325.596 -17.8129 347.145 -67.2819 332.207C-116.751 317.269 -108.342 295.584 -157.811 280.646C-207.28 265.708 -215.741 287.257 -265.209 272.319" stroke="url(#paint83_linear)" stroke-miterlimit="10"/>
<path d="M436.388 459.374C387.085 444.062 378.489 465.663 329.186 450.351C279.884 435.039 288.345 413.489 238.907 398.229C189.605 382.917 181.009 404.518 131.706 389.206C82.4033 373.894 90.8642 352.345 41.4265 337.084C-7.8761 321.772 -16.4721 343.374 -65.7747 328.061C-115.077 312.749 -106.616 291.2 -156.054 275.939C-205.357 260.627 -213.953 282.229 -263.255 266.917" stroke="url(#paint84_linear)" stroke-miterlimit="10"/>
<path d="M436.939 458.387C387.668 442.753 379.072 464.354 329.935 448.668C280.664 433.034 289.26 411.432 240.041 395.933C190.769 380.299 182.173 401.9 133.037 386.214C83.7654 370.58 92.3614 348.978 43.09 333.344C-6.18136 317.71 -14.7774 339.311 -63.9137 323.625C-113.185 307.991 -104.589 286.389 -153.86 270.755C-203.132 255.12 -211.728 276.722 -260.864 261.036" stroke="url(#paint85_linear)" stroke-miterlimit="10"/>
<path d="M437.542 457.535C388.488 441.662 379.84 463.128 330.787 447.255C281.734 431.382 290.33 409.78 241.09 393.824C192.037 377.951 183.389 399.417 134.336 383.544C85.2825 367.67 93.8786 346.069 44.6384 330.112C-4.41474 314.239 -13.0628 335.706 -62.116 319.832C-111.169 303.959 -102.573 282.358 -151.813 266.401C-200.866 250.528 -209.514 271.994 -258.703 256.173" stroke="url(#paint86_linear)" stroke-miterlimit="10"/>
<path d="M438.093 456.548C389.071 440.352 380.423 461.819 331.401 445.623C282.379 429.428 291.11 407.775 242.088 391.579C193.066 375.384 184.418 396.85 135.396 380.655C86.3741 364.46 95.1052 342.806 46.0833 326.611C-2.93866 310.415 -11.5867 331.882 -60.6087 315.686C-109.631 299.491 -100.899 277.838 -149.921 261.642C-198.943 245.447 -207.591 266.913 -256.613 250.718" stroke="url(#paint87_linear)" stroke-miterlimit="10"/>
<path d="M438.508 455.613C389.653 439.043 380.869 460.562 332.014 443.992C283.158 427.423 291.806 405.957 242.95 389.387C194.095 372.818 185.312 394.336 136.456 377.767C87.6005 361.197 96.2486 339.731 47.3929 323.161C-1.46272 306.592 -10.2459 328.11 -59.1015 311.541C-107.957 294.971 -99.3091 273.505 -148.165 256.936C-197.02 240.366 -205.804 261.884 -254.659 245.315" stroke="url(#paint88_linear)" stroke-miterlimit="10"/>
<path d="M439.059 454.626C390.37 437.682 381.586 459.2 332.814 442.444C284.125 425.501 292.773 404.034 244.135 387.226C195.446 370.282 186.663 391.801 137.89 375.044C89.201 358.101 97.849 336.634 49.2116 319.826C0.522256 302.883 -8.26085 324.401 -57.0333 307.644C-105.723 290.701 -97.0747 269.235 -145.712 252.426C-194.401 235.483 -203.185 257.001 -251.957 240.245" stroke="url(#paint89_linear)" stroke-miterlimit="10"/>
<path d="M439.61 453.639C391.004 436.508 382.169 457.891 333.562 440.761C284.956 423.63 293.739 402.112 245.133 384.982C196.527 367.851 187.692 389.234 139.086 372.104C90.4795 354.973 99.2626 333.455 50.6564 316.324C2.05021 299.194 -6.78482 320.577 -55.391 303.447C-103.997 286.316 -95.2141 264.798 -143.82 247.667C-192.426 230.537 -201.261 251.92 -249.868 234.79" stroke="url(#paint90_linear)" stroke-miterlimit="10"/>
<path d="M440.212 452.787C391.772 435.282 382.802 456.717 334.363 439.213C285.923 421.708 294.758 400.325 246.318 382.821C197.878 365.316 188.908 386.751 140.468 369.247C92.028 351.742 100.863 330.359 52.4232 312.854C3.98331 295.35 -4.98684 316.785 -53.4267 299.28C-101.867 281.776 -93.0316 260.392 -141.471 242.888C-189.911 225.383 -198.881 246.819 -247.321 229.314" stroke="url(#paint91_linear)" stroke-miterlimit="10"/>
<path d="M440.764 451.8C392.355 433.973 383.572 455.491 335.163 437.665C286.755 419.838 295.725 398.403 247.316 380.576C198.907 362.75 190.124 384.268 141.716 366.441C93.3069 348.615 102.277 327.179 53.8684 309.353C5.45971 291.526 -3.32335 313.044 -51.732 295.218C-100.141 277.391 -91.1705 255.956 -139.579 238.129C-187.988 220.303 -196.771 241.821 -245.18 223.994" stroke="url(#paint92_linear)" stroke-miterlimit="10"/>
<path d="M441.179 450.865C392.989 432.799 384.019 454.234 335.776 436.034C287.586 417.968 296.556 396.533 248.314 378.332C200.123 360.266 191.153 381.702 142.911 363.501C94.7204 345.435 103.691 324 55.4482 305.799C7.25778 287.734 -1.71241 309.169 -49.9548 290.968C-98.1452 272.903 -89.175 251.467 -137.417 233.267C-185.608 215.201 -194.578 236.636 -242.82 218.436" stroke="url(#paint93_linear)" stroke-miterlimit="10"/>
<path d="M441.73 449.877C393.706 431.438 384.601 452.925 336.576 434.485C288.552 416.045 297.522 394.61 249.363 376.223C201.339 357.783 192.234 379.27 144.21 360.83C96.1857 342.391 105.156 320.955 56.9967 302.568C8.97255 284.128 -0.132658 305.615 -48.1568 287.175C-96.1809 268.736 -87.2108 247.301 -135.37 228.913C-183.394 210.473 -192.499 231.96 -240.523 213.521" stroke="url(#paint94_linear)" stroke-miterlimit="10"/>
<path d="M442.281 448.891C394.288 430.129 385.318 451.564 337.325 432.802C289.332 414.04 298.489 392.688 250.496 373.927C202.503 355.165 193.533 376.6 145.54 357.838C97.5475 339.076 106.705 317.724 58.7118 298.963C10.7189 280.201 1.74874 301.636 -46.2442 282.874C-94.2371 264.112 -85.08 242.76 -133.073 223.999C-181.066 205.237 -190.036 226.672 -238.029 207.91" stroke="url(#paint95_linear)" stroke-miterlimit="10"/>
<path d="M442.832 447.903C395.057 428.903 385.9 450.255 338.073 431.119C290.299 412.118 299.404 390.631 251.494 371.682C203.72 352.681 194.562 374.033 146.736 354.898C98.9612 335.897 108.066 314.41 60.1566 295.461C12.382 276.46 3.2248 297.812 -44.6018 278.676C-92.3765 259.676 -83.2713 238.189 -131.181 219.24C-178.956 200.239 -188.113 221.591 -235.939 202.455" stroke="url(#paint96_linear)" stroke-miterlimit="10"/>
<path d="M443.3 447.103C395.556 427.78 386.399 449.132 338.656 429.81C290.912 410.487 300.204 389.083 252.461 369.76C204.717 350.437 195.56 371.789 147.817 352.466C100.073 333.143 109.366 311.739 61.6221 292.416C13.8786 273.094 4.72145 294.446 -43.022 275.123C-90.7655 255.8 -81.4733 234.396 -129.217 215.073C-176.96 195.75 -186.117 217.102 -233.861 197.779" stroke="url(#paint97_linear)" stroke-miterlimit="10"/>
<path d="M443.85 446.116C396.273 426.419 386.981 447.823 339.404 428.126C291.827 408.43 300.984 387.078 253.459 367.516C205.881 347.819 196.589 369.223 149.012 349.526C101.435 329.829 110.592 308.477 63.0668 288.915C15.4897 269.218 6.19742 290.622 -41.3797 270.925C-88.9569 251.228 -79.7997 229.876 -127.325 210.315C-174.902 190.618 -184.194 212.022 -231.771 192.325" stroke="url(#paint98_linear)" stroke-miterlimit="10"/>
<path d="M444.401 445.129C396.99 425.058 387.698 446.462 340.152 426.443C292.741 406.372 301.95 385.155 254.54 365.084C207.129 345.013 197.837 366.417 150.291 346.398C102.88 326.327 112.089 305.11 64.678 285.039C17.2672 264.968 7.975 286.372 -39.5709 266.353C-86.9818 246.282 -77.7727 225.066 -125.184 204.995C-172.594 184.924 -181.887 206.328 -229.433 186.309" stroke="url(#paint99_linear)" stroke-miterlimit="10"/>
<path d="M444.952 444.142C397.624 423.884 388.28 445.153 340.952 424.895C293.625 404.637 302.969 383.368 255.589 362.975C208.262 342.717 198.917 363.986 151.59 343.728C104.262 323.47 113.606 302.201 66.2266 281.808C18.8989 261.55 9.55471 282.819 -37.773 262.561C-85.1007 242.303 -75.7565 221.034 -123.136 200.641C-170.464 180.383 -179.808 201.652 -227.136 181.394" stroke="url(#paint100_linear)" stroke-miterlimit="10"/>
<path d="M445.368 443.207C398.206 422.575 388.727 443.896 341.566 423.264C294.404 402.632 303.748 381.363 256.587 360.731C209.426 340.099 199.946 361.42 152.785 340.788C105.624 320.156 114.968 298.887 67.8064 278.255C20.645 257.623 11.1657 278.944 -35.9957 258.312C-83.1571 237.68 -73.8129 216.411 -120.974 195.779C-168.136 175.147 -177.615 196.467 -224.776 175.835" stroke="url(#paint101_linear)" stroke-miterlimit="10"/>
<path d="M445.97 442.355C398.84 421.401 389.496 442.669 342.366 421.715C295.236 400.761 304.767 379.576 257.637 358.621C210.507 337.667 201.162 358.936 154.032 337.982C106.902 317.028 116.433 295.842 69.303 274.888C22.1728 253.934 12.8286 275.203 -34.3016 254.249C-81.4317 233.294 -71.9005 212.109 -119.031 191.155C-166.161 170.2 -175.505 191.469 -222.635 170.515" stroke="url(#paint102_linear)" stroke-miterlimit="10"/>
<path d="M446.251 441.472C399.339 420.279 389.808 441.465 342.896 420.271C295.984 399.078 305.463 377.758 258.551 356.564C211.639 335.371 202.108 356.557 155.196 335.364C108.284 314.171 117.764 292.85 70.8517 271.657C23.9397 250.464 14.4086 271.649 -32.5034 250.456C-79.4153 229.263 -69.9361 207.942 -116.848 186.749C-163.76 165.556 -173.291 186.742 -220.203 165.549" stroke="url(#paint103_linear)" stroke-miterlimit="10"/>
<path d="M446.584 440.724C399.838 419.157 390.307 440.342 343.426 418.827C296.681 397.26 306.212 376.074 259.466 354.507C212.72 332.94 203.189 354.126 156.309 332.611C109.563 311.043 119.094 289.858 72.3484 268.291C25.6028 246.723 16.0716 267.909 -30.8091 246.394C-77.5548 224.827 -68.0236 203.641 -114.769 182.074C-161.515 160.507 -171.046 181.692 -217.927 160.177" stroke="url(#paint104_linear)" stroke-miterlimit="10"/>
<path d="M446.865 439.841C400.285 417.9 390.619 439.137 344.092 417.331C297.512 395.39 307.095 374.339 260.516 352.398C213.937 330.457 204.27 351.695 157.743 329.888C111.164 307.947 120.747 286.897 74.1675 264.955C27.5881 243.014 17.9219 264.252 -28.6055 242.446C-75.1849 220.504 -65.6018 199.454 -112.181 177.513C-158.76 155.571 -168.427 176.809 -214.954 155.003" stroke="url(#paint105_linear)" stroke-miterlimit="10"/>
<path d="M447.28 438.905C400.784 416.777 391.201 437.828 344.705 415.7C298.209 393.571 307.875 372.334 261.379 350.205C214.883 328.077 205.299 349.128 158.803 327C112.307 304.871 121.973 283.634 75.4771 261.505C28.9809 239.377 19.3979 260.428 -27.0983 238.3C-73.5945 216.171 -63.9282 194.934 -110.424 172.805C-156.921 150.677 -166.504 171.728 -213 149.6" stroke="url(#paint106_linear)" stroke-miterlimit="10"/>
<path d="M447.613 438.157C401.283 415.655 391.565 436.758 345.235 414.255C298.905 391.753 308.623 370.651 262.293 348.148C215.964 325.646 206.245 346.749 159.915 324.246C113.586 301.744 123.304 280.641 76.9738 258.139C30.644 235.637 20.9258 256.739 -25.4041 234.237C-71.734 211.735 -62.0157 190.632 -108.346 168.13C-154.675 145.628 -164.394 166.73 -210.724 144.228" stroke="url(#paint107_linear)" stroke-miterlimit="10"/>
<path d="M447.894 437.274C401.782 414.533 392.012 435.501 345.765 412.811C299.653 390.07 309.372 368.968 263.208 346.091C217.096 323.35 207.326 344.317 161.08 321.628C114.916 298.752 124.686 277.784 78.5226 254.908C32.359 232.032 22.6408 253.134 -23.606 230.445C-69.7696 207.569 -59.9993 186.601 -106.163 163.725C-152.326 140.848 -162.045 161.951 -208.292 139.262" stroke="url(#paint108_linear)" stroke-miterlimit="10"/>
<path d="M448.226 436.526C402.281 413.411 392.375 434.43 346.43 411.315C300.485 388.2 310.203 367.097 264.258 343.982C218.312 320.867 208.407 341.886 162.462 318.771C116.516 295.655 126.235 274.553 80.2892 251.438C34.3439 228.322 24.4386 249.342 -21.5067 226.226C-67.452 203.111 -57.7338 182.009 -103.679 158.893C-149.624 135.778 -159.53 156.797 -205.475 133.682" stroke="url(#paint109_linear)" stroke-miterlimit="10"/>
<path d="M448.507 435.643C402.592 412.205 392.822 433.173 346.96 409.87C301.046 386.433 310.951 365.414 265.037 341.976C219.123 318.539 209.353 339.506 163.491 316.204C117.577 292.767 127.482 271.747 81.5677 248.31C35.6535 224.872 25.8834 245.84 -19.9788 222.537C-65.8929 199.1 -55.9876 178.081 -101.902 154.643C-147.816 131.206 -157.586 152.173 -203.448 128.871" stroke="url(#paint110_linear)" stroke-miterlimit="10"/>
<path d="M448.84 434.895C403.144 411.218 393.238 432.238 347.491 408.426C301.795 384.75 311.7 363.731 265.952 339.919C220.256 316.243 210.351 337.262 164.603 313.451C118.907 289.774 128.812 268.755 83.0646 244.944C37.3687 221.267 27.4635 242.287 -18.2844 218.475C-63.9803 194.799 -54.075 173.779 -99.8228 149.968C-145.519 126.292 -155.424 147.311 -201.172 123.5" stroke="url(#paint111_linear)" stroke-miterlimit="10"/>
<path d="M449.12 434.012C403.591 409.961 393.685 430.981 348.021 406.982C302.491 382.932 312.396 361.913 266.867 337.862C221.337 313.812 211.432 334.831 165.767 310.833C120.238 286.782 130.143 265.763 84.6133 241.712C39.0837 217.662 29.1785 238.681 -16.4862 214.683C-62.0158 190.632 -52.1105 169.613 -97.6401 145.563C-143.17 121.512 -153.075 142.532 -198.792 118.398" stroke="url(#paint112_linear)" stroke-miterlimit="10"/>
<path d="M449.453 433.264C404.09 408.839 394.049 429.911 348.686 405.486C303.323 381.062 313.28 360.177 267.917 335.753C222.553 311.328 212.513 332.4 167.15 307.975C121.786 283.551 131.744 262.666 86.3803 238.242C41.017 213.818 30.9767 234.889 -14.3865 210.464C-59.7498 186.04 -49.7926 165.156 -95.1559 140.731C-140.519 116.307 -150.56 137.378 -195.923 112.954" stroke="url(#paint113_linear)" stroke-miterlimit="10"/>
<path d="M449.733 432.381C404.453 407.769 394.496 428.653 349.164 403.907C303.884 379.295 313.976 358.359 268.644 333.613C223.364 309.001 213.407 329.885 168.075 305.139C122.794 280.527 132.887 259.591 87.5547 234.844C42.2746 210.233 32.3174 231.117 -13.0147 206.371C-58.2948 181.759 -48.2025 160.823 -93.5346 136.076C-138.815 111.465 -148.772 132.349 -194.104 107.603" stroke="url(#paint114_linear)" stroke-miterlimit="10"/>
<path d="M450.014 431.497C404.9 406.511 394.808 427.448 349.694 402.462C304.58 377.477 314.672 356.54 269.558 331.555C224.445 306.569 214.352 327.506 169.239 302.52C124.125 277.535 134.217 256.598 89.1032 231.613C43.9894 206.627 33.8972 227.563 -11.2167 202.578C-56.3305 177.592 -46.2382 156.656 -91.352 131.671C-136.466 106.685 -146.558 127.621 -191.672 102.636" stroke="url(#paint115_linear)" stroke-miterlimit="10"/>
<path d="M450.347 430.749C405.399 405.389 395.307 426.326 350.224 401.018C305.277 375.658 315.421 354.857 270.473 329.498C225.526 304.138 215.434 325.074 170.351 299.767C125.403 274.407 135.548 253.606 90.6001 228.246C45.6526 202.887 35.5603 223.823 -9.52232 198.515C-54.4698 173.156 -44.3256 152.355 -89.2731 126.995C-134.221 101.636 -144.313 122.572 -189.396 97.2642" stroke="url(#paint116_linear)" stroke-miterlimit="10"/>
<path d="M450.628 429.866C405.898 404.267 395.619 425.12 350.89 399.522C306.16 373.923 316.305 353.122 271.523 327.388C226.794 301.79 216.515 322.643 171.785 297.044C127.056 271.446 137.2 250.645 92.4192 224.911C47.6899 199.313 37.4106 220.166 -7.31869 194.567C-52.048 168.969 -41.9037 148.167 -86.685 122.434C-131.414 96.8353 -141.694 117.688 -186.423 92.0898" stroke="url(#paint117_linear)" stroke-miterlimit="10"/>
<path d="M450.96 429.118C406.262 403.197 396.118 423.998 351.42 398.078C306.722 372.157 317.001 351.304 272.303 325.383C227.605 299.463 217.461 320.264 172.763 294.343C128.065 268.423 138.344 247.569 93.6458 221.649C48.9477 195.728 38.8035 216.529 -5.89455 190.609C-50.5926 164.688 -40.3133 143.835 -85.0114 117.914C-129.709 91.9935 -139.854 112.795 -184.552 86.874" stroke="url(#paint118_linear)" stroke-miterlimit="10"/>
<path d="M451.24 428.235C406.709 401.94 396.429 422.793 351.898 396.499C307.366 370.204 317.697 349.486 273.165 323.191C228.634 296.896 218.354 317.75 173.822 291.455C129.291 265.16 139.622 244.442 95.0902 218.147C50.5585 191.853 40.2792 212.706 -4.25259 186.411C-48.7843 160.116 -38.4531 139.398 -82.9848 113.104C-127.517 86.8088 -137.796 107.662 -182.328 81.3672" stroke="url(#paint119_linear)" stroke-miterlimit="10"/>
<path d="M451.708 427.435C407.395 400.901 396.928 421.671 352.615 395.137C308.301 368.603 318.633 347.885 274.319 321.352C230.006 294.818 219.539 315.588 175.226 289.054C130.912 262.521 141.243 241.803 96.8778 215.134C52.5643 188.6 42.098 209.37 -2.21552 182.836C-46.5291 156.303 -36.1978 135.585 -80.5633 108.916C-124.877 82.3824 -135.343 103.152 -179.657 76.6187" stroke="url(#paint120_linear)" stroke-miterlimit="10"/>
<path d="M451.989 426.552C407.842 399.644 397.376 420.414 353.228 393.506C309.081 366.598 319.412 345.88 275.317 319.108C231.17 292.2 220.703 312.97 176.556 286.062C132.409 259.155 142.74 238.437 98.6449 211.664C54.4977 184.756 44.0314 205.526 -0.115865 178.618C-44.2631 151.711 -33.9318 130.993 -78.0791 104.085C-122.226 77.1773 -132.693 97.9473 -176.84 71.0396" stroke="url(#paint121_linear)" stroke-miterlimit="10"/>
<path d="M452.322 425.803C408.258 398.708 397.739 419.343 353.81 392.197C309.746 365.102 320.213 344.332 276.149 317.237C232.084 290.142 221.566 310.777 177.637 283.631C133.573 256.536 144.039 235.766 99.9754 208.671C55.9114 181.576 45.3931 202.211 1.46414 175.065C-42.5999 147.97 -32.1336 127.2 -76.1977 100.105C-120.262 73.0104 -130.78 93.6452 -174.709 66.4985" stroke="url(#paint122_linear)" stroke-miterlimit="10"/>
<path d="M452.602 424.92C408.704 397.451 398.186 418.086 354.288 390.617C310.391 363.149 320.909 342.514 277.011 315.045C233.113 287.576 222.595 308.211 178.697 280.742C134.8 253.273 145.318 232.638 101.42 205.17C57.5223 177.701 47.004 198.336 3.10622 170.867C-40.7915 143.398 -30.2733 122.763 -74.171 95.2944C-118.069 67.8256 -128.587 88.4605 -172.485 60.9917" stroke="url(#paint123_linear)" stroke-miterlimit="10"/>
<path d="M452.883 424.037C409.152 396.194 398.498 416.881 354.819 389.173C311.087 361.331 321.606 340.696 277.926 312.988C234.195 285.145 223.541 305.832 179.862 278.124C136.13 250.281 146.649 229.646 102.969 201.939C59.2376 174.096 48.5843 194.782 4.9048 167.075C-38.8267 139.232 -28.3084 118.597 -71.988 90.8892C-115.719 63.0464 -126.373 83.7332 -170.052 56.0254" stroke="url(#paint124_linear)" stroke-miterlimit="10"/>
<path d="M453.215 423.289C409.702 395.207 398.997 415.759 355.349 387.729C311.835 359.647 322.354 339.013 278.84 310.931C235.327 282.849 224.622 303.401 180.974 275.371C137.46 247.289 147.979 226.654 104.465 198.572C60.9522 170.49 50.2469 191.042 6.59862 163.012C-36.9146 134.93 -26.3963 114.296 -69.9096 86.2138C-113.423 58.132 -124.128 78.6837 -167.776 50.6538" stroke="url(#paint125_linear)" stroke-miterlimit="10"/>
<path d="M453.496 422.406C410.014 394.002 399.309 414.553 355.962 386.098C312.48 357.694 323.185 337.142 279.703 308.738C236.221 280.334 225.516 300.886 182.169 272.43C138.687 244.026 149.392 223.474 105.91 195.07C62.4283 166.666 51.723 187.218 8.37603 158.762C-35.106 130.358 -24.4007 109.807 -67.8827 81.4028C-111.365 52.9989 -122.07 73.5506 -165.417 45.0947" stroke="url(#paint126_linear)" stroke-miterlimit="10"/>
<path d="M453.829 421.658C410.513 392.88 399.808 413.432 356.544 384.789C313.228 356.011 323.933 335.459 280.67 306.816C237.354 278.038 226.649 298.59 183.385 269.947C140.069 241.169 150.774 220.617 107.511 191.974C64.1949 163.197 53.4896 183.748 10.2258 155.105C-33.0899 126.327 -22.3846 105.776 -65.6484 77.1328C-108.964 48.3549 -119.669 68.9065 -162.933 40.2637" stroke="url(#paint127_linear)" stroke-miterlimit="10"/>
<path d="M454.11 420.774C411.012 391.757 400.12 412.226 357.022 383.209C313.925 354.192 324.63 333.64 281.533 304.623C238.435 275.607 227.543 296.075 184.445 267.058C141.348 238.041 152.053 217.489 108.956 188.473C65.8582 159.456 54.9659 179.924 11.8685 150.907C-31.229 121.89 -20.5238 101.339 -63.6212 72.3217C-106.719 43.3047 -117.611 63.7733 -160.708 34.7563" stroke="url(#paint128_linear)" stroke-miterlimit="10"/>
<path d="M456.573 415.486C413.309 386.843 402.604 407.395 359.288 378.617C316.024 349.974 326.729 329.422 283.414 300.644C240.15 272.001 229.445 292.553 186.129 263.775C142.865 235.132 153.519 214.446 110.255 185.803C66.991 157.16 56.2857 177.711 12.97 148.933C-30.2937 120.291 -19.6405 99.6038 -62.9042 70.9609C-106.168 42.3181 -116.873 62.8698 -160.189 34.0918" stroke="url(#paint129_linear)" stroke-miterlimit="10"/>
<path d="M458.984 410.062C415.502 381.658 404.849 402.345 361.367 373.941C317.885 345.537 328.59 324.986 284.973 296.634C241.491 268.23 230.837 288.916 187.355 260.513C143.873 232.109 154.579 211.557 110.962 183.205C67.4795 154.801 56.8262 175.488 13.3442 147.084C-30.1378 118.68 -19.4325 98.1283 -63.0496 69.7763C-106.532 41.3724 -117.185 62.0592 -160.667 33.6553" stroke="url(#paint130_linear)" stroke-miterlimit="10"/>
<path d="M461.448 404.773C417.799 376.743 407.146 397.43 363.498 369.4C319.849 341.37 330.419 320.871 286.771 292.841C243.123 264.811 232.47 285.498 188.821 257.468C145.173 229.438 155.743 208.938 112.095 180.908C68.4464 152.879 57.7931 173.565 14.1447 145.535C-29.5036 117.506 -18.9334 97.0058 -62.5817 68.976C-106.23 40.9461 -116.883 61.6329 -160.532 33.603" stroke="url(#paint131_linear)" stroke-miterlimit="10"/>
<path d="M463.859 399.35C420.044 371.694 409.526 392.329 365.712 364.673C321.897 337.017 332.415 316.382 288.601 288.726C244.786 261.071 234.268 281.705 190.453 254.05C146.638 226.394 157.157 205.759 113.342 178.103C69.5275 150.447 59.0092 171.082 15.1946 143.426C-28.62 115.771 -18.1018 95.1357 -61.9164 67.4799C-105.731 39.8241 -116.249 60.459 -160.064 32.8032" stroke="url(#paint132_linear)" stroke-miterlimit="10"/>
<path d="M466.322 394.061C422.341 366.779 411.823 387.414 367.842 360.133C323.861 332.851 334.379 312.216 290.398 284.934C246.418 257.652 235.899 278.287 191.918 251.005C147.937 223.724 158.456 203.089 114.475 175.807C70.4939 148.525 59.9756 169.16 15.9947 141.878C-27.9863 114.597 -17.468 93.9617 -61.5009 66.5449C-105.482 39.2631 -116 59.898 -159.981 32.6162" stroke="url(#paint133_linear)" stroke-miterlimit="10"/>
<path d="M468.734 388.637C424.587 361.73 414.12 382.5 369.921 355.457C325.774 328.549 336.24 307.779 291.958 280.924C247.811 254.016 237.344 274.786 193.145 247.743C148.998 220.835 159.464 200.065 115.182 173.21C71.0346 146.302 60.5683 167.072 16.3692 140.029C-27.7781 113.121 -17.3117 92.3513 -61.594 65.4955C-105.741 38.5878 -116.208 59.3577 -160.407 32.3149" stroke="url(#paint134_linear)" stroke-miterlimit="10"/>
<path d="M471.197 383.349C426.883 356.815 416.552 377.533 372.239 350.999C327.925 324.466 338.256 303.748 293.891 277.079C249.577 250.545 239.246 271.263 194.933 244.73C150.619 218.196 160.95 197.478 116.585 170.809C72.2715 144.275 61.9403 164.993 17.6268 138.46C-26.6867 111.926 -16.3555 91.2081 -60.721 64.5393C-105.034 38.0056 -115.366 58.7236 -159.679 32.1899" stroke="url(#paint135_linear)" stroke-miterlimit="10"/>
<path d="M473.66 378.06C429.18 351.901 418.849 372.619 374.369 346.459C329.889 320.299 340.169 299.446 295.689 273.287C251.209 247.127 240.878 267.845 196.398 241.685C151.918 215.526 162.197 194.673 117.718 168.513C73.2378 142.353 62.9067 163.071 18.4269 136.912C-26.053 110.752 -15.7737 89.899 -60.2535 63.7394C-104.733 37.5798 -115.065 58.2978 -159.544 32.1382" stroke="url(#paint136_linear)" stroke-miterlimit="10"/>
<path d="M476.071 372.636C431.373 346.716 421.094 367.569 376.448 341.783C331.75 315.863 342.081 295.145 297.383 269.224C252.685 243.303 242.406 264.156 197.76 238.371C153.062 212.45 163.393 191.732 118.695 165.811C73.9967 139.891 63.7173 160.744 19.0712 134.958C-25.6269 109.038 -15.2957 88.3197 -59.9937 62.399C-104.692 36.4784 -114.971 57.3315 -159.617 31.5459" stroke="url(#paint137_linear)" stroke-miterlimit="10"/>
<path d="M478.535 367.348C433.671 341.801 423.527 362.602 378.714 337.191C333.85 311.644 343.994 290.843 299.13 265.296C254.265 239.75 244.121 260.551 199.309 235.139C154.444 209.593 164.589 188.792 119.724 163.245C74.8598 137.698 64.7156 158.5 19.9031 133.088C-24.9613 107.541 -14.8171 86.7402 -59.6815 61.1936C-104.546 35.647 -114.69 56.4482 -159.502 31.0366" stroke="url(#paint138_linear)" stroke-miterlimit="10"/>
<path d="M480.946 361.924C435.916 336.752 425.823 357.688 380.793 332.515C335.762 307.343 345.906 286.541 300.876 261.369C255.845 236.196 245.753 257.133 200.722 231.96C155.691 206.787 165.836 185.986 120.805 160.814C75.7743 135.641 65.682 156.577 20.6513 131.405C-24.3793 106.232 -14.2352 85.4311 -59.2659 60.2585C-104.297 35.0859 -114.389 56.0222 -159.419 30.8496" stroke="url(#paint139_linear)" stroke-miterlimit="10"/>
<path d="M483.41 356.635C438.213 331.837 428.121 352.773 382.924 327.975C337.727 303.176 347.819 282.24 302.622 257.441C257.425 232.643 247.333 253.579 202.136 228.781C156.939 203.982 167.031 183.046 121.834 158.247C76.6372 133.449 66.5449 154.385 21.3479 129.587C-23.849 104.788 -13.7567 83.8519 -58.9537 59.0534C-104.151 34.2549 -114.243 55.1911 -159.44 30.3926" stroke="url(#paint140_linear)" stroke-miterlimit="10"/>
<path d="M485.821 351.212C440.458 326.787 430.501 347.671 385.137 323.247C339.774 298.822 349.866 277.886 304.451 253.327C259.088 228.902 249.131 249.786 203.767 225.362C158.404 200.938 168.496 180.001 123.081 155.442C77.7178 131.017 67.7606 151.902 22.3974 127.477C-22.9659 103.053 -12.8737 82.1164 -58.2889 57.5569C-103.652 33.1324 -113.609 54.0167 -158.973 29.5923" stroke="url(#paint141_linear)" stroke-miterlimit="10"/>
<path d="M488.284 345.923C442.755 321.873 432.798 342.757 387.268 318.706C341.739 294.656 351.644 273.637 306.249 249.534C260.72 225.484 250.763 246.368 205.233 222.318C159.703 198.267 169.609 177.248 124.214 153.146C78.6844 129.095 68.7273 149.979 23.1977 125.929C-22.3319 101.879 -12.4267 80.8592 -57.9563 56.8088C-103.486 32.7584 -113.443 53.6427 -158.973 29.5923" stroke="url(#paint142_linear)" stroke-miterlimit="10"/>
<path d="M490.696 340.499C445 316.823 435.043 337.707 389.347 314.031C343.651 290.355 353.556 269.335 307.808 245.524C262.112 221.847 252.155 242.732 206.459 219.055C160.764 195.379 170.669 174.36 124.921 150.548C79.2251 126.872 69.2679 147.756 23.572 124.08C-22.1239 100.403 -12.2187 79.3839 -57.9665 55.5725C-103.662 31.8961 -113.62 52.7804 -159.315 29.104" stroke="url(#paint143_linear)" stroke-miterlimit="10"/>
<path d="M493.159 335.211C447.245 311.773 437.392 332.928 391.613 309.438C345.699 286.001 355.604 264.981 309.69 241.544C263.776 218.107 253.923 239.261 208.144 215.772C162.229 192.334 172.135 171.315 126.221 147.878C80.3064 124.44 70.4531 145.595 24.674 122.105C-21.2401 98.668 -11.3349 77.6486 -57.249 54.2112C-103.163 30.7738 -113.016 51.9283 -158.795 28.439" stroke="url(#paint144_linear)" stroke-miterlimit="10"/>
<path d="M495.571 329.787C449.49 306.724 439.772 327.826 393.692 304.763C347.611 281.699 357.517 260.68 311.436 237.617C265.356 214.553 255.638 235.656 209.557 212.592C163.477 189.529 173.382 168.51 127.301 145.446C81.221 122.383 71.5028 143.486 25.4224 120.422C-20.6581 97.3589 -10.7529 76.3394 -56.8333 53.2761C-102.914 30.2127 -112.632 51.3153 -158.712 28.252" stroke="url(#paint145_linear)" stroke-miterlimit="10"/>
<path d="M498.034 324.498C451.787 301.809 442.069 322.912 395.822 300.222C349.575 277.533 359.293 256.431 313.182 233.689C266.935 211 257.217 232.103 210.97 209.413C164.723 186.724 174.442 165.621 128.33 142.88C82.0833 120.191 72.3651 141.293 26.1184 118.604C-20.1283 95.9148 -10.4102 74.8122 -56.5218 52.071C-102.633 29.3298 -112.487 50.4842 -158.733 27.7949" stroke="url(#paint146_linear)" stroke-miterlimit="10"/>
<path d="M500.497 319.21C454.084 296.895 444.366 317.997 398.088 295.63C351.675 273.315 361.393 252.212 314.98 229.897C268.567 207.582 258.849 228.684 212.571 206.317C166.158 184.002 175.876 162.899 129.463 140.584C83.0498 118.269 73.3316 139.371 27.0537 117.004C-19.3594 94.6887 -9.64122 73.5861 -56.0543 51.2709C-102.467 28.9556 -112.185 50.0581 -158.463 27.6909" stroke="url(#paint147_linear)" stroke-miterlimit="10"/>
<path d="M502.909 313.786C456.329 291.845 446.746 312.896 400.167 290.954C353.588 269.013 363.254 247.775 316.675 225.834C270.095 203.893 260.512 224.944 213.933 203.002C167.353 181.061 177.02 159.824 130.44 137.882C83.861 115.941 74.2778 136.992 27.6985 115.051C-18.8808 93.1093 -9.21455 71.8717 -55.7939 49.9305C-102.373 27.9893 -111.956 49.0399 -158.536 27.0986" stroke="url(#paint148_linear)" stroke-miterlimit="10"/>
<path d="M505.372 308.498C458.626 286.93 449.095 308.116 402.297 286.414C355.552 264.847 365.218 243.609 318.42 221.907C271.675 200.34 262.144 221.525 215.346 199.823C168.6 178.256 178.267 157.018 131.469 135.316C84.7235 113.749 75.1923 134.935 28.3947 113.232C-18.3509 91.6652 -8.68469 70.4275 -55.4823 48.7253C-102.228 27.1581 -111.759 48.3439 -158.557 26.6416" stroke="url(#paint149_linear)" stroke-miterlimit="10"/>
<path d="M507.783 303.074C460.819 281.745 451.34 303.066 404.511 281.686C357.547 260.358 367.079 239.172 320.302 217.927C273.338 196.599 263.859 217.92 217.03 196.54C170.066 175.211 179.597 154.026 132.82 132.781C85.8564 111.452 76.3772 132.773 29.5484 111.393C-17.4155 90.0648 -7.88427 68.8791 -54.6611 47.6341C-101.625 26.3059 -111.104 47.6267 -157.933 26.2466" stroke="url(#paint150_linear)" stroke-miterlimit="10"/>
<path d="M510.247 297.785C463.116 276.831 453.772 298.1 406.642 277.146C359.512 256.191 369.043 235.006 321.913 214.052C274.783 193.097 265.439 214.366 218.308 193.412C171.178 172.458 180.709 151.272 133.579 130.318C86.4491 109.364 77.1049 130.633 29.9747 109.679C-17.1555 88.7246 -7.62426 67.5389 -54.7544 46.5848C-101.885 25.6306 -111.229 46.8995 -158.359 25.9453" stroke="url(#paint151_linear)" stroke-miterlimit="10"/>
</g>
</g>
<defs>
<linearGradient id="paint0_linear" x1="-116.77" y1="390.618" x2="60.3852" y2="851.403" gradientUnits="userSpaceOnUse">
<stop stop-color="#8816E1"/>
<stop offset="0.791667" stop-color="#8816E1" stop-opacity="0"/>
</linearGradient>
<linearGradient id="paint1_linear" x1="-116.043" y1="386.462" x2="62.2038" y2="850.084" gradientUnits="userSpaceOnUse">
<stop stop-color="#8816E1"/>
<stop offset="0.791667" stop-color="#8816E1" stop-opacity="0"/>
</linearGradient>
<linearGradient id="paint2_linear" x1="-115.253" y1="381.661" x2="64.2921" y2="848.66" gradientUnits="userSpaceOnUse">
<stop stop-color="#8816E1"/>
<stop offset="0.791667" stop-color="#8816E1" stop-opacity="0"/>
</linearGradient>
<linearGradient id="paint3_linear" x1="-114.545" y1="377.048" x2="66.2981" y2="847.424" gradientUnits="userSpaceOnUse">
<stop stop-color="#8816E1"/>
<stop offset="0.791667" stop-color="#8816E1" stop-opacity="0"/>
</linearGradient>
<linearGradient id="paint4_linear" x1="-113.911" y1="371.842" x2="68.3864" y2="846.001" gradientUnits="userSpaceOnUse">
<stop stop-color="#8816E1"/>
<stop offset="0.791667" stop-color="#8816E1" stop-opacity="0"/>
</linearGradient>
<linearGradient id="paint5_linear" x1="-113.39" y1="367.146" x2="70.2055" y2="844.682" gradientUnits="userSpaceOnUse">
<stop stop-color="#8816E1"/>
<stop offset="0.791667" stop-color="#8816E1" stop-opacity="0"/>
</linearGradient>
<linearGradient id="paint6_linear" x1="-112.257" y1="362.833" x2="72.4293" y2="843.206" gradientUnits="userSpaceOnUse">
<stop stop-color="#8816E1"/>
<stop offset="0.791667" stop-color="#8816E1" stop-opacity="0"/>
</linearGradient>
<linearGradient id="paint7_linear" x1="-111.737" y1="358.137" x2="74.2477" y2="841.887" gradientUnits="userSpaceOnUse">
<stop stop-color="#8816E1"/>
<stop offset="0.791667" stop-color="#8816E1" stop-opacity="0"/>
</linearGradient>
<linearGradient id="paint8_linear" x1="-110.947" y1="353.336" x2="76.3362" y2="840.464" gradientUnits="userSpaceOnUse">
<stop stop-color="#8816E1"/>
<stop offset="0.791667" stop-color="#8816E1" stop-opacity="0"/>
</linearGradient>
<linearGradient id="paint9_linear" x1="-110.291" y1="348.588" x2="78.2903" y2="839.092" gradientUnits="userSpaceOnUse">
<stop stop-color="#8816E1"/>
<stop offset="0.791667" stop-color="#8816E1" stop-opacity="0"/>
</linearGradient>
<linearGradient id="paint10_linear" x1="-109.771" y1="343.891" x2="80.1088" y2="837.773" gradientUnits="userSpaceOnUse">
<stop stop-color="#8816E1"/>
<stop offset="0.791667" stop-color="#8816E1" stop-opacity="0"/>
</linearGradient>
<linearGradient id="paint11_linear" x1="-108.877" y1="339.361" x2="82.2493" y2="836.485" gradientUnits="userSpaceOnUse">
<stop stop-color="#8816E1"/>
<stop offset="0.791667" stop-color="#8816E1" stop-opacity="0"/>
</linearGradient>
<linearGradient id="paint12_linear" x1="-108.222" y1="334.612" x2="84.203" y2="835.113" gradientUnits="userSpaceOnUse">
<stop stop-color="#8816E1"/>
<stop offset="0.791667" stop-color="#8816E1" stop-opacity="0"/>
</linearGradient>
<linearGradient id="paint13_linear" x1="-107.432" y1="329.812" x2="86.2917" y2="833.69" gradientUnits="userSpaceOnUse">
<stop stop-color="#8816E1"/>
<stop offset="0.791667" stop-color="#8816E1" stop-opacity="0"/>
</linearGradient>
<linearGradient id="paint14_linear" x1="-106.912" y1="325.115" x2="88.1102" y2="832.371" gradientUnits="userSpaceOnUse">
<stop stop-color="#8816E1"/>
<stop offset="0.791667" stop-color="#8816E1" stop-opacity="0"/>
</linearGradient>
<linearGradient id="paint15_linear" x1="-106.121" y1="320.315" x2="90.1991" y2="830.948" gradientUnits="userSpaceOnUse">
<stop stop-color="#8816E1"/>
<stop offset="0.791667" stop-color="#8816E1" stop-opacity="0"/>
</linearGradient>
<linearGradient id="paint16_linear" x1="-105.258" y1="316.107" x2="92.1525" y2="829.576" gradientUnits="userSpaceOnUse">
<stop stop-color="#8816E1"/>
<stop offset="0.791667" stop-color="#8816E1" stop-opacity="0"/>
</linearGradient>
<linearGradient id="paint17_linear" x1="-104.468" y1="311.306" x2="94.2413" y2="828.152" gradientUnits="userSpaceOnUse">
<stop stop-color="#8816E1"/>
<stop offset="0.791667" stop-color="#8816E1" stop-opacity="0"/>
</linearGradient>
<linearGradient id="paint18_linear" x1="-104.104" y1="306.205" x2="96.0598" y2="826.834" gradientUnits="userSpaceOnUse">
<stop stop-color="#8816E1"/>
<stop offset="0.791667" stop-color="#8816E1" stop-opacity="0"/>
</linearGradient>
<linearGradient id="paint19_linear" x1="-103.397" y1="301.591" x2="98.0655" y2="825.597" gradientUnits="userSpaceOnUse">
<stop stop-color="#8816E1"/>
<stop offset="0.791667" stop-color="#8816E1" stop-opacity="0"/>
</linearGradient>
<linearGradient id="paint20_linear" x1="-102.606" y1="296.79" x2="100.154" y2="824.174" gradientUnits="userSpaceOnUse">
<stop stop-color="#8816E1"/>
<stop offset="0.791667" stop-color="#8816E1" stop-opacity="0"/>
</linearGradient>
<linearGradient id="paint21_linear" x1="-101.878" y1="292.634" x2="101.973" y2="822.854" gradientUnits="userSpaceOnUse">
<stop stop-color="#8816E1"/>
<stop offset="0.791667" stop-color="#8816E1" stop-opacity="0"/>
</linearGradient>
<linearGradient id="paint22_linear" x1="-100.953" y1="287.782" x2="104.197" y2="821.379" gradientUnits="userSpaceOnUse">
<stop stop-color="#8816E1"/>
<stop offset="0.791667" stop-color="#8816E1" stop-opacity="0"/>
</linearGradient>
<linearGradient id="paint23_linear" x1="-100.432" y1="283.085" x2="106.016" y2="820.06" gradientUnits="userSpaceOnUse">
<stop stop-color="#8816E1"/>
<stop offset="0.791667" stop-color="#8816E1" stop-opacity="0"/>
</linearGradient>
<linearGradient id="paint24_linear" x1="-99.642" y1="278.284" x2="108.104" y2="818.636" gradientUnits="userSpaceOnUse">
<stop stop-color="#8816E1"/>
<stop offset="0.791667" stop-color="#8816E1" stop-opacity="0"/>
</linearGradient>
<linearGradient id="paint25_linear" x1="-99.1429" y1="273.131" x2="110.058" y2="817.265" gradientUnits="userSpaceOnUse">
<stop stop-color="#8816E1"/>
<stop offset="0.791667" stop-color="#8816E1" stop-opacity="0"/>
</linearGradient>
<linearGradient id="paint26_linear" x1="-98.1446" y1="268.871" x2="112.147" y2="815.842" gradientUnits="userSpaceOnUse">
<stop stop-color="#8816E1"/>
<stop offset="0.791667" stop-color="#8816E1" stop-opacity="0"/>
</linearGradient>
<linearGradient id="paint27_linear" x1="-96.4818" y1="267.146" x2="112.719" y2="811.28" gradientUnits="userSpaceOnUse">
<stop stop-color="#8816E1"/>
<stop offset="0.791667" stop-color="#8816E1" stop-opacity="0"/>
</linearGradient>
<linearGradient id="paint28_linear" x1="-94.1855" y1="266.263" x2="113.561" y2="806.615" gradientUnits="userSpaceOnUse">
<stop stop-color="#8816E1"/>
<stop offset="0.791667" stop-color="#8816E1" stop-opacity="0"/>
</linearGradient>
<linearGradient id="paint29_linear" x1="-92.367" y1="264.944" x2="114.081" y2="801.918" gradientUnits="userSpaceOnUse">
<stop stop-color="#8816E1"/>
<stop offset="0.791667" stop-color="#8816E1" stop-opacity="0"/>
</linearGradient>
<linearGradient id="paint30_linear" x1="-90.2264" y1="263.656" x2="114.923" y2="797.253" gradientUnits="userSpaceOnUse">
<stop stop-color="#8816E1"/>
<stop offset="0.791667" stop-color="#8816E1" stop-opacity="0"/>
</linearGradient>
<linearGradient id="paint31_linear" x1="-88.4074" y1="262.336" x2="115.444" y2="792.557" gradientUnits="userSpaceOnUse">
<stop stop-color="#8816E1"/>
<stop offset="0.791667" stop-color="#8816E1" stop-opacity="0"/>
</linearGradient>
<linearGradient id="paint32_linear" x1="-86.4748" y1="260.508" x2="116.286" y2="787.891" gradientUnits="userSpaceOnUse">
<stop stop-color="#8816E1"/>
<stop offset="0.791667" stop-color="#8816E1" stop-opacity="0"/>
</linearGradient>
<linearGradient id="paint33_linear" x1="-84.6559" y1="259.188" x2="116.806" y2="783.194" gradientUnits="userSpaceOnUse">
<stop stop-color="#8816E1"/>
<stop offset="0.791667" stop-color="#8816E1" stop-opacity="0"/>
</linearGradient>
<linearGradient id="paint34_linear" x1="-82.5153" y1="257.9" x2="117.648" y2="778.529" gradientUnits="userSpaceOnUse">
<stop stop-color="#8816E1"/>
<stop offset="0.791667" stop-color="#8816E1" stop-opacity="0"/>
</linearGradient>
<linearGradient id="paint35_linear" x1="-80.2707" y1="256.882" x2="118.439" y2="773.728" gradientUnits="userSpaceOnUse">
<stop stop-color="#8816E1"/>
<stop offset="0.791667" stop-color="#8816E1" stop-opacity="0"/>
</linearGradient>
<linearGradient id="paint36_linear" x1="-78.4004" y1="255.698" x2="119.011" y2="769.167" gradientUnits="userSpaceOnUse">
<stop stop-color="#8816E1"/>
<stop offset="0.791667" stop-color="#8816E1" stop-opacity="0"/>
</linearGradient>
<linearGradient id="paint37_linear" x1="-76.5192" y1="253.734" x2="119.801" y2="764.367" gradientUnits="userSpaceOnUse">
<stop stop-color="#8816E1"/>
<stop offset="0.791667" stop-color="#8816E1" stop-opacity="0"/>
</linearGradient>
<linearGradient id="paint38_linear" x1="-74.649" y1="252.55" x2="120.373" y2="759.805" gradientUnits="userSpaceOnUse">
<stop stop-color="#8816E1"/>
<stop offset="0.791667" stop-color="#8816E1" stop-opacity="0"/>
</linearGradient>
<linearGradient id="paint39_linear" x1="-72.5601" y1="251.127" x2="121.163" y2="755.005" gradientUnits="userSpaceOnUse">
<stop stop-color="#8816E1"/>
<stop offset="0.791667" stop-color="#8816E1" stop-opacity="0"/>
</linearGradient>
<linearGradient id="paint40_linear" x1="-70.6894" y1="249.943" x2="121.736" y2="750.443" gradientUnits="userSpaceOnUse">
<stop stop-color="#8816E1"/>
<stop offset="0.791667" stop-color="#8816E1" stop-opacity="0"/>
</linearGradient>
<linearGradient id="paint41_linear" x1="-68.4657" y1="248.467" x2="122.661" y2="745.591" gradientUnits="userSpaceOnUse">
<stop stop-color="#8816E1"/>
<stop offset="0.791667" stop-color="#8816E1" stop-opacity="0"/>
</linearGradient>
<linearGradient id="paint42_linear" x1="-66.6472" y1="247.148" x2="123.233" y2="741.029" gradientUnits="userSpaceOnUse">
<stop stop-color="#8816E1"/>
<stop offset="0.791667" stop-color="#8816E1" stop-opacity="0"/>
</linearGradient>
<linearGradient id="paint43_linear" x1="-64.5585" y1="245.724" x2="124.023" y2="736.229" gradientUnits="userSpaceOnUse">
<stop stop-color="#8816E1"/>
<stop offset="0.791667" stop-color="#8816E1" stop-opacity="0"/>
</linearGradient>
<linearGradient id="paint44_linear" x1="-62.4179" y1="244.436" x2="124.865" y2="731.563" gradientUnits="userSpaceOnUse">
<stop stop-color="#8816E1"/>
<stop offset="0.791667" stop-color="#8816E1" stop-opacity="0"/>
</linearGradient>
<linearGradient id="paint45_linear" x1="-60.599" y1="243.117" x2="125.386" y2="726.867" gradientUnits="userSpaceOnUse">
<stop stop-color="#8816E1"/>
<stop offset="0.791667" stop-color="#8816E1" stop-opacity="0"/>
</linearGradient>
<linearGradient id="paint46_linear" x1="-58.4583" y1="241.829" x2="126.228" y2="722.202" gradientUnits="userSpaceOnUse">
<stop stop-color="#8816E1"/>
<stop offset="0.791667" stop-color="#8816E1" stop-opacity="0"/>
</linearGradient>
<linearGradient id="paint47_linear" x1="-56.8479" y1="239.969" x2="126.748" y2="717.505" gradientUnits="userSpaceOnUse">
<stop stop-color="#8816E1"/>
<stop offset="0.791667" stop-color="#8816E1" stop-opacity="0"/>
</linearGradient>
<linearGradient id="paint48_linear" x1="-54.7068" y1="238.681" x2="127.591" y2="712.839" gradientUnits="userSpaceOnUse">
<stop stop-color="#8816E1"/>
<stop offset="0.791667" stop-color="#8816E1" stop-opacity="0"/>
</linearGradient>
<linearGradient id="paint49_linear" x1="-52.7326" y1="237.767" x2="128.111" y2="708.143" gradientUnits="userSpaceOnUse">
<stop stop-color="#8816E1"/>
<stop offset="0.791667" stop-color="#8816E1" stop-opacity="0"/>
</linearGradient>
<linearGradient id="paint50_linear" x1="-50.5919" y1="236.478" x2="128.953" y2="703.477" gradientUnits="userSpaceOnUse">
<stop stop-color="#8816E1"/>
<stop offset="0.791667" stop-color="#8816E1" stop-opacity="0"/>
</linearGradient>
<linearGradient id="paint51_linear" x1="-48.7735" y1="235.159" x2="129.473" y2="698.781" gradientUnits="userSpaceOnUse">
<stop stop-color="#8816E1"/>
<stop offset="0.791667" stop-color="#8816E1" stop-opacity="0"/>
</linearGradient>
<linearGradient id="paint52_linear" x1="-46.8405" y1="233.33" x2="130.315" y2="694.115" gradientUnits="userSpaceOnUse">
<stop stop-color="#8816E1"/>
<stop offset="0.791667" stop-color="#8816E1" stop-opacity="0"/>
</linearGradient>
<linearGradient id="paint53_linear" x1="-44.6843" y1="231.881" x2="131.173" y2="689.289" gradientUnits="userSpaceOnUse">
<stop stop-color="#8816E1"/>
<stop offset="0.791667" stop-color="#8816E1" stop-opacity="0"/>
</linearGradient>
<linearGradient id="paint54_linear" x1="-42.7306" y1="230.51" x2="131.828" y2="684.54" gradientUnits="userSpaceOnUse">
<stop stop-color="#8816E1"/>
<stop offset="0.791667" stop-color="#8816E1" stop-opacity="0"/>
</linearGradient>
<linearGradient id="paint55_linear" x1="-40.782" y1="228.52" x2="132.686" y2="679.714" gradientUnits="userSpaceOnUse">
<stop stop-color="#8816E1"/>
<stop offset="0.791667" stop-color="#8816E1" stop-opacity="0"/>
</linearGradient>
<linearGradient id="paint56_linear" x1="-38.6204" y1="227.689" x2="133.394" y2="675.101" gradientUnits="userSpaceOnUse">
<stop stop-color="#8816E1"/>
<stop offset="0.791667" stop-color="#8816E1" stop-opacity="0"/>
</linearGradient>
<linearGradient id="paint57_linear" x1="-36.5995" y1="226.292" x2="134.116" y2="670.326" gradientUnits="userSpaceOnUse">
<stop stop-color="#8816E1"/>
<stop offset="0.791667" stop-color="#8816E1" stop-opacity="0"/>
</linearGradient>
<linearGradient id="paint58_linear" x1="-34.5829" y1="224.276" x2="135.042" y2="665.474" gradientUnits="userSpaceOnUse">
<stop stop-color="#8816E1"/>
<stop offset="0.791667" stop-color="#8816E1" stop-opacity="0"/>
</linearGradient>
<linearGradient id="paint59_linear" x1="-32.4268" y1="222.827" x2="135.9" y2="660.647" gradientUnits="userSpaceOnUse">
<stop stop-color="#8816E1"/>
<stop offset="0.791667" stop-color="#8816E1" stop-opacity="0"/>
</linearGradient>
<linearGradient id="paint60_linear" x1="-30.4733" y1="221.456" x2="136.555" y2="655.899" gradientUnits="userSpaceOnUse">
<stop stop-color="#8816E1"/>
<stop offset="0.791667" stop-color="#8816E1" stop-opacity="0"/>
</linearGradient>
<linearGradient id="paint61_linear" x1="-28.5245" y1="219.466" x2="137.413" y2="651.072" gradientUnits="userSpaceOnUse">
<stop stop-color="#8816E1"/>
<stop offset="0.791667" stop-color="#8816E1" stop-opacity="0"/>
</linearGradient>
<linearGradient id="paint62_linear" x1="-26.571" y1="218.095" x2="138.068" y2="646.324" gradientUnits="userSpaceOnUse">
<stop stop-color="#8816E1"/>
<stop offset="0.791667" stop-color="#8816E1" stop-opacity="0"/>
</linearGradient>
<linearGradient id="paint63_linear" x1="-24.4147" y1="216.645" x2="138.978" y2="641.632" gradientUnits="userSpaceOnUse">
<stop stop-color="#8816E1"/>
<stop offset="0.791667" stop-color="#8816E1" stop-opacity="0"/>
</linearGradient>
<linearGradient id="paint64_linear" x1="-22.4611" y1="215.274" x2="139.633" y2="636.884" gradientUnits="userSpaceOnUse">
<stop stop-color="#8816E1"/>
<stop offset="0.791667" stop-color="#8816E1" stop-opacity="0"/>
</linearGradient>
<linearGradient id="paint65_linear" x1="-20.4396" y1="213.877" x2="140.356" y2="632.11" gradientUnits="userSpaceOnUse">
<stop stop-color="#8816E1"/>
<stop offset="0.791667" stop-color="#8816E1" stop-opacity="0"/>
</linearGradient>
<linearGradient id="paint66_linear" x1="-18.694" y1="211.965" x2="141.011" y2="627.361" gradientUnits="userSpaceOnUse">
<stop stop-color="#8816E1"/>
<stop offset="0.791667" stop-color="#8816E1" stop-opacity="0"/>
</linearGradient>
<linearGradient id="paint67_linear" x1="-16.5378" y1="210.516" x2="141.869" y2="622.535" gradientUnits="userSpaceOnUse">
<stop stop-color="#8816E1"/>
<stop offset="0.791667" stop-color="#8816E1" stop-opacity="0"/>
</linearGradient>
<linearGradient id="paint68_linear" x1="-14.3812" y1="209.067" x2="142.727" y2="617.708" gradientUnits="userSpaceOnUse">
<stop stop-color="#8816E1"/>
<stop offset="0.791667" stop-color="#8816E1" stop-opacity="0"/>
</linearGradient>
<linearGradient id="paint69_linear" x1="-12.2613" y1="207.322" x2="143.704" y2="612.991" gradientUnits="userSpaceOnUse">
<stop stop-color="#8816E1"/>
<stop offset="0.791667" stop-color="#8816E1" stop-opacity="0"/>
</linearGradient>
<linearGradient id="paint70_linear" x1="-10.2037" y1="206.22" x2="144.36" y2="608.242" gradientUnits="userSpaceOnUse">
<stop stop-color="#8816E1"/>
<stop offset="0.791667" stop-color="#8816E1" stop-opacity="0"/>
</linearGradient>
<linearGradient id="paint71_linear" x1="-8.04746" y1="204.771" x2="145.217" y2="603.416" gradientUnits="userSpaceOnUse">
<stop stop-color="#8816E1"/>
<stop offset="0.791667" stop-color="#8816E1" stop-opacity="0"/>
</linearGradient>
<linearGradient id="paint72_linear" x1="-6.30184" y1="202.859" x2="145.872" y2="598.667" gradientUnits="userSpaceOnUse">
<stop stop-color="#8816E1"/>
<stop offset="0.791667" stop-color="#8816E1" stop-opacity="0"/>
</linearGradient>
<linearGradient id="paint73_linear" x1="-4.28049" y1="201.462" x2="146.595" y2="593.893" gradientUnits="userSpaceOnUse">
<stop stop-color="#8816E1"/>
<stop offset="0.791667" stop-color="#8816E1" stop-opacity="0"/>
</linearGradient>
<linearGradient id="paint74_linear" x1="-2.32693" y1="200.091" x2="147.25" y2="589.144" gradientUnits="userSpaceOnUse">
<stop stop-color="#8816E1"/>
<stop offset="0.791667" stop-color="#8816E1" stop-opacity="0"/>
</linearGradient>
<linearGradient id="paint75_linear" x1="-0.378194" y1="198.101" x2="148.108" y2="584.318" gradientUnits="userSpaceOnUse">
<stop stop-color="#8816E1"/>
<stop offset="0.791667" stop-color="#8816E1" stop-opacity="0"/>
</linearGradient>
<linearGradient id="paint76_linear" x1="1.78329" y1="197.27" x2="148.816" y2="579.704" gradientUnits="userSpaceOnUse">
<stop stop-color="#8816E1"/>
<stop offset="0.791667" stop-color="#8816E1" stop-opacity="0"/>
</linearGradient>
<linearGradient id="paint77_linear" x1="3.93961" y1="195.821" x2="149.674" y2="574.877" gradientUnits="userSpaceOnUse">
<stop stop-color="#8816E1"/>
<stop offset="0.791667" stop-color="#8816E1" stop-opacity="0"/>
</linearGradient>
<linearGradient id="paint78_linear" x1="4.61053" y1="190.911" x2="151.643" y2="573.345" gradientUnits="userSpaceOnUse">
<stop stop-color="#8816E1"/>
<stop offset="0.791667" stop-color="#8816E1" stop-opacity="0"/>
</linearGradient>
<linearGradient id="paint79_linear" x1="5.19264" y1="185.57" x2="153.679" y2="571.787" gradientUnits="userSpaceOnUse">
<stop stop-color="#8816E1"/>
<stop offset="0.791667" stop-color="#8816E1" stop-opacity="0"/>
</linearGradient>
<linearGradient id="paint80_linear" x1="6.07159" y1="181.201" x2="155.649" y2="570.254" gradientUnits="userSpaceOnUse">
<stop stop-color="#8816E1"/>
<stop offset="0.791667" stop-color="#8816E1" stop-opacity="0"/>
</linearGradient>
<linearGradient id="paint81_linear" x1="6.99685" y1="176.349" x2="157.873" y2="568.779" gradientUnits="userSpaceOnUse">
<stop stop-color="#8816E1"/>
<stop offset="0.791667" stop-color="#8816E1" stop-opacity="0"/>
</linearGradient>
<linearGradient id="paint82_linear" x1="7.66791" y1="171.439" x2="159.842" y2="567.247" gradientUnits="userSpaceOnUse">
<stop stop-color="#8816E1"/>
<stop offset="0.791667" stop-color="#8816E1" stop-opacity="0"/>
</linearGradient>
<linearGradient id="paint83_linear" x1="8.74893" y1="166.992" x2="162.014" y2="565.636" gradientUnits="userSpaceOnUse">
<stop stop-color="#8816E1"/>
<stop offset="0.791667" stop-color="#8816E1" stop-opacity="0"/>
</linearGradient>
<linearGradient id="paint84_linear" x1="9.28457" y1="162.134" x2="163.848" y2="564.156" gradientUnits="userSpaceOnUse">
<stop stop-color="#8816E1"/>
<stop offset="0.791667" stop-color="#8816E1" stop-opacity="0"/>
</linearGradient>
<linearGradient id="paint85_linear" x1="10.0546" y1="156.877" x2="166.02" y2="562.546" gradientUnits="userSpaceOnUse">
<stop stop-color="#8816E1"/>
<stop offset="0.791667" stop-color="#8816E1" stop-opacity="0"/>
</linearGradient>
<linearGradient id="paint86_linear" x1="10.8654" y1="152.533" x2="167.974" y2="561.175" gradientUnits="userSpaceOnUse">
<stop stop-color="#8816E1"/>
<stop offset="0.791667" stop-color="#8816E1" stop-opacity="0"/>
</linearGradient>
<linearGradient id="paint87_linear" x1="11.5363" y1="147.624" x2="169.943" y2="559.642" gradientUnits="userSpaceOnUse">
<stop stop-color="#8816E1"/>
<stop offset="0.791667" stop-color="#8816E1" stop-opacity="0"/>
</linearGradient>
<linearGradient id="paint88_linear" x1="12.072" y1="142.766" x2="171.777" y2="558.162" gradientUnits="userSpaceOnUse">
<stop stop-color="#8816E1"/>
<stop offset="0.791667" stop-color="#8816E1" stop-opacity="0"/>
</linearGradient>
<linearGradient id="paint89_linear" x1="13.1531" y1="138.319" x2="173.949" y2="556.551" gradientUnits="userSpaceOnUse">
<stop stop-color="#8816E1"/>
<stop offset="0.791667" stop-color="#8816E1" stop-opacity="0"/>
</linearGradient>
<linearGradient id="paint90_linear" x1="13.824" y1="133.409" x2="175.918" y2="555.019" gradientUnits="userSpaceOnUse">
<stop stop-color="#8816E1"/>
<stop offset="0.791667" stop-color="#8816E1" stop-opacity="0"/>
</linearGradient>
<linearGradient id="paint91_linear" x1="14.7493" y1="128.557" x2="178.142" y2="553.544" gradientUnits="userSpaceOnUse">
<stop stop-color="#8816E1"/>
<stop offset="0.791667" stop-color="#8816E1" stop-opacity="0"/>
</linearGradient>
<linearGradient id="paint92_linear" x1="15.4725" y1="123.783" x2="180.111" y2="552.011" gradientUnits="userSpaceOnUse">
<stop stop-color="#8816E1"/>
<stop offset="0.791667" stop-color="#8816E1" stop-opacity="0"/>
</linearGradient>
<linearGradient id="paint93_linear" x1="16.2108" y1="118.847" x2="182.148" y2="550.453" gradientUnits="userSpaceOnUse">
<stop stop-color="#8816E1"/>
<stop offset="0.791667" stop-color="#8816E1" stop-opacity="0"/>
</linearGradient>
<linearGradient id="paint94_linear" x1="17.0892" y1="114.477" x2="184.117" y2="548.92" gradientUnits="userSpaceOnUse">
<stop stop-color="#8816E1"/>
<stop offset="0.791667" stop-color="#8816E1" stop-opacity="0"/>
</linearGradient>
<linearGradient id="paint95_linear" x1="17.9629" y1="109.49" x2="186.289" y2="547.31" gradientUnits="userSpaceOnUse">
<stop stop-color="#8816E1"/>
<stop offset="0.791667" stop-color="#8816E1" stop-opacity="0"/>
</linearGradient>
<linearGradient id="paint96_linear" x1="18.6338" y1="104.581" x2="188.259" y2="545.778" gradientUnits="userSpaceOnUse">
<stop stop-color="#8816E1"/>
<stop offset="0.791667" stop-color="#8816E1" stop-opacity="0"/>
</linearGradient>
<linearGradient id="paint97_linear" x1="19.3616" y1="100.424" x2="190.077" y2="544.458" gradientUnits="userSpaceOnUse">
<stop stop-color="#8816E1"/>
<stop offset="0.791667" stop-color="#8816E1" stop-opacity="0"/>
</linearGradient>
<linearGradient id="paint98_linear" x1="20.0325" y1="95.5149" x2="192.046" y2="542.926" gradientUnits="userSpaceOnUse">
<stop stop-color="#8816E1"/>
<stop offset="0.791667" stop-color="#8816E1" stop-opacity="0"/>
</linearGradient>
<linearGradient id="paint99_linear" x1="20.7503" y1="90.1221" x2="194.218" y2="541.316" gradientUnits="userSpaceOnUse">
<stop stop-color="#8816E1"/>
<stop offset="0.791667" stop-color="#8816E1" stop-opacity="0"/>
</linearGradient>
<linearGradient id="paint100_linear" x1="21.6287" y1="85.7528" x2="196.188" y2="539.784" gradientUnits="userSpaceOnUse">
<stop stop-color="#8816E1"/>
<stop offset="0.791667" stop-color="#8816E1" stop-opacity="0"/>
</linearGradient>
<linearGradient id="paint101_linear" x1="22.3671" y1="80.8175" x2="198.224" y2="538.225" gradientUnits="userSpaceOnUse">
<stop stop-color="#8816E1"/>
<stop offset="0.791667" stop-color="#8816E1" stop-opacity="0"/>
</linearGradient>
<linearGradient id="paint102_linear" x1="23.0898" y1="76.0425" x2="200.245" y2="536.827" gradientUnits="userSpaceOnUse">
<stop stop-color="#8816E1"/>
<stop offset="0.791667" stop-color="#8816E1" stop-opacity="0"/>
</linearGradient>
<linearGradient id="paint103_linear" x1="23.9008" y1="71.6994" x2="202.147" y2="535.321" gradientUnits="userSpaceOnUse">
<stop stop-color="#8816E1"/>
<stop offset="0.791667" stop-color="#8816E1" stop-opacity="0"/>
</linearGradient>
<linearGradient id="paint104_linear" x1="24.5561" y1="66.9511" x2="204.101" y2="533.95" gradientUnits="userSpaceOnUse">
<stop stop-color="#8816E1"/>
<stop offset="0.791667" stop-color="#8816E1" stop-opacity="0"/>
</linearGradient>
<linearGradient id="paint105_linear" x1="25.6375" y1="62.5039" x2="206.273" y2="532.34" gradientUnits="userSpaceOnUse">
<stop stop-color="#8816E1"/>
<stop offset="0.791667" stop-color="#8816E1" stop-opacity="0"/>
</linearGradient>
<linearGradient id="paint106_linear" x1="26.1733" y1="57.6459" x2="208.107" y2="530.859" gradientUnits="userSpaceOnUse">
<stop stop-color="#8816E1"/>
<stop offset="0.791667" stop-color="#8816E1" stop-opacity="0"/>
</linearGradient>
<linearGradient id="paint107_linear" x1="26.8285" y1="52.8976" x2="210.061" y2="529.488" gradientUnits="userSpaceOnUse">
<stop stop-color="#8816E1"/>
<stop offset="0.791667" stop-color="#8816E1" stop-opacity="0"/>
</linearGradient>
<linearGradient id="paint108_linear" x1="27.6396" y1="48.5545" x2="211.963" y2="527.982" gradientUnits="userSpaceOnUse">
<stop stop-color="#8816E1"/>
<stop offset="0.791667" stop-color="#8816E1" stop-opacity="0"/>
</linearGradient>
<linearGradient id="paint109_linear" x1="28.5648" y1="43.702" x2="214.186" y2="526.506" gradientUnits="userSpaceOnUse">
<stop stop-color="#8816E1"/>
<stop offset="0.791667" stop-color="#8816E1" stop-opacity="0"/>
</linearGradient>
<linearGradient id="paint110_linear" x1="29.1732" y1="39.4363" x2="215.885" y2="525.077" gradientUnits="userSpaceOnUse">
<stop stop-color="#8816E1"/>
<stop offset="0.791667" stop-color="#8816E1" stop-opacity="0"/>
</linearGradient>
<linearGradient id="paint111_linear" x1="29.8286" y1="34.6879" x2="217.839" y2="523.706" gradientUnits="userSpaceOnUse">
<stop stop-color="#8816E1"/>
<stop offset="0.791667" stop-color="#8816E1" stop-opacity="0"/>
</linearGradient>
<linearGradient id="paint112_linear" x1="30.5878" y1="30.2097" x2="219.741" y2="522.2" gradientUnits="userSpaceOnUse">
<stop stop-color="#8816E1"/>
<stop offset="0.791667" stop-color="#8816E1" stop-opacity="0"/>
</linearGradient>
<linearGradient id="paint113_linear" x1="31.5653" y1="25.4924" x2="221.965" y2="520.725" gradientUnits="userSpaceOnUse">
<stop stop-color="#8816E1"/>
<stop offset="0.791667" stop-color="#8816E1" stop-opacity="0"/>
</linearGradient>
<linearGradient id="paint114_linear" x1="31.9656" y1="20.6867" x2="223.664" y2="519.296" gradientUnits="userSpaceOnUse">
<stop stop-color="#8816E1"/>
<stop offset="0.791667" stop-color="#8816E1" stop-opacity="0"/>
</linearGradient>
<linearGradient id="paint115_linear" x1="32.7767" y1="16.3432" x2="225.565" y2="517.79" gradientUnits="userSpaceOnUse">
<stop stop-color="#8816E1"/>
<stop offset="0.791667" stop-color="#8816E1" stop-opacity="0"/>
</linearGradient>
<linearGradient id="paint116_linear" x1="33.432" y1="11.5948" x2="227.519" y2="516.418" gradientUnits="userSpaceOnUse">
<stop stop-color="#8816E1"/>
<stop offset="0.791667" stop-color="#8816E1" stop-opacity="0"/>
</linearGradient>
<linearGradient id="paint117_linear" x1="34.5136" y1="7.14755" x2="229.691" y2="514.808" gradientUnits="userSpaceOnUse">
<stop stop-color="#8816E1"/>
<stop offset="0.791667" stop-color="#8816E1" stop-opacity="0"/>
</linearGradient>
<linearGradient id="paint118_linear" x1="34.9662" y1="2.47709" x2="231.442" y2="513.515" gradientUnits="userSpaceOnUse">
<stop stop-color="#8816E1"/>
<stop offset="0.791667" stop-color="#8816E1" stop-opacity="0"/>
</linearGradient>
<linearGradient id="paint119_linear" x1="35.5691" y1="-2.40645" x2="233.344" y2="512.009" gradientUnits="userSpaceOnUse">
<stop stop-color="#8816E1"/>
<stop offset="0.791667" stop-color="#8816E1" stop-opacity="0"/>
</linearGradient>
<linearGradient id="paint120_linear" x1="36.6191" y1="-6.53182" x2="235.432" y2="510.585" gradientUnits="userSpaceOnUse">
<stop stop-color="#8816E1"/>
<stop offset="0.791667" stop-color="#8816E1" stop-opacity="0"/>
</linearGradient>
<linearGradient id="paint121_linear" x1="37.5448" y1="-11.3838" x2="237.604" y2="508.975" gradientUnits="userSpaceOnUse">
<stop stop-color="#8816E1"/>
<stop offset="0.791667" stop-color="#8816E1" stop-opacity="0"/>
</linearGradient>
<linearGradient id="paint122_linear" x1="38.2571" y1="-15.3795" x2="239.356" y2="507.681" gradientUnits="userSpaceOnUse">
<stop stop-color="#8816E1"/>
<stop offset="0.791667" stop-color="#8816E1" stop-opacity="0"/>
</linearGradient>
<linearGradient id="paint123_linear" x1="38.8602" y1="-20.2631" x2="241.257" y2="506.175" gradientUnits="userSpaceOnUse">
<stop stop-color="#8816E1"/>
<stop offset="0.791667" stop-color="#8816E1" stop-opacity="0"/>
</linearGradient>
<linearGradient id="paint124_linear" x1="39.6717" y1="-24.6061" x2="243.159" y2="504.669" gradientUnits="userSpaceOnUse">
<stop stop-color="#8816E1"/>
<stop offset="0.791667" stop-color="#8816E1" stop-opacity="0"/>
</linearGradient>
<linearGradient id="paint125_linear" x1="40.3266" y1="-29.3545" x2="245.113" y2="503.297" gradientUnits="userSpaceOnUse">
<stop stop-color="#8816E1"/>
<stop offset="0.791667" stop-color="#8816E1" stop-opacity="0"/>
</linearGradient>
<linearGradient id="paint126_linear" x1="40.9974" y1="-34.2644" x2="247.082" y2="501.765" gradientUnits="userSpaceOnUse">
<stop stop-color="#8816E1"/>
<stop offset="0.791667" stop-color="#8816E1" stop-opacity="0"/>
</linearGradient>
<linearGradient id="paint127_linear" x1="41.8602" y1="-38.4722" x2="249.035" y2="500.394" gradientUnits="userSpaceOnUse">
<stop stop-color="#8816E1"/>
<stop offset="0.791667" stop-color="#8816E1" stop-opacity="0"/>
</linearGradient>
<linearGradient id="paint128_linear" x1="42.4638" y1="-43.3563" x2="250.937" y2="498.887" gradientUnits="userSpaceOnUse">
<stop stop-color="#8816E1"/>
<stop offset="0.791667" stop-color="#8816E1" stop-opacity="0"/>
</linearGradient>
<linearGradient id="paint129_linear" x1="44.6044" y1="-44.6441" x2="251.779" y2="494.222" gradientUnits="userSpaceOnUse">
<stop stop-color="#8816E1"/>
<stop offset="0.791667" stop-color="#8816E1" stop-opacity="0"/>
</linearGradient>
<linearGradient id="paint130_linear" x1="46.2202" y1="-45.8856" x2="252.097" y2="489.603" gradientUnits="userSpaceOnUse">
<stop stop-color="#8816E1"/>
<stop offset="0.791667" stop-color="#8816E1" stop-opacity="0"/>
</linearGradient>
<linearGradient id="paint131_linear" x1="48.2468" y1="-46.665" x2="252.669" y2="485.041" gradientUnits="userSpaceOnUse">
<stop stop-color="#8816E1"/>
<stop offset="0.791667" stop-color="#8816E1" stop-opacity="0"/>
</linearGradient>
<linearGradient id="paint132_linear" x1="50.3356" y1="-48.088" x2="253.459" y2="480.241" gradientUnits="userSpaceOnUse">
<stop stop-color="#8816E1"/>
<stop offset="0.791667" stop-color="#8816E1" stop-opacity="0"/>
</linearGradient>
<linearGradient id="paint133_linear" x1="52.3098" y1="-49.0021" x2="254.031" y2="475.68" gradientUnits="userSpaceOnUse">
<stop stop-color="#8816E1"/>
<stop offset="0.791667" stop-color="#8816E1" stop-opacity="0"/>
</linearGradient>
<linearGradient id="paint134_linear" x1="53.9779" y1="-50.1084" x2="254.349" y2="471.061" gradientUnits="userSpaceOnUse">
<stop stop-color="#8816E1"/>
<stop offset="0.791667" stop-color="#8816E1" stop-opacity="0"/>
</linearGradient>
<linearGradient id="paint135_linear" x1="56.3263" y1="-50.8566" x2="255.191" y2="466.395" gradientUnits="userSpaceOnUse">
<stop stop-color="#8816E1"/>
<stop offset="0.791667" stop-color="#8816E1" stop-opacity="0"/>
</linearGradient>
<linearGradient id="paint136_linear" x1="58.3524" y1="-51.6355" x2="255.763" y2="461.834" gradientUnits="userSpaceOnUse">
<stop stop-color="#8816E1"/>
<stop offset="0.791667" stop-color="#8816E1" stop-opacity="0"/>
</linearGradient>
<linearGradient id="paint137_linear" x1="60.1709" y1="-52.9549" x2="256.283" y2="457.137" gradientUnits="userSpaceOnUse">
<stop stop-color="#8816E1"/>
<stop offset="0.791667" stop-color="#8816E1" stop-opacity="0"/>
</linearGradient>
<linearGradient id="paint138_linear" x1="62.1094" y1="-54.1653" x2="256.924" y2="452.55" gradientUnits="userSpaceOnUse">
<stop stop-color="#8816E1"/>
<stop offset="0.791667" stop-color="#8816E1" stop-opacity="0"/>
</linearGradient>
<linearGradient id="paint139_linear" x1="64.0836" y1="-55.0794" x2="257.443" y2="447.853" gradientUnits="userSpaceOnUse">
<stop stop-color="#8816E1"/>
<stop offset="0.791667" stop-color="#8816E1" stop-opacity="0"/>
</linearGradient>
<linearGradient id="paint140_linear" x1="65.9543" y1="-56.2636" x2="258.016" y2="443.292" gradientUnits="userSpaceOnUse">
<stop stop-color="#8816E1"/>
<stop offset="0.791667" stop-color="#8816E1" stop-opacity="0"/>
</linearGradient>
<linearGradient id="paint141_linear" x1="68.0427" y1="-57.6871" x2="258.806" y2="438.491" gradientUnits="userSpaceOnUse">
<stop stop-color="#8816E1"/>
<stop offset="0.791667" stop-color="#8816E1" stop-opacity="0"/>
</linearGradient>
<linearGradient id="paint142_linear" x1="70.0015" y1="-58.4402" x2="259.31" y2="433.955" gradientUnits="userSpaceOnUse">
<stop stop-color="#8816E1"/>
<stop offset="0.791667" stop-color="#8816E1" stop-opacity="0"/>
</linearGradient>
<linearGradient id="paint143_linear" x1="71.685" y1="-59.7075" x2="259.695" y2="429.311" gradientUnits="userSpaceOnUse">
<stop stop-color="#8816E1"/>
<stop offset="0.791667" stop-color="#8816E1" stop-opacity="0"/>
</linearGradient>
<linearGradient id="paint144_linear" x1="73.826" y1="-60.9958" x2="260.538" y2="424.645" gradientUnits="userSpaceOnUse">
<stop stop-color="#8816E1"/>
<stop offset="0.791667" stop-color="#8816E1" stop-opacity="0"/>
</linearGradient>
<linearGradient id="paint145_linear" x1="75.8004" y1="-61.91" x2="261.058" y2="419.949" gradientUnits="userSpaceOnUse">
<stop stop-color="#8816E1"/>
<stop offset="0.791667" stop-color="#8816E1" stop-opacity="0"/>
</linearGradient>
<linearGradient id="paint146_linear" x1="77.6704" y1="-63.094" x2="261.63" y2="415.387" gradientUnits="userSpaceOnUse">
<stop stop-color="#8816E1"/>
<stop offset="0.791667" stop-color="#8816E1" stop-opacity="0"/>
</linearGradient>
<linearGradient id="paint147_linear" x1="79.7642" y1="-63.8992" x2="262.269" y2="410.8" gradientUnits="userSpaceOnUse">
<stop stop-color="#8816E1"/>
<stop offset="0.791667" stop-color="#8816E1" stop-opacity="0"/>
</linearGradient>
<linearGradient id="paint148_linear" x1="81.5831" y1="-65.2186" x2="262.79" y2="406.103" gradientUnits="userSpaceOnUse">
<stop stop-color="#8816E1"/>
<stop offset="0.791667" stop-color="#8816E1" stop-opacity="0"/>
</linearGradient>
<linearGradient id="paint149_linear" x1="83.4534" y1="-66.4028" x2="263.362" y2="401.542" gradientUnits="userSpaceOnUse">
<stop stop-color="#8816E1"/>
<stop offset="0.791667" stop-color="#8816E1" stop-opacity="0"/>
</linearGradient>
<linearGradient id="paint150_linear" x1="85.698" y1="-67.421" x2="264.152" y2="396.741" gradientUnits="userSpaceOnUse">
<stop stop-color="#8816E1"/>
<stop offset="0.791667" stop-color="#8816E1" stop-opacity="0"/>
</linearGradient>
<linearGradient id="paint151_linear" x1="87.366" y1="-68.5273" x2="264.522" y2="392.258" gradientUnits="userSpaceOnUse">
<stop stop-color="#8816E1"/>
<stop offset="0.791667" stop-color="#8816E1" stop-opacity="0"/>
</linearGradient>
<clipPath id="clip0">
<rect width="375" height="721" fill="white"/>
</clipPath>
</defs>
</svg>
