<svg xmlns="http://www.w3.org/2000/svg" xmlns:xlink="http://www.w3.org/1999/xlink" viewBox="0 0 1362.42 714.33"><defs><style>.cls-1,.cls-10,.cls-100,.cls-101,.cls-102,.cls-103,.cls-104,.cls-105,.cls-106,.cls-107,.cls-108,.cls-109,.cls-11,.cls-110,.cls-111,.cls-112,.cls-113,.cls-114,.cls-115,.cls-116,.cls-117,.cls-118,.cls-119,.cls-12,.cls-120,.cls-121,.cls-122,.cls-123,.cls-124,.cls-125,.cls-126,.cls-127,.cls-128,.cls-129,.cls-13,.cls-130,.cls-131,.cls-132,.cls-133,.cls-134,.cls-135,.cls-136,.cls-137,.cls-138,.cls-139,.cls-14,.cls-140,.cls-141,.cls-142,.cls-143,.cls-144,.cls-145,.cls-146,.cls-147,.cls-148,.cls-149,.cls-15,.cls-150,.cls-151,.cls-152,.cls-16,.cls-17,.cls-18,.cls-19,.cls-2,.cls-20,.cls-21,.cls-22,.cls-23,.cls-24,.cls-25,.cls-26,.cls-27,.cls-28,.cls-29,.cls-3,.cls-30,.cls-31,.cls-32,.cls-33,.cls-34,.cls-35,.cls-36,.cls-37,.cls-38,.cls-39,.cls-4,.cls-40,.cls-41,.cls-42,.cls-43,.cls-44,.cls-45,.cls-46,.cls-47,.cls-48,.cls-49,.cls-5,.cls-50,.cls-51,.cls-52,.cls-53,.cls-54,.cls-55,.cls-56,.cls-57,.cls-58,.cls-59,.cls-6,.cls-60,.cls-61,.cls-62,.cls-63,.cls-64,.cls-65,.cls-66,.cls-67,.cls-68,.cls-69,.cls-7,.cls-70,.cls-71,.cls-72,.cls-73,.cls-74,.cls-75,.cls-76,.cls-77,.cls-78,.cls-79,.cls-8,.cls-80,.cls-81,.cls-82,.cls-83,.cls-84,.cls-85,.cls-86,.cls-87,.cls-88,.cls-89,.cls-9,.cls-90,.cls-91,.cls-92,.cls-93,.cls-94,.cls-95,.cls-96,.cls-97,.cls-98,.cls-99{fill:none;stroke-miterlimit:10;}.cls-1{stroke:url(#linear-gradient);}.cls-2{stroke:url(#linear-gradient-2);}.cls-3{stroke:url(#linear-gradient-3);}.cls-4{stroke:url(#linear-gradient-4);}.cls-5{stroke:url(#linear-gradient-5);}.cls-6{stroke:url(#linear-gradient-6);}.cls-7{stroke:url(#linear-gradient-7);}.cls-8{stroke:url(#linear-gradient-8);}.cls-9{stroke:url(#linear-gradient-9);}.cls-10{stroke:url(#linear-gradient-10);}.cls-11{stroke:url(#linear-gradient-11);}.cls-12{stroke:url(#linear-gradient-12);}.cls-13{stroke:url(#linear-gradient-13);}.cls-14{stroke:url(#linear-gradient-14);}.cls-15{stroke:url(#linear-gradient-15);}.cls-16{stroke:url(#linear-gradient-16);}.cls-17{stroke:url(#linear-gradient-17);}.cls-18{stroke:url(#linear-gradient-18);}.cls-19{stroke:url(#linear-gradient-19);}.cls-20{stroke:url(#linear-gradient-20);}.cls-21{stroke:url(#linear-gradient-21);}.cls-22{stroke:url(#linear-gradient-22);}.cls-23{stroke:url(#linear-gradient-23);}.cls-24{stroke:url(#linear-gradient-24);}.cls-25{stroke:url(#linear-gradient-25);}.cls-26{stroke:url(#linear-gradient-26);}.cls-27{stroke:url(#linear-gradient-27);}.cls-28{stroke:url(#linear-gradient-28);}.cls-29{stroke:url(#linear-gradient-29);}.cls-30{stroke:url(#linear-gradient-30);}.cls-31{stroke:url(#linear-gradient-31);}.cls-32{stroke:url(#linear-gradient-32);}.cls-33{stroke:url(#linear-gradient-33);}.cls-34{stroke:url(#linear-gradient-34);}.cls-35{stroke:url(#linear-gradient-35);}.cls-36{stroke:url(#linear-gradient-36);}.cls-37{stroke:url(#linear-gradient-37);}.cls-38{stroke:url(#linear-gradient-38);}.cls-39{stroke:url(#linear-gradient-39);}.cls-40{stroke:url(#linear-gradient-40);}.cls-41{stroke:url(#linear-gradient-41);}.cls-42{stroke:url(#linear-gradient-42);}.cls-43{stroke:url(#linear-gradient-43);}.cls-44{stroke:url(#linear-gradient-44);}.cls-45{stroke:url(#linear-gradient-45);}.cls-46{stroke:url(#linear-gradient-46);}.cls-47{stroke:url(#linear-gradient-47);}.cls-48{stroke:url(#linear-gradient-48);}.cls-49{stroke:url(#linear-gradient-49);}.cls-50{stroke:url(#linear-gradient-50);}.cls-51{stroke:url(#linear-gradient-51);}.cls-52{stroke:url(#linear-gradient-52);}.cls-53{stroke:url(#linear-gradient-53);}.cls-54{stroke:url(#linear-gradient-54);}.cls-55{stroke:url(#linear-gradient-55);}.cls-56{stroke:url(#linear-gradient-56);}.cls-57{stroke:url(#linear-gradient-57);}.cls-58{stroke:url(#linear-gradient-58);}.cls-59{stroke:url(#linear-gradient-59);}.cls-60{stroke:url(#linear-gradient-60);}.cls-61{stroke:url(#linear-gradient-61);}.cls-62{stroke:url(#linear-gradient-62);}.cls-63{stroke:url(#linear-gradient-63);}.cls-64{stroke:url(#linear-gradient-64);}.cls-65{stroke:url(#linear-gradient-65);}.cls-66{stroke:url(#linear-gradient-66);}.cls-67{stroke:url(#linear-gradient-67);}.cls-68{stroke:url(#linear-gradient-68);}.cls-69{stroke:url(#linear-gradient-69);}.cls-70{stroke:url(#linear-gradient-70);}.cls-71{stroke:url(#linear-gradient-71);}.cls-72{stroke:url(#linear-gradient-72);}.cls-73{stroke:url(#linear-gradient-73);}.cls-74{stroke:url(#linear-gradient-74);}.cls-75{stroke:url(#linear-gradient-75);}.cls-76{stroke:url(#linear-gradient-76);}.cls-77{stroke:url(#linear-gradient-77);}.cls-78{stroke:url(#linear-gradient-78);}.cls-79{stroke:url(#linear-gradient-79);}.cls-80{stroke:url(#linear-gradient-80);}.cls-81{stroke:url(#linear-gradient-81);}.cls-82{stroke:url(#linear-gradient-82);}.cls-83{stroke:url(#linear-gradient-83);}.cls-84{stroke:url(#linear-gradient-84);}.cls-85{stroke:url(#linear-gradient-85);}.cls-86{stroke:url(#linear-gradient-86);}.cls-87{stroke:url(#linear-gradient-87);}.cls-88{stroke:url(#linear-gradient-88);}.cls-89{stroke:url(#linear-gradient-89);}.cls-90{stroke:url(#linear-gradient-90);}.cls-91{stroke:url(#linear-gradient-91);}.cls-92{stroke:url(#linear-gradient-92);}.cls-93{stroke:url(#linear-gradient-93);}.cls-94{stroke:url(#linear-gradient-94);}.cls-95{stroke:url(#linear-gradient-95);}.cls-96{stroke:url(#linear-gradient-96);}.cls-97{stroke:url(#linear-gradient-97);}.cls-98{stroke:url(#linear-gradient-98);}.cls-99{stroke:url(#linear-gradient-99);}.cls-100{stroke:url(#linear-gradient-100);}.cls-101{stroke:url(#linear-gradient-101);}.cls-102{stroke:url(#linear-gradient-102);}.cls-103{stroke:url(#linear-gradient-103);}.cls-104{stroke:url(#linear-gradient-104);}.cls-105{stroke:url(#linear-gradient-105);}.cls-106{stroke:url(#linear-gradient-106);}.cls-107{stroke:url(#linear-gradient-107);}.cls-108{stroke:url(#linear-gradient-108);}.cls-109{stroke:url(#linear-gradient-109);}.cls-110{stroke:url(#linear-gradient-110);}.cls-111{stroke:url(#linear-gradient-111);}.cls-112{stroke:url(#linear-gradient-112);}.cls-113{stroke:url(#linear-gradient-113);}.cls-114{stroke:url(#linear-gradient-114);}.cls-115{stroke:url(#linear-gradient-115);}.cls-116{stroke:url(#linear-gradient-116);}.cls-117{stroke:url(#linear-gradient-117);}.cls-118{stroke:url(#linear-gradient-118);}.cls-119{stroke:url(#linear-gradient-119);}.cls-120{stroke:url(#linear-gradient-120);}.cls-121{stroke:url(#linear-gradient-121);}.cls-122{stroke:url(#linear-gradient-122);}.cls-123{stroke:url(#linear-gradient-123);}.cls-124{stroke:url(#linear-gradient-124);}.cls-125{stroke:url(#linear-gradient-125);}.cls-126{stroke:url(#linear-gradient-126);}.cls-127{stroke:url(#linear-gradient-127);}.cls-128{stroke:url(#linear-gradient-128);}.cls-129{stroke:url(#linear-gradient-129);}.cls-130{stroke:url(#linear-gradient-130);}.cls-131{stroke:url(#linear-gradient-131);}.cls-132{stroke:url(#linear-gradient-132);}.cls-133{stroke:url(#linear-gradient-133);}.cls-134{stroke:url(#linear-gradient-134);}.cls-135{stroke:url(#linear-gradient-135);}.cls-136{stroke:url(#linear-gradient-136);}.cls-137{stroke:url(#linear-gradient-137);}.cls-138{stroke:url(#linear-gradient-138);}.cls-139{stroke:url(#linear-gradient-139);}.cls-140{stroke:url(#linear-gradient-140);}.cls-141{stroke:url(#linear-gradient-141);}.cls-142{stroke:url(#linear-gradient-142);}.cls-143{stroke:url(#linear-gradient-143);}.cls-144{stroke:url(#linear-gradient-144);}.cls-145{stroke:url(#linear-gradient-145);}.cls-146{stroke:url(#linear-gradient-146);}.cls-147{stroke:url(#linear-gradient-147);}.cls-148{stroke:url(#linear-gradient-148);}.cls-149{stroke:url(#linear-gradient-149);}.cls-150{stroke:url(#linear-gradient-150);}.cls-151{stroke:url(#linear-gradient-151);}.cls-152{stroke:url(#linear-gradient-152);}</style><linearGradient id="linear-gradient" x1="195.28" y1="718.36" x2="1436.22" y2="718.36" gradientTransform="translate(267.8 -447.73) rotate(28.92)" gradientUnits="userSpaceOnUse"><stop offset="0" stop-color="#881fdf"/><stop offset="0.14" stop-color="#791cc5" stop-opacity="0.88"/><stop offset="0.44" stop-color="#521683" stop-opacity="0.57"/><stop offset="0.87" stop-color="#150b1b" stop-opacity="0.09"/><stop offset="0.95" stop-color="#0a0908" stop-opacity="0"/></linearGradient><linearGradient id="linear-gradient-2" x1="195.17" y1="717.74" x2="1435.94" y2="717.74" xlink:href="#linear-gradient"/><linearGradient id="linear-gradient-3" x1="195.07" y1="717.13" x2="1435.66" y2="717.13" xlink:href="#linear-gradient"/><linearGradient id="linear-gradient-4" x1="194.79" y1="716.51" x2="1435.56" y2="716.51" xlink:href="#linear-gradient"/><linearGradient id="linear-gradient-5" x1="194.69" y1="715.9" x2="1435.28" y2="715.9" xlink:href="#linear-gradient"/><linearGradient id="linear-gradient-6" x1="194.59" y1="715.28" x2="1435" y2="715.28" xlink:href="#linear-gradient"/><linearGradient id="linear-gradient-7" x1="194.37" y1="714.58" x2="1434.78" y2="714.58" xlink:href="#linear-gradient"/><linearGradient id="linear-gradient-8" x1="194.27" y1="713.96" x2="1434.5" y2="713.96" xlink:href="#linear-gradient"/><linearGradient id="linear-gradient-9" x1="194.16" y1="713.35" x2="1434.23" y2="713.35" xlink:href="#linear-gradient"/><linearGradient id="linear-gradient-10" x1="193.95" y1="712.65" x2="1434.01" y2="712.65" xlink:href="#linear-gradient"/><linearGradient id="linear-gradient-11" x1="193.84" y1="712.03" x2="1433.73" y2="712.03" xlink:href="#linear-gradient"/><linearGradient id="linear-gradient-12" x1="193.68" y1="711.5" x2="1433.57" y2="711.5" xlink:href="#linear-gradient"/><linearGradient id="linear-gradient-13" x1="193.58" y1="710.83" x2="1433.35" y2="710.83" xlink:href="#linear-gradient"/><linearGradient id="linear-gradient-14" x1="193.36" y1="710.19" x2="1433.07" y2="710.19" xlink:href="#linear-gradient"/><linearGradient id="linear-gradient-15" x1="193.26" y1="709.57" x2="1432.79" y2="709.57" xlink:href="#linear-gradient"/><linearGradient id="linear-gradient-16" x1="193.16" y1="708.95" x2="1432.52" y2="708.95" xlink:href="#linear-gradient"/><linearGradient id="linear-gradient-17" x1="192.94" y1="708.25" x2="1432.3" y2="708.25" xlink:href="#linear-gradient"/><linearGradient id="linear-gradient-18" x1="192.84" y1="707.64" x2="1432.02" y2="707.64" xlink:href="#linear-gradient"/><linearGradient id="linear-gradient-19" x1="192.73" y1="707.02" x2="1431.74" y2="707.02" xlink:href="#linear-gradient"/><linearGradient id="linear-gradient-20" x1="192.46" y1="706.41" x2="1431.64" y2="706.41" xlink:href="#linear-gradient"/><linearGradient id="linear-gradient-21" x1="192.35" y1="705.79" x2="1431.36" y2="705.79" xlink:href="#linear-gradient"/><linearGradient id="linear-gradient-22" x1="192.25" y1="705.18" x2="1431.08" y2="705.18" xlink:href="#linear-gradient"/><linearGradient id="linear-gradient-23" x1="192.03" y1="704.47" x2="1430.87" y2="704.47" xlink:href="#linear-gradient"/><linearGradient id="linear-gradient-24" x1="191.93" y1="703.86" x2="1430.59" y2="703.86" xlink:href="#linear-gradient"/><linearGradient id="linear-gradient-25" x1="191.83" y1="703.24" x2="1430.31" y2="703.24" xlink:href="#linear-gradient"/><linearGradient id="linear-gradient-26" x1="191.61" y1="702.54" x2="1430.09" y2="702.54" xlink:href="#linear-gradient"/><linearGradient id="linear-gradient-27" x1="191.51" y1="701.92" x2="1429.81" y2="701.92" xlink:href="#linear-gradient"/><linearGradient id="linear-gradient-28" x1="189.9" y1="696.93" x2="1428.38" y2="696.93" xlink:href="#linear-gradient"/><linearGradient id="linear-gradient-29" x1="188.35" y1="691.87" x2="1426.95" y2="691.87" xlink:href="#linear-gradient"/><linearGradient id="linear-gradient-30" x1="186.74" y1="686.84" x2="1425.4" y2="686.84" xlink:href="#linear-gradient"/><linearGradient id="linear-gradient-31" x1="185.14" y1="681.84" x2="1423.97" y2="681.84" xlink:href="#linear-gradient"/><linearGradient id="linear-gradient-32" x1="183.59" y1="676.75" x2="1422.42" y2="676.75" xlink:href="#linear-gradient"/><linearGradient id="linear-gradient-33" x1="181.98" y1="671.75" x2="1420.99" y2="671.75" xlink:href="#linear-gradient"/><linearGradient id="linear-gradient-34" x1="180.44" y1="666.66" x2="1419.44" y2="666.66" xlink:href="#linear-gradient"/><linearGradient id="linear-gradient-35" x1="178.83" y1="661.66" x2="1418.01" y2="661.66" xlink:href="#linear-gradient"/><linearGradient id="linear-gradient-36" x1="177.28" y1="656.57" x2="1416.46" y2="656.57" xlink:href="#linear-gradient"/><linearGradient id="linear-gradient-37" x1="175.67" y1="651.57" x2="1415.03" y2="651.57" xlink:href="#linear-gradient"/><linearGradient id="linear-gradient-38" x1="174.13" y1="646.48" x2="1413.48" y2="646.48" xlink:href="#linear-gradient"/><linearGradient id="linear-gradient-39" x1="172.52" y1="641.48" x2="1412.05" y2="641.48" xlink:href="#linear-gradient"/><linearGradient id="linear-gradient-40" x1="170.97" y1="636.4" x2="1410.51" y2="636.4" xlink:href="#linear-gradient"/><linearGradient id="linear-gradient-41" x1="169.36" y1="631.4" x2="1409.07" y2="631.4" xlink:href="#linear-gradient"/><linearGradient id="linear-gradient-42" x1="167.7" y1="626.22" x2="1407.59" y2="626.22" xlink:href="#linear-gradient"/><linearGradient id="linear-gradient-43" x1="166.09" y1="621.22" x2="1406.16" y2="621.22" xlink:href="#linear-gradient"/><linearGradient id="linear-gradient-44" x1="164.55" y1="616.13" x2="1404.61" y2="616.13" xlink:href="#linear-gradient"/><linearGradient id="linear-gradient-45" x1="162.94" y1="611.13" x2="1403.18" y2="611.13" xlink:href="#linear-gradient"/><linearGradient id="linear-gradient-46" x1="161.39" y1="606.05" x2="1401.63" y2="606.05" xlink:href="#linear-gradient"/><linearGradient id="linear-gradient-47" x1="159.79" y1="601.05" x2="1400.2" y2="601.05" xlink:href="#linear-gradient"/><linearGradient id="linear-gradient-48" x1="158.24" y1="595.96" x2="1398.65" y2="595.96" xlink:href="#linear-gradient"/><linearGradient id="linear-gradient-49" x1="156.63" y1="590.96" x2="1397.22" y2="590.96" xlink:href="#linear-gradient"/><linearGradient id="linear-gradient-50" x1="155.08" y1="585.87" x2="1395.67" y2="585.87" xlink:href="#linear-gradient"/><linearGradient id="linear-gradient-51" x1="153.48" y1="580.87" x2="1394.24" y2="580.87" xlink:href="#linear-gradient"/><linearGradient id="linear-gradient-52" x1="151.93" y1="575.78" x2="1392.69" y2="575.78" xlink:href="#linear-gradient"/><linearGradient id="linear-gradient-53" x1="150.32" y1="570.78" x2="1391.26" y2="570.78" xlink:href="#linear-gradient"/><linearGradient id="linear-gradient-54" x1="148.89" y1="565.78" x2="1389.65" y2="565.78" xlink:href="#linear-gradient"/><linearGradient id="linear-gradient-55" x1="147.46" y1="560.78" x2="1388.05" y2="560.78" xlink:href="#linear-gradient"/><linearGradient id="linear-gradient-56" x1="146.02" y1="555.78" x2="1386.44" y2="555.78" xlink:href="#linear-gradient"/><linearGradient id="linear-gradient-57" x1="144.65" y1="550.9" x2="1384.94" y2="550.9" xlink:href="#linear-gradient"/><linearGradient id="linear-gradient-58" x1="143.21" y1="546" x2="1383.27" y2="546" xlink:href="#linear-gradient"/><linearGradient id="linear-gradient-59" x1="141.78" y1="541.18" x2="1381.67" y2="541.18" xlink:href="#linear-gradient"/><linearGradient id="linear-gradient-60" x1="140.35" y1="536.39" x2="1380.06" y2="536.39" xlink:href="#linear-gradient"/><linearGradient id="linear-gradient-61" x1="138.91" y1="531.63" x2="1378.45" y2="531.63" xlink:href="#linear-gradient"/><linearGradient id="linear-gradient-62" x1="137.48" y1="526.83" x2="1376.84" y2="526.83" xlink:href="#linear-gradient"/><linearGradient id="linear-gradient-63" x1="136.05" y1="522.05" x2="1375.23" y2="522.05" xlink:href="#linear-gradient"/><linearGradient id="linear-gradient-64" x1="134.56" y1="517.33" x2="1373.74" y2="517.33" xlink:href="#linear-gradient"/><linearGradient id="linear-gradient-65" x1="133.12" y1="512.56" x2="1372.13" y2="512.56" xlink:href="#linear-gradient"/><linearGradient id="linear-gradient-66" x1="131.81" y1="507.87" x2="1370.46" y2="507.87" xlink:href="#linear-gradient"/><linearGradient id="linear-gradient-67" x1="130.37" y1="503.09" x2="1368.86" y2="503.09" xlink:href="#linear-gradient"/><linearGradient id="linear-gradient-68" x1="128.94" y1="498.33" x2="1367.25" y2="498.33" xlink:href="#linear-gradient"/><linearGradient id="linear-gradient-69" x1="127.51" y1="493.55" x2="1365.64" y2="493.55" xlink:href="#linear-gradient"/><linearGradient id="linear-gradient-70" x1="126.07" y1="488.79" x2="1364.14" y2="488.79" xlink:href="#linear-gradient"/><linearGradient id="linear-gradient-71" x1="124.58" y1="484.09" x2="1362.54" y2="484.09" xlink:href="#linear-gradient"/><linearGradient id="linear-gradient-72" x1="123.15" y1="479.34" x2="1360.93" y2="479.34" xlink:href="#linear-gradient"/><linearGradient id="linear-gradient-73" x1="121.72" y1="474.55" x2="1359.32" y2="474.55" xlink:href="#linear-gradient"/><linearGradient id="linear-gradient-74" x1="120.4" y1="469.9" x2="1357.65" y2="469.9" xlink:href="#linear-gradient"/><linearGradient id="linear-gradient-75" x1="118.97" y1="465.15" x2="1356.04" y2="465.15" xlink:href="#linear-gradient"/><linearGradient id="linear-gradient-76" x1="117.53" y1="460.36" x2="1354.43" y2="460.36" xlink:href="#linear-gradient"/><linearGradient id="linear-gradient-77" x1="116.04" y1="455.71" x2="1352.94" y2="455.71" xlink:href="#linear-gradient"/><linearGradient id="linear-gradient-78" x1="114.61" y1="450.97" x2="1351.33" y2="450.97" xlink:href="#linear-gradient"/><linearGradient id="linear-gradient-79" x1="114.22" y1="449.75" x2="1351.12" y2="449.75" xlink:href="#linear-gradient"/><linearGradient id="linear-gradient-80" x1="113.95" y1="448.6" x2="1350.85" y2="448.6" xlink:href="#linear-gradient"/><linearGradient id="linear-gradient-81" x1="113.57" y1="447.42" x2="1350.65" y2="447.42" xlink:href="#linear-gradient"/><linearGradient id="linear-gradient-82" x1="113.18" y1="446.24" x2="1350.55" y2="446.24" xlink:href="#linear-gradient"/><linearGradient id="linear-gradient-83" x1="112.74" y1="445.07" x2="1350.34" y2="445.07" xlink:href="#linear-gradient"/><linearGradient id="linear-gradient-84" x1="112.35" y1="443.89" x2="1350.13" y2="443.89" xlink:href="#linear-gradient"/><linearGradient id="linear-gradient-85" x1="112.08" y1="442.77" x2="1349.86" y2="442.77" xlink:href="#linear-gradient"/><linearGradient id="linear-gradient-86" x1="111.7" y1="441.56" x2="1349.65" y2="441.56" xlink:href="#linear-gradient"/><linearGradient id="linear-gradient-87" x1="111.31" y1="440.41" x2="1349.56" y2="440.41" xlink:href="#linear-gradient"/><linearGradient id="linear-gradient-88" x1="110.87" y1="439.28" x2="1349.35" y2="439.28" xlink:href="#linear-gradient"/><linearGradient id="linear-gradient-89" x1="110.59" y1="438.16" x2="1349.08" y2="438.16" xlink:href="#linear-gradient"/><linearGradient id="linear-gradient-90" x1="110.21" y1="436.98" x2="1348.87" y2="436.98" xlink:href="#linear-gradient"/><linearGradient id="linear-gradient-91" x1="109.82" y1="435.79" x2="1348.66" y2="435.79" xlink:href="#linear-gradient"/><linearGradient id="linear-gradient-92" x1="109.44" y1="434.62" x2="1348.56" y2="434.62" xlink:href="#linear-gradient"/><linearGradient id="linear-gradient-93" x1="109.11" y1="433.55" x2="1348.35" y2="433.55" xlink:href="#linear-gradient"/><linearGradient id="linear-gradient-94" x1="108.72" y1="432.42" x2="1348.08" y2="432.42" xlink:href="#linear-gradient"/><linearGradient id="linear-gradient-95" x1="108.34" y1="431.25" x2="1347.87" y2="431.25" xlink:href="#linear-gradient"/><linearGradient id="linear-gradient-96" x1="107.95" y1="430.06" x2="1347.67" y2="430.06" xlink:href="#linear-gradient"/><linearGradient id="linear-gradient-97" x1="107.57" y1="428.87" x2="1347.46" y2="428.87" xlink:href="#linear-gradient"/><linearGradient id="linear-gradient-98" x1="107.24" y1="427.9" x2="1347.3" y2="427.9" xlink:href="#linear-gradient"/><linearGradient id="linear-gradient-99" x1="106.85" y1="426.9" x2="1347.09" y2="426.9" xlink:href="#linear-gradient"/><linearGradient id="linear-gradient-100" x1="106.47" y1="425.93" x2="1346.88" y2="425.93" xlink:href="#linear-gradient"/><linearGradient id="linear-gradient-101" x1="106.08" y1="424.97" x2="1346.67" y2="424.97" xlink:href="#linear-gradient"/><linearGradient id="linear-gradient-102" x1="105.81" y1="424.09" x2="1346.4" y2="424.09" xlink:href="#linear-gradient"/><linearGradient id="linear-gradient-103" x1="105.37" y1="423.21" x2="1346.31" y2="423.21" xlink:href="#linear-gradient"/><linearGradient id="linear-gradient-104" x1="105.21" y1="422.42" x2="1345.97" y2="422.42" xlink:href="#linear-gradient"/><linearGradient id="linear-gradient-105" x1="104.99" y1="421.71" x2="1345.76" y2="421.71" xlink:href="#linear-gradient"/><linearGradient id="linear-gradient-106" x1="104.84" y1="420.92" x2="1345.42" y2="420.92" xlink:href="#linear-gradient"/><linearGradient id="linear-gradient-107" x1="104.57" y1="420.04" x2="1345.16" y2="420.04" xlink:href="#linear-gradient"/><linearGradient id="linear-gradient-108" x1="104.35" y1="419.34" x2="1344.94" y2="419.34" xlink:href="#linear-gradient"/><linearGradient id="linear-gradient-109" x1="104.19" y1="418.55" x2="1344.61" y2="418.55" xlink:href="#linear-gradient"/><linearGradient id="linear-gradient-110" x1="103.98" y1="417.85" x2="1344.39" y2="417.85" xlink:href="#linear-gradient"/><linearGradient id="linear-gradient-111" x1="103.82" y1="417.06" x2="1344.06" y2="417.06" xlink:href="#linear-gradient"/><linearGradient id="linear-gradient-112" x1="103.6" y1="416.36" x2="1343.84" y2="416.36" xlink:href="#linear-gradient"/><linearGradient id="linear-gradient-113" x1="103.45" y1="415.56" x2="1343.51" y2="415.56" xlink:href="#linear-gradient"/><linearGradient id="linear-gradient-114" x1="103.23" y1="414.86" x2="1343.29" y2="414.86" xlink:href="#linear-gradient"/><linearGradient id="linear-gradient-115" x1="103.08" y1="414.07" x2="1342.96" y2="414.07" xlink:href="#linear-gradient"/><linearGradient id="linear-gradient-116" x1="102.92" y1="413.28" x2="1342.63" y2="413.28" xlink:href="#linear-gradient"/><linearGradient id="linear-gradient-117" x1="102.7" y1="412.58" x2="1342.41" y2="412.58" xlink:href="#linear-gradient"/><linearGradient id="linear-gradient-118" x1="102.55" y1="411.79" x2="1342.08" y2="411.79" xlink:href="#linear-gradient"/><linearGradient id="linear-gradient-119" x1="102.33" y1="411.08" x2="1341.86" y2="411.08" xlink:href="#linear-gradient"/><linearGradient id="linear-gradient-120" x1="102.17" y1="410.29" x2="1341.53" y2="410.29" xlink:href="#linear-gradient"/><linearGradient id="linear-gradient-121" x1="101.84" y1="409.5" x2="1341.37" y2="409.5" xlink:href="#linear-gradient"/><linearGradient id="linear-gradient-122" x1="101.69" y1="408.71" x2="1341.05" y2="408.71" xlink:href="#linear-gradient"/><linearGradient id="linear-gradient-123" x1="101.47" y1="408.01" x2="1340.83" y2="408.01" xlink:href="#linear-gradient"/><linearGradient id="linear-gradient-124" x1="101.31" y1="407.22" x2="1340.5" y2="407.22" xlink:href="#linear-gradient"/><linearGradient id="linear-gradient-125" x1="101.16" y1="406.43" x2="1340.16" y2="406.43" xlink:href="#linear-gradient"/><linearGradient id="linear-gradient-126" x1="100.94" y1="405.73" x2="1339.95" y2="405.73" xlink:href="#linear-gradient"/><linearGradient id="linear-gradient-127" x1="100.78" y1="404.94" x2="1339.62" y2="404.94" xlink:href="#linear-gradient"/><linearGradient id="linear-gradient-128" x1="100.57" y1="404.23" x2="1339.4" y2="404.23" xlink:href="#linear-gradient"/><linearGradient id="linear-gradient-129" x1="100.41" y1="403.44" x2="1339.07" y2="403.44" xlink:href="#linear-gradient"/><linearGradient id="linear-gradient-130" x1="98.81" y1="398.44" x2="1337.64" y2="398.44" xlink:href="#linear-gradient"/><linearGradient id="linear-gradient-131" x1="97.26" y1="393.35" x2="1336.09" y2="393.35" xlink:href="#linear-gradient"/><linearGradient id="linear-gradient-132" x1="95.65" y1="388.35" x2="1334.66" y2="388.35" xlink:href="#linear-gradient"/><linearGradient id="linear-gradient-133" x1="94.1" y1="383.27" x2="1333.11" y2="383.27" xlink:href="#linear-gradient"/><linearGradient id="linear-gradient-134" x1="92.49" y1="375.72" x2="1330.13" y2="375.72" xlink:href="#linear-gradient"/><linearGradient id="linear-gradient-135" x1="90.95" y1="375.72" x2="1331.68" y2="375.72" xlink:href="#linear-gradient"/><linearGradient id="linear-gradient-136" x1="89.34" y1="368.18" x2="1328.7" y2="368.18" xlink:href="#linear-gradient"/><linearGradient id="linear-gradient-137" x1="87.73" y1="363.18" x2="1327.27" y2="363.18" xlink:href="#linear-gradient"/><linearGradient id="linear-gradient-138" x1="86.19" y1="358.09" x2="1325.72" y2="358.09" xlink:href="#linear-gradient"/><linearGradient id="linear-gradient-139" x1="84.58" y1="353.09" x2="1324.29" y2="353.09" xlink:href="#linear-gradient"/><linearGradient id="linear-gradient-140" x1="83.03" y1="348" x2="1322.74" y2="348" xlink:href="#linear-gradient"/><linearGradient id="linear-gradient-141" x1="81.42" y1="343" x2="1321.31" y2="343" xlink:href="#linear-gradient"/><linearGradient id="linear-gradient-142" x1="79.88" y1="419.11" x2="689.05" y2="419.11" xlink:href="#linear-gradient"/><linearGradient id="linear-gradient-143" x1="78.27" y1="332.92" x2="1318.33" y2="332.92" xlink:href="#linear-gradient"/><linearGradient id="linear-gradient-144" x1="76.73" y1="327.83" x2="1316.79" y2="327.83" xlink:href="#linear-gradient"/><linearGradient id="linear-gradient-145" x1="75.12" y1="322.83" x2="1315.35" y2="322.83" xlink:href="#linear-gradient"/><linearGradient id="linear-gradient-146" x1="73.57" y1="317.74" x2="1313.81" y2="317.74" xlink:href="#linear-gradient"/><linearGradient id="linear-gradient-147" x1="71.96" y1="312.74" x2="1312.38" y2="312.74" xlink:href="#linear-gradient"/><linearGradient id="linear-gradient-148" x1="70.41" y1="307.68" x2="1310.94" y2="307.68" xlink:href="#linear-gradient"/><linearGradient id="linear-gradient-149" x1="68.81" y1="302.65" x2="1309.4" y2="302.65" xlink:href="#linear-gradient"/><linearGradient id="linear-gradient-150" x1="67.2" y1="297.65" x2="1307.97" y2="297.65" xlink:href="#linear-gradient"/><linearGradient id="linear-gradient-151" x1="65.65" y1="292.56" x2="1306.42" y2="292.56" xlink:href="#linear-gradient"/><linearGradient id="linear-gradient-152" x1="64.04" y1="287.57" x2="1304.99" y2="287.57" xlink:href="#linear-gradient"/></defs><title>header image</title><g id="Layer_2" data-name="Layer 2"><g id="Layer_1-2" data-name="Layer 1"><path class="cls-1" d="M.1,441c45.22,9.59,40.81,29.94,86,39.53s49.45-10.8,94.68-1.21,40.81,29.94,86,39.53,49.45-10.79,94.67-1.2,40.81,29.94,86,39.53S497,546.41,542.21,556s40.81,29.94,86,39.53l3.87.69c45.22,9.59,49.45-10.79,94.67-1.2s40.81,29.94,86,39.52,49.45-10.79,94.67-1.2,40.81,29.94,86,39.53,49.45-10.79,94.67-1.2,40.81,29.94,86,39.53,49.45-10.8,94.67-1.21"/><path class="cls-2" d="M.33,440.42c45.18,9.3,41,29.69,86.14,39s49.53-11.15,94.71-1.85,41,29.69,86.15,39,49.53-11.15,94.72-1.85,40.95,29.69,86.14,39,49.52-11.16,94.71-1.85,41,29.69,86.15,39l4.22.76c45.08,9.84,49.49-10.5,94.56-.66s40.74,30.3,85.81,40.14,49.48-10.51,94.56-.67,40.73,30.3,85.81,40.14,49.48-10.51,94.55-.67,40.74,30.3,85.81,40.14,49.48-10.51,94.56-.67"/><path class="cls-3" d="M.55,439.81c45.26,8.94,41,29.33,86.29,38.27s49.5-11.44,94.76-2.49,41,29.33,86.3,38.27,49.49-11.44,94.76-2.5,41,29.33,86.3,38.28,49.49-11.45,94.76-2.5,41,29.33,86.29,38.27l4.59.84c45,10.2,49.41-10.15,94.4,0s40.59,30.55,85.58,40.75S864,616.9,909,627.1s40.59,30.55,85.59,40.75,49.4-10.15,94.4,0,40.59,30.55,85.59,40.74,49.4-10.14,94.4.06"/><path class="cls-4" d="M.59,439.16c45.34,8.59,41.18,29.08,86.52,37.67s49.57-11.8,94.81-3.15,41.18,29.08,86.51,37.67,49.57-11.81,94.81-3.15,41.18,29.08,86.52,37.67,49.57-11.81,94.8-3.15,41.18,29.08,86.52,37.66l4.58.85c44.93,10.55,49.44-9.87,94.36.69s40.45,30.8,85.37,41.36,49.44-9.86,94.36.7,40.44,30.8,85.36,41.35,49.44-9.86,94.36.7,40.44,30.8,85.36,41.36,49.44-9.86,94.36.7"/><path class="cls-5" d="M.81,438.55c45.42,8.23,41.26,28.73,86.68,36.95s49.46-12.2,95-3.86,41.26,28.72,86.67,36.95,49.47-12.2,95-3.87,41.25,28.72,86.67,36.95,49.47-12.2,95-3.87,41.26,28.73,86.68,37l4.4.8c44.85,10.92,49.37-9.5,94.21,1.42s40.37,31.15,85.21,42.07,49.36-9.5,94.21,1.42,40.36,31.16,85.21,42.07S1045,653,1089.82,664,1130.18,695.11,1175,706s49.36-9.5,94.21,1.42"/><path class="cls-6" d="M1,438c45.38,7.93,41.33,28.36,86.89,36.33,45.39,7.94,49.44-12.48,95-4.51,45.39,7.94,41.33,28.36,86.89,36.34,45.39,7.94,49.44-12.49,95-4.51,45.38,7.94,41.32,28.36,86.89,36.34,45.38,7.93,49.43-12.49,95-4.51,45.38,7.93,41.33,28.36,86.89,36.33l4,.73c44.88,11.21,49.47-9.1,94.16,2.06,44.88,11.21,40.29,31.52,85,42.69,44.88,11.2,49.47-9.11,94.17,2.06,44.87,11.2,40.28,31.52,85,42.68,44.88,11.21,49.47-9.1,94.17,2.07,44.88,11.2,40.29,31.51,85,42.68,44.87,11.21,49.46-9.1,94.16,2.07"/><path class="cls-7" d="M1.19,437.23c45.53,7.68,41.48,28.11,86.94,35.69s49.51-12.85,95-5.16,41.48,28.11,86.94,35.69,49.51-12.84,95-5.16S406.63,526.4,452.09,534s49.51-12.84,95-5.15,41.48,28.11,86.94,35.68l5.3,1c44.63,11.53,49.21-8.78,93.94,2.67s40,31.84,84.77,43.29,49.21-8.78,93.94,2.68,40,31.83,84.76,43.29,49.21-8.78,94,2.67,40,31.73,84.76,43.3c44.62,11.52,49.21-8.79,93.94,2.67"/><path class="cls-8" d="M1.41,436.62C47,444,43,464.37,88.58,471.7s49.47-13.13,95.08-5.8,41.56,27.75,87.16,35.08,49.48-13.14,95.08-5.81,41.56,27.76,87.17,35.08,49.47-13.13,95.08-5.8,41.56,27.75,87.16,35.08l5,.92c44.65,11.81,49.24-8.5,93.89,3.31S774,595.85,818.7,607.67s49.24-8.5,93.9,3.32,39.88,32.09,84.54,43.9,49.24-8.5,93.9,3.32,39.88,32.09,84.54,43.9,49.24-8.49,93.9,3.32"/><path class="cls-9" d="M1.64,436c45.68,7,41.7,27.5,87.31,34.36s49.55-13.49,95.13-6.45,41.7,27.5,87.31,34.36,49.56-13.49,95.13-6.45,41.7,27.51,87.31,34.37,49.56-13.49,95.13-6.45,41.7,27.5,87.31,34.36l5.31,1c44.47,12.25,49.24-8,93.74,4s39.75,32.34,84.32,44.51,49.17-8.14,93.75,4S953.13,640,997.71,652.2s49.17-8.14,93.74,4,39.74,32.34,84.32,44.51,49.17-8.13,93.75,4"/><path class="cls-10" d="M1.79,435.29c45.65,6.68,41.89,27.07,87.54,33.76s49.52-13.79,95.17-7.1S226.39,489,272,495.7s49.52-13.78,95.17-7.1,41.89,27.08,87.54,33.76,49.52-13.78,95.17-7.1S591.8,542.33,637.45,549l5.12,1c44.44,12.42,49.27-7.74,93.71,4.68s39.66,32.7,84.09,45.12,49.27-7.74,93.7,4.69,39.67,32.69,84.1,45.12,49.27-7.74,93.7,4.68,39.67,32.7,84.1,45.12,49.27-7.74,93.7,4.69"/><path class="cls-11" d="M2,434.68C47.74,441,44,461.4,89.77,467.83s49.49-14.07,95.22-7.75,42,26.72,87.76,33.15,49.48-14.07,95.21-7.75,42,26.72,87.76,33.15,49.49-14.07,95.22-7.75,42,26.71,87.76,33.15l4.76.87c44.47,12.72,49.3-7.45,93.66,5.34S776.63,583.18,821,596s49.31-7.45,93.66,5.33,39.52,32.94,83.87,45.73,49.31-7.46,93.66,5.33,39.52,32.94,83.88,45.73,49.3-7.45,93.66,5.33"/><path class="cls-12" d="M2.13,434.14c45.8,6,42.1,26.47,87.8,32.5s49.56-14.43,95.36-8.46,42.12,26.46,87.81,32.5,49.57-14.43,95.37-8.47,42.1,26.47,87.8,32.5,49.56-14.43,95.37-8.46,42.11,26.46,87.8,32.5l5.48,1c44.21,13,49.16-7.21,93.44,5.94s39.44,33.3,83.72,46.44,49.16-7.2,93.44,5.94c44.31,13,39.37,33.2,83.72,46.45,44.2,13,49.15-7.2,93.43,5.94s39.44,33.31,83.72,46.45,49.16-7.2,93.44,5.94"/><path class="cls-13" d="M2.35,433.54c45.88,5.6,42.18,26.1,88.06,31.71s49.47-14.83,95.41-9.12c45.77,5.68,42.19,26.11,88,31.89s49.46-14.82,95.41-9.11c45.77,5.68,42.19,26.11,88,31.89s49.46-14.82,95.41-9.11c45.77,5.68,42.18,26.11,88,31.89l5.2,1.06c44.24,13.32,49.26-6.8,93.39,6.59,44.31,13.43,39.37,33.67,83.5,47.06s49.26-6.81,93.39,6.58c44.31,13.43,39.37,33.67,83.5,47.06s49.26-6.8,93.39,6.59c44.31,13.43,39.37,33.66,83.5,47.05s49.26-6.8,93.39,6.59"/><path class="cls-14" d="M2.5,432.82c45.92,5.42,42.33,25.85,88.18,31.17s49.54-15.18,95.45-9.76,42.33,25.86,88.18,31.17,49.54-15.18,95.46-9.75,42.33,25.85,88.17,31.17,49.54-15.18,95.46-9.76,42.33,25.86,88.17,31.17l5.67,1.07c44.06,13.75,49.08-6.38,93.24,7.31s39.11,34,83.27,47.66,49.08-6.38,93.24,7.3,39.11,34,83.28,47.67,49.07-6.37,93.24,7.3,39.11,34,83.27,47.67,49.08-6.38,93.25,7.31"/><path class="cls-15" d="M2.73,432.21c46,5.06,42.4,25.49,88.39,30.56s49.51-15.47,95.5-10.4S229,477.86,275,482.93s49.51-15.47,95.5-10.4,42.41,25.49,88.4,30.56,49.51-15.48,95.5-10.41,42.41,25.5,88.4,30.56l5.3,1c44.1,14,49.11-6.09,93.2,8s39,34.23,83,48.27,49.11-6.08,93.2,7.95,39,34.24,83,48.28,49.11-6.09,93.2,7.95,39,34.24,83,48.27,49.11-6.08,93.2,8"/><path class="cls-16" d="M3,431.6C49,436.31,45.5,456.85,91.5,461.44S141,445.68,187,450.39s42.56,25.25,88.56,29.85,49.47-15.76,95.53-11.05,42.56,25.24,88.56,29.84,49.47-15.76,95.54-11,42.56,25.24,88.55,29.84l5.67,1.07c43.9,14.47,49-5.73,93,8.67s38.82,34.49,82.83,48.88,49-5.72,93,8.67,38.82,34.49,82.83,48.89,49-5.73,93,8.67,38.81,34.48,82.83,48.88,49-5.73,93,8.67"/><path class="cls-17" d="M3.1,430.88c46,4.42,42.63,24.89,88.67,29.31s49.54-16.12,95.58-11.7S230,473.37,276,477.79s49.55-16.11,95.58-11.69,42.64,24.88,88.67,29.3,49.55-16.12,95.58-11.69,42.64,24.88,88.68,29.3l6.19,1.18c43.87,14.65,49.07-5.44,92.93,9.21s38.74,34.85,82.61,49.49,49.06-5.44,92.93,9.21,38.74,34.85,82.61,49.49,49.06-5.44,92.93,9.21,38.74,34.85,82.6,49.49,49.07-5.43,92.93,9.21"/><path class="cls-18" d="M3.32,430.27C49.43,434.33,46,454.8,92.14,458.86s49.52-16.4,95.63-12.34S230.48,471,276.59,475.1s49.52-16.4,95.63-12.34,42.71,24.52,88.82,28.59,49.51-16.41,95.62-12.35,42.71,24.53,88.82,28.59l6.57,1.26c43.79,15,49-5.08,92.77,9.92s38.6,35.1,82.38,50.1,49-5.08,92.78,9.93,38.6,35.1,82.39,50.1,49-5.08,92.78,9.93,38.59,35.09,82.38,50.1,49-5.08,92.78,9.93"/><path class="cls-19" d="M3.54,429.66c46.19,3.71,42.86,24.28,89.05,28s49.59-16.76,95.78-13.06,42.85,24.28,89,28,49.59-16.77,95.78-13.07,42.86,24.28,89,28,49.6-16.77,95.78-13.07,42.86,24.28,89,28l5.66,1.07c43.71,15.36,49-4.79,92.73,10.57s38.52,35.45,82.23,50.82,49-4.79,92.74,10.57,38.52,35.46,82.23,50.82,49-4.79,92.73,10.58,38.52,35.45,82.24,50.81,49-4.79,92.73,10.58"/><path class="cls-20" d="M3.59,429c46.26,3.34,42.93,23.92,89.27,27.37s49.55-17.06,95.82-13.71,42.93,23.92,89.26,27.37S327.5,453,373.77,456.34,416.7,480.25,463,483.71s49.56-17.06,95.83-13.72,42.93,23.92,89.26,27.37l5.67,1.07c43.74,15.66,49.05-4.5,92.69,11.23s38.36,35.7,82,51.42,49.06-4.5,92.7,11.22,38.36,35.7,82,51.43,49.06-4.5,92.69,11.22,38.37,35.71,82,51.43,49.06-4.51,92.69,11.22"/><path class="cls-21" d="M3.81,428.41c46.3,3.16,43.08,23.67,89.42,26.65,46.3,3.17,49.56-17.52,95.87-14.36s43.08,23.67,89.41,26.65c46.31,3.17,49.57-17.52,95.87-14.35s43.08,23.67,89.42,26.65c46.3,3.16,49.56-17.52,95.87-14.36S602.75,489,649.08,492l6,1.14c43.56,16.08,48.94-4,92.53,11.94s38.19,36.13,81.79,52C873,573.15,878.37,553.1,922,569s38.18,36.14,81.78,52c43.57,16.08,48.94-4,92.54,11.94s38.19,36.13,81.79,52c43.56,16.09,48.94-4,92.54,11.94"/><path class="cls-22" d="M4,427.8c46.31,2.69,43.16,23.31,89.57,25.93,46.38,2.81,49.53-17.81,95.91-15s43.16,23.31,89.54,26.11,49.53-17.81,95.91-15,43.15,23.31,89.53,26.11S514,458.14,560.4,461s43.15,23.31,89.53,26.11l6.35,1.4c43.52,16.27,48.9-3.79,92.42,12.48s38,36.38,81.56,52.64,48.9-3.78,92.43,12.48,38,36.38,81.56,52.64,48.9-3.78,92.42,12.48,38,36.39,81.57,52.65,48.9-3.79,92.42,12.47"/><path class="cls-23" d="M4.18,427.08c46.46,2.45,43.24,22.95,89.69,25.4s49.5-18.1,95.95-15.65,43.23,22.95,89.69,25.39,49.5-18.1,95.95-15.65,43.23,22.95,89.69,25.4,49.5-18.1,96-15.66,43.23,22.95,89.69,25.4L657.7,483c43.45,16.63,48.83-3.42,92.28,13.2s37.89,36.63,81.34,53.25,48.82-3.42,92.27,13.2,37.89,36.63,81.34,53.25,48.82-3.42,92.27,13.2,37.89,36.63,81.34,53.25,48.83-3.43,92.27,13.2"/><path class="cls-24" d="M4.41,426.47c46.53,2.09,43.38,22.7,89.91,24.79s49.57-18.46,96-16.3,43.38,22.7,89.91,24.79,49.58-18.46,96-16.3,43.37,22.7,89.91,24.78,49.57-18.45,96-16.29,43.37,22.7,89.9,24.79l6.56,1.25c43.37,17,48.86-3.14,92.23,13.85s37.74,36.88,81.12,53.86,48.85-3.14,92.23,13.84,37.74,36.88,81.11,53.86,48.86-3.14,92.23,13.84,37.75,36.89,81.12,53.87,48.85-3.14,92.23,13.84"/><path class="cls-25" d="M4.63,425.86c46.5,1.8,43.46,22.34,90.06,24.07s49.54-18.74,96-16.94,43.46,22.34,90.06,24.07,49.55-18.75,96-16.95,43.46,22.34,90.06,24.07,49.54-18.75,96.05-16.95,43.45,22.34,90,24.07l6.92,1.34C703.21,490,708.76,470,752,487.19s37.67,37.25,80.89,54.48S881.74,539,925,556.23s37.67,37.24,80.89,54.47,48.86-2.67,92.08,14.56,37.67,37.24,80.89,54.47,48.86-2.67,92.08,14.56"/><path class="cls-26" d="M4.78,425.14c46.65,1.55,43.6,22.1,90.18,23.54s49.62-19.11,96.19-17.67,43.6,22.1,90.28,23.46,49.62-19.1,96.2-17.66,43.6,22.09,90.28,23.46,49.62-19.11,96.19-17.67,43.71,22,90.29,23.46l6.31,1.12c43.15,17.59,48.88-2.38,92,15.2s37.59,37.61,80.74,55.19,48.88-2.38,92,15.21,37.6,37.6,80.74,55.19,48.89-2.38,92,15.21,37.59,37.6,80.74,55.19,48.88-2.38,92,15.21"/><path class="cls-27" d="M5,424.54c46.65,1.08,43.78,21.66,90.33,22.81S144.92,428,191.57,429s43.78,21.66,90.33,22.81,49.58-19.39,96.23-18.31,43.79,21.66,90.33,22.82S518.05,437,564.69,438s43.79,21.67,90.33,22.82l7.28,1.41c43,17.84,48.74-2.13,91.81,15.81s37.44,37.85,80.52,55.8,48.74-2.13,91.81,15.82,37.44,37.85,80.52,55.8,48.73-2.14,91.81,15.81,37.44,37.85,80.52,55.8S1228,675,1271.1,692.93"/><path class="cls-28" d="M6,419.4c46.57,1.44,43.6,22.09,90.28,23.46s49.62-19.1,96.2-17.66,43.6,22.09,90.28,23.46S332.38,429.56,379,431s43.6,22.1,90.29,23.47,49.62-19.11,96.19-17.67,43.71,22,90.28,23.46l6.2,1.19c43.15,17.58,48.89-2.39,92,15.2s37.59,37.6,80.74,55.19,48.88-2.38,92,15.21,37.59,37.6,80.74,55.19,48.89-2.38,92,15.21,37.59,37.6,80.74,55.19,48.88-2.39,92,15.2"/><path class="cls-29" d="M7.11,414.2c46.5,1.8,43.45,22.34,90,24.14s49.54-18.75,96-16.95,43.45,22.35,90.06,24.07,49.54-18.74,96-16.94,43.45,22.34,90.06,24.07,49.54-18.75,96-16.95,43.45,22.34,90.06,24.07l7.1,1.37c43.29,17.34,48.85-2.67,92.07,14.56s37.67,37.24,80.9,54.47,48.85-2.67,92.07,14.56,37.67,37.25,80.9,54.48,48.85-2.67,92.07,14.56,37.67,37.24,80.9,54.47,48.85-2.67,92.08,14.56"/><path class="cls-30" d="M8.1,409.07c46.53,2.08,43.38,22.7,89.91,24.78s49.58-18.45,96-16.3,43.37,22.7,89.9,24.79,49.58-18.46,96-16.3,43.38,22.7,89.91,24.79,49.57-18.46,96-16.3,43.38,22.7,89.91,24.79l6.56,1.26c43.38,17,48.86-3.14,92.23,13.84s37.75,36.88,81.12,53.86,48.86-3.14,92.23,13.85S965.6,579,1009,596s48.86-3.14,92.23,13.84,37.75,36.88,81.12,53.86,48.86-3.13,92.23,13.84"/><path class="cls-31" d="M9.09,403.93c46.46,2.45,43.24,22.95,89.69,25.4s49.5-18.1,95.95-15.65,43.23,22.95,89.69,25.39,49.5-18.1,95.95-15.65,43.23,22.95,89.69,25.4,49.5-18.1,95.95-15.65,43.23,22.95,89.69,25.39l6.91,1.34c43.45,16.62,48.83-3.43,92.28,13.19s37.89,36.64,81.34,53.25,48.82-3.42,92.27,13.2,37.89,36.63,81.34,53.26,48.82-3.43,92.27,13.19,37.89,36.63,81.34,53.25,48.83-3.42,92.27,13.2"/><path class="cls-32" d="M10.2,398.73c46.38,2.8,43.15,23.31,89.53,26.11s49.53-17.81,95.91-15S238.8,433.15,285.18,436s49.53-17.81,95.91-15,43.15,23.31,89.53,26.11,49.53-17.81,95.91-15,43.15,23.32,89.53,26.12l6.38,1.22c43.53,16.26,48.9-3.79,92.42,12.48s38,36.38,81.57,52.64,48.9-3.78,92.42,12.48,38,36.38,81.56,52.64,48.91-3.78,92.43,12.48,38,36.38,81.56,52.65,48.9-3.79,92.43,12.47"/><path class="cls-33" d="M11.19,393.6c46.3,3.16,43.08,23.66,89.42,26.65,46.3,3.16,49.57-17.52,95.87-14.36s43.08,23.67,89.42,26.65c46.3,3.17,49.56-17.52,95.86-14.35s43.08,23.67,89.42,26.65c46.3,3.16,49.57-17.52,95.87-14.36s43.08,23.67,89.42,26.65l6,1.14c43.56,16.09,48.94-4,92.54,11.94s38.18,36.14,81.78,52c43.57,16.09,48.94-4,92.54,11.94s38.19,36.13,81.79,52c43.56,16.09,48.94-4,92.54,11.94s38.18,36.14,81.78,52c43.56,16.09,48.94-4,92.54,11.94"/><path class="cls-34" d="M12.3,388.39c46.26,3.34,42.93,23.92,89.27,27.37s49.55-17.05,95.82-13.71,42.93,23.92,89.26,27.37,49.56-17.05,95.83-13.71,42.93,23.92,89.26,27.37S521.3,426,567.57,429.37s42.93,23.92,89.26,27.37l5.49,1c43.74,15.65,49-4.5,92.69,11.22s38.36,35.7,82,51.43,49.06-4.5,92.7,11.22,38.37,35.7,82,51.43,49.06-4.51,92.69,11.22,38.38,35.7,82,51.42,49.06-4.5,92.7,11.23"/><path class="cls-35" d="M13.29,383.26c46.19,3.7,42.86,24.28,89.05,28s49.59-16.77,95.78-13.07,42.85,24.28,89,28,49.59-16.76,95.78-13.06,42.85,24.28,89,28S521.57,424.3,567.76,428s42.86,24.27,89,28l5.85,1.11c43.71,15.37,49-4.79,92.73,10.57s38.52,35.46,82.23,50.82,49-4.79,92.74,10.58,38.51,35.45,82.23,50.81,49-4.79,92.73,10.58,38.52,35.45,82.23,50.82,49-4.79,92.74,10.57"/><path class="cls-36" d="M14.4,378.05c46.11,4.06,42.71,24.53,88.82,28.59s49.51-16.4,95.62-12.34,42.71,24.52,88.82,28.58,49.52-16.4,95.63-12.34,42.71,24.53,88.82,28.59,49.52-16.41,95.63-12.35,42.71,24.53,88.82,28.59l6.56,1.26c43.79,15,49-5.08,92.78,9.93s38.59,35.09,82.38,50.1,49-5.09,92.78,9.92,38.59,35.09,82.38,50.1,49-5.08,92.78,9.93,38.59,35.09,82.38,50.1,49-5.08,92.78,9.92"/><path class="cls-37" d="M15.39,372.92c46,4.42,42.64,24.89,88.67,29.31s49.55-16.12,95.58-11.7,42.64,24.88,88.67,29.3,49.55-16.12,95.59-11.69,42.63,24.88,88.66,29.3,49.55-16.12,95.59-11.7,42.63,24.89,88.67,29.31l6.2,1.18c43.86,14.65,49.06-5.44,92.93,9.21s38.73,34.84,82.6,49.49,49.07-5.44,92.93,9.21,38.74,34.85,82.61,49.49,49.06-5.44,92.93,9.21,38.74,34.85,82.61,49.49,49.06-5.43,92.93,9.21"/><path class="cls-38" d="M16.5,367.72c46.06,4.7,42.55,25.24,88.55,29.84s49.47-15.76,95.54-11.05,42.56,25.25,88.55,29.84,49.48-15.76,95.54-11.05,42.56,25.25,88.56,29.85,49.47-15.76,95.54-11,42.55,25.24,88.55,29.84L663,455c43.9,14.47,49-5.73,93,8.67s38.81,34.48,82.83,48.88,49-5.72,93,8.67,38.82,34.48,82.83,48.88,49-5.72,93,8.68,38.81,34.48,82.83,48.88,49-5.73,93,8.67"/><path class="cls-39" d="M17.49,362.58c46,5.07,42.41,25.5,88.4,30.57s49.51-15.48,95.5-10.41,42.41,25.5,88.4,30.56,49.5-15.47,95.5-10.4,42.41,25.5,88.4,30.56,49.5-15.47,95.5-10.4,42.41,25.49,88.4,30.56l5.3,1c44.09,14,49.11-6.08,93.2,7.95s39,34.24,83,48.28,49.11-6.09,93.2,7.95,39,34.24,83,48.27,49.11-6.08,93.2,8,39,34.23,83.05,48.27,49.11-6.09,93.19,8"/><path class="cls-40" d="M18.59,357.38c45.92,5.43,42.34,25.86,88.18,31.17s49.54-15.18,95.46-9.76,42.33,25.86,88.18,31.18,49.53-15.19,95.45-9.76,42.33,25.85,88.18,31.17,49.54-15.19,95.45-9.76,42.33,25.86,88.18,31.17l5.48,1c44.06,13.75,49.08-6.37,93.24,7.31s39.11,34,83.28,47.66,49.07-6.37,93.24,7.31,39.11,34,83.27,47.66,49.08-6.37,93.24,7.31,39.11,34,83.28,47.66,49.07-6.37,93.24,7.31"/><path class="cls-41" d="M19.59,352.25c45.77,5.67,42.18,26.1,88,31.89S157.08,369.31,203,375c45.77,5.68,42.18,26.11,88,31.89s49.46-14.82,95.41-9.11c45.77,5.68,42.19,26.11,88,31.89s49.46-14.82,95.41-9.11c45.77,5.68,42.19,26.11,88,31.89l5.13,1c44.24,13.32,49.26-6.81,93.39,6.58,44.31,13.43,39.37,33.67,83.5,47.06s49.26-6.81,93.39,6.59c44.31,13.43,39.37,33.66,83.5,47.05s49.26-6.8,93.39,6.59c44.32,13.43,39.37,33.66,83.5,47.06s49.26-6.81,93.39,6.58"/><path class="cls-42" d="M20.62,346.93c45.87,6.08,42,26.54,87.88,32.61s49.56-14.43,95.36-8.46,42.11,26.46,87.81,32.5,49.56-14.43,95.36-8.47,42.11,26.47,87.81,32.5,49.56-14.43,95.36-8.46,42.11,26.46,87.81,32.5l5.41.92c44.28,13.14,49.05-7.13,93.44,5.94s39.44,33.3,83.72,46.44,49.15-7.2,93.43,5.95,39.44,33.3,83.72,46.44,49.16-7.2,93.44,5.94,39.44,33.31,83.72,46.45,49.16-7.2,93.44,5.94"/><path class="cls-43" d="M21.62,341.8c45.72,6.32,42,26.71,87.76,33.15s49.49-14.07,95.21-7.75,42,26.71,87.76,33.15,49.49-14.07,95.21-7.75,42,26.72,87.77,33.15,49.48-14.07,95.21-7.75,42,26.71,87.76,33.15l4.94.91c44.47,12.71,49.31-7.45,93.66,5.33s39.52,32.95,83.88,45.73,49.3-7.45,93.66,5.33,39.51,32.95,83.87,45.73,49.3-7.45,93.66,5.33,39.51,33,83.87,45.73,49.3-7.45,93.66,5.34"/><path class="cls-44" d="M22.72,336.6c45.65,6.68,41.89,27.07,87.54,33.75s49.52-13.78,95.17-7.1S247.31,390.33,293,397s49.52-13.78,95.17-7.1S430,417,475.67,423.67s49.52-13.79,95.18-7.11,41.88,27.08,87.53,33.76l5.13.95c44.43,12.42,49.27-7.74,93.7,4.69s39.66,32.69,84.09,45.11,49.28-7.73,93.71,4.69,39.66,32.7,84.09,45.12,49.27-7.74,93.71,4.69,39.66,32.69,84.09,45.12,49.27-7.74,93.7,4.68"/><path class="cls-45" d="M23.72,331.46c45.68,7,41.7,27.51,87.31,34.37s49.55-13.5,95.13-6.46,41.7,27.51,87.31,34.37,49.56-13.49,95.13-6.45,41.7,27.5,87.31,34.36,49.56-13.49,95.13-6.45,41.7,27.5,87.32,34.36l5.48,1c44.47,12.25,49.17-8.13,93.74,4S797.32,487,841.9,499.14s49.17-8.14,93.75,4,39.74,32.33,84.32,44.51,49.16-8.14,93.74,4,39.74,32.34,84.32,44.52,49.17-8.14,93.75,4"/><path class="cls-46" d="M24.82,326.26C70.43,333.59,66.38,354,112,361.34s49.48-13.13,95.08-5.8,41.56,27.75,87.17,35.08,49.47-13.14,95.08-5.81,41.56,27.76,87.16,35.08,49.48-13.13,95.09-5.8,41.55,27.75,87.16,35.08l4.94.92c44.66,11.81,49.25-8.5,93.9,3.32s39.89,32.08,84.54,43.9,49.25-8.5,93.9,3.32,39.89,32.09,84.54,43.9,49.25-8.5,93.9,3.32,39.89,32.09,84.54,43.9,49.25-8.5,93.9,3.32"/><path class="cls-47" d="M25.82,321.13c45.52,7.68,41.47,28.11,86.93,35.69s49.51-12.85,95-5.16,41.49,28.11,86.94,35.69,49.51-12.85,95-5.16,41.48,28.11,86.94,35.69,49.51-12.84,95-5.16,41.48,28.12,86.94,35.69l5.3,1c44.63,11.52,49.22-8.79,94,2.67s40,31.84,84.76,43.29,49.21-8.78,93.94,2.68,40,31.83,84.77,43.29,49.21-8.79,93.94,2.67,40,31.84,84.76,43.29,49.22-8.78,94,2.68"/><path class="cls-48" d="M26.92,315.92c45.38,7.94,41.33,28.36,86.89,36.34,45.39,7.94,49.44-12.49,95-4.51,45.39,7.94,41.33,28.36,86.89,36.34,45.39,7.93,49.44-12.49,95-4.51,45.38,7.94,41.32,28.36,86.89,36.33,45.38,7.94,49.43-12.48,95-4.51,45.38,7.94,41.33,28.36,86.89,36.34l4,.73c44.88,11.2,49.47-9.11,94.16,2.06,44.88,11.21,40.29,31.52,85,42.68,44.88,11.21,49.47-9.1,94.17,2.07,44.87,11.2,40.28,31.51,85,42.68,44.88,11.21,49.47-9.1,94.17,2.06,44.88,11.21,40.29,31.52,85,42.69,44.87,11.21,49.46-9.11,94.16,2.06"/><path class="cls-49" d="M27.91,310.79c45.42,8.23,41.26,28.72,86.68,36.95s49.46-12.2,94.95-3.87,41.26,28.72,86.67,36.95,49.47-12.2,95-3.86,41.26,28.72,86.68,36.94,49.46-12.2,94.95-3.86,41.26,28.72,86.68,36.95l4.4.8c44.85,10.91,49.36-9.5,94.21,1.41s40.36,31.16,85.21,42.08,49.36-9.5,94.21,1.41,40.36,31.16,85.21,42.08,49.36-9.5,94.21,1.42,40.36,31.15,85.21,42.07,49.36-9.5,94.21,1.42"/><path class="cls-50" d="M29,305.59c45.34,8.58,41.18,29.07,86.52,37.66s49.57-11.8,94.8-3.15,41.18,29.08,86.52,37.67,49.57-11.8,94.8-3.15,41.18,29.08,86.52,37.67,49.57-11.81,94.8-3.15,41.18,29.08,86.52,37.67l4.41.8c44.92,10.56,49.44-9.86,94.36.7s40.44,30.79,85.36,41.35,49.44-9.86,94.36.7,40.44,30.8,85.37,41.36,49.43-9.86,94.35.7,40.45,30.79,85.37,41.35,49.44-9.86,94.36.7"/><path class="cls-51" d="M30,300.45c45.26,8.95,41,29.33,86.3,38.28s49.49-11.45,94.76-2.5,41,29.33,86.3,38.27,49.49-11.44,94.75-2.5,41,29.33,86.3,38.27,49.49-11.44,94.76-2.5,41,29.34,86.3,38.28l4.76.88c45,10.2,49.41-10.15,94.4.05s40.59,30.55,85.59,40.75,49.41-10.15,94.4,0,40.59,30.55,85.59,40.75,49.41-10.15,94.4.05,40.59,30.55,85.59,40.74,49.41-10.14,94.4.06"/><path class="cls-52" d="M31.12,295.25c45.18,9.3,40.95,29.69,86.14,39s49.53-11.15,94.71-1.85,41,29.69,86.15,39,49.53-11.16,94.72-1.85,41,29.69,86.14,39,49.52-11.16,94.71-1.85,41,29.69,86.15,39l4.22.76c45.08,9.84,49.49-10.5,94.56-.66s40.74,30.29,85.81,40.14,49.48-10.51,94.56-.67,40.73,30.29,85.8,40.14,49.49-10.51,94.56-.67,40.74,30.3,85.81,40.14,49.48-10.51,94.56-.67"/><path class="cls-53" d="M32.11,290.11c45.22,9.6,40.81,29.94,86,39.53s49.45-10.79,94.67-1.2,40.81,29.94,86,39.53,49.45-10.8,94.68-1.21,40.8,29.94,86,39.53,49.44-10.79,94.67-1.2,40.81,29.94,86,39.53l3.86.69c45.22,9.59,49.45-10.8,94.68-1.21s40.81,29.94,86,39.53,49.45-10.79,94.67-1.2,40.81,29.94,86,39.53,49.45-10.8,94.67-1.21,40.81,29.94,86,39.53,49.45-10.79,94.67-1.2"/><path class="cls-54" d="M33.28,285c45.08,9.84,40.74,30.3,85.81,40.14s49.49-10.51,94.56-.67,40.74,30.3,85.81,40.14S348.94,354.12,394,364s40.74,30.3,85.81,40.14,49.48-10.5,94.56-.66,40.73,30.3,85.81,40.14l4.4.8c45.19,9.3,49.53-11.16,94.72-1.85s41,29.68,86.14,39,49.53-11.16,94.72-1.85,41,29.68,86.14,39,49.53-11.16,94.72-1.86,41,29.69,86.14,39,49.53-11.16,94.72-1.86"/><path class="cls-55" d="M34.46,279.92c45,10.2,40.59,30.55,85.58,40.75s49.41-10.15,94.52,0,40.58,30.55,85.58,40.75,49.41-10.15,94.52,0,40.58,30.55,85.58,40.75,49.41-10.15,94.51,0,40.59,30.55,85.59,40.75l4.41.8c45.26,8.95,49.49-11.44,94.75-2.5s41.11,29.44,86.37,38.38,49.5-11.44,94.76-2.49,41.1,29.43,86.37,38.38,49.49-11.44,94.75-2.5,41.11,29.44,86.37,38.38,49.5-11.44,94.76-2.5"/><path class="cls-56" d="M35.63,274.83c45,10.38,40.44,30.8,85.47,41.29s49.44-9.87,94.4.51,40.44,30.8,85.48,41.29,49.43-9.86,94.39.52,40.45,30.8,85.47,41.28,49.44-9.85,94.4.52,40.45,30.8,85.47,41.29l4.23.77c45.41,8.69,49.57-11.81,94.87-3S801,468.34,846.3,477.1s49.57-11.8,94.87-3,41.18,29.08,86.48,37.85,49.57-11.8,94.87-3S1163.7,538,1209,546.72s49.57-11.81,94.88-3"/><path class="cls-57" d="M36.77,269.91c44.88,10.74,40.37,31.16,85.25,41.9s49.47-9.57,94.24,1.24,40.37,31.15,85.25,41.89,49.48-9.57,94.25,1.24,40.36,31.16,85.25,41.89,49.47-9.57,94.24,1.24,40.37,31.16,85.25,41.9l4.87.8c45.38,8.41,49.54-12.09,94.92-3.68s41.26,28.72,86.64,37.13,49.53-12.1,94.91-3.69,41.26,28.72,86.64,37.13,49.53-12.09,94.91-3.69,41.26,28.72,86.64,37.13,49.53-12.09,94.91-3.69"/><path class="cls-58" d="M38,264.82c44.8,11.09,40.21,31.4,85,42.5s49.32-9.32,94.13,1.78,40.22,31.4,85,42.5,49.32-9.32,94.13,1.78,40.22,31.41,85,42.5,49.32-9.32,94.13,1.78,40.21,31.4,85,42.5l5.31,1c45.45,8.05,49.5-12.37,95-4.33s41.3,28.54,86.75,36.59,49.51-12.38,95-4.33,41.3,28.54,86.75,36.59,49.51-12.38,95-4.33,41.29,28.54,86.75,36.58,49.5-12.37,95-4.33"/><path class="cls-59" d="M39.12,259.72c44.66,11.35,40.07,31.66,84.84,42.94s49.36-9,94.09,2.42,40.07,31.66,84.84,42.93,49.36-9,94.09,2.43,40.07,31.65,84.84,42.93,49.36-9,94.09,2.42,40.07,31.66,84.84,42.93l5.3,1c45.49,7.86,49.55-12.56,95-4.8s41.55,28.22,87,36,49.54-12.56,95-4.8,41.55,28.22,87,36,49.55-12.56,95-4.8,41.55,28.22,87,36,49.54-12.56,95-4.8"/><path class="cls-60" d="M40.29,254.63c44.69,11.63,39.93,31.91,84.62,43.54s49.28-8.67,94,3S258.81,333,303.5,344.67s49.29-8.67,94,3,39.92,31.91,84.62,43.55,49.28-8.68,94,3,39.93,31.91,84.62,43.54l5.84,1.11c45.57,7.51,49.44-13,95-5.45s41.51,27.93,87.08,35.44,49.44-12.95,95-5.44,41.52,27.93,87.09,35.44,49.44-13,95-5.45,41.52,27.93,87.09,35.44,49.44-12.95,95-5.45"/><path class="cls-61" d="M41.47,249.53C86,261.42,81.32,281.8,125.86,293.68s49.32-8.38,93.93,3.61,39.85,32.27,84.4,44.15,49.31-8.38,93.93,3.61S438,377.32,482.51,389.2s49.32-8.38,93.94,3.61S616.3,425.08,660.84,437l5.84,1.11c45.54,7.22,49.52-13.31,95.05-6.09S803.5,459.59,849,466.81s49.52-13.31,95.05-6.1,41.78,27.62,87.31,34.84,49.52-13.32,95-6.1,41.78,27.61,87.31,34.84,49.52-13.32,95-6.1"/><path class="cls-62" d="M42.64,244.44c44.47,12.24,39.7,32.51,84.28,44.69s49.24-8,93.82,4.14S260.44,325.79,305,338s49.24-8,93.82,4.15,39.7,32.52,84.28,44.69,49.24-8,93.82,4.15,39.7,32.51,84.27,44.69l5.66,1.06c45.69,7,49.56-13.49,95.17-6.63s41.81,27.44,87.43,34.3,49.55-13.5,95.16-6.63,41.81,27.43,87.42,34.29,49.56-13.49,95.17-6.63,41.81,27.43,87.42,34.29,49.56-13.49,95.17-6.63"/><path class="cls-63" d="M43.81,239.34c44.51,12.53,39.56,32.77,84.06,45.3s49.27-7.74,93.78,4.79,39.55,32.77,84.06,45.3,49.27-7.74,93.77,4.8,39.55,32.76,84.06,45.29,49.27-7.74,93.77,4.8,39.55,32.76,84.06,45.3L667,436c45.76,6.61,49.45-13.89,95.21-7.28s41.89,27.07,87.64,33.68,49.45-13.89,95.21-7.28,41.89,27.08,87.65,33.69,49.45-13.89,95.21-7.28,41.89,27.07,87.64,33.69,49.45-13.89,95.21-7.28"/><path class="cls-64" d="M44.88,234.32c44.36,12.78,39.59,33.05,84,45.83s49.19-7.37,93.55,5.41S262,318.61,306.32,331.4s49.19-7.39,93.55,5.4,39.59,33.05,83.94,45.83,49.2-7.37,93.55,5.41,39.59,33,83.95,45.83l6.2,1.19c45.72,6.32,49.6-14.14,95.32-7.82s42,26.71,87.69,33,49.6-14.14,95.32-7.82,42,26.72,87.69,33,49.6-14.14,95.33-7.82,42,26.71,87.68,33,49.6-14.14,95.33-7.82"/><path class="cls-65" d="M46.06,229.22c44.28,13.14,39.44,33.31,83.71,46.45s49.23-7.09,93.51,6.05S262.73,315,307,328.16s49.22-7.09,93.5,6.06,39.44,33.3,83.72,46.44,49.23-7.09,93.51,6,39.44,33.3,83.72,46.45l6.2,1.18c45.8,6,49.56-14.43,95.37-8.46s42.11,26.46,87.91,32.42,49.56-14.43,95.37-8.46,42.11,26.46,87.91,32.43,49.56-14.43,95.36-8.46,42.11,26.46,87.92,32.42,49.56-14.43,95.36-8.46"/><path class="cls-66" d="M47.3,224.24c44.24,13.32,39.29,33.55,83.5,47.05,44.24,13.32,49.26-6.8,93.39,6.59s39.29,33.56,83.5,47.05c44.24,13.33,49.26-6.8,93.39,6.59s39.3,33.56,83.5,47.06c44.24,13.32,49.26-6.81,93.39,6.59s39.3,33.55,83.5,47.05l6.56,1.26c45.88,5.61,49.57-14.89,95.41-9.11s42.19,26.1,88,31.89c45.87,5.61,49.57-14.89,95.41-9.11s42.18,26.1,88,31.89c45.88,5.6,49.57-14.9,95.41-9.11s42.19,26.1,88,31.88c45.88,5.61,49.57-14.89,95.41-9.1"/><path class="cls-67" d="M48.48,219.14c44.16,13.68,39.21,33.91,83.38,47.59S181,260.29,225.21,274s39.22,33.91,83.38,47.59,49.19-6.44,93.35,7.24,39.22,33.91,83.38,47.59,49.19-6.44,93.35,7.24,39.22,33.91,83.39,47.59l5.84,1.1c45.92,5.43,49.61-15.07,95.52-9.64s42.34,25.85,88.25,31.28,49.61-15.08,95.53-9.65,42.33,25.85,88.25,31.28,49.6-15.08,95.52-9.65,42.33,25.85,88.25,31.28,49.61-15.07,95.52-9.65"/><path class="cls-68" d="M49.65,214.05c44.09,14,39.07,34.16,83.16,48.2S182,256,226.05,270s39.07,34.17,83.16,48.2S358.35,312,402.44,326s39.07,34.16,83.16,48.2,49.15-6.26,93.24,7.77,39.07,34.17,83.16,48.21l6.38,1.22c46,5.06,49.57-15.36,95.56-10.3s42.37,25.68,88.37,30.74,49.57-15.36,95.57-10.29,42.37,25.67,88.36,30.74,49.58-15.37,95.57-10.3,42.37,25.68,88.36,30.74,49.58-15.36,95.57-10.29"/><path class="cls-69" d="M50.82,209c43.95,14.29,38.93,34.42,82.87,48.7s49.07-5.9,93.19,8.42c43.95,14.29,38.93,34.42,82.87,48.71s49.07-5.91,93.19,8.42c43.94,14.29,38.93,34.41,82.87,48.7s49.07-5.9,93.19,8.42c43.94,14.29,38.93,34.42,82.94,48.81l6.91,1.34c46.07,4.71,49.48-15.76,95.61-11s42.63,25.36,88.59,30.14S902.6,434,948.56,438.78c46.13,4.82,42.62,25.36,88.58,30.14s49.55-15.65,95.5-10.88c46.14,4.82,42.63,25.36,88.59,30.14s49.54-15.65,95.5-10.87"/><path class="cls-70" d="M52,203.86c44,14.57,38.85,34.77,82.75,49.24s49.1-5.62,93,9,38.85,34.77,82.75,49.24,49.11-5.62,93.08,9,38.85,34.77,82.75,49.24,49.11-5.62,93.08,9,38.85,34.77,82.75,49.24l7.17,1.48c46,4.6,49.51-15.94,95.62-11.41s42.59,25.07,88.7,29.59,49.51-15.94,95.62-11.41,42.59,25.07,88.7,29.6,49.51-15.94,95.61-11.41,42.53,25,88.63,29.48,49.51-15.94,95.62-11.41"/><path class="cls-71" d="M53.07,198.83c43.82,14.83,38.7,35,82.52,49.85s49-5.26,92.93,9.68,38.7,35,82.53,49.85,49-5.26,92.93,9.67,38.7,35,82.53,49.85,49-5.25,92.92,9.68,38.7,35,82.53,49.85l7.64,1.49c46.07,4.24,49.58-16.3,95.65-12.06s42.78,24.64,88.86,28.88,49.58-16.3,95.66-12.06,42.78,24.64,88.85,28.88,49.59-16.3,95.66-12.06,42.78,24.64,88.85,28.88,49.59-16.3,95.66-12.06"/><path class="cls-72" d="M54.24,193.74C98,208.92,92.79,229,136.55,244.19s49.06-5,92.81,10.22,38.55,35.27,82.3,50.46,49.06-5,92.82,10.21,38.55,35.28,82.3,50.46,49.06-5,92.81,10.22S618.15,411,661.9,426.22l8.17,1.6c46.15,3.88,49.56-16.59,95.71-12.7s42.81,24.45,89,28.33,49.56-16.58,95.71-12.7,42.82,24.45,89,28.34,49.55-16.59,95.7-12.71,42.82,24.46,89,28.34,49.55-16.59,95.7-12.71"/><path class="cls-73" d="M55.41,188.64c43.79,15.48,38.41,35.52,82.2,51s49-4.61,92.76,10.86,38.41,35.52,82.2,51,49-4.61,92.76,10.86,38.41,35.52,82.2,51,49-4.61,92.76,10.86,38.41,35.52,82.2,51l7.45,1.44c46.3,3.64,49.52-16.87,95.82-13.24s42.89,24.1,89.19,27.73,49.52-16.87,95.82-13.24S993.66,452,1040,455.64s49.52-16.88,95.82-13.24,42.89,24.09,89.19,27.73,49.52-16.88,95.81-13.25"/><path class="cls-74" d="M56.66,183.65c43.64,15.73,38.33,35.89,82,51.61s49-4.32,92.65,11.4,38.33,35.88,82,51.61,49-4.33,92.65,11.4,38.34,35.88,82,51.6,49-4.32,92.66,11.41,38.33,35.88,82,51.6l7.81,1.53c46.27,3.34,49.6-17.24,95.86-13.89s43,23.85,89.31,27.19,49.59-17.24,95.86-13.89,43,23.85,89.3,27.19,49.6-17.24,95.86-13.89,43,23.85,89.31,27.19,49.6-17.23,95.86-13.89"/><path class="cls-75" d="M57.83,178.56c43.56,16.08,38.19,36.13,81.75,52.22s48.94-4,92.61,12S270.37,279,313.94,295s48.94-4,92.61,12,38.18,36.13,81.74,52.21,48.94-4,92.61,12.05,38.19,36.13,81.75,52.22l7.81,1.52c46.35,3,49.57-17.52,95.91-14.54s43.19,23.6,89.53,26.58,49.56-17.52,95.9-14.53,43.19,23.6,89.53,26.58,49.56-17.52,95.9-14.54,43.19,23.6,89.53,26.58,49.57-17.52,95.91-14.53"/><path class="cls-76" d="M59,173.46c43.52,16.27,38,36.39,81.63,52.76s49-3.68,92.49,12.58,38,36.39,81.64,52.76,49-3.68,92.5,12.58,38,36.39,81.63,52.76,49-3.68,92.49,12.58,38,36.39,81.64,52.76l7.63,1.48c46.49,2.74,49.64-17.88,96-15.07s43.26,23.24,89.64,26,49.64-17.88,96-15.07,43.26,23.24,89.64,26,49.64-17.88,96-15.07,43.26,23.23,89.64,26,49.64-17.88,96-15.08"/><path class="cls-77" d="M60.07,168.44c43.45,16.62,38,36.74,81.41,53.36s48.94-3.5,92.34,13.31c43.45,16.62,38,36.74,81.42,53.36s49-3.39,92.34,13.3,38,36.74,81.41,53.37,49-3.39,92.34,13.3,38,36.74,81.41,53.36l8.36,1.64c46.45,2.45,49.61-18.17,96.06-15.72S810.5,430.6,857,433s49.61-18.16,96.06-15.72,43.34,22.88,89.8,25.33,49.61-18.17,96.06-15.73c46.49,2.27,43.34,22.89,89.79,25.33s49.61-18.17,96.07-15.72"/><path class="cls-78" d="M61.25,163.34c43.37,17,37.81,37,81.19,54s48.85-3.14,92.23,13.84,37.81,37,81.18,54S364.71,282,408.08,299s37.81,37,81.19,54,48.85-3.14,92.23,13.84,37.81,37,81.18,54l8.9,1.75c46.52,2.09,49.57-18.45,96.1-16.37s43.38,22.7,89.91,24.79,49.57-18.46,96.1-16.37,43.38,22.7,89.91,24.79,49.58-18.46,96.11-16.37,43.37,22.7,89.91,24.78,49.57-18.45,96.1-16.37"/><path class="cls-79" d="M61.37,162.34c43.44,16.62,38,36.74,81.41,53.36s48.93-3.5,92.34,13.31c43.45,16.62,38,36.74,81.41,53.36s49-3.39,92.34,13.3,38,36.74,81.41,53.37,49-3.4,92.35,13.3,38,36.74,81.41,53.36l8.35,1.64c46.45,2.45,49.61-18.17,96.06-15.72s43.34,22.88,89.8,25.32,49.6-18.16,96.06-15.72,43.34,22.88,89.79,25.33,49.61-18.17,96.07-15.72c46.49,2.26,43.33,22.87,89.79,25.32S1279.57,428,1326,430.42"/><path class="cls-80" d="M61.56,161.44c43.52,16.26,38,36.38,81.63,52.76s49-3.68,92.5,12.58,38,36.38,81.63,52.75,49-3.67,92.49,12.59,38,36.38,81.64,52.76,49-3.68,92.49,12.58,38,36.38,81.63,52.75l7.64,1.49c46.49,2.73,49.64-17.88,96-15.08s43.26,23.25,89.64,26.05,49.64-17.88,96-15.08,43.26,23.24,89.64,26.05,49.64-17.88,96-15.08,43.26,23.24,89.64,26.05,49.64-17.89,96-15.08"/><path class="cls-81" d="M61.68,160.44c43.56,16.08,38.18,36.13,81.74,52.21s48.94-4,92.61,12,38.19,36.13,81.75,52.21,48.94-4,92.61,12,38.19,36.13,81.75,52.22,48.94-4,92.61,12,38.18,36.14,81.75,52.22l7.81,1.52c46.34,3,49.56-17.52,95.9-14.53S813.4,416,859.74,419s49.57-17.52,95.91-14.54,43.18,23.6,89.52,26.59,49.57-17.53,95.91-14.54,43.18,23.6,89.53,26.58,49.56-17.52,95.9-14.54"/><path class="cls-82" d="M61.8,159.43c43.63,15.72,38.33,35.88,82,51.61s49-4.33,92.65,11.4,38.33,35.88,82,51.6,49-4.32,92.65,11.4,38.33,35.89,82,51.61,49-4.32,92.66,11.4,38.33,35.88,82,51.61l7.88,1.63c46.27,3.34,49.6-17.23,95.86-13.89s43,23.85,89.31,27.19,49.59-17.23,95.86-13.89,43,23.85,89.3,27.19,49.6-17.23,95.86-13.89,43,23.85,89.31,27.19,49.59-17.23,95.86-13.89"/><path class="cls-83" d="M61.81,158.49c43.78,15.48,38.4,35.53,82.19,51s49-4.61,92.77,10.86,38.41,35.53,82.19,51,49-4.61,92.77,10.86,38.41,35.53,82.19,51,49-4.61,92.77,10.86,38.41,35.53,82.19,51l7.46,1.45c46.29,3.63,49.52-16.87,95.81-13.25s42.9,24.11,89.19,27.73,49.53-16.87,95.82-13.24,42.9,24.1,89.19,27.73,49.52-16.87,95.82-13.24,42.89,24.1,89.19,27.73,49.52-16.88,95.82-13.25"/><path class="cls-84" d="M61.93,157.49c43.75,15.18,38.55,35.27,82.3,50.46s49.06-5,92.81,10.21,38.56,35.28,82.31,50.46,49.06-5,92.81,10.22,38.56,35.27,82.31,50.46,49.06-5,92.81,10.21,38.56,35.28,82.31,50.46l8.17,1.6c46.15,3.88,49.55-16.59,95.7-12.7s42.82,24.45,89,28.33,49.56-16.58,95.71-12.7,42.81,24.46,89,28.34,49.56-16.59,95.71-12.71,42.81,24.46,89,28.34,49.56-16.59,95.71-12.7"/><path class="cls-85" d="M62.12,156.59c43.83,14.83,38.7,35,82.53,49.85s49-5.26,92.92,9.68,38.7,35,82.53,49.85,49-5.26,92.93,9.67,38.7,35,82.53,49.86,49-5.27,92.92,9.67,38.7,35,82.53,49.85l7.46,1.45c46.07,4.24,49.59-16.3,95.66-12.06s42.78,24.64,88.85,28.88,49.59-16.3,95.66-12.06,42.78,24.64,88.85,28.88,49.59-16.3,95.67-12.06,42.77,24.64,88.85,28.88,49.58-16.3,95.66-12.06"/><path class="cls-86" d="M62.24,155.58c44,14.58,38.85,34.78,82.75,49.25s49.1-5.62,93,9,38.85,34.77,82.75,49.24,49.1-5.62,93.08,9,38.85,34.77,82.75,49.24,49.1-5.62,93.08,9S628.47,365,672.37,379.5l7.1,1.37c46,4.6,49.51-15.94,95.61-11.41s42.6,25.07,88.71,29.6,49.51-15.94,95.61-11.42,42.6,25.07,88.7,29.6,49.51-15.94,95.62-11.41,42.52,24.95,88.63,29.48,49.51-15.94,95.62-11.41"/><path class="cls-87" d="M62.35,154.58c43.95,14.29,38.93,34.41,82.87,48.7s49.07-5.91,93.2,8.42c43.94,14.29,38.92,34.42,82.86,48.7s49.07-5.9,93.19,8.43c43.94,14.28,38.93,34.41,82.87,48.7s49.07-5.91,93.19,8.42c44,14.29,38.93,34.41,82.94,48.81l7,1.44c46.07,4.71,49.65-15.72,95.61-10.94,46.14,4.82,42.63,25.36,88.59,30.13s49.54-15.65,95.5-10.87c46.14,4.82,42.63,25.36,88.59,30.14s49.54-15.66,95.5-10.88c46.14,4.82,42.62,25.36,88.58,30.13s49.55-15.65,95.51-10.87"/><path class="cls-88" d="M62.37,153.64c44.09,14,39.07,34.17,83.16,48.21s49.14-6.27,93.23,7.77,39.07,34.16,83.16,48.2,49.15-6.26,93.24,7.78,39.07,34.16,83.16,48.2,49.14-6.27,93.23,7.77,39.07,34.16,83.17,48.2l6.55,1.26c46,5.07,49.58-15.36,95.57-10.3s42.37,25.68,88.36,30.75,49.58-15.36,95.57-10.3,42.37,25.68,88.37,30.75,49.57-15.37,95.56-10.3,42.38,25.67,88.37,30.74,49.57-15.36,95.57-10.29"/><path class="cls-89" d="M62.56,152.75c44.16,13.68,39.22,33.91,83.38,47.59s49.19-6.45,93.35,7.23,39.22,33.92,83.38,47.6,49.19-6.45,93.35,7.23,39.22,33.92,83.39,47.6,49.18-6.45,93.35,7.23,39.21,33.91,83.38,47.6l5.84,1.1c45.92,5.43,49.61-15.07,95.52-9.65s42.34,25.86,88.25,31.28,49.61-15.07,95.53-9.64,42.33,25.85,88.25,31.28,49.61-15.08,95.52-9.65,42.34,25.85,88.25,31.28,49.61-15.08,95.53-9.65"/><path class="cls-90" d="M62.68,151.74c44.24,13.32,39.29,33.56,83.5,47.06,44.24,13.32,49.26-6.81,93.39,6.58s39.29,33.56,83.5,47.06c44.24,13.32,49.26-6.81,93.39,6.59s39.29,33.55,83.5,47.05c44.24,13.32,49.26-6.8,93.39,6.59s39.29,33.56,83.5,47.06L683.4,361c45.88,5.61,49.58-14.89,95.42-9.11s42.18,26.11,88,31.89c45.88,5.61,49.57-14.89,95.41-9.11s42.19,26.11,88,31.89c45.88,5.6,49.57-14.9,95.41-9.11s42.19,26.11,88,31.89c45.88,5.6,49.57-14.9,95.42-9.11"/><path class="cls-91" d="M62.8,150.73c44.28,13.15,39.44,33.31,83.72,46.45s49.23-7.09,93.5,6,39.45,33.3,83.73,46.45,49.22-7.1,93.5,6S456.69,289,501,302.17s49.23-7.09,93.51,6.05,39.44,33.31,83.72,46.45l6,1.14c45.8,6,49.57-14.42,95.37-8.46s42.11,26.46,87.91,32.43,49.56-14.43,95.37-8.47,42.11,26.47,87.91,32.43,49.56-14.43,95.36-8.46,42.11,26.46,87.92,32.43,49.56-14.43,95.36-8.47"/><path class="cls-92" d="M62.92,149.73c44.35,12.78,39.58,33.05,83.94,45.84s49.19-7.38,93.55,5.4,39.59,33.05,84,45.84,49.19-7.38,93.55,5.4,39.58,33,83.94,45.84,49.19-7.39,93.55,5.4S635,336.5,679.34,349.28l6.09,1.26c45.73,6.32,49.6-14.14,95.33-7.82s42,26.72,87.69,33,49.59-14.14,95.32-7.82,42,26.72,87.69,33,49.59-14.14,95.32-7.82,42,26.71,87.69,33,49.6-14.14,95.32-7.82"/><path class="cls-93" d="M63,148.9c44.5,12.53,39.55,32.77,84.06,45.3s49.27-7.74,93.77,4.79,39.56,32.77,84.06,45.3,49.27-7.74,93.77,4.8,39.55,32.76,84.06,45.3,49.27-7.74,93.77,4.79,39.56,32.77,84.06,45.3l5.77,1c45.76,6.61,49.45-13.89,95.21-7.27s41.89,27.07,87.64,33.68,49.45-13.89,95.21-7.28,41.89,27.08,87.65,33.69,49.45-13.89,95.21-7.28,41.89,27.07,87.64,33.68,49.45-13.89,95.21-7.28"/><path class="cls-94" d="M63.12,147.9c44.47,12.24,39.7,32.51,84.28,44.69s49.24-8,93.82,4.14,39.7,32.52,84.27,44.69,49.25-8,93.82,4.15,39.7,32.51,84.28,44.69,49.24-8,93.82,4.14,39.7,32.52,84.28,44.69l5.66,1.07c45.68,7,49.56-13.49,95.17-6.63s41.81,27.43,87.42,34.3,49.55-13.5,95.17-6.64,41.81,27.44,87.42,34.29,49.55-13.49,95.16-6.63,41.82,27.44,87.43,34.3,49.55-13.49,95.16-6.63"/><path class="cls-95" d="M63.24,146.89c44.54,11.88,39.85,32.27,84.39,44.15s49.32-8.39,93.93,3.61,39.85,32.27,84.4,44.15,49.31-8.39,93.93,3.61,39.85,32.26,84.39,44.15,49.32-8.39,93.94,3.61,39.85,32.27,84.39,44.15l5.84,1.11c45.54,7.22,49.52-13.32,95-6.1s41.78,27.62,87.31,34.83,49.52-13.31,95.05-6.09,41.78,27.61,87.31,34.83,49.52-13.31,95-6.09,41.78,27.61,87.31,34.83,49.52-13.31,95-6.09"/><path class="cls-96" d="M63.36,145.88c44.69,11.64,39.92,31.91,84.62,43.55s49.28-8.68,94,3,39.92,31.9,84.62,43.54,49.28-8.67,94,3,39.93,31.91,84.62,43.54,49.28-8.67,94,3,39.93,31.91,84.62,43.55l5.84,1.1c45.57,7.51,49.44-13,95-5.44s41.52,27.93,87.09,35.44,49.44-13,95-5.45,41.52,27.93,87.09,35.44,49.44-12.95,95-5.44,41.51,27.93,87.08,35.44,49.44-13,95-5.45"/><path class="cls-97" d="M63.48,144.88c44.66,11.34,40.07,31.65,84.84,42.93s49.35-9,94.09,2.42,40.07,31.66,84.84,42.94,49.35-9,94.09,2.42,40.07,31.66,84.84,42.93,49.35-9,94.08,2.43,40.07,31.65,84.84,42.93l5.31,1c45.49,7.87,49.54-12.55,95-4.8s41.55,28.22,87,36,49.55-12.56,95-4.8,41.55,28.22,87,36,49.54-12.56,95-4.8,41.56,28.23,87,36,49.54-12.56,95-4.8"/><path class="cls-98" d="M63.56,144.05c44.8,11.1,40.22,31.41,85,42.51s49.33-9.33,94.14,1.77,40.21,31.41,85,42.5,49.33-9.32,94.13,1.78,40.22,31.41,85,42.5,49.33-9.32,94.13,1.78,40.22,31.41,85,42.5l5.3,1c45.45,8.05,49.51-12.37,95-4.33s41.29,28.54,86.75,36.59,49.5-12.38,95-4.33,41.29,28.54,86.74,36.59,49.51-12.38,95-4.33,41.3,28.54,86.75,36.59,49.51-12.38,95-4.33"/><path class="cls-99" d="M63.68,143.05c44.88,10.73,40.36,31.15,85.24,41.89s49.48-9.57,94.25,1.24,40.37,31.15,85.25,41.89,49.47-9.57,94.25,1.24S463,260.47,507.91,271.2s49.48-9.57,94.25,1.24,40.37,31.16,85.25,41.9l4.76.87c45.38,8.41,49.54-12.08,94.92-3.68s41.26,28.72,86.64,37.13,49.53-12.09,94.91-3.69,41.26,28.72,86.64,37.13,49.53-12.09,94.91-3.69,41.26,28.73,86.64,37.13,49.53-12.09,94.91-3.68"/><path class="cls-100" d="M63.8,142c45,10.38,40.44,30.8,85.47,41.29s49.44-9.87,94.4.51,40.44,30.8,85.47,41.29,49.44-9.86,94.4.52S464,256.45,509,266.94s49.44-9.86,94.4.52,40.44,30.79,85.47,41.28l4.23.77c45.41,8.69,49.56-11.81,94.87-3s41.18,29.08,86.48,37.84,49.57-11.8,94.87-3,41.18,29.08,86.48,37.85,49.57-11.8,94.88-3,41.18,29.08,86.48,37.85,49.57-11.81,94.87-3"/><path class="cls-101" d="M63.92,141c45,10.2,40.59,30.55,85.58,40.75s49.41-10.15,94.52,0,40.58,30.55,85.58,40.75,49.41-10.15,94.51,0S464.7,253,509.7,263.24s49.4-10.15,94.51,0S644.8,293.77,689.8,304l4.4.8c45.27,8.94,49.5-11.44,94.76-2.5s41.1,29.44,86.37,38.38,49.49-11.44,94.76-2.5,41.1,29.44,86.37,38.39,49.49-11.45,94.75-2.5,41.11,29.44,86.37,38.38,49.5-11.44,94.76-2.5"/><path class="cls-102" d="M64.1,140.14c45.08,9.84,40.74,30.29,85.81,40.13s49.49-10.5,94.56-.66,40.74,30.3,85.81,40.14,49.48-10.51,94.56-.67,40.73,30.3,85.81,40.14,49.48-10.51,94.55-.67,40.73,30.3,85.81,40.14l4.23.77c45.18,9.3,49.52-11.16,94.71-1.86s41,29.69,86.15,39,49.52-11.16,94.71-1.86,41,29.69,86.14,39,49.53-11.15,94.72-1.85,41,29.69,86.14,39,49.53-11.15,94.72-1.85"/><path class="cls-103" d="M64.12,139.2c45.22,9.59,40.81,29.94,86,39.53s49.45-10.79,94.67-1.2,40.81,29.93,86,39.53,49.45-10.8,94.67-1.21,40.81,29.94,86,39.53,49.45-10.79,94.67-1.2,40.81,29.94,86,39.53l3.86.68c45.22,9.59,49.45-10.79,94.67-1.2s40.81,29.94,86,39.53,49.45-10.8,94.67-1.21,40.82,29.94,86,39.53,49.45-10.79,94.67-1.2,40.81,29.94,86,39.53,49.45-10.8,94.67-1.21"/><path class="cls-104" d="M64.38,138.41c45.19,9.3,41,29.69,86.14,39s49.53-11.15,94.72-1.85,41,29.69,86.14,39,49.53-11.15,94.72-1.85,40.95,29.69,86.14,39,49.53-11.15,94.72-1.85,41,29.69,86.14,39l4.23.77c45.07,9.84,49.48-10.51,94.56-.67s40.73,30.3,85.8,40.14,49.49-10.51,94.56-.67,40.74,30.3,85.81,40.14,49.48-10.5,94.56-.66,40.73,30.29,85.8,40.13,49.49-10.5,94.56-.66"/><path class="cls-105" d="M64.53,137.69c45.26,8.95,41,29.33,86.37,38.39s49.49-11.45,94.76-2.5,41,29.33,86.36,38.38,49.5-11.44,94.76-2.5,41,29.33,86.37,38.38,49.5-11.44,94.76-2.49,41,29.32,86.37,38.38l4.05.72c45.1,10.13,49.51-10.22,94.51,0s40.58,30.55,85.58,40.75,49.52-10.22,94.52,0,40.58,30.55,85.58,40.75,49.52-10.22,94.51,0,40.59,30.55,85.59,40.75,49.51-10.22,94.51,0"/><path class="cls-106" d="M64.79,136.91C110.13,145.49,106,166,151.2,174.64s49.47-11.73,94.8-3.14,41.19,29.08,86.42,37.73,49.46-11.73,94.8-3.15,41.18,29.08,86.41,37.74,49.46-11.73,94.8-3.15,41.18,29.08,86.41,37.74l5.13.95c44.85,10.45,49.37-10,94.29.59s40.44,30.8,85.36,41.36,49.37-10,94.29.59,40.44,30.8,85.36,41.36,49.37-10,94.29.59,40.44,30.8,85.36,41.35,49.37-10,94.29.59"/><path class="cls-107" d="M65,136c45.38,8.4,41.26,28.72,86.64,37.12s49.54-12.08,94.91-3.68,41.26,28.72,86.64,37.13,49.53-12.09,94.91-3.69,41.26,28.72,86.64,37.13,49.54-12.09,94.91-3.68,41.26,28.72,86.64,37.12l4.4.8c44.89,10.74,49.37-9.5,94.25,1.24s40.36,31.15,85.25,41.9,49.36-9.5,94.24,1.23,40.37,31.16,85.25,41.9,49.37-9.5,94.25,1.23,40.36,31.16,85.25,41.9,49.36-9.5,94.24,1.24"/><path class="cls-108" d="M65.14,135.29c45.45,8.05,41.4,28.47,86.85,36.52s49.51-12.38,95-4.33S288.35,196,333.81,204s49.5-12.37,95-4.33,41.4,28.47,86.85,36.52,49.51-12.38,95-4.33,41.41,28.47,86.86,36.52l4.23.76c44.8,11.1,49.39-9.21,94.2,1.89s40.22,31.4,85,42.5,49.39-9.21,94.2,1.88,40.22,31.41,85,42.51,49.39-9.22,94.2,1.88,40.22,31.41,85,42.5,49.4-9.21,94.21,1.89"/><path class="cls-109" d="M65.39,134.5c45.43,7.76,41.48,28.11,87,36s49.47-12.66,95-5,41.48,28.11,87,36c45.53,7.69,49.47-12.66,95-5s41.47,28.12,87,36c45.53,7.69,49.47-12.66,95-5s41.48,28.12,87,36l4.58.84c44.77,11.28,49.36-9,94.09,2.43S837,298.4,881.77,309.86c44.76,11.27,49.35-9,94.09,2.42s40.07,31.66,84.8,43.11c44.77,11.28,49.43-8.92,94.09,2.43s40.14,31.76,84.8,43.11,49.43-8.93,94.09,2.42"/><path class="cls-110" d="M65.55,133.79c45.5,7.39,41.62,27.86,87.12,35.26s49.55-13,95.05-5.63,41.62,27.86,87.12,35.26,49.55-13,95.05-5.62,41.63,27.86,87.12,35.26,49.55-13,95-5.63,41.62,27.86,87.12,35.26l5.12,1c44.59,11.7,49.36-8.57,93.94,3.14s40,32,84.58,43.72,49.35-8.57,93.94,3.14,40,32,84.58,43.72,49.35-8.56,93.93,3.14,40,32,84.58,43.73,49.36-8.57,93.94,3.13"/><path class="cls-111" d="M65.81,133c45.64,7.15,41.7,27.5,87.24,34.72s49.51-13.31,95.16-6.17,41.7,27.51,87.23,34.73S385,183,430.6,190.11s41.71,27.51,87.24,34.73,49.52-13.32,95.16-6.17,41.71,27.51,87.24,34.73l4.94.91C749.73,266.2,754.39,246,799,258s39.85,32.27,84.46,44.26,49.21-8.31,93.83,3.68,39.84,32.27,84.46,44.26,49.21-8.32,93.82,3.68,39.85,32.26,84.47,44.26,49.2-8.32,93.82,3.68"/><path class="cls-112" d="M66,132.28c45.61,6.86,41.74,27.32,87.46,34.11s49.48-13.6,95.21-6.81,41.73,27.33,87.46,34.12,49.48-13.61,95.2-6.82S473,214.21,518.75,221s49.48-13.6,95.21-6.81,41.74,27.32,87.46,34.11l4.76.88c44.54,12.35,49.31-7.92,93.78,4.32s39.77,32.63,84.24,44.87,49.31-7.91,93.78,4.33,39.77,32.62,84.24,44.87,49.31-7.92,93.78,4.32,39.78,32.63,84.25,44.88,49.3-7.92,93.77,4.32"/><path class="cls-113" d="M66.22,131.49c45.69,6.5,41.82,27,87.58,33.58s49.56-14,95.25-7.46,41.81,27,87.57,33.57,49.56-14,95.25-7.46,41.81,27,87.57,33.58,49.56-14,95.25-7.46,41.82,27,87.68,33.51l5,.91c44.57,12.64,49.34-7.63,93.73,5s39.63,32.87,84,45.47,49.27-7.74,93.67,4.87,39.62,32.87,84,45.48,49.27-7.74,93.66,4.86,39.63,32.88,84,45.48,49.27-7.74,93.67,4.86"/><path class="cls-114" d="M66.37,130.77c45.77,6.15,42,26.72,87.73,32.86s49.53-14.25,95.29-8.11,42,26.72,87.73,32.86,49.52-14.25,95.29-8.1,42,26.71,87.73,32.85,49.52-14.24,95.29-8.1,42,26.71,87.72,32.86l5.67,1.06c44.31,13,49.19-7.38,93.51,5.59s39.48,33.12,83.8,46.08,49.19-7.38,93.51,5.59,39.48,33.12,83.8,46.08,49.19-7.38,93.51,5.59S1196.43,381,1240.74,394s49.2-7.38,93.52,5.59"/><path class="cls-115" d="M66.64,130c45.8,6,42,26.36,88,32.25s49.49-14.53,95.4-8.64,42,26.35,87.95,32.25,49.49-14.54,95.41-8.65,42,26.36,87.95,32.25,49.49-14.53,95.4-8.64,42,26.35,87.95,32.25l4.76.88c44.36,13.25,49.19-6.92,93.47,6.22s39.41,33.49,83.69,46.63S935.76,279.87,980,293s39.4,33.48,83.68,46.63,49.19-6.92,93.47,6.22,39.4,33.49,83.68,46.63,49.19-6.91,93.47,6.23"/><path class="cls-116" d="M66.89,129.2c45.88,5.6,42.19,26.1,88.07,31.71s49.57-14.9,95.45-9.3,42.19,26.11,88.07,31.71S388,168.43,433.92,174s42.19,26.11,88.07,31.71,49.56-14.89,95.44-9.29,42.19,26.11,88.07,31.71l5.12,1c44.21,13.5,49.15-6.73,93.36,6.77s39.25,33.73,83.46,47.23,49.15-6.73,93.35,6.77,39.26,33.73,83.46,47.23,49.15-6.73,93.36,6.77,39.25,33.73,83.46,47.24,49.15-6.74,93.35,6.76"/><path class="cls-117" d="M67.05,128.48c46,5.24,42.26,25.74,88.28,31.1s49.54-15.18,95.5-9.94,42.26,25.75,88.28,31.1,49.54-15.18,95.5-9.94,42.26,25.75,88.29,31.11,49.53-15.19,95.49-9.94,42.26,25.75,88.28,31.1l5,.91c44.23,13.79,49.18-6.44,93.31,7.42s39.11,34,83.24,47.85,49.18-6.45,93.31,7.41,39.11,34,83.23,47.84,49.19-6.44,93.31,7.42,39.11,34,83.24,47.84,49.18-6.45,93.31,7.41"/><path class="cls-118" d="M67.31,127.69c45.92,5,42.41,25.5,88.33,30.45s49.5-15.47,95.54-10.58,42.41,25.49,88.33,30.45S389,162.54,435,167.43s42.41,25.49,88.33,30.45,49.51-15.47,95.54-10.58,42.41,25.49,88.33,30.45l6,1.14c44,14.11,49.11-6.08,93.09,8s39,34.34,83,48.45,49.11-6.08,93.09,8,39,34.34,83,48.45,49.11-6.09,93.09,8,39,34.34,83,48.45,49.1-6.08,93.08,8"/><path class="cls-119" d="M67.46,127c46.07,4.71,42.49,25.14,88.55,29.85S205.6,141,251.67,145.69s42.48,25.14,88.55,29.85,49.58-15.83,95.65-11.12,42.48,25.13,88.55,29.84,49.58-15.83,95.65-11.12,42.49,25.13,88.56,29.84l5.3,1c44,14.4,49-5.72,93,8.67s38.89,34.6,82.9,49,49-5.73,93,8.67,38.88,34.59,82.9,49,49-5.73,93,8.67,38.89,34.59,82.9,49,49-5.73,93,8.67"/><path class="cls-120" d="M67.72,126.18c46.15,4.35,42.63,24.89,88.78,29.24s49.55-16.12,95.69-11.77,42.63,24.89,88.78,29.23,49.55-16.11,95.69-11.77,42.63,24.89,88.78,29.24,49.55-16.12,95.69-11.77,42.63,24.89,88.78,29.24l4.94.91c43.94,14.76,49.07-5.44,93,9.32s38.74,34.84,82.68,49.6,49.06-5.44,93,9.32,38.74,34.84,82.68,49.6,49.06-5.44,93,9.32,38.74,34.84,82.68,49.6,49.06-5.44,93,9.31"/><path class="cls-121" d="M67.8,125.36c46.12,4.06,42.78,24.63,88.9,28.69s49.51-16.4,95.62-12.34,42.78,24.63,88.89,28.7S390.73,154,437,158s42.78,24.63,88.89,28.7,49.52-16.41,95.74-12.42,42.78,24.64,88.89,28.7l5.84,1.1c43.79,15,49.1-5.15,92.89,9.86s38.66,35.2,82.45,50.21,49.1-5.15,92.89,9.85S1023.2,309.2,1067,324.2s49.1-5.15,92.89,9.86,38.59,35.09,82.38,50.1,49.1-5.15,92.89,9.85"/><path class="cls-122" d="M68.07,124.57c46.18,3.7,42.85,24.28,89,28s49.59-16.77,95.67-13,42.85,24.28,89,28,49.6-16.76,95.68-13,42.85,24.28,89,28,49.59-16.77,95.78-13.06,42.85,24.27,89,28l6.38,1.22c43.71,15.36,49-4.8,92.73,10.57s38.52,35.45,82.24,50.82,49-4.79,92.73,10.57,38.45,35.35,82.16,50.71,49-4.79,92.74,10.57,38.44,35.35,82.16,50.72,49-4.8,92.73,10.57"/><path class="cls-123" d="M68.22,123.85c46.22,3.52,43,24,89.16,27.44s49.55-17,95.78-13.53,43,24,89.16,27.44,49.55-17,95.78-13.53,43,24,89.16,27.44,49.56-17.05,95.79-13.53,43,24,89.15,27.44l6.56,1.26c43.57,15.61,49-4.43,92.62,11.11s38.37,35.7,82,51.25,48.94-4.43,92.62,11.11,38.37,35.71,82,51.25,48.94-4.44,92.62,11.11,38.37,35.7,82,51.25,49-4.43,92.62,11.11"/><path class="cls-124" d="M68.48,123.06c46.3,3.17,43.08,23.67,89.38,26.83s49.53-17.34,95.83-14.18,43.07,23.67,89.38,26.84,49.52-17.35,95.83-14.18S482,172,528.28,175.2,577.8,157.86,624.11,161s43.07,23.67,89.38,26.83l6.2,1.19c43.6,15.9,49-4.15,92.57,11.76s38.23,35.95,81.83,51.85,49-4.14,92.57,11.76,38.23,35.95,81.83,51.86,49-4.15,92.57,11.76,38.23,36,81.83,51.86,49-4.15,92.58,11.76"/><path class="cls-125" d="M68.74,122.27c46.38,2.81,43.23,23.42,89.49,26.3s49.61-17.7,95.88-14.83,43.22,23.42,89.49,26.3,49.6-17.71,95.87-14.83S482.7,168.63,529,171.5s49.6-17.7,95.87-14.82S668.07,180.1,714.33,183l6.56,1.26c43.46,16.15,48.94-4,92.47,12.3S851.43,232.73,895,249s48.94-4,92.46,12.3,38.08,36.21,81.6,52.47,48.94-4,92.46,12.29,38.08,36.21,81.6,52.47,48.94-4,92.47,12.3"/><path class="cls-126" d="M68.89,121.56c46.35,2.51,43.3,23.06,89.72,25.68s49.57-18,95.91-15.47,43.31,23.06,89.72,25.68,49.57-18,95.92-15.47,43.3,23.06,89.71,25.68,49.58-18,95.92-15.47,43.3,23.06,89.72,25.69l6.38,1.22c43.48,16.44,49-3.57,92.42,12.94s38,36.56,81.37,53.08,49.05-3.57,92.43,12.94,38,36.56,81.37,53.08,49-3.57,92.42,12.94,38,36.56,81.38,53.08,49-3.57,92.42,12.94"/><path class="cls-127" d="M69.15,120.77c46.49,2.26,43.45,22.81,89.87,25s49.54-18.27,96-16,43.45,22.81,89.87,25,49.54-18.28,96-16,43.45,22.81,89.87,25,49.54-18.28,96-16,43.45,22.81,89.87,25l6.2,1.18c43.3,16.88,48.86-3.14,92.27,13.67s37.85,36.81,81.26,53.61,48.86-3.14,92.27,13.66,37.85,36.82,81.26,53.61,48.86-3.13,92.27,13.67,37.85,36.81,81.26,53.61,48.86-3.14,92.27,13.66"/><path class="cls-128" d="M69.3,120.05c46.57,1.91,43.53,22.45,90,24.43s49.61-18.64,96.07-16.66,43.53,22.45,90,24.43,49.62-18.64,96.08-16.66S484.94,158,531.4,160s49.62-18.64,96.08-16.66,43.52,22.45,90,24.43l6.74,1.3c43.26,17,48.82-3,92.15,14.2s37.71,37.06,81,54.22,48.82-3,92.16,14.2,37.7,37.06,81,54.22,48.83-3,92.16,14.2,37.71,37.07,81,54.22,48.82-3,92.15,14.2"/><path class="cls-129" d="M69.57,119.26c46.53,1.62,43.66,22.2,90.2,23.82s49.58-18.92,96.12-17.3,43.67,22.2,90.21,23.81,49.58-18.92,96.11-17.3,43.67,22.2,90.21,23.82S582,137.18,628.54,138.8s43.67,22.2,90.2,23.82l6.38,1.22c43.19,17.41,48.93-2.56,92.11,14.85s37.63,37.42,80.82,54.83S947,231,990.16,248.37s37.63,37.42,80.82,54.83,48.92-2.56,92.11,14.85,37.63,37.42,80.81,54.83,48.93-2.56,92.11,14.85"/><path class="cls-130" d="M70.56,114.13c46.46,2,43.42,22.52,90,24.43S210.05,120,256.62,121.9s43.41,22.52,90,24.43,49.62-18.64,96.07-16.66,43.42,22.52,90,24.43,49.61-18.64,96.07-16.66,43.42,22.52,90,24.43l6.73,1.29c43.34,17.16,48.89-2.85,92.16,14.2s37.77,37.18,81,54.23,48.89-2.85,92.15,14.2,37.78,37.17,81,54.22,48.89-2.85,92.15,14.2,37.78,37.17,81,54.22,48.9-2.85,92.16,14.2"/><path class="cls-131" d="M71.66,108.92c46.5,2.27,43.34,22.88,89.84,25.15s49.53-18.28,96.1-15.9,43.34,22.88,89.83,25.14S397,125,443.53,127.41s43.34,22.88,89.83,25.15,49.54-18.28,96.1-15.9,43.34,22.88,89.83,25.14l5.66,1.07c43.41,16.8,48.9-3.32,92.31,13.48s38,36.74,81.37,53.55,48.9-3.32,92.31,13.48,38,36.74,81.37,53.54,48.89-3.32,92.3,13.49,38,36.74,81.38,53.54,48.89-3.32,92.3,13.48"/><path class="cls-132" d="M72.66,103.79c46.41,2.63,43.26,23.24,89.68,25.86s49.53-17.81,96-15.18,43.26,23.24,89.67,25.86,49.54-17.81,96-15.18,43.26,23.24,89.67,25.86,49.64-17.88,95.95-15.18,43.27,23.24,89.68,25.86l5.84,1.11c43.49,16.44,49-3.68,92.46,12.76s38,36.39,81.52,52.83,49-3.68,92.46,12.77,38,36.38,81.53,52.82,49-3.68,92.45,12.76,38,36.39,81.53,52.83,49-3.68,92.46,12.77"/><path class="cls-133" d="M73.76,98.59c46.34,3,43.12,23.49,89.46,26.47s49.56-17.52,95.9-14.54S302.24,134,348.58,137s49.57-17.53,95.9-14.54S487.6,146,533.94,148.93s49.57-17.52,95.91-14.54S673,157.88,719.3,160.87l6,1.14c43.57,16.08,48.94-4,92.51,12.12s38.18,36.13,81.74,52.21,48.94-4,92.5,12.12,38.19,36.14,81.75,52.22,48.94-4,92.5,12.12,38.19,36.13,81.75,52.21,48.94-4,92.5,12.12"/><path class="cls-134" d="M74.76,93.45c46.26,3.35,43,23.85,89.3,27.19s49.49-17.16,95.75-13.82,43.05,23.85,89.31,27.2,49.49-17.17,95.75-13.83,43,23.85,89.31,27.2S583.67,130.22,630,133.5s43,23.85,89.3,27.19l5.59,1c43.79,15.47,49.09-4.69,92.81,10.68s38.51,35.45,82.23,50.82,49.09-4.69,92.81,10.68,38.51,35.45,82.23,50.82,49.09-4.68,92.8,10.68,38.52,35.45,82.23,50.82,49.09-4.68,92.81,10.68"/><path class="cls-135" d="M75.86,88.25c46.19,3.7,42.86,24.28,89.05,28s49.52-16.88,95.78-13.07,42.85,24.28,89,28,49.52-16.87,95.78-13.06,42.85,24.28,89.15,27.91,49.52-16.88,95.78-13.07,42.86,24.28,89.15,27.91l5.77,1c43.64,15.73,49-4.32,92.66,11.4s38.33,35.88,82,51.61,49-4.33,92.65,11.4,38.26,35.77,81.9,51.5,49-4.33,92.65,11.4,38.26,35.77,81.9,51.5,49-4.33,92.65,11.39"/><path class="cls-136" d="M76.86,83.12c46.11,4.06,42.7,24.52,88.82,28.58s49.51-16.4,95.73-12.41,42.71,24.53,88.82,28.59,49.52-16.41,95.74-12.42,42.71,24.53,88.82,28.59,49.51-16.41,95.74-12.42,42.7,24.53,88.82,28.59l6.2,1.18c43.79,15,49-5.08,92.78,9.93s38.66,35.2,82.45,50.21,49-5.08,92.78,9.92,38.66,35.21,82.45,50.22,49-5.09,92.78,9.92,38.66,35.2,82.45,50.21,49-5.08,92.78,9.93"/><path class="cls-137" d="M77.85,78c46,4.42,42.63,24.89,88.67,29.31s49.55-16.12,95.58-11.7,42.64,24.89,88.67,29.31,49.55-16.12,95.59-11.7S489,138.08,535,142.5s49.55-16.12,95.59-11.7,42.63,24.89,88.67,29.31l6.38,1.22c43.86,14.65,49.06-5.44,92.93,9.21s38.74,34.84,82.6,49.49,49.07-5.44,92.93,9.21,38.74,34.84,82.61,49.49,49.06-5.44,92.93,9.21,38.74,34.84,82.61,49.49,49.06-5.44,92.93,9.21"/><path class="cls-138" d="M79,72.78c46.06,4.71,42.55,25.24,88.51,30S216.94,87,263,91.75s42.56,25.25,88.52,30S401,106,447.07,110.72s42.55,25.25,88.51,30S585.06,125,631.13,129.7s42.55,25.24,88.51,30l5.84,1.11c43.94,14.28,49.07-5.91,93.08,8.49s38.82,34.48,82.83,48.88,49.07-5.91,93.09,8.49,38.81,34.48,82.83,48.88,49.07-5.9,93.08,8.49,38.81,34.49,82.83,48.89,49.07-5.91,93.08,8.49"/><path class="cls-139" d="M80,67.65c46,5.06,42.41,25.49,88.29,30.63S217.82,82.92,263.81,88s42.41,25.5,88.29,30.64,49.58-15.37,95.57-10.3S490.08,133.82,536,139s49.57-15.36,95.56-10.29,42.41,25.49,88.3,30.63l5.66,1.07c44,13.93,49-6.2,93.12,7.84s39.07,34.17,83.16,48.2,49-6.19,93.13,7.85,39.07,34.16,83.16,48.2,49-6.19,93.13,7.84,39.07,34.17,83.16,48.21,49-6.2,93.12,7.84"/><path class="cls-140" d="M81.05,62.44C127,67.87,123.28,88.37,169.2,93.79s49.49-15,95.41-9.58,42.23,25.93,88.14,31.35,49.5-15,95.42-9.57,42.22,25.92,88.14,31.35,49.5-15,95.41-9.58,42.23,25.92,88.14,31.35l5.67,1.07c44.16,13.68,49.11-6.56,93.27,7.12s39.15,33.81,83.32,47.49,49.11-6.55,93.28,7.13,39.14,33.8,83.31,47.48,49.11-6.55,93.28,7.13,39.14,33.8,83.31,47.48,49.11-6.55,93.28,7.13"/><path class="cls-141" d="M82.05,57.31c45.84,5.78,42.15,26.28,88,32.07s49.53-14.72,95.37-8.93,42.15,26.28,88,32.06,49.53-14.71,95.37-8.93,42.15,26.29,88,32.07,49.53-14.71,95.37-8.93,42.15,26.28,88,32.07l5.3,1c44.24,13.32,49.19-6.91,93.43,6.41s39.3,33.56,83.54,46.88,49.19-6.92,93.43,6.41,39.29,33.55,83.54,46.87,49.18-6.91,93.43,6.41,39.29,33.55,83.53,46.87,49.19-6.91,93.43,6.41"/><path class="cls-142" d="M83.15,52.1c45.77,6.15,42,26.54,87.77,32.68s49.45-14.35,95.33-8.28,42,26.53,87.76,32.68,49.46-14.36,95.33-8.29,42,26.54,87.76,32.68,49.46-14.36,95.34-8.29,42,26.54,87.76,32.68"/><path class="cls-143" d="M84.15,47c45.68,6.5,41.92,26.89,87.61,33.4s49.56-14,95.18-7.57,41.92,26.89,87.61,33.4,49.56-14,95.18-7.57,41.92,26.89,87.61,33.39,49.56-14,95.25-7.45S674.51,151.46,720.2,158l5.48,1c44.4,12.61,49.24-7.56,93.63,5s39.63,32.87,84,45.48,49.23-7.56,93.63,5,39.51,32.94,83.91,45.55,49.23-7.56,93.62,5,39.52,33,83.91,45.55,49.24-7.56,93.63,5.05"/><path class="cls-144" d="M85.25,41.77C130.86,48.63,127.1,69,172.71,75.88s49.48-13.6,95.21-6.81,41.85,27.25,87.46,34.11,49.48-13.6,95.2-6.81,41.85,27.26,87.46,34.12,49.48-13.6,95.21-6.81,41.85,27.25,87.46,34.11l4.58.84c44.47,12.24,49.31-7.92,93.78,4.32s39.77,32.63,84.24,44.87,49.31-7.91,93.78,4.33,39.77,32.62,84.24,44.87,49.31-7.92,93.78,4.32,39.78,32.63,84.25,44.88,49.3-7.92,93.77,4.32"/><path class="cls-145" d="M86.25,36.63c45.64,7.15,41.66,27.69,87.23,34.73S223,58,268.64,65.19s41.67,27.69,87.24,34.73S405.4,86.6,451,93.75s41.67,27.68,87.24,34.72,49.52-13.31,95.16-6.16S675.11,150,720.68,157l4.94.92c44.51,12.06,49.21-8.32,93.83,3.68s39.84,32.26,84.46,44.26,49.21-8.32,93.82,3.68,39.85,32.26,84.47,44.26,49.2-8.32,93.82,3.68,39.85,32.26,84.47,44.26,49.2-8.32,93.82,3.67"/><path class="cls-146" d="M87.35,31.43c45.57,7.51,41.52,27.93,87.09,35.44s49.44-13,95-5.45S311,89.36,356.53,96.86s49.44-13,95-5.44,41.52,27.93,87.08,35.44,49.44-13,95-5.45,41.52,27.94,87.09,35.44l4.94.92c44.69,11.64,49.28-8.67,94,3s39.92,31.91,84.61,43.54,49.29-8.67,94,3,39.92,31.91,84.62,43.55,49.28-8.68,94,3,39.93,31.9,84.62,43.54,49.28-8.68,94,3"/><path class="cls-147" d="M88.34,26.3c45.5,7.86,41.45,28.29,86.94,36.16s49.54-12.56,95-4.8S311.69,86,357.18,93.81s49.54-12.55,95-4.8,41.44,28.3,86.93,36.16,49.55-12.55,95-4.79,41.44,28.29,86.93,36.15l4.59.84c44.77,11.28,49.46-9.1,94.12,2.25s40.08,31.65,84.85,42.93,49.35-9,94.12,2.24,40.07,31.66,84.84,42.94,49.36-9,94.13,2.24,40.07,31.66,84.84,42.93,49.36-9,94.13,2.25"/><path class="cls-148" d="M89.45,21.09c45.41,8.23,41.36,28.65,86.71,36.77s49.47-12.2,94.88-4,41.37,28.65,86.71,36.77,49.47-12.2,94.89-4,41.36,28.65,86.71,36.77,49.46-12.2,94.88-4,41.37,28.65,86.71,36.76l4.84,1c44.73,11,49.32-9.32,94.17,1.6s40.25,31.22,85.1,42.14,49.32-9.32,94.17,1.6,40.25,31.23,85.1,42.14,49.32-9.32,94.17,1.6,40.26,31.23,85.1,42.15,49.33-9.33,94.17,1.59"/><path class="cls-149" d="M90.44,16c45.34,8.58,41.22,28.9,86.56,37.48s49.5-11.91,94.84-3.32S313.06,79,358.4,87.6s49.5-11.91,94.84-3.32,41.22,28.9,86.56,37.48,49.5-11.91,94.84-3.32,41.22,28.9,86.56,37.48l4.4.81c44.92,10.55,49.4-9.68,94.32.87s40.41,31,85.33,41.54,49.4-9.68,94.32.88,40.4,31,85.33,41.54,49.4-9.68,94.32.87,40.4,31,85.32,41.54,49.4-9.68,94.33.88"/><path class="cls-150" d="M91.44,10.83c45.26,8.94,41,29.33,86.41,38.2s49.42-11.55,94.79-2.68,41,29.33,86.41,38.2S408.47,73,453.84,81.88s41,29.33,86.41,38.2,49.42-11.55,94.79-2.68,41,29.33,86.41,38.2l4,.73c45.07,10.31,49.48-10,94.47.16s40.55,30.73,85.55,40.93,49.48-10,94.47.16,40.56,30.72,85.55,40.92,49.48-10,94.48.17,40.55,30.72,85.54,40.92,49.48-10,94.48.16"/><path class="cls-151" d="M92.54,5.62c45.3,9.23,41,29.69,86.18,38.81s49.53-11.15,94.65-2c45.29,9.24,41,29.69,86.18,38.82s49.53-11.16,94.64-2c45.3,9.23,41,29.68,86.19,38.81s49.52-11.16,94.64-2c45.3,9.23,41,29.69,86.19,38.81l4.76.88c45,10,49.38-10.44,94.52-.49,45,9.91,40.55,30.26,85.7,40.21s49.37-10.44,94.52-.49c45,9.92,40.55,30.26,85.7,40.21s49.37-10.43,94.52-.49c45,9.92,40.55,30.27,85.69,40.21s49.38-10.43,94.52-.48"/><path class="cls-152" d="M93.54.49c45.22,9.59,40.81,29.94,86,39.53s49.45-10.8,94.67-1.21,40.81,29.94,86,39.53,49.45-10.79,94.67-1.2,40.81,29.94,86,39.53,49.45-10.8,94.67-1.21,40.81,29.94,86,39.53l3.87.69c45.22,9.59,49.45-10.79,94.67-1.2s40.81,29.94,86,39.53,49.45-10.8,94.67-1.21,40.81,29.94,86,39.53,49.45-10.79,94.67-1.2,40.81,29.94,86,39.53,49.45-10.8,94.67-1.21"/></g></g></svg>