<svg width="40" height="40" viewBox="0 0 40 40" fill="none" xmlns="http://www.w3.org/2000/svg">
<path d="M6.32812 30.625V9.375C6.32812 5.06023 9.82586 1.5625 14.1406 1.5625H9.375C5.06023 1.5625 1.5625 5.06023 1.5625 9.375V30.625C1.5625 34.9397 5.06023 38.4375 9.375 38.4375H14.1406C9.82586 38.4375 6.32812 34.9397 6.32812 30.625Z" fill="#CEE1F2"/>
<path d="M30.625 40H9.375C4.20563 40 0 35.7944 0 30.625V9.375C0 4.20563 4.20563 0 9.375 0H30.625C35.7944 0 40 4.20563 40 9.375V30.625C40 35.7944 35.7944 40 30.625 40ZM9.375 3.125C5.92875 3.125 3.125 5.92875 3.125 9.375V30.625C3.125 34.0713 5.92875 36.875 9.375 36.875H30.625C34.0713 36.875 36.875 34.0713 36.875 30.625V9.375C36.875 5.92875 34.0713 3.125 30.625 3.125H9.375ZM9.45312 31.6406V25.0781C9.45312 24.2152 8.75359 23.5156 7.89062 23.5156C7.02766 23.5156 6.32812 24.2152 6.32812 25.0781V31.6406C6.32812 32.5036 7.02766 33.2031 7.89062 33.2031C8.75359 33.2031 9.45312 32.5036 9.45312 31.6406ZM27.6562 31.6406V18.5938C27.6562 17.7308 26.9567 17.0312 26.0938 17.0312C25.2308 17.0312 24.5312 17.7308 24.5312 18.5938V31.6406C24.5312 32.5036 25.2308 33.2031 26.0938 33.2031C26.9567 33.2031 27.6562 32.5036 27.6562 31.6406ZM33.75 31.6406V28.2031C33.75 27.3402 33.0505 26.6406 32.1875 26.6406C31.3245 26.6406 30.625 27.3402 30.625 28.2031V31.6406C30.625 32.5036 31.3245 33.2031 32.1875 33.2031C33.0505 33.2031 33.75 32.5036 33.75 31.6406Z" fill="#0852ED"/>
<path d="M20 33.2031C19.137 33.2031 18.4375 32.5036 18.4375 31.6406V8.4375C18.4375 7.57453 19.137 6.875 20 6.875C20.863 6.875 21.5625 7.57453 21.5625 8.4375V31.6406C21.5625 32.5036 20.863 33.2031 20 33.2031ZM15.5469 31.6406V13.9062C15.5469 13.0433 14.8473 12.3438 13.9844 12.3438C13.1214 12.3438 12.4219 13.0433 12.4219 13.9062V31.6406C12.4219 32.5036 13.1214 33.2031 13.9844 33.2031C14.8473 33.2031 15.5469 32.5036 15.5469 31.6406Z" fill="#00E1AB"/>
</svg>
