<svg width="40" height="40" viewBox="0 0 40 40" fill="none" xmlns="http://www.w3.org/2000/svg">
<g clip-path="url(#clip0)">
<path d="M22.4151 28.652C21.6499 28.8681 20.8412 28.9844 20 28.9844C15.038 28.9844 11.0156 24.962 11.0156 20C11.0156 15.038 15.038 11.0156 20 11.0156C20.8412 11.0156 21.6499 11.1319 22.4151 11.348C18.6331 12.4076 15.8594 15.8797 15.8594 20C15.8594 24.1203 18.6331 27.5925 22.4151 28.652ZM6.25 20C6.25 10.6112 13.2677 2.86156 22.3438 1.71016C21.5763 1.61273 20.794 1.5625 20 1.5625C9.81727 1.5625 1.5625 9.81727 1.5625 20C1.5625 30.1827 9.81727 38.4375 20 38.4375C20.794 38.4375 21.5763 38.3873 22.3438 38.2899C13.2677 37.1384 6.25 29.3888 6.25 20Z" fill="#CEE1F2"/>
<path d="M20 40C14.6578 40 9.63539 37.9196 5.85781 34.1422C2.08039 30.3647 0 25.3422 0 20C0 14.6578 2.08039 9.63539 5.85781 5.85781C9.63539 2.08039 14.6578 0 20 0C26.4315 0 32.5126 3.1043 36.2669 8.30406C36.772 9.00375 36.6143 9.98039 35.9146 10.4855C35.2151 10.9907 34.2384 10.833 33.7331 10.1334C30.5648 5.745 25.4309 3.125 20 3.125C10.6951 3.125 3.125 10.6952 3.125 20C3.125 29.3048 10.6951 36.875 20 36.875C25.4309 36.875 30.5648 34.255 33.7331 29.8666C34.2384 29.167 35.2151 29.0092 35.9146 29.5144C36.6143 30.0195 36.772 30.9962 36.2669 31.6959C32.5126 36.8957 26.4315 40 20 40ZM27.5286 27.3371C28.129 26.7173 28.1131 25.728 27.4934 25.1277C26.8734 24.5273 25.8843 24.5431 25.2839 25.163C23.873 26.6196 21.9965 27.4219 20 27.4219C15.9076 27.4219 12.5781 24.0924 12.5781 20C12.5781 15.9076 15.9076 12.5781 20 12.5781C21.9965 12.5781 23.873 13.3804 25.2839 14.8371C25.8843 15.457 26.8735 15.4727 27.4934 14.8724C28.1132 14.272 28.129 13.2828 27.5286 12.663C25.5238 10.593 22.85 9.45312 20 9.45312C14.1845 9.45312 9.45312 14.1845 9.45312 20C9.45312 25.8155 14.1845 30.5469 20 30.5469C22.8501 30.5469 25.5238 29.407 27.5286 27.3371Z" fill="#0852ED"/>
<path d="M37.6941 21.5891C37.2667 21.1641 37.0312 20.5998 37.0312 20C37.0312 19.4003 37.2667 18.836 37.6941 18.411L39.539 16.5769C40.151 15.9685 40.154 14.9792 39.5455 14.3672C38.9371 13.7551 37.9476 13.7523 37.3358 14.3607L35.4909 16.1948C34.8508 16.8311 34.391 17.5992 34.1366 18.4376H20C19.137 18.4376 18.4375 19.1371 18.4375 20.0001C18.4375 20.8631 19.137 21.5626 20 21.5626H34.1366C34.391 22.401 34.8508 23.1691 35.4909 23.8054L37.3358 25.6395C37.6408 25.9424 38.039 26.0938 38.4375 26.0938C38.8389 26.0938 39.2402 25.94 39.5456 25.6328C40.154 25.0209 40.1511 24.0315 39.5391 23.4232L37.6941 21.5891Z" fill="#00E1AB"/>
</g>
<defs>
<clipPath id="clip0">
<rect width="40" height="40" fill="white"/>
</clipPath>
</defs>
</svg>
