<svg width="40" height="40" viewBox="0 0 40 40" fill="none" xmlns="http://www.w3.org/2000/svg">
<path d="M6.25 32.7315V17.0559C6.25 16.213 6.64328 15.4185 7.31344 14.9073L19.9496 5.26955C21.5638 4.03838 23.5378 3.519 25.4566 3.70838L24.7378 3.16018C21.9397 1.02604 18.0602 1.02604 15.262 3.16018L4.63703 11.264C2.69953 12.7418 1.5625 15.0391 1.5625 17.4759V30.6221C1.5625 34.7064 4.69695 38.0581 8.69148 38.4045C7.18805 36.9806 6.25 34.9656 6.25 32.7315Z" fill="#CEE1F2"/>
<path d="M30.625 39.9977H9.375C4.20563 39.9977 0 35.7921 0 30.6227V17.4766C0 14.571 1.37922 11.7844 3.68961 10.0223L14.3146 1.91844C17.6621 -0.634761 22.338 -0.634761 25.6855 1.91844L36.3105 10.0223C38.6208 11.7843 40 14.5709 40 17.4766V30.6227C40 35.7921 35.7944 39.9977 30.625 39.9977ZM20 3.12657C18.6628 3.12657 17.3255 3.55211 16.2097 4.40313L5.58469 12.507C4.04453 13.6817 3.125 15.5395 3.125 17.4766V30.6227C3.125 34.069 5.92875 36.8727 9.375 36.8727H30.625C34.0713 36.8727 36.875 34.069 36.875 30.6227V17.4766C36.875 15.5395 35.9555 13.6818 34.4153 12.507L23.7903 4.40321C22.6745 3.55211 21.3372 3.12657 20 3.12657ZM25.6855 27.1394L33.2133 21.3963C33.8994 20.8728 34.0312 19.8923 33.5078 19.2063C32.9845 18.5202 32.0038 18.3883 31.3179 18.9117L23.7902 24.6548C21.5585 26.3569 18.4413 26.3569 16.2079 24.6534L8.75828 18.9884C8.07141 18.466 7.09109 18.5994 6.56875 19.2863C6.04641 19.9732 6.17977 20.9535 6.86664 21.4759L14.3145 27.1395C15.9883 28.4161 17.9941 29.0544 19.9998 29.0544C22.0059 29.0543 24.0118 28.416 25.6855 27.1394Z" fill="#0852ED"/>
<path d="M15.0781 15.8565C14.6793 15.8565 14.2807 15.7048 13.9758 15.4014C13.3643 14.7927 13.3619 13.8033 13.9707 13.1916L16.4451 10.7057C18.4272 8.72375 21.6485 8.72328 23.6282 10.7023L26.1071 13.1914C26.716 13.8028 26.714 14.7922 26.1025 15.4011C25.4911 16.01 24.5018 16.008 23.8928 15.3965L21.4165 12.9099C20.6574 12.1512 19.4185 12.1515 18.6574 12.9129L16.1855 15.3962C15.8802 15.703 15.4792 15.8565 15.0781 15.8565ZM21.6406 21.4034V16.5596C21.6406 15.6966 20.941 14.9971 20.0781 14.9971C19.2151 14.9971 18.5156 15.6966 18.5156 16.5596V21.4034C18.5156 22.2663 19.2151 22.9659 20.0781 22.9659C20.941 22.9659 21.6406 22.2662 21.6406 21.4034Z" fill="#00E1AB"/>
</svg>
