<svg width="40" height="40" viewBox="0 0 40 40" fill="none" xmlns="http://www.w3.org/2000/svg">
<path d="M6.34871 16.4718C6.34871 9.00664 11.8348 2.82286 18.9953 1.73221C18.2571 1.61972 17.501 1.5614 16.7314 1.5614C8.49659 1.5614 1.82092 8.23707 1.82092 16.4719C1.82092 24.7067 8.49659 31.3823 16.7314 31.3823C17.501 31.3823 18.2571 31.3239 18.9953 31.2114C11.8349 30.1207 6.34871 23.937 6.34871 16.4718Z" fill="#CEE1F2"/>
<path d="M16.487 32.9435C7.40444 32.9435 0.0152588 25.5543 0.0152588 16.4718C0.0152588 7.38919 7.40444 0 16.487 0C25.5696 0 32.9588 7.38919 32.9588 16.4718C32.9588 25.5543 25.5696 32.9435 16.487 32.9435ZM16.487 3.12261C9.12625 3.12261 3.13787 9.11099 3.13787 16.4718C3.13787 23.8325 9.12625 29.8209 16.487 29.8209C23.8478 29.8209 29.8362 23.8325 29.8362 16.4718C29.8362 9.11099 23.8478 3.12261 16.487 3.12261Z" fill="#0852ED"/>
<path d="M38.4233 40.0001C38.0238 40.0001 37.6242 39.8477 37.3193 39.5428L30.3324 32.556C29.7227 31.9462 29.7227 30.9576 30.3324 30.3479C30.9422 29.7381 31.9308 29.7381 32.5405 30.3479L39.5273 37.3348C40.137 37.9445 40.137 38.9331 39.5273 39.5428C39.2225 39.8476 38.8229 40.0001 38.4233 40.0001ZM18.3722 20.8927L24.5422 14.684C25.1501 14.0723 25.1469 13.0838 24.5353 12.476C23.9238 11.8682 22.9353 11.8711 22.3273 12.4829L16.156 18.693C15.8292 19.0226 15.3956 19.2042 14.9351 19.2042C14.4747 19.2042 14.0411 19.0226 13.7144 18.693L10.7259 15.6787C10.1188 15.0664 9.1303 15.062 8.51795 15.6692C7.90561 16.2763 7.90139 17.2649 8.50843 17.8772L11.4969 20.8915C12.4147 21.817 13.6357 22.3267 14.9352 22.3267C16.2348 22.3267 17.4558 21.817 18.3722 20.8927Z" fill="#00E1AB"/>
</svg>
