<svg width="40" height="40" viewBox="0 0 40 40" fill="none" xmlns="http://www.w3.org/2000/svg">
<g clip-path="url(#clip0)">
<path d="M22.3438 19.8813C21.6541 20.2804 20.8541 20.51 20 20.51C17.4112 20.51 15.3125 18.4113 15.3125 15.8225C15.3125 13.2337 17.4112 11.135 20 11.135C20.8541 11.135 21.6541 11.3646 22.3438 11.7637C20.943 12.5743 20 14.0878 20 15.8225C20 17.5572 20.943 19.0707 22.3438 19.8813ZM27.2656 28.4335C27.2656 26.031 28.7122 23.9674 30.7812 23.0631C30.0634 22.7494 29.2711 22.5742 28.4375 22.5742C25.2015 22.5742 22.5781 25.1975 22.5781 28.4335C22.5781 31.6695 25.2015 34.2929 28.4375 34.2929C29.2711 34.2929 30.0634 34.1177 30.7812 33.804C28.7122 32.8996 27.2656 30.836 27.2656 28.4335ZM6.40625 22.1929V9.37399C6.40625 5.06103 9.89406 1.5647 14.1966 1.5647H9.45312C5.13836 1.5647 1.64062 5.06243 1.64062 9.3772V22.1897C1.64062 26.5045 5.13836 30.0022 9.45312 30.0022H14.1966C9.89406 30.0022 6.40625 26.5059 6.40625 22.1929Z" fill="#CEE1F2"/>
<path d="M16.5625 31.5651H9.37336C4.20492 31.5651 0 27.3602 0 22.1917V9.37756C0 4.20819 4.20563 0.00256348 9.375 0.00256348H30.625C35.7944 0.00256348 40 4.20819 40 9.37756V22.1901C40 23.053 39.3005 23.7526 38.4375 23.7526C37.5745 23.7526 36.875 23.053 36.875 22.1901V9.37756C36.875 5.93131 34.0713 3.12756 30.625 3.12756H9.375C5.92875 3.12756 3.125 5.93131 3.125 9.37756V22.1917C3.125 25.6371 5.92805 28.4401 9.37336 28.4401H16.5625C17.4255 28.4401 18.125 29.1396 18.125 30.0026C18.125 30.8655 17.4255 31.5651 16.5625 31.5651ZM35.8594 28.4339C35.8594 24.3415 32.5299 21.012 28.4375 21.012C24.3451 21.012 21.0156 24.3415 21.0156 28.4339C21.0156 32.5263 24.3451 35.8558 28.4375 35.8558C32.5299 35.8558 35.8594 32.5263 35.8594 28.4339ZM32.7344 28.4339C32.7344 30.8032 30.8068 32.7308 28.4375 32.7308C26.0682 32.7308 24.1406 30.8032 24.1406 28.4339C24.1406 26.0646 26.0682 24.137 28.4375 24.137C30.8068 24.137 32.7344 26.0646 32.7344 28.4339ZM26.25 15.8229C26.25 12.3766 23.4463 9.57288 20 9.57288C16.5537 9.57288 13.75 12.3766 13.75 15.8229C13.75 19.2691 16.5537 22.0729 20 22.0729C23.4463 22.0729 26.25 19.2692 26.25 15.8229ZM23.125 15.8229C23.125 17.546 21.7231 18.9479 20 18.9479C18.2769 18.9479 16.875 17.546 16.875 15.8229C16.875 14.0998 18.2769 12.6979 20 12.6979C21.7231 12.6979 23.125 14.0998 23.125 15.8229Z" fill="#0852ED"/>
<path d="M38.4375 39.998C38.0381 39.998 37.6388 39.8459 37.3338 39.5414L35.1463 37.3582C34.5355 36.7486 34.5345 35.7592 35.1442 35.1485C35.7537 34.5377 36.7431 34.5368 37.3538 35.1463L39.5413 37.3295C40.1521 37.9391 40.1531 38.9285 39.5435 39.5392C39.2383 39.845 38.8379 39.998 38.4375 39.998ZM33.8281 10.5491C33.8281 9.6861 33.1286 8.98657 32.2656 8.98657C31.6195 8.98657 31.0938 8.46087 31.0938 7.8147C31.0938 6.95173 30.3942 6.2522 29.5313 6.2522C28.6683 6.2522 27.9688 6.95173 27.9688 7.8147C27.9688 10.184 29.8963 12.1116 32.2656 12.1116C33.1286 12.1116 33.8281 11.412 33.8281 10.5491ZM12.1875 7.97095C12.1875 7.10798 11.488 6.40845 10.625 6.40845C9.76203 6.40845 9.0625 7.10798 9.0625 7.97095C9.0625 8.61712 8.5368 9.14282 7.89063 9.14282C7.02766 9.14282 6.32812 9.84235 6.32812 10.7053C6.32812 11.5683 7.02766 12.2678 7.89063 12.2678C10.2599 12.2678 12.1875 10.3402 12.1875 7.97095ZM12.1875 23.5959C12.1875 21.2267 10.2599 19.2991 7.89063 19.2991C7.02766 19.2991 6.32812 19.9986 6.32812 20.8616C6.32812 21.7245 7.02766 22.4241 7.89063 22.4241C8.5368 22.4241 9.0625 22.9498 9.0625 23.5959C9.0625 24.4589 9.76203 25.1584 10.625 25.1584C11.488 25.1584 12.1875 24.4589 12.1875 23.5959Z" fill="#00E1AB"/>
</g>
<defs>
<clipPath id="clip0">
<rect width="40" height="40" fill="white"/>
</clipPath>
</defs>
</svg>
