<svg width="40" height="40" viewBox="0 0 40 40" fill="none" xmlns="http://www.w3.org/2000/svg">
<path d="M6.54549 20.4165C6.54549 11.0291 13.4666 3.25292 22.5 1.88142C21.5688 1.73996 20.6149 1.66663 19.644 1.66663C9.25521 1.66663 0.833374 10.0613 0.833374 20.4166C0.833374 30.7719 9.25521 39.1666 19.644 39.1666C20.6149 39.1666 21.5688 39.0932 22.5 38.9517C13.4667 37.5801 6.54549 29.8041 6.54549 20.4165Z" fill="#CEE1F2"/>
<circle cx="20" cy="20" r="18.5" stroke="#0852ED" stroke-width="3"/>
<g clip-path="url(#clip0)">
<path fill-rule="evenodd" clip-rule="evenodd" d="M28.185 18.3326H20.1764C20.1764 19.1655 20.1764 20.8311 20.1713 21.6639H24.8121C24.6342 22.4968 24.0037 23.663 23.1128 24.2502C23.112 24.2494 23.1111 24.2551 23.1094 24.2543C21.925 25.0363 20.3619 25.2138 19.2013 24.9806C17.3821 24.6191 15.9424 23.2998 15.3579 21.6241C15.3613 21.6216 15.3638 21.5985 15.3664 21.5968C15.0005 20.5574 15.0005 19.1655 15.3664 18.3326H15.3655C15.8369 16.8018 17.32 15.4052 19.1418 15.0229C20.607 14.7123 22.2603 15.0486 23.4762 16.1862C23.6378 16.028 25.714 14.0009 25.8697 13.836C21.7157 10.0739 15.0643 11.3973 12.5755 16.2554H12.5746C12.5746 16.2554 12.5754 16.2556 12.5703 16.2648C11.3391 18.6509 11.3902 21.4626 12.5789 23.7347C12.5754 23.7372 12.5729 23.7387 12.5703 23.7412C13.6476 25.8317 15.608 27.4349 17.9701 28.0454C20.4793 28.7033 23.6727 28.2536 25.8118 26.3189C25.8127 26.3197 25.8135 26.3205 25.8144 26.3213C27.6268 24.6889 28.755 21.9081 28.185 18.3326Z" fill="#00E1AB"/>
</g>
<defs>
<clipPath id="clip0">
<rect x="11.6666" y="11.6666" width="16.6667" height="16.6667" fill="white"/>
</clipPath>
</defs>
</svg>
