<svg width="40" height="40" viewBox="0 0 40 40" fill="none" xmlns="http://www.w3.org/2000/svg">
<path d="M20.6087 17.9387L18.9436 18.9282C17.5862 19.7348 15.8594 18.7664 15.8594 17.1987V11.0827C15.8594 9.51484 17.5862 8.54648 18.9436 9.35313L20.6087 10.3427C20.5195 10.5684 20.4688 10.8166 20.4688 11.0827V17.1987C20.4688 17.4647 20.5195 17.7129 20.6087 17.9387ZM6.40625 18.5188V9.3718C6.40625 5.05883 9.89406 1.5625 14.1966 1.5625H9.45312C5.13836 1.5625 1.64062 5.06023 1.64062 9.375V18.5156C1.64062 22.8303 5.13836 26.3281 9.45312 26.3281H14.1966C9.89406 26.3281 6.40625 22.8318 6.40625 18.5188Z" fill="#CEE1F2"/>
<path d="M30.625 27.8906H9.37336C4.20492 27.8906 0 23.6857 0 18.5173V9.375C0 4.20563 4.20563 0 9.375 0H30.625C35.7944 0 40 4.20563 40 9.375V18.5156C40 23.685 35.7944 27.8906 30.625 27.8906ZM9.375 3.125C5.92875 3.125 3.125 5.92875 3.125 9.375V18.5173C3.125 21.9626 5.92805 24.7656 9.37336 24.7656H30.625C34.0713 24.7656 36.875 21.9619 36.875 18.5156V9.375C36.875 5.92875 34.0713 3.125 30.625 3.125H9.375ZM17.8968 20.7848C17.2837 20.7848 16.6704 20.6252 16.1084 20.3055C14.9741 19.6601 14.2969 18.4986 14.2969 17.1987V11.0827C14.2969 9.78266 14.9741 8.62125 16.1084 7.97578C17.2524 7.32492 18.6106 7.33766 19.7418 8.00984L24.8877 11.0679C25.9853 11.7202 26.6406 12.8688 26.6406 14.1406C26.6406 15.4124 25.9853 16.5611 24.8877 17.2134L19.7418 20.2715C19.1663 20.6134 18.5317 20.7848 17.8968 20.7848ZM18.1453 17.5849L23.2912 14.5269C23.4766 14.4166 23.5156 14.2559 23.5156 14.1405C23.5156 14.0252 23.4766 13.8645 23.2912 13.7542L18.1453 10.6962C17.9328 10.5698 17.7462 10.6392 17.6538 10.6917C17.548 10.752 17.4218 10.8686 17.4218 11.0824V17.1984C17.4218 17.4123 17.548 17.5289 17.6538 17.5891C17.7462 17.6419 18.1453 17.5849 18.1453 17.5849ZM16.7969 38.4375V32.1875C16.7969 31.3245 16.0973 30.625 15.2344 30.625C14.3714 30.625 13.6719 31.3245 13.6719 32.1875V38.4375C13.6719 39.3005 14.3714 40 15.2344 40C16.0973 40 16.7969 39.3005 16.7969 38.4375Z" fill="#0852ED"/>
<path d="M38.4375 36.875H21.4844C20.6214 36.875 19.9219 36.1755 19.9219 35.3125C19.9219 34.4495 20.6214 33.75 21.4844 33.75H38.4375C39.3005 33.75 40 34.4495 40 35.3125C40 36.1755 39.3005 36.875 38.4375 36.875ZM10.5469 35.3125C10.5469 34.4495 9.84734 33.75 8.98438 33.75H1.5625C0.699531 33.75 0 34.4495 0 35.3125C0 36.1755 0.699531 36.875 1.5625 36.875H8.98438C9.84734 36.875 10.5469 36.1755 10.5469 35.3125Z" fill="#00E1AB"/>
</svg>
