<svg width="40" height="40" viewBox="0 0 40 40" fill="none" xmlns="http://www.w3.org/2000/svg">
<g clip-path="url(#clip0)">
<path d="M16.6667 12.7271C16.6667 13.3712 16.6667 16.111 16.6667 16.111H13.8889V20.5555H16.6667V32.2222H21.6667V20.5555H25.4634C25.4634 20.5555 25.7962 18.3333 25.9575 16.111C25.4949 16.111 21.6667 16.111 21.6667 16.111C21.6667 16.111 21.6667 13.7267 21.6667 13.288C21.6667 12.8484 22.5074 12.2222 23.0782 12.2222C23.6478 12.2222 25 12.2222 26.1111 12.2222C26.1111 11.6666 26.1111 9.44438 26.1111 7.77771C24.4445 7.77771 22.786 7.77771 22.0406 7.77771C16.4837 7.77771 16.6667 12.0842 16.6667 12.7271H16.6667Z" stroke="#00E1AB" stroke-width="3" stroke-linejoin="round"/>
</g>
<path d="M5.52075 30.625V9.375C5.52075 5.06023 9.01849 1.5625 13.3333 1.5625L29.8918 1.50164L29.8958 1.48438L8.64575 1.5625C4.33099 1.5625 0.833252 5.06023 0.833252 9.375V30.625C0.833252 34.9397 4.33099 38.4375 8.64575 38.4375L12.7128 38.413C8.68817 38.0967 5.52075 34.7309 5.52075 30.625Z" fill="#CEE1F2"/>
<rect x="1.5" y="1.5" width="37" height="37" rx="6.5" stroke="#0852ED" stroke-width="3"/>
<defs>
<clipPath id="clip0">
<rect x="6.66675" y="6.66663" width="26.6667" height="26.6667" fill="white"/>
</clipPath>
</defs>
</svg>
