<svg width="35" height="40" viewBox="0 0 35 40" fill="none" xmlns="http://www.w3.org/2000/svg">
<path d="M28.7435 12.9963C28.0255 13.1795 27.2414 13.2812 26.4192 13.2812C22.9961 13.2812 20.2212 11.5323 20.2212 9.375C20.2212 7.21766 22.9961 5.46875 26.4192 5.46875C27.2414 5.46875 28.0255 5.57055 28.7435 5.75375C26.4724 6.33336 24.8697 7.73578 24.8697 9.375C24.8697 11.0142 26.4724 12.4166 28.7435 12.9963ZM6.2757 22.0312C6.2757 20.3921 7.87843 18.9896 10.1495 18.41C9.43149 18.2268 8.64744 18.125 7.8252 18.125C4.40212 18.125 1.6272 19.8739 1.6272 22.0312C1.6272 24.1886 4.40212 25.9375 7.8252 25.9375C8.64744 25.9375 9.43149 25.8357 10.1495 25.6525C7.87835 25.0729 6.2757 23.6704 6.2757 22.0312Z" fill="#CEE1F2"/>
<path d="M26.4192 14.8438C22.0748 14.8438 18.6717 12.4416 18.6717 9.375C18.6717 6.30844 22.0748 3.90625 26.4192 3.90625C30.7636 3.90625 34.1667 6.30844 34.1667 9.375C34.1667 12.4416 30.7636 14.8438 26.4192 14.8438ZM26.4192 7.03125C25.07 7.03125 23.7719 7.36164 22.8577 7.93781C22.1669 8.3732 21.7707 8.89703 21.7707 9.375C21.7707 9.85297 22.1669 10.3767 22.8577 10.8122C23.7719 11.3884 25.07 11.7188 26.4192 11.7188C27.7683 11.7188 29.0664 11.3884 29.9806 10.8122C30.6715 10.3768 31.0677 9.85297 31.0677 9.375C31.0677 8.89703 30.6715 8.37328 29.9806 7.93781C29.0664 7.36164 27.7683 7.03125 26.4192 7.03125ZM33.4486 37.828C34.1416 37.3218 34.2965 36.3449 33.7946 35.646C33.2927 34.9471 32.3239 34.7909 31.6308 35.2971C28.7637 37.391 23.9196 37.391 21.0525 35.2971C20.3595 34.7909 19.3907 34.9471 18.8887 35.646C18.3867 36.3449 18.5417 37.3218 19.2348 37.828C21.1526 39.2286 23.6765 40 26.3417 40C29.0069 40 31.5307 39.2286 33.4486 37.828ZM33.4486 31.578C34.1416 31.0718 34.2965 30.0949 33.7946 29.396C33.2928 28.6971 32.3239 28.5409 31.6308 29.0471C28.7637 31.141 23.9196 31.141 21.0525 29.0471C20.3595 28.5409 19.3907 28.6971 18.8887 29.396C18.3867 30.0949 18.5417 31.0718 19.2348 31.578C21.1526 32.9786 23.6765 33.75 26.3417 33.75C29.0069 33.75 31.5307 32.9786 33.4486 31.578ZM33.4486 25.2498C34.1416 24.7437 34.2965 23.7668 33.7946 23.0679C33.2928 22.369 32.3239 22.2127 31.6308 22.719C28.7637 24.8129 23.9196 24.8129 21.0525 22.719C20.3595 22.2127 19.3907 22.369 18.8887 23.0679C18.3867 23.7668 18.5417 24.7437 19.2348 25.2498C21.1526 26.6505 23.6765 27.4219 26.3417 27.4219C29.0069 27.4219 31.5307 26.6505 33.4486 25.2498ZM33.4486 18.9217C34.1416 18.4155 34.2965 17.4387 33.7946 16.7398C33.2928 16.0409 32.3239 15.8846 31.6308 16.3909C28.7637 18.4848 23.9196 18.4848 21.0525 16.3909C20.3595 15.8847 19.3907 16.0409 18.8887 16.7398C18.3867 17.4387 18.5417 18.4155 19.2348 18.9217C21.1526 20.3223 23.6765 21.0938 26.3417 21.0938C29.0069 21.0938 31.5307 20.3223 33.4486 18.9217ZM7.82516 27.5C3.48075 27.5 0.077655 25.0978 0.077655 22.0312C0.077655 18.9647 3.48075 16.5625 7.82516 16.5625C12.1696 16.5625 15.5727 18.9647 15.5727 22.0312C15.5727 25.0978 12.1696 27.5 7.82516 27.5ZM7.82516 19.6875C6.47601 19.6875 5.17791 20.0179 4.26371 20.5941C3.57286 21.0295 3.17666 21.5533 3.17666 22.0312C3.17666 22.5092 3.57286 23.033 4.26371 23.4684C5.17791 24.0446 6.47601 24.375 7.82516 24.375C9.17431 24.375 10.4724 24.0446 11.3866 23.4684C12.0775 23.033 12.4737 22.5092 12.4737 22.0312C12.4737 21.5533 12.0775 21.0295 11.3866 20.5941C10.4724 20.0179 9.17431 19.6875 7.82516 19.6875ZM14.8545 37.828C15.5476 37.3218 15.7025 36.3449 15.2006 35.646C14.6987 34.9471 13.7299 34.7909 13.0367 35.2971C10.1697 37.391 5.32558 37.391 2.45854 35.2971C1.76553 34.7909 0.796778 34.9471 0.294663 35.646C-0.207298 36.3449 -0.052348 37.3218 0.640744 37.828C2.55856 39.2286 5.08247 40 7.74768 40C10.4129 40 12.9367 39.2286 14.8545 37.828ZM14.8545 31.578C15.5476 31.0718 15.7025 30.0949 15.2006 29.396C14.6987 28.6971 13.7299 28.5409 13.0367 29.0471C10.1697 31.141 5.32558 31.141 2.45854 29.0471C1.76553 28.5409 0.796778 28.6971 0.294663 29.396C-0.207298 30.0949 -0.052348 31.0718 0.640744 31.578C2.55856 32.9786 5.08247 33.75 7.74768 33.75C10.4129 33.75 12.9367 32.9786 14.8545 31.578Z" fill="#0852ED"/>
<path d="M2.71177 7.1875C2.32052 7.1875 1.92912 7.03906 1.62767 6.74125C1.01623 6.13742 1.00608 5.14813 1.60489 4.53164L4.66213 1.38406C4.66531 1.38078 4.66856 1.3775 4.67174 1.37422C5.54782 0.488125 6.7132 0 7.95288 0C9.19256 0 10.3578 0.488125 11.2339 1.3743L14.3458 4.52187C14.95 5.13305 14.9485 6.12234 14.3424 6.73156C13.7365 7.3407 12.7553 7.33938 12.1511 6.7282L9.03924 3.58063C8.74878 3.2868 8.36296 3.125 7.95288 3.125C7.54451 3.125 7.16031 3.28531 6.87025 3.57664L3.81881 6.71836C3.51534 7.03078 3.11364 7.1875 2.71177 7.1875ZM9.3747 12.6562V7.73438C9.3747 6.87141 8.68099 6.17188 7.8252 6.17188C6.96941 6.17188 6.2757 6.87141 6.2757 7.73438V12.6562C6.2757 13.5192 6.96941 14.2188 7.8252 14.2188C8.68099 14.2188 9.3747 13.5192 9.3747 12.6562Z" fill="#00E1AB"/>
</svg>
