<svg width="40" height="40" viewBox="0 0 40 40" fill="none" xmlns="http://www.w3.org/2000/svg">
<path d="M36.6537 37.7474C36.0064 38.1831 35.227 38.4375 34.388 38.4375C32.1444 38.4375 30.3255 36.6187 30.3255 34.375C30.3255 32.1313 32.1444 30.3125 34.388 30.3125C35.227 30.3125 36.0064 30.567 36.6537 31.0026C35.5698 31.7321 34.8568 32.9702 34.8568 34.375C34.8568 35.7798 35.5698 37.0178 36.6537 37.7474ZM20.5469 34.2969C20.5469 32.8921 21.2599 31.6541 22.3438 30.9245C21.6965 30.4888 20.917 30.2344 20.0781 30.2344C17.8345 30.2344 16.0156 32.0532 16.0156 34.2969C16.0156 36.5405 17.8345 38.3594 20.0781 38.3594C20.917 38.3594 21.6965 38.1049 22.3438 37.6693C21.2599 36.9397 20.5469 35.7016 20.5469 34.2969ZM6.09375 34.375C6.09375 32.9702 6.8068 31.7322 7.89062 31.0026C7.24336 30.567 6.46391 30.3125 5.625 30.3125C3.38133 30.3125 1.5625 32.1313 1.5625 34.375C1.5625 36.6187 3.38133 38.4375 5.625 38.4375C6.46391 38.4375 7.24336 38.183 7.89062 37.7474C6.8068 37.0178 6.09375 35.7798 6.09375 34.375Z" fill="#CEE1F2"/>
<path d="M24.2188 10.1562C24.2188 9.09086 23.7458 8.06063 22.9212 7.32969C22.1356 6.63344 21.0983 6.25 20 6.25C19.2429 6.25 18.6719 5.91414 18.6719 5.46875C18.6719 5.03797 19.0224 4.6875 19.4531 4.6875C20.0081 4.6875 20.6832 4.75031 21.8556 5.20625C22.6599 5.51891 23.5654 5.12055 23.8781 4.31633C24.1909 3.51203 23.7924 2.60648 22.9882 2.29375C22.4875 2.09906 22.0421 1.95586 21.6406 1.85V1.5625C21.6406 0.699531 20.9411 0 20.0781 0C19.2152 0 18.5156 0.699531 18.5156 1.5625V1.67703C16.8131 2.09812 15.5469 3.63805 15.5469 5.46875C15.5469 7.6957 17.4613 9.375 20 9.375C20.5929 9.375 21.0938 9.73281 21.0938 10.1562C21.0938 10.5797 20.7181 10.9375 20.2734 10.9375C19.9469 10.9375 18.8315 10.831 17.6084 10.3449C16.8067 10.0262 15.898 10.4178 15.5793 11.2198C15.2606 12.0217 15.6522 12.9302 16.4542 13.2489C17.1692 13.5331 17.8788 13.7297 18.5157 13.8588V14.0625C18.5157 14.9255 19.2152 15.625 20.0782 15.625C20.9412 15.625 21.6407 14.9255 21.6407 14.0625V13.8204C23.1442 13.2686 24.2188 11.8345 24.2188 10.1562Z" fill="#00E1AB"/>
<path d="M34.4531 26.0156C33.5902 26.0156 32.8906 25.3161 32.8906 24.4531V17.3421C32.8906 14.4427 30.8411 11.8786 28.0173 11.2452C27.1753 11.0563 26.6459 10.2206 26.8348 9.37853C27.0237 8.53658 27.8591 8.00728 28.7014 8.19595C30.7461 8.65462 32.6024 9.80837 33.9281 11.4446C35.2742 13.1059 36.0156 15.2004 36.0156 17.3421V24.4531C36.0156 25.3161 35.3161 26.0156 34.4531 26.0156ZM7.03125 24.4531V17.3421C7.03125 14.4427 9.08078 11.8786 11.9045 11.2452C12.7466 11.0563 13.276 10.2206 13.0871 9.37853C12.8982 8.5365 12.0623 8.00704 11.2205 8.19595C9.17578 8.65462 7.31945 9.80837 5.99375 11.4446C4.64758 13.1059 3.90625 15.2004 3.90625 17.3421V24.4531C3.90625 25.3161 4.60578 26.0156 5.46875 26.0156C6.33172 26.0156 7.03125 25.3161 7.03125 24.4531ZM21.6406 24.2969V19.5313C21.6406 18.6683 20.9411 17.9688 20.0781 17.9688C19.2152 17.9688 18.5156 18.6683 18.5156 19.5313V24.2969C18.5156 25.1599 19.2152 25.8594 20.0781 25.8594C20.9411 25.8594 21.6406 25.1599 21.6406 24.2969ZM25.7031 34.375C25.7031 31.2734 23.1798 28.75 20.0781 28.75C16.9765 28.75 14.4531 31.2734 14.4531 34.375C14.4531 37.4767 16.9765 40 20.0781 40C23.1798 40 25.7031 37.4767 25.7031 34.375ZM22.5781 34.375C22.5781 35.7535 21.4566 36.875 20.0781 36.875C18.6996 36.875 17.5781 35.7535 17.5781 34.375C17.5781 32.9965 18.6996 31.875 20.0781 31.875C21.4566 31.875 22.5781 32.9965 22.5781 34.375ZM40 34.375C40 31.2734 37.4766 28.75 34.375 28.75C31.2734 28.75 28.75 31.2734 28.75 34.375C28.75 37.4767 31.2734 40 34.375 40C37.4766 40 40 37.4767 40 34.375ZM36.875 34.375C36.875 35.7535 35.7535 36.875 34.375 36.875C32.9965 36.875 31.875 35.7535 31.875 34.375C31.875 32.9965 32.9965 31.875 34.375 31.875C35.7535 31.875 36.875 32.9965 36.875 34.375ZM11.25 34.375C11.25 31.2734 8.72664 28.75 5.625 28.75C2.52336 28.75 0 31.2734 0 34.375C0 37.4767 2.52336 40 5.625 40C8.72664 40 11.25 37.4767 11.25 34.375ZM8.125 34.375C8.125 35.7535 7.00352 36.875 5.625 36.875C4.24648 36.875 3.125 35.7535 3.125 34.375C3.125 32.9965 4.24648 31.875 5.625 31.875C7.00352 31.875 8.125 32.9965 8.125 34.375Z" fill="#0852ED"/>
</svg>
