<svg width="40" height="40" viewBox="0 0 40 40" fill="none" xmlns="http://www.w3.org/2000/svg">
<path d="M9.53273 36.4891C8.85861 36.9288 8.05412 37.1853 7.18932 37.1853C4.81653 37.1853 2.89306 35.2618 2.89306 32.889C2.89306 30.5163 4.81653 28.5927 7.18932 28.5927C8.05412 28.5927 8.85861 28.8492 9.53273 29.2889C8.35743 30.0555 7.57989 31.3811 7.57989 32.889C7.57989 34.3969 8.35735 35.7225 9.53273 36.4891ZM7.1112 11.3296C7.976 11.3296 8.7805 11.0731 9.45462 10.6334C8.27932 9.86683 7.50177 8.54123 7.50177 7.03332C7.50177 5.52541 8.27932 4.19982 9.45462 3.43321C8.7805 2.99351 7.976 2.73706 7.1112 2.73706C4.73842 2.73706 2.81494 4.66061 2.81494 7.03332C2.81494 9.40603 4.73842 11.3296 7.1112 11.3296ZM33.5137 32.9671C33.5137 31.4592 34.2912 30.1336 35.4665 29.367C34.7924 28.9273 33.9879 28.6709 33.1231 28.6709C30.7503 28.6709 28.8269 30.5944 28.8269 32.9671C28.8269 35.3399 30.7503 37.2634 33.1231 37.2634C33.9879 37.2634 34.7924 37.0069 35.4665 36.5672C34.2912 35.8006 33.5137 34.475 33.5137 32.9671ZM33.045 11.3296C33.9098 11.3296 34.7143 11.0731 35.3884 10.6334C34.2131 9.86683 33.4356 8.54123 33.4356 7.03332C33.4356 5.52541 34.2131 4.19982 35.3884 3.43321C34.7143 2.99351 33.9098 2.73706 33.045 2.73706C30.6722 2.73706 28.7487 4.66061 28.7487 7.03332C28.7487 9.40603 30.6722 11.3296 33.045 11.3296Z" fill="#CEE1F2"/>
<path d="M33.123 38.8258C29.8926 38.8258 27.2644 36.1977 27.2644 32.9673C27.2644 29.7369 29.8926 27.1087 33.123 27.1087C36.3534 27.1087 38.9815 29.7369 38.9815 32.9673C38.9815 36.1977 36.3534 38.8258 33.123 38.8258ZM33.123 30.2333C31.6154 30.2333 30.389 31.4598 30.389 32.9673C30.389 34.4748 31.6154 35.7013 33.123 35.7013C34.6305 35.7013 35.857 34.4748 35.857 32.9673C35.857 31.4598 34.6305 30.2333 33.123 30.2333ZM7.11103 12.892C3.88063 12.892 1.25248 10.2639 1.25248 7.03348C1.25248 3.80308 3.88063 1.17494 7.11103 1.17494C10.3414 1.17494 12.9696 3.80308 12.9696 7.03348C12.9696 10.2639 10.3414 12.892 7.11103 12.892ZM7.11103 4.29949C5.60351 4.29949 4.37704 5.52596 4.37704 7.03348C4.37704 8.541 5.60351 9.76746 7.11103 9.76746C8.61855 9.76746 9.84502 8.541 9.84502 7.03348C9.84502 5.52596 8.61855 4.29949 7.11103 4.29949ZM33.0449 12.892C29.8144 12.892 27.1863 10.2639 27.1863 7.03348C27.1863 3.80308 29.8144 1.17494 33.0449 1.17494C36.2753 1.17494 38.9034 3.80308 38.9034 7.03348C38.9034 10.2639 36.2753 12.892 33.0449 12.892ZM33.0449 4.29949C31.5373 4.29949 30.3109 5.52596 30.3109 7.03348C30.3109 8.541 31.5373 9.76746 33.0449 9.76746C34.5524 9.76746 35.7788 8.541 35.7788 7.03348C35.7788 5.52596 34.5524 4.29949 33.0449 4.29949ZM7.18914 38.7477C3.95874 38.7477 1.3306 36.1196 1.3306 32.8892C1.3306 29.6588 3.95874 27.0306 7.18914 27.0306C10.4195 27.0306 13.0477 29.6588 13.0477 32.8892C13.0477 36.1196 10.4195 38.7477 7.18914 38.7477ZM7.18914 30.1552C5.68162 30.1552 4.45515 31.3816 4.45515 32.8892C4.45515 34.3967 5.68162 35.6231 7.18914 35.6231C8.69666 35.6231 9.92313 34.3967 9.92313 32.8892C9.92313 31.3816 8.69666 30.1552 7.18914 30.1552ZM39.5828 24.0818C40.1429 21.3749 40.1388 18.6308 39.5705 15.9257C39.3931 15.0812 38.5647 14.5405 37.7204 14.7179C36.8759 14.8953 36.3352 15.7236 36.5126 16.5681C36.992 18.8502 36.9955 21.1652 36.5231 23.4489C36.3483 24.2937 36.8915 25.1204 37.7365 25.2952C37.8433 25.3174 37.9496 25.328 38.0546 25.328C38.7799 25.3279 39.4302 24.8199 39.5828 24.0818ZM24.0812 39.5834C24.9262 39.4087 25.4694 38.5821 25.2946 37.7371C25.1199 36.8922 24.293 36.3484 23.4482 36.5237C21.1645 36.9961 18.8494 36.9926 16.5674 36.5132C15.723 36.3362 14.8947 36.8766 14.7174 37.721C14.54 38.5654 15.0808 39.3936 15.9251 39.5711C17.2877 39.8573 18.6598 40.0003 20.0325 40.0003C21.3849 40.0003 22.7379 39.8613 24.0812 39.5834ZM25.2822 2.2797C25.4596 1.43529 24.9188 0.60705 24.0745 0.429576C21.3694 -0.138546 18.6253 -0.142687 15.9184 0.417234C15.0734 0.591974 14.5302 1.41858 14.705 2.26361C14.8798 3.10849 15.7066 3.65208 16.5513 3.47695C18.8351 3.00468 21.1502 3.00811 23.4322 3.4875C23.5405 3.51023 23.6484 3.52117 23.7548 3.52117C24.4783 3.52109 25.1276 3.01577 25.2822 2.2797ZM2.27921 25.2828C3.12362 25.1054 3.66433 24.2771 3.48693 23.4327C3.00755 21.1505 3.00403 18.8355 3.47646 16.5519C3.65128 15.707 3.10808 14.8803 2.26312 14.7055C1.41761 14.5303 0.591482 15.074 0.416741 15.9188C-0.143336 18.6258 -0.139196 21.3699 0.429083 24.075C0.58367 24.8112 1.23303 25.3165 1.95644 25.3165C2.06284 25.3164 2.17095 25.3056 2.27921 25.2828Z" fill="#0852ED"/>
<path d="M24.7649 22.7927C24.7649 21.6333 24.2699 20.5561 23.3712 19.7594C22.5233 19.008 21.4024 18.5941 20.2148 18.5941C19.2463 18.5941 18.5158 18.1324 18.5158 17.5201C18.5158 16.9278 19.002 16.446 19.5997 16.446C20.1432 16.446 20.9529 16.5182 22.4021 17.0818C23.2063 17.3946 24.1116 16.9961 24.4244 16.192C24.7371 15.3879 24.3387 14.4824 23.5346 14.1697C22.9117 13.9275 22.3396 13.7415 21.7966 13.6056V12.7355C21.7966 11.8726 21.0972 11.1732 20.2343 11.1732C19.3715 11.1732 18.6721 11.8726 18.6721 12.7355V13.4254C16.7966 13.8482 15.3913 15.5229 15.3913 17.52C15.3913 19.9136 17.465 21.7186 20.2148 21.7186C21.0009 21.7186 21.6404 22.2004 21.6404 22.7927C21.6404 23.3749 21.1284 23.8667 20.5224 23.8667C20.0259 23.8667 18.7533 23.674 17.4525 23.157C16.6506 22.8384 15.7423 23.2299 15.4236 24.0318C15.1049 24.8335 15.4966 25.7419 16.2984 26.0606C17.0814 26.3718 17.8757 26.5991 18.594 26.7515V27.499C18.594 28.3619 19.2934 29.0613 20.1562 29.0613C21.0191 29.0613 21.7185 28.3619 21.7185 27.499V26.8203C23.4771 26.3079 24.7649 24.6968 24.7649 22.7927Z" fill="#00E1AB"/>
</svg>
