<svg width="40" height="40" viewBox="0 0 40 40" fill="none" xmlns="http://www.w3.org/2000/svg">
<path d="M6.25 30.625V9.375C6.25 5.06023 9.74773 1.5625 14.0625 1.5625L30.6211 1.50164L30.625 1.48438L9.375 1.5625C5.06023 1.5625 1.5625 5.06023 1.5625 9.375V30.625C1.5625 34.9397 5.06023 38.4375 9.375 38.4375L13.442 38.413C9.41742 38.0967 6.25 34.7309 6.25 30.625Z" fill="#CEE1F2"/>
<path d="M30.625 40H9.375C4.20563 40 0 35.7944 0 30.625V9.375C0 4.20563 4.20563 0 9.375 0H30.625C35.7944 0 40 4.20563 40 9.375V30.625C40 35.7944 35.7944 40 30.625 40ZM9.375 3.125C5.92875 3.125 3.125 5.92875 3.125 9.375V30.625C3.125 34.0713 5.92875 36.875 9.375 36.875H30.625C34.0713 36.875 36.875 34.0713 36.875 30.625V9.375C36.875 5.92875 34.0713 3.125 30.625 3.125H9.375ZM33.75 10.0781C33.75 9.21516 33.0505 8.51562 32.1875 8.51562H7.8125C6.94953 8.51562 6.25 9.21516 6.25 10.0781C6.25 10.9411 6.94953 11.6406 7.8125 11.6406H32.1875C33.0505 11.6406 33.75 10.9411 33.75 10.0781ZM33.8281 24.6875C33.8281 23.8245 33.1286 23.125 32.2656 23.125H23.125C22.262 23.125 21.5625 23.8245 21.5625 24.6875C21.5625 25.5505 22.262 26.25 23.125 26.25H32.2656C33.1286 26.25 33.8281 25.5505 33.8281 24.6875ZM18.5156 24.6875C18.5156 23.8245 17.8161 23.125 16.9531 23.125H7.8125C6.94953 23.125 6.25 23.8245 6.25 24.6875C6.25 25.5505 6.94953 26.25 7.8125 26.25H16.9531C17.8161 26.25 18.5156 25.5505 18.5156 24.6875ZM18.5156 30.9375C18.5156 30.0745 17.8161 29.375 16.9531 29.375H7.8125C6.94953 29.375 6.25 30.0745 6.25 30.9375C6.25 31.8005 6.94953 32.5 7.8125 32.5H16.9531C17.8161 32.5 18.5156 31.8005 18.5156 30.9375ZM30.625 30.9375C30.625 30.0745 29.9255 29.375 29.0625 29.375H23.125C22.262 29.375 21.5625 30.0745 21.5625 30.9375C21.5625 31.8005 22.262 32.5 23.125 32.5H29.0625C29.9255 32.5 30.625 31.8005 30.625 30.9375Z" fill="#0852ED"/>
<path d="M32.2656 20H14.7656C13.9027 20 13.2031 19.3005 13.2031 18.4375C13.2031 17.5745 13.9027 16.875 14.7656 16.875H32.2656C33.1286 16.875 33.8281 17.5745 33.8281 18.4375C33.8281 19.3005 33.1286 20 32.2656 20ZM6.25 18.2812C6.25 19.3599 7.12445 20.2344 8.20312 20.2344C9.2818 20.2344 10.1562 19.3599 10.1562 18.2812C10.1562 17.2026 9.2818 16.3281 8.20312 16.3281C7.12445 16.3281 6.25 17.2026 6.25 18.2812Z" fill="#00E1AB"/>
</svg>
