<svg width="40" height="40" viewBox="0 0 40 40" fill="none" xmlns="http://www.w3.org/2000/svg">
<path d="M6.25 20C6.25 10.6112 13.2677 2.86156 22.3438 1.71016C21.5763 1.61273 20.794 1.5625 20 1.5625C9.81727 1.5625 1.5625 9.81727 1.5625 20C1.5625 30.1827 9.81727 38.4375 20 38.4375C20.794 38.4375 21.5763 38.3873 22.3438 38.2898C13.2677 37.1384 6.25 29.3888 6.25 20Z" fill="#CEE1F2"/>
<path d="M34.1422 5.85781C30.3646 2.08039 25.3422 0 20 0C14.6578 0 9.63539 2.08039 5.85781 5.85781C2.08039 9.63539 0 14.6578 0 20C0 25.3422 2.08039 30.3646 5.85781 34.1422C9.63539 37.9196 14.6578 40 20 40C25.3422 40 30.3646 37.9196 34.1422 34.1422C37.9196 30.3646 40 25.3422 40 20C40 14.6578 37.9196 9.63539 34.1422 5.85781ZM21.5625 36.802V33.5156C21.5625 32.6527 20.863 31.9531 20 31.9531C19.137 31.9531 18.4375 32.6527 18.4375 33.5156V36.802C10.3771 36.0584 3.94164 29.6228 3.19797 21.5625H6.48438C7.34734 21.5625 8.04688 20.863 8.04688 20C8.04688 19.137 7.34734 18.4375 6.48438 18.4375H3.19797C3.94164 10.3771 10.3771 3.94164 18.4375 3.19797V6.40625C18.4375 7.26922 19.137 7.96875 20 7.96875C20.863 7.96875 21.5625 7.26922 21.5625 6.40625V3.19797C29.6229 3.94164 36.0584 10.3771 36.802 18.4375H33.5156C32.6527 18.4375 31.9531 19.137 31.9531 20C31.9531 20.863 32.6527 21.5625 33.5156 21.5625H36.802C36.0584 29.6228 29.6229 36.0584 21.5625 36.802ZM20.0391 10.395C17.4544 10.395 15.3516 12.4978 15.3516 15.0825C15.3516 17.6672 17.4544 19.77 20.0391 19.77C22.6238 19.77 24.7266 17.6672 24.7266 15.0825C24.7266 12.4978 22.6238 10.395 20.0391 10.395ZM20.0391 16.645C19.1775 16.645 18.4766 15.9441 18.4766 15.0825C18.4766 14.2209 19.1775 13.52 20.0391 13.52C20.9006 13.52 21.6016 14.2209 21.6016 15.0825C21.6016 15.9441 20.9006 16.645 20.0391 16.645Z" fill="#0852ED"/>
<path d="M25.5469 30.1432C24.6839 30.1432 23.9844 29.4437 23.9844 28.5807C23.9844 26.6949 22.4399 25.1606 20.5416 25.1606H19.5366C17.6382 25.1606 16.0938 26.6949 16.0938 28.5807C16.0938 29.4437 15.3942 30.1432 14.5312 30.1432C13.6683 30.1432 12.9688 29.4437 12.9688 28.5807C12.9688 24.9718 15.9151 22.0356 19.5366 22.0356H20.5416C24.163 22.0356 27.1094 24.9718 27.1094 28.5807C27.1094 29.4437 26.4098 30.1432 25.5469 30.1432Z" fill="#00E1AB"/>
</svg>
