<svg width="34" height="40" viewBox="0 0 34 40" fill="none" xmlns="http://www.w3.org/2000/svg">
<path d="M6.28925 30.6282V9.3718C6.28925 5.05883 9.799 1.5625 14.1286 1.5625H9.35529C5.01339 1.5625 1.49365 5.06023 1.49365 9.375V30.625C1.49365 34.9397 5.01339 38.4375 9.35529 38.4375H14.1286C9.799 38.4375 6.28925 34.9412 6.28925 30.6282Z" fill="#CEE1F2"/>
<path d="M23.8994 40H9.43396C4.23208 40 0 35.7944 0 30.625V9.375C0 4.20563 4.23208 0 9.43396 0H23.8994C29.1013 0 33.3333 4.20563 33.3333 9.375V30.625C33.3333 35.7944 29.1013 40 23.8994 40ZM9.43396 3.125C5.96604 3.125 3.14465 5.92875 3.14465 9.375V30.625C3.14465 34.0713 5.96604 36.875 9.43396 36.875H23.8994C27.3673 36.875 30.1887 34.0713 30.1887 30.625V9.375C30.1887 5.92875 27.3673 3.125 23.8994 3.125H9.43396ZM26.9654 14.375C26.9654 13.512 26.2615 12.8125 25.3931 12.8125H22.7201C21.4197 12.8125 20.3616 11.7611 20.3616 10.4688V7.8125C20.3616 6.94953 19.6577 6.25 18.7893 6.25C17.9209 6.25 17.217 6.94953 17.217 7.8125V10.4688C17.217 13.4842 19.6857 15.9375 22.7201 15.9375H25.3931C26.2615 15.9375 26.9654 15.238 26.9654 14.375ZM21.2264 31.0156V22.5781C21.2264 21.7152 20.5225 21.0156 19.6541 21.0156C18.7857 21.0156 18.0818 21.7152 18.0818 22.5781V31.0156C18.0818 31.8786 18.7857 32.5781 19.6541 32.5781C20.5225 32.5781 21.2264 31.8786 21.2264 31.0156ZM27.044 31.0156V27.2656C27.044 26.4027 26.3401 25.7031 25.4717 25.7031C24.6033 25.7031 23.8994 26.4027 23.8994 27.2656V31.0156C23.8994 31.8786 24.6033 32.5781 25.4717 32.5781C26.3401 32.5781 27.044 31.8786 27.044 31.0156ZM9.43396 31.0156V24.9219C9.43396 24.0589 8.73003 23.3594 7.86164 23.3594C6.99324 23.3594 6.28931 24.0589 6.28931 24.9219V31.0156C6.28931 31.8786 6.99324 32.5781 7.86164 32.5781C8.73003 32.5781 9.43396 31.8786 9.43396 31.0156Z" fill="#0852ED"/>
<path d="M13.7579 32.5781C12.8895 32.5781 12.1855 31.8786 12.1855 31.0156V17.8906C12.1855 17.0277 12.8895 16.3281 13.7579 16.3281C14.6263 16.3281 15.3302 17.0277 15.3302 17.8906V31.0156C15.3302 31.8786 14.6263 32.5781 13.7579 32.5781Z" fill="#00E1AB"/>
</svg>
