<svg width="48" height="48" viewBox="0 0 48 48" fill="none" xmlns="http://www.w3.org/2000/svg">
<path d="M24.75 35.25H27" stroke="#7DE2D1"/>
<path d="M24.75 38.25H27" stroke="#7DE2D1"/>
<path d="M24.75 41.25H27" stroke="#7DE2D1"/>
<path d="M24.75 44.25H27" stroke="#7DE2D1"/>
<path d="M3.75 39.75H9.75" stroke="#7DE2D1"/>
<path d="M3.75 33.75H9.75" stroke="#7DE2D1"/>
<path d="M3.75 36.75H9.75" stroke="#7DE2D1"/>
<path d="M14.25 39.75H20.25" stroke="#7DE2D1" stroke-linejoin="round"/>
<path d="M24.75 0.75H32.25V47.25H24.75V0.75Z" stroke="#7DE2D1"/>
<path d="M24.75 14.25H27" stroke="#7DE2D1"/>
<path d="M24.75 11.25H27" stroke="#7DE2D1"/>
<path d="M24.75 17.25H27" stroke="#7DE2D1"/>
<path d="M24.75 20.25H27" stroke="#7DE2D1"/>
<path d="M24.75 23.25H27" stroke="#7DE2D1"/>
<path d="M24.75 26.25H27" stroke="#7DE2D1"/>
<path d="M24.75 29.25H27" stroke="#7DE2D1"/>
<path d="M24.75 32.25H27" stroke="#7DE2D1"/>
<path d="M9.75 42.75L6.75 47.25L3.75 42.75V0.75H9.75V42.75Z" stroke="#7DE2D1" stroke-linejoin="round"/>
<path d="M3.75 27.75H9.75" stroke="#7DE2D1"/>
<path d="M3.75 30.75H9.75" stroke="#7DE2D1"/>
<path d="M0.75 19.5V5.25H9.75" stroke="#7DE2D1" stroke-linejoin="round"/>
<path d="M17.25 39.75V5.25" stroke="#7DE2D1" stroke-linejoin="round"/>
<path d="M14.25 5.25H20.25" stroke="#7DE2D1" stroke-linejoin="round"/>
<path d="M20.25 3.75C20.25 2.09325 18.9068 0.75 17.25 0.75C15.5932 0.75 14.25 2.09325 14.25 3.75V42.75L17.25 47.25L20.25 42.75V3.75Z" stroke="#7DE2D1" stroke-linejoin="round"/>
<path d="M29.0303 5.46967C29.3232 5.76256 29.3232 6.23744 29.0303 6.53033C28.7374 6.82322 28.2626 6.82322 27.9697 6.53033C27.6768 6.23743 27.6768 5.76256 27.9697 5.46967C28.2626 5.17678 28.7374 5.17678 29.0303 5.46967" stroke="#7DE2D1"/>
<path d="M47.25 45.75C47.25 46.578 46.578 47.25 45.75 47.25H38.25C37.422 47.25 36.75 46.578 36.75 45.75V32.25C36.75 31.422 37.422 30.75 38.25 30.75H45.75C46.578 30.75 47.25 31.422 47.25 32.25V45.75Z" stroke="#7DE2D1"/>
<path d="M42 33V36" stroke="#222829" stroke-width="2"/>
<path d="M42 28.5V25.5C42 24.258 43.0073 23.25 44.25 23.25H45C46.2427 23.25 47.25 22.242 47.25 21C47.25 19.758 46.2427 18.75 45 18.75H39C37.7573 18.75 36.75 17.742 36.75 16.5C36.75 15.258 37.7573 14.25 39 14.25H45C46.2427 14.25 47.25 13.242 47.25 12C47.25 10.758 46.2427 9.75 45 9.75H39C37.7573 9.75 36.75 8.742 36.75 7.5C36.75 6.258 37.7573 5.25 39 5.25H39.75C40.9927 5.25 42 4.242 42 3V0" stroke="#7DE2D1"/>
</svg>
