<svg width="344" height="99" viewBox="0 0 344 99" fill="none" xmlns="http://www.w3.org/2000/svg">
<circle cx="339.7" cy="94.5999" r="4.3" transform="rotate(-180 339.7 94.5999)" fill="#044468"/>
<circle cx="302.433" cy="94.5999" r="4.3" transform="rotate(-180 302.433 94.5999)" fill="#044468"/>
<circle cx="265.167" cy="94.5999" r="4.3" transform="rotate(-180 265.167 94.5999)" fill="#044468"/>
<circle cx="227.9" cy="94.5999" r="4.3" transform="rotate(-180 227.9 94.5999)" fill="#044468"/>
<circle cx="190.633" cy="94.5999" r="4.3" transform="rotate(-180 190.633 94.5999)" fill="#044468"/>
<circle cx="153.367" cy="94.5999" r="4.3" transform="rotate(-180 153.367 94.5999)" fill="#044468"/>
<circle cx="116.1" cy="94.5999" r="4.3" transform="rotate(-180 116.1 94.5999)" fill="#044468"/>
<circle cx="78.8333" cy="94.5999" r="4.3" transform="rotate(-180 78.8333 94.5999)" fill="#044468"/>
<circle cx="41.5667" cy="94.5999" r="4.3" transform="rotate(-180 41.5667 94.5999)" fill="#044468"/>
<circle cx="4.3001" cy="94.5999" r="4.3" transform="rotate(-180 4.3001 94.5999)" fill="#044468"/>
<circle cx="339.7" cy="64.4998" r="4.3" transform="rotate(-180 339.7 64.4998)" fill="#044468"/>
<circle cx="302.433" cy="64.4998" r="4.3" transform="rotate(-180 302.433 64.4998)" fill="#044468"/>
<circle cx="265.167" cy="64.4998" r="4.3" transform="rotate(-180 265.167 64.4998)" fill="#044468"/>
<circle cx="227.9" cy="64.4998" r="4.3" transform="rotate(-180 227.9 64.4998)" fill="#044468"/>
<circle cx="190.633" cy="64.4998" r="4.3" transform="rotate(-180 190.633 64.4998)" fill="#044468"/>
<circle cx="153.367" cy="64.4998" r="4.3" transform="rotate(-180 153.367 64.4998)" fill="#044468"/>
<circle cx="116.1" cy="64.4998" r="4.3" transform="rotate(-180 116.1 64.4998)" fill="#044468"/>
<circle cx="78.8333" cy="64.4998" r="4.3" transform="rotate(-180 78.8333 64.4998)" fill="#044468"/>
<circle cx="41.5667" cy="64.4998" r="4.3" transform="rotate(-180 41.5667 64.4998)" fill="#044468"/>
<circle cx="4.3001" cy="64.4998" r="4.3" transform="rotate(-180 4.3001 64.4998)" fill="#044468"/>
<circle cx="339.7" cy="34.3997" r="4.3" transform="rotate(-180 339.7 34.3997)" fill="#044468"/>
<circle cx="302.433" cy="34.3997" r="4.3" transform="rotate(-180 302.433 34.3997)" fill="#044468"/>
<circle cx="265.167" cy="34.3997" r="4.3" transform="rotate(-180 265.167 34.3997)" fill="#044468"/>
<circle cx="227.9" cy="34.3997" r="4.3" transform="rotate(-180 227.9 34.3997)" fill="#044468"/>
<circle cx="190.633" cy="34.3997" r="4.3" transform="rotate(-180 190.633 34.3997)" fill="#044468"/>
<circle cx="153.367" cy="34.3997" r="4.3" transform="rotate(-180 153.367 34.3997)" fill="#044468"/>
<circle cx="116.1" cy="34.3997" r="4.3" transform="rotate(-180 116.1 34.3997)" fill="#044468"/>
<circle cx="78.8333" cy="34.3997" r="4.3" transform="rotate(-180 78.8333 34.3997)" fill="#044468"/>
<circle cx="41.5667" cy="34.3997" r="4.3" transform="rotate(-180 41.5667 34.3997)" fill="#044468"/>
<circle cx="4.3001" cy="34.3997" r="4.3" transform="rotate(-180 4.3001 34.3997)" fill="#044468"/>
<circle cx="339.7" cy="4.3001" r="4.3" transform="rotate(-180 339.7 4.3001)" fill="#044468"/>
<circle cx="302.433" cy="4.3001" r="4.3" transform="rotate(-180 302.433 4.3001)" fill="#044468"/>
<circle cx="265.167" cy="4.3001" r="4.3" transform="rotate(-180 265.167 4.3001)" fill="#044468"/>
<circle cx="227.9" cy="4.3001" r="4.3" transform="rotate(-180 227.9 4.3001)" fill="#044468"/>
<circle cx="190.633" cy="4.3001" r="4.3" transform="rotate(-180 190.633 4.3001)" fill="#044468"/>
<circle cx="153.367" cy="4.3001" r="4.3" transform="rotate(-180 153.367 4.3001)" fill="#044468"/>
<circle cx="116.1" cy="4.3001" r="4.3" transform="rotate(-180 116.1 4.3001)" fill="#044468"/>
<circle cx="78.8333" cy="4.3001" r="4.3" transform="rotate(-180 78.8333 4.3001)" fill="#044468"/>
<circle cx="41.5667" cy="4.3001" r="4.3" transform="rotate(-180 41.5667 4.3001)" fill="#044468"/>
<circle cx="4.3001" cy="4.3001" r="4.3" transform="rotate(-180 4.3001 4.3001)" fill="#044468"/>
</svg>
